<svg width="746" height="327" viewBox="0 0 746 327" fill="none" xmlns="http://www.w3.org/2000/svg">
<path d="M745.784 0L0 25.3046L32.0539 288.302L663.192 326.5L745.784 0Z" fill="#968CFF"/>
<path d="M129.305 200.059L119.661 120.349H134.619L139.342 166.798L145.345 120.448H157.055L163.353 166.502L168.175 120.349H182.936L173.391 200.059H158.039L151.249 151.938L144.853 200.059H129.305ZM191.819 200.059V120.349H209.434V152.627H221.833V120.349H239.448V200.059H221.833V165.223H209.434V200.059H191.819ZM261.624 200.059V167.486L246.47 120.349H263.1L270.678 145.542L277.468 120.349H293.41L278.55 167.486V200.059H261.624ZM325.296 200.059V120.349H361.116V132.355H342.911V152.135H356.786V164.337H342.911V188.152H361.313V200.059H325.296ZM369.015 200.059L370.392 120.349H389.286L398.045 166.699L407.492 120.349H425.697L427.075 200.059H414.577L413.101 147.018L403.851 200.059H392.731L382.89 146.624L381.709 200.059H369.015ZM434.76 200.059L449.817 120.349H469.892L484.751 200.059H468.514L465.857 183.232H454.147L451.391 200.059H434.76ZM455.721 172.702H464.184L459.953 141.605L455.721 172.702ZM492.897 200.059V120.349H510.512V200.059H492.897ZM522.398 200.059V120.349H540.013V188.152H558.316V200.059H522.398ZM572.818 179.098V166.404C575.77 164.108 578.394 161.549 580.69 158.728C583.052 155.907 584.922 152.922 586.299 149.773C587.677 146.559 588.366 143.246 588.366 139.834C588.366 137.407 587.907 135.668 586.988 134.618C586.135 133.503 584.856 132.946 583.15 132.946C581.641 132.946 580.428 133.405 579.509 134.323C578.591 135.242 578.132 136.521 578.132 138.161C578.132 139.211 578.23 140.162 578.427 141.015C578.689 141.802 578.984 142.655 579.312 143.574L564.847 146.919C564.322 145.345 563.895 143.836 563.567 142.393C563.305 140.884 563.174 139.309 563.174 137.669C563.174 131.896 564.912 127.402 568.389 124.187C571.932 120.907 576.983 119.267 583.544 119.267C590.17 119.267 595.254 121.006 598.797 124.483C602.405 127.96 604.209 132.913 604.209 139.342C604.209 143.278 603.553 147.018 602.241 150.56C600.929 154.103 598.994 157.449 596.435 160.598C593.942 163.747 590.892 166.699 587.283 169.455V179.098H572.818ZM572.326 200.059V184.806H587.874V200.059H572.326Z" fill="white"/>
</svg>
