<svg width="145" height="31" viewBox="0 0 145 31" fill="none" xmlns="http://www.w3.org/2000/svg">
<rect x="4.14133" width="140.582" height="29.821" rx="8.88286" fill="#3CB9FC"/>
<path d="M119.848 6.85376H127.372L134.475 14.589L127.372 22.3243H119.848L126.987 14.589L119.848 6.85376Z" fill="white"/>
<path d="M19.0579 22.2149C18.1763 22.2149 17.4396 22.0583 16.848 21.7451C16.2564 21.4319 15.8098 20.9505 15.5082 20.3008C15.2066 19.6396 15.0384 18.787 15.0036 17.743L17.6658 17.3427C17.6774 17.946 17.7296 18.4332 17.8225 18.8044C17.9269 19.1756 18.0661 19.4424 18.2401 19.6048C18.4257 19.7672 18.6461 19.8484 18.9013 19.8484C19.2261 19.8484 19.4349 19.7382 19.5277 19.5178C19.6321 19.2974 19.6843 19.0654 19.6843 18.8218C19.6843 18.2418 19.5451 17.7546 19.2667 17.3601C18.9883 16.9541 18.6113 16.5481 18.1357 16.1421L16.9176 15.0807C16.384 14.6283 15.9316 14.1178 15.5604 13.5494C15.2008 12.9694 15.021 12.256 15.021 11.4091C15.021 10.2143 15.3748 9.30368 16.0824 8.67726C16.79 8.03923 17.7528 7.72022 18.9709 7.72022C19.7249 7.72022 20.3281 7.84783 20.7806 8.10304C21.2446 8.35825 21.5926 8.69466 21.8246 9.11227C22.0682 9.51828 22.2306 9.9533 22.3118 10.4173C22.4046 10.8697 22.4568 11.3047 22.4684 11.7224L19.7887 12.053C19.7771 11.6354 19.7481 11.2757 19.7017 10.9741C19.6669 10.6609 19.5857 10.4231 19.4581 10.2607C19.3305 10.0867 19.1333 9.9997 18.8665 9.9997C18.5765 9.9997 18.3619 10.1215 18.2227 10.3651C18.0951 10.6087 18.0313 10.8523 18.0313 11.0959C18.0313 11.618 18.1531 12.0472 18.3967 12.3836C18.6519 12.7084 18.9825 13.0506 19.3885 13.4102L20.5543 14.4368C21.1692 14.9589 21.6854 15.5505 22.103 16.2117C22.5322 16.8729 22.7468 17.6908 22.7468 18.6652C22.7468 19.3264 22.596 19.9296 22.2944 20.4749C21.9928 21.0085 21.5636 21.4319 21.0068 21.7451C20.4615 22.0583 19.8119 22.2149 19.0579 22.2149ZM24.2724 22.0061V7.91163H27.3871V22.0061H24.2724ZM33.1602 22.2149C32.1858 22.2149 31.4144 22.0119 30.846 21.6059C30.2892 21.1999 29.8889 20.6315 29.6453 19.9006C29.4133 19.1582 29.2973 18.3056 29.2973 17.3427V12.6098C29.2973 11.6122 29.4249 10.7479 29.6801 10.0171C29.9353 9.28628 30.3704 8.72366 30.9852 8.32924C31.6116 7.92323 32.4584 7.72022 33.5257 7.72022C34.5697 7.72022 35.3875 7.89423 35.9791 8.24224C36.5824 8.59025 37.0116 9.07167 37.2668 9.68649C37.522 10.3013 37.6496 11.0205 37.6496 11.8442V12.749H34.6045V11.6006C34.6045 11.2989 34.5813 11.0205 34.5349 10.7653C34.5001 10.5101 34.4073 10.3071 34.2565 10.1563C34.1173 9.9939 33.8853 9.9127 33.5605 9.9127C33.2241 9.9127 32.9804 10.0055 32.8296 10.1911C32.6788 10.3651 32.5802 10.5855 32.5338 10.8523C32.499 11.1191 32.4816 11.3975 32.4816 11.6876V18.2128C32.4816 18.526 32.5106 18.8218 32.5686 19.1002C32.6382 19.367 32.7542 19.5874 32.9166 19.7614C33.0906 19.9238 33.3343 20.005 33.6475 20.005C33.9723 20.005 34.2217 19.918 34.3957 19.744C34.5697 19.57 34.6915 19.3438 34.7611 19.0654C34.8307 18.787 34.8655 18.4912 34.8655 18.178V16.5249H33.5953V14.6979H37.667V22.0061H35.6137L35.4397 20.8403C35.2541 21.2347 34.9815 21.5653 34.6219 21.8321C34.2623 22.0873 33.7751 22.2149 33.1602 22.2149ZM39.6164 22.0061V7.91163H41.8089L44.6974 14.6979V7.91163H47.2727V22.0061H45.1672L42.2787 14.6979V22.0061H39.6164ZM57.8941 22.2149C56.8153 22.2149 55.9684 22.0409 55.3536 21.6929C54.7504 21.3333 54.327 20.8171 54.0834 20.1442C53.8398 19.4598 53.718 18.6246 53.718 17.6386V7.91163H56.7979V18.1084C56.7979 18.3984 56.8211 18.6884 56.8675 18.9784C56.9139 19.2684 57.0125 19.5062 57.1633 19.6918C57.3257 19.8774 57.5693 19.9702 57.8941 19.9702C58.2305 19.9702 58.4741 19.8774 58.6249 19.6918C58.7757 19.5062 58.8685 19.2684 58.9033 18.9784C58.9497 18.6884 58.9729 18.3984 58.9729 18.1084V7.91163H62.0702V17.6386C62.0702 18.6246 61.9426 19.4598 61.6874 20.1442C61.4438 20.8171 61.0204 21.3333 60.4172 21.6929C59.814 22.0409 58.9729 22.2149 57.8941 22.2149ZM64.052 22.0061V7.91163H68.785C69.6318 7.91163 70.3278 8.07404 70.873 8.39885C71.4182 8.71206 71.8243 9.17607 72.0911 9.79089C72.3579 10.3941 72.4913 11.1307 72.4913 12.0008C72.4913 13.0912 72.3115 13.9264 71.9519 14.5065C71.5922 15.0749 71.105 15.4693 70.4902 15.6897C69.8754 15.9101 69.1852 16.0203 68.4195 16.0203H67.1667V22.0061H64.052ZM67.1667 13.8452H68.2107C68.5935 13.8452 68.8836 13.7756 69.0808 13.6364C69.278 13.4972 69.4056 13.2884 69.4636 13.01C69.5332 12.7316 69.568 12.3778 69.568 11.9486C69.568 11.589 69.539 11.2757 69.481 11.0089C69.4346 10.7305 69.3128 10.5101 69.1156 10.3477C68.9184 10.1853 68.6109 10.1041 68.1933 10.1041H67.1667V13.8452ZM78.4449 22.0061V7.91163H80.6373L83.5258 14.6979V7.91163H86.1011V22.0061H83.9956L81.1071 14.6979V22.0061H78.4449ZM92.2356 22.2149C91.18 22.2149 90.3448 22.0293 89.7299 21.6581C89.1151 21.2869 88.6743 20.7533 88.4075 20.0572C88.1407 19.3612 88.0073 18.5318 88.0073 17.569V12.3314C88.0073 11.3569 88.1407 10.5275 88.4075 9.84309C88.6743 9.15867 89.1151 8.63665 89.7299 8.27704C90.3448 7.90583 91.18 7.72022 92.2356 7.72022C93.3029 7.72022 94.1439 7.90583 94.7587 8.27704C95.3851 8.63665 95.8318 9.15867 96.0986 9.84309C96.3654 10.5275 96.4988 11.3569 96.4988 12.3314V17.569C96.4988 18.5318 96.3654 19.3612 96.0986 20.0572C95.8318 20.7533 95.3851 21.2869 94.7587 21.6581C94.1439 22.0293 93.3029 22.2149 92.2356 22.2149ZM92.2356 20.005C92.5604 20.005 92.7983 19.9238 92.9491 19.7614C93.0999 19.599 93.1985 19.3902 93.2449 19.135C93.2913 18.8798 93.3145 18.6188 93.3145 18.352V11.5658C93.3145 11.2873 93.2913 11.0263 93.2449 10.7827C93.1985 10.5275 93.0999 10.3187 92.9491 10.1563C92.7983 9.9939 92.5604 9.9127 92.2356 9.9127C91.934 9.9127 91.7078 9.9939 91.557 10.1563C91.4062 10.3187 91.3076 10.5275 91.2612 10.7827C91.2148 11.0263 91.1916 11.2873 91.1916 11.5658V18.352C91.1916 18.6188 91.209 18.8798 91.2438 19.135C91.2902 19.3902 91.383 19.599 91.5222 19.7614C91.673 19.9238 91.9108 20.005 92.2356 20.005ZM99.5254 22.0061L97.8201 7.91163H100.465L101.3 16.1247L102.362 7.92903H104.432L105.546 16.0725L106.399 7.91163H109.009L107.321 22.0061H104.606L103.406 13.4972L102.275 22.0061H99.5254Z" fill="white"/>
</svg>
