<svg width="482" height="98" viewBox="0 0 482 98" fill="none" xmlns="http://www.w3.org/2000/svg">
<rect width="482" height="97.2582" rx="29.3209" fill="#3CB9FC"/>
<path d="M399.889 21.9414H424.723L448.172 47.4743L424.723 73.0071H399.889L423.453 47.4743L399.889 21.9414Z" fill="white"/>
<path d="M39.1683 41.4924C37.5767 41.4924 36.3166 41.1608 35.3881 40.4976C34.4786 39.8344 33.8249 38.906 33.427 37.7122C33.048 36.4995 32.8585 35.1068 32.8585 33.5341V25.8032C32.8585 24.1736 33.067 22.762 33.4838 21.5682C33.9007 20.3745 34.6112 19.4555 35.6155 18.8112C36.6387 18.148 38.022 17.8164 39.7652 17.8164C41.4706 17.8164 42.8064 18.1007 43.7728 18.6691C44.7581 19.2376 45.4592 20.0239 45.876 21.0282C46.2929 22.0324 46.5013 23.2072 46.5013 24.5526V26.0305H41.5274V24.1547C41.5274 23.662 41.4895 23.2072 41.4137 22.7904C41.3569 22.3735 41.2053 22.0419 40.9589 21.7956C40.7316 21.5303 40.3526 21.3977 39.822 21.3977C39.2725 21.3977 38.8746 21.5493 38.6283 21.8524C38.382 22.1367 38.2209 22.4967 38.1451 22.9325C38.0883 23.3683 38.0598 23.8231 38.0598 24.2968V34.9552C38.0598 35.4668 38.1072 35.95 38.202 36.4048C38.3157 36.8406 38.5051 37.2006 38.7704 37.4848C39.0546 37.7501 39.4526 37.8827 39.9642 37.8827C40.4947 37.8827 40.9021 37.7406 41.1863 37.4564C41.4706 37.1722 41.6695 36.8027 41.7832 36.3479C41.8969 35.8932 41.9537 35.41 41.9537 34.8984V32.1982H39.8789V29.2139H46.5298V41.1513H43.1759L42.8917 39.247C42.5885 39.8913 42.1432 40.4313 41.5558 40.8671C40.9684 41.284 40.1726 41.4924 39.1683 41.4924ZM49.714 41.1513V18.1291H60.0598V21.5966H54.8016V27.3096H58.8092V30.834H54.8016V37.7122H60.1166V41.1513H49.714ZM64.5012 41.1513V21.9093H61.0337V18.1291H73.0564V21.9093H69.6173V41.1513H64.5012ZM85.2546 41.1513V31.7435L80.8775 18.1291H85.6809L87.8695 25.4053L89.8306 18.1291H94.4351L90.1433 31.7435V41.1513H85.2546ZM102.495 41.4924C100.77 41.4924 99.406 41.1892 98.4018 40.5829C97.3975 39.9765 96.6775 39.1049 96.2417 37.968C95.8059 36.8311 95.5879 35.4763 95.5879 33.9036V25.3484C95.5879 23.7567 95.8059 22.4019 96.2417 21.284C96.6775 20.166 97.3975 19.3134 98.4018 18.726C99.406 18.1196 100.77 17.8164 102.495 17.8164C104.238 17.8164 105.612 18.1196 106.616 18.726C107.639 19.3134 108.369 20.166 108.804 21.284C109.24 22.4019 109.458 23.7567 109.458 25.3484V33.9036C109.458 35.4763 109.24 36.8311 108.804 37.968C108.369 39.1049 107.639 39.9765 106.616 40.5829C105.612 41.1892 104.238 41.4924 102.495 41.4924ZM102.495 37.8827C103.025 37.8827 103.414 37.7501 103.66 37.4848C103.906 37.2196 104.067 36.8785 104.143 36.4616C104.219 36.0448 104.257 35.6184 104.257 35.1826V24.0978C104.257 23.6431 104.219 23.2167 104.143 22.8188C104.067 22.4019 103.906 22.0609 103.66 21.7956C103.414 21.5303 103.025 21.3977 102.495 21.3977C102.002 21.3977 101.632 21.5303 101.386 21.7956C101.14 22.0609 100.979 22.4019 100.903 22.8188C100.827 23.2167 100.789 23.6431 100.789 24.0978V35.1826C100.789 35.6184 100.818 36.0448 100.875 36.4616C100.95 36.8785 101.102 37.2196 101.329 37.4848C101.576 37.7501 101.964 37.8827 102.495 37.8827ZM119.205 41.4924C117.443 41.4924 116.06 41.2082 115.056 40.6397C114.07 40.0523 113.379 39.2091 112.981 38.1101C112.583 36.9922 112.384 35.6279 112.384 34.0173V18.1291H117.415V34.7847C117.415 35.2584 117.453 35.7321 117.528 36.2058C117.604 36.6795 117.765 37.068 118.012 37.3711C118.277 37.6743 118.675 37.8259 119.205 37.8259C119.755 37.8259 120.153 37.6743 120.399 37.3711C120.645 37.068 120.797 36.6795 120.854 36.2058C120.93 35.7321 120.967 35.2584 120.967 34.7847V18.1291H126.027V34.0173C126.027 35.6279 125.818 36.9922 125.401 38.1101C125.003 39.2091 124.312 40.0523 123.327 40.6397C122.341 41.2082 120.967 41.4924 119.205 41.4924ZM129.264 41.1513V18.1291H135.602C137.156 18.1291 138.501 18.2996 139.638 18.6407C140.775 18.9818 141.656 19.5976 142.281 20.4882C142.926 21.3598 143.248 22.6009 143.248 24.2115C143.248 25.1589 143.172 26.0021 143.02 26.7411C142.869 27.4801 142.584 28.1243 142.168 28.6738C141.77 29.2044 141.192 29.6497 140.434 30.0097L143.589 41.1513H138.331L135.801 30.834H134.351V41.1513H129.264ZM134.351 27.9064H135.773C136.493 27.9064 137.052 27.7833 137.449 27.5369C137.847 27.2717 138.122 26.9022 138.274 26.4285C138.444 25.9358 138.53 25.3484 138.53 24.6663C138.53 23.681 138.349 22.9135 137.989 22.364C137.629 21.8145 136.966 21.5398 136 21.5398H134.351V27.9064ZM153.578 41.1513V18.1291H163.526V21.5682H158.666V27.3664H162.901V30.9192H158.666V41.1513H153.578ZM165.902 41.1513V18.1291H172.24C173.794 18.1291 175.139 18.2996 176.276 18.6407C177.413 18.9818 178.294 19.5976 178.92 20.4882C179.564 21.3598 179.886 22.6009 179.886 24.2115C179.886 25.1589 179.81 26.0021 179.659 26.7411C179.507 27.4801 179.223 28.1243 178.806 28.6738C178.408 29.2044 177.83 29.6497 177.072 30.0097L180.227 41.1513H174.969L172.439 30.834H170.99V41.1513H165.902ZM170.99 27.9064H172.411C173.131 27.9064 173.69 27.7833 174.088 27.5369C174.486 27.2717 174.761 26.9022 174.912 26.4285C175.083 25.9358 175.168 25.3484 175.168 24.6663C175.168 23.681 174.988 22.9135 174.628 22.364C174.268 21.8145 173.605 21.5398 172.638 21.5398H170.99V27.9064ZM182.945 41.1513V18.1291H193.29V21.5966H188.032V27.3096H192.04V30.834H188.032V37.7122H193.347V41.1513H182.945ZM195.657 41.1513V18.1291H206.003V21.5966H200.745V27.3096H204.752V30.834H200.745V37.7122H206.06V41.1513H195.657ZM221.781 41.4924C220.284 41.4924 219.062 41.1703 218.114 40.526C217.186 39.8628 216.504 38.9628 216.068 37.8259C215.632 36.689 215.414 35.391 215.414 33.932V25.6042C215.414 24.1073 215.585 22.7714 215.926 21.5966C216.286 20.4218 216.921 19.5028 217.83 18.8396C218.74 18.1575 220.047 17.8164 221.752 17.8164C223.23 17.8164 224.396 18.0438 225.248 18.4986C226.101 18.9533 226.707 19.6165 227.067 20.4882C227.427 21.3598 227.608 22.4398 227.608 23.7283C227.608 23.8041 227.608 23.8799 227.608 23.9557C227.626 24.0125 227.636 24.0694 227.636 24.1262H223.174C223.174 23.1978 223.098 22.5156 222.946 22.0798C222.814 21.6251 222.425 21.3977 221.781 21.3977C221.345 21.3977 221.013 21.5303 220.786 21.7956C220.578 22.0609 220.436 22.5251 220.36 23.1883C220.284 23.8515 220.246 24.78 220.246 25.9737V28.0201C220.473 27.6222 220.843 27.319 221.355 27.1106C221.866 26.8832 222.444 26.7601 223.088 26.7411C224.301 26.7032 225.267 26.978 225.987 27.5654C226.726 28.1528 227.257 28.9581 227.579 29.9813C227.901 30.9855 228.062 32.113 228.062 33.3636C228.062 34.9742 227.873 36.3953 227.494 37.6269C227.115 38.8396 226.471 39.7871 225.561 40.4692C224.652 41.1513 223.391 41.4924 221.781 41.4924ZM221.838 37.9964C222.274 37.9964 222.586 37.8543 222.776 37.5701C222.984 37.2669 223.117 36.8311 223.174 36.2627C223.249 35.6753 223.287 34.9552 223.287 34.1025C223.287 33.3446 223.259 32.6909 223.202 32.1414C223.164 31.5919 223.041 31.1656 222.833 30.8624C222.624 30.5403 222.274 30.3792 221.781 30.3792C221.554 30.3792 221.336 30.4266 221.127 30.5213C220.919 30.6161 220.739 30.7392 220.587 30.8908C220.436 31.0234 220.322 31.1561 220.246 31.2887V35.0405C220.246 35.5521 220.284 36.0353 220.36 36.49C220.454 36.9448 220.616 37.3143 220.843 37.5985C221.089 37.8638 221.421 37.9964 221.838 37.9964ZM230.14 34.2731V31.2887H237.529V34.2731H230.14ZM242.225 41.1513V22.8188C242.017 22.9325 241.78 23.0462 241.515 23.1599C241.25 23.2736 240.965 23.3967 240.662 23.5294C240.378 23.6431 240.094 23.7567 239.809 23.8704C239.544 23.9841 239.298 24.0978 239.07 24.2115V20.6871C239.279 20.5734 239.573 20.4218 239.952 20.2324C240.331 20.0239 240.738 19.7965 241.174 19.5502C241.61 19.3039 242.017 19.0576 242.396 18.8112C242.775 18.5459 243.059 18.3186 243.249 18.1291H246.972V41.1513H242.225ZM250.546 41.1513V37.7975L256.06 29.3276C256.477 28.7023 256.866 28.0959 257.226 27.5085C257.605 26.9211 257.908 26.3242 258.135 25.7179C258.382 25.1116 258.505 24.4768 258.505 23.8136C258.505 23.1504 258.372 22.6577 258.107 22.3356C257.842 22.0135 257.482 21.8524 257.027 21.8524C256.515 21.8524 256.117 21.9945 255.833 22.2788C255.549 22.563 255.35 22.942 255.236 23.4157C255.141 23.8894 255.094 24.4199 255.094 25.0073V26.1442H250.49V24.9221C250.49 23.5578 250.708 22.3451 251.143 21.284C251.579 20.2039 252.271 19.3607 253.218 18.7544C254.166 18.1291 255.407 17.8164 256.942 17.8164C259.007 17.8164 260.561 18.3565 261.603 19.4365C262.664 20.4976 263.195 21.9851 263.195 23.8989C263.195 24.8273 263.043 25.6895 262.74 26.4853C262.456 27.2811 262.067 28.058 261.574 28.816C261.101 29.5549 260.589 30.3318 260.04 31.1466L255.833 37.428H262.569V41.1513H250.546ZM272.873 41.1513L273.271 18.1291H278.728L281.258 31.5161L283.986 18.1291H289.245L289.643 41.1513H286.033L285.607 25.8316L282.935 41.1513H279.723L276.881 25.7179L276.54 41.1513H272.873ZM299.565 41.4924C297.841 41.4924 296.476 41.1892 295.472 40.5829C294.468 39.9765 293.748 39.1049 293.312 37.968C292.876 36.8311 292.658 35.4763 292.658 33.9036V25.3484C292.658 23.7567 292.876 22.4019 293.312 21.284C293.748 20.166 294.468 19.3134 295.472 18.726C296.476 18.1196 297.841 17.8164 299.565 17.8164C301.308 17.8164 302.682 18.1196 303.686 18.726C304.709 19.3134 305.439 20.166 305.875 21.284C306.311 22.4019 306.528 23.7567 306.528 25.3484V33.9036C306.528 35.4763 306.311 36.8311 305.875 37.968C305.439 39.1049 304.709 39.9765 303.686 40.5829C302.682 41.1892 301.308 41.4924 299.565 41.4924ZM299.565 37.8827C300.095 37.8827 300.484 37.7501 300.73 37.4848C300.977 37.2196 301.138 36.8785 301.213 36.4616C301.289 36.0448 301.327 35.6184 301.327 35.1826V24.0978C301.327 23.6431 301.289 23.2167 301.213 22.8188C301.138 22.4019 300.977 22.0609 300.73 21.7956C300.484 21.5303 300.095 21.3977 299.565 21.3977C299.072 21.3977 298.703 21.5303 298.456 21.7956C298.21 22.0609 298.049 22.4019 297.973 22.8188C297.897 23.2167 297.86 23.6431 297.86 24.0978V35.1826C297.86 35.6184 297.888 36.0448 297.945 36.4616C298.021 36.8785 298.172 37.2196 298.4 37.4848C298.646 37.7501 299.034 37.8827 299.565 37.8827ZM309.625 41.1513V18.1291H313.206L317.924 29.2139V18.1291H322.131V41.1513H318.692L313.973 29.2139V41.1513H309.625ZM327.632 41.1513V21.9093H324.164V18.1291H336.187V21.9093H332.748V41.1513H327.632ZM338.299 41.1513V18.1291H343.387V27.4517H346.968V18.1291H352.056V41.1513H346.968V31.0898H343.387V41.1513H338.299ZM33.1712 83.1513V60.1291H39.5094C41.0632 60.1291 42.4085 60.2996 43.5454 60.6407C44.6823 60.9818 45.5634 61.5976 46.1887 62.4882C46.8329 63.3598 47.1551 64.6009 47.1551 66.2115C47.1551 67.1589 47.0793 68.0021 46.9277 68.7411C46.7761 69.4801 46.4919 70.1243 46.075 70.6738C45.6771 71.2044 45.0992 71.6497 44.3412 72.0097L47.4961 83.1513H42.238L39.7084 72.834H38.2588V83.1513H33.1712ZM38.2588 69.9064H39.6799C40.4 69.9064 40.9589 69.7833 41.3569 69.5369C41.7548 69.2717 42.0295 68.9022 42.1811 68.4285C42.3517 67.9358 42.4369 67.3484 42.4369 66.6663C42.4369 65.681 42.2569 64.9135 41.8969 64.364C41.5369 63.8145 40.8737 63.5398 39.9073 63.5398H38.2588V69.9064ZM50.2136 83.1513V60.1291H60.5594V63.5966H55.3012V69.3096H59.3088V72.834H55.3012V79.7122H60.6162V83.1513H50.2136ZM65.9956 83.1513L61.846 60.1291H66.1946L68.6674 75.7615L70.9696 60.1291H75.574L71.3675 83.1513H65.9956ZM77.8867 83.1513V60.1291H88.2325V63.5966H82.9743V69.3096H86.9819V72.834H82.9743V79.7122H88.2894V83.1513H77.8867ZM90.5991 83.1513V60.1291H94.1804L98.8985 71.2139V60.1291H103.105V83.1513H99.6659L94.9478 71.2139V83.1513H90.5991ZM113.182 83.4924C111.42 83.4924 110.037 83.2082 109.032 82.6397C108.047 82.0523 107.356 81.2091 106.958 80.1101C106.56 78.9922 106.361 77.6279 106.361 76.0173V60.1291H111.392V76.7847C111.392 77.2584 111.429 77.7321 111.505 78.2058C111.581 78.6795 111.742 79.068 111.988 79.3711C112.254 79.6743 112.652 79.8259 113.182 79.8259C113.732 79.8259 114.13 79.6743 114.376 79.3711C114.622 79.068 114.774 78.6795 114.831 78.2058C114.906 77.7321 114.944 77.2584 114.944 76.7847V60.1291H120.004V76.0173C120.004 77.6279 119.795 78.9922 119.378 80.1101C118.98 81.2091 118.289 82.0523 117.303 82.6397C116.318 83.2082 114.944 83.4924 113.182 83.4924ZM123.241 83.1513V60.1291H133.586V63.5966H128.328V69.3096H132.336V72.834H128.328V79.7122H133.643V83.1513H123.241ZM143.225 83.1513V60.1291H153.173V63.5682H148.313V69.3664H152.548V72.9192H148.313V83.1513H143.225ZM162.143 83.4924C160.419 83.4924 159.055 83.1892 158.05 82.5829C157.046 81.9765 156.326 81.1049 155.89 79.968C155.454 78.8311 155.236 77.4763 155.236 75.9036V67.3484C155.236 65.7567 155.454 64.4019 155.89 63.284C156.326 62.166 157.046 61.3134 158.05 60.726C159.055 60.1196 160.419 59.8164 162.143 59.8164C163.886 59.8164 165.26 60.1196 166.264 60.726C167.288 61.3134 168.017 62.166 168.453 63.284C168.889 64.4019 169.107 65.7567 169.107 67.3484V75.9036C169.107 77.4763 168.889 78.8311 168.453 79.968C168.017 81.1049 167.288 81.9765 166.264 82.5829C165.26 83.1892 163.886 83.4924 162.143 83.4924ZM162.143 79.8827C162.674 79.8827 163.062 79.7501 163.308 79.4848C163.555 79.2196 163.716 78.8785 163.792 78.4616C163.867 78.0448 163.905 77.6184 163.905 77.1826V66.0978C163.905 65.6431 163.867 65.2167 163.792 64.8188C163.716 64.4019 163.555 64.0609 163.308 63.7956C163.062 63.5303 162.674 63.3977 162.143 63.3977C161.65 63.3977 161.281 63.5303 161.035 63.7956C160.788 64.0609 160.627 64.4019 160.551 64.8188C160.476 65.2167 160.438 65.6431 160.438 66.0978V77.1826C160.438 77.6184 160.466 78.0448 160.523 78.4616C160.599 78.8785 160.75 79.2196 160.978 79.4848C161.224 79.7501 161.613 79.8827 162.143 79.8827ZM172.203 83.1513V60.1291H178.541C180.095 60.1291 181.44 60.2996 182.577 60.6407C183.714 60.9818 184.595 61.5976 185.22 62.4882C185.865 63.3598 186.187 64.6009 186.187 66.2115C186.187 67.1589 186.111 68.0021 185.959 68.7411C185.808 69.4801 185.524 70.1243 185.107 70.6738C184.709 71.2044 184.131 71.6497 183.373 72.0097L186.528 83.1513H181.27L178.74 72.834H177.291V83.1513H172.203ZM177.291 69.9064H178.712C179.432 69.9064 179.991 69.7833 180.389 69.5369C180.786 69.2717 181.061 68.9022 181.213 68.4285C181.383 67.9358 181.469 67.3484 181.469 66.6663C181.469 65.681 181.289 64.9135 180.929 64.364C180.569 63.8145 179.905 63.5398 178.939 63.5398H177.291V69.9064ZM189.245 83.1513V60.1291H199.591V63.5966H194.333V69.3096H198.341V72.834H194.333V79.7122H199.648V83.1513H189.245ZM208.552 83.4924C206.808 83.4924 205.425 83.1798 204.402 82.5545C203.398 81.9102 202.687 81.0196 202.27 79.8827C201.854 78.7269 201.645 77.3721 201.645 75.8183V67.5189C201.645 65.9273 201.854 64.563 202.27 63.4261C202.687 62.2702 203.398 61.3797 204.402 60.7544C205.425 60.1291 206.808 59.8164 208.552 59.8164C210.257 59.8164 211.583 60.1007 212.531 60.6691C213.497 61.2186 214.179 61.9955 214.577 62.9998C214.975 64.004 215.174 65.1599 215.174 66.4673V68.4569H210.2V66.1547C210.2 65.6999 210.172 65.2641 210.115 64.8472C210.077 64.4304 209.944 64.0893 209.717 63.824C209.49 63.5398 209.101 63.3977 208.552 63.3977C208.021 63.3977 207.623 63.5398 207.358 63.824C207.112 64.1082 206.951 64.4683 206.875 64.9041C206.818 65.3209 206.79 65.7662 206.79 66.2399V77.0689C206.79 77.5805 206.827 78.0542 206.903 78.49C206.998 78.9069 207.169 79.248 207.415 79.5133C207.68 79.7596 208.059 79.8827 208.552 79.8827C209.082 79.8827 209.461 79.7501 209.689 79.4848C209.916 79.2006 210.058 78.8406 210.115 78.4048C210.172 77.969 210.2 77.5237 210.2 77.0689V74.653H215.174V76.6426C215.174 77.95 214.975 79.1248 214.577 80.167C214.198 81.1902 213.526 82.005 212.559 82.6113C211.612 83.1987 210.276 83.4924 208.552 83.4924ZM216.865 83.1513L221.213 60.1291H227.012L231.303 83.1513H226.614L225.846 78.2911H222.464L221.668 83.1513H216.865ZM222.919 75.2499H225.363L224.141 66.2684L222.919 75.2499ZM239.517 83.4924C238.076 83.4924 236.873 83.2366 235.907 82.725C234.941 82.2134 234.211 81.427 233.718 80.3659C233.226 79.2859 232.951 77.8932 232.894 76.1878L237.243 75.5341C237.262 76.5194 237.347 77.3152 237.499 77.9216C237.669 78.5279 237.896 78.9637 238.181 79.229C238.484 79.4943 238.844 79.6269 239.261 79.6269C239.791 79.6269 240.132 79.4469 240.284 79.0869C240.454 78.7269 240.54 78.3479 240.54 77.95C240.54 77.0026 240.312 76.2068 239.858 75.5625C239.403 74.8993 238.787 74.2361 238.01 73.5729L236.021 71.8392C235.149 71.1002 234.41 70.2665 233.804 69.338C233.216 68.3906 232.923 67.2252 232.923 65.842C232.923 63.8903 233.5 62.4029 234.656 61.3797C235.812 60.3375 237.385 59.8164 239.374 59.8164C240.606 59.8164 241.591 60.0249 242.33 60.4417C243.088 60.8586 243.657 61.4081 244.036 62.0902C244.434 62.7534 244.699 63.464 244.832 64.2219C244.983 64.9609 245.068 65.6715 245.087 66.3536L240.71 66.8936C240.691 66.2115 240.644 65.6241 240.568 65.1315C240.511 64.6198 240.379 64.2314 240.17 63.9661C239.962 63.6819 239.64 63.5398 239.204 63.5398C238.73 63.5398 238.38 63.7387 238.152 64.1367C237.944 64.5346 237.84 64.9325 237.84 65.3304C237.84 66.1831 238.039 66.8842 238.436 67.4337C238.853 67.9642 239.393 68.5232 240.057 69.1106L241.961 70.7875C242.965 71.6402 243.808 72.6066 244.49 73.6866C245.192 74.7667 245.542 76.1025 245.542 77.6942C245.542 78.7743 245.296 79.7596 244.803 80.6502C244.31 81.5218 243.609 82.2134 242.7 82.725C241.809 83.2366 240.748 83.4924 239.517 83.4924ZM250.08 83.1513V63.9093H246.613V60.1291H258.636V63.9093H255.196V83.1513H250.08Z" fill="white"/>
</svg>
