<svg width="317" height="87" viewBox="0 0 317 87" fill="none" xmlns="http://www.w3.org/2000/svg">
<rect x="0.150391" width="316.273" height="86.4233" rx="18.2154" fill="#3CB9FC"/>
<path d="M31.6549 57V28.65H37.9199V52.765H44.4299V57H31.6549ZM47.1724 57V28.65H59.9124V32.92H53.4374V39.955H58.3724V44.295H53.4374V52.765H59.9824V57H47.1724ZM65.3817 57V33.305H61.1117V28.65H75.9167V33.305H71.6817V57H65.3817ZM78.0977 38.59L77.6777 36.805C78.5643 36.7817 79.136 36.4783 79.3927 35.895C79.6727 35.3117 79.8127 34.565 79.8127 33.655H77.3627V28.65H82.4027C82.4027 29.35 82.391 30.0267 82.3677 30.68C82.3677 31.3333 82.356 31.9517 82.3327 32.535C82.2394 34.5417 81.9127 36.0467 81.3527 37.05C80.7927 38.0533 79.7077 38.5667 78.0977 38.59ZM93.0812 57.42C91.3079 57.42 89.8262 57.105 88.6362 56.475C87.4462 55.845 86.5479 54.8767 85.9412 53.57C85.3346 52.24 84.9962 50.525 84.9262 48.425L90.2812 47.62C90.3046 48.8333 90.4096 49.8133 90.5962 50.56C90.8062 51.3067 91.0862 51.8433 91.4362 52.17C91.8096 52.4967 92.2529 52.66 92.7662 52.66C93.4196 52.66 93.8396 52.4383 94.0262 51.995C94.2362 51.5517 94.3412 51.085 94.3412 50.595C94.3412 49.4283 94.0612 48.4483 93.5012 47.655C92.9412 46.8383 92.1829 46.0217 91.2262 45.205L88.7762 43.07C87.7029 42.16 86.7929 41.1333 86.0462 39.99C85.3229 38.8233 84.9612 37.3883 84.9612 35.685C84.9612 33.2817 85.6729 31.45 87.0962 30.19C88.5196 28.9067 90.4562 28.265 92.9062 28.265C94.4229 28.265 95.6362 28.5217 96.5462 29.035C97.4796 29.5483 98.1796 30.225 98.6462 31.065C99.1362 31.8817 99.4629 32.7567 99.6262 33.69C99.8129 34.6 99.9179 35.475 99.9412 36.315L94.5512 36.98C94.5279 36.14 94.4696 35.4167 94.3762 34.81C94.3062 34.18 94.1429 33.7017 93.8862 33.375C93.6296 33.025 93.2329 32.85 92.6962 32.85C92.1129 32.85 91.6812 33.095 91.4012 33.585C91.1446 34.075 91.0162 34.565 91.0162 35.055C91.0162 36.105 91.2612 36.9683 91.7512 37.645C92.2646 38.2983 92.9296 38.9867 93.7462 39.71L96.0912 41.775C97.3279 42.825 98.3662 44.015 99.2062 45.345C100.07 46.675 100.501 48.32 100.501 50.28C100.501 51.61 100.198 52.8233 99.5912 53.92C98.9846 54.9933 98.1212 55.845 97.0012 56.475C95.9046 57.105 94.5979 57.42 93.0812 57.42ZM112.49 57V28.65H119.665C122.138 28.65 124.063 28.965 125.44 29.595C126.816 30.2017 127.785 31.17 128.345 32.5C128.905 33.8067 129.185 35.51 129.185 37.61V47.9C129.185 50.0233 128.905 51.7617 128.345 53.115C127.785 54.445 126.816 55.425 125.44 56.055C124.086 56.685 122.185 57 119.735 57H112.49ZM118.755 52.66H119.735C120.691 52.66 121.38 52.52 121.8 52.24C122.22 51.96 122.476 51.54 122.57 50.98C122.686 50.42 122.745 49.72 122.745 48.88V36.525C122.745 35.685 122.675 35.0083 122.535 34.495C122.418 33.9817 122.15 33.6083 121.73 33.375C121.31 33.1417 120.633 33.025 119.7 33.025H118.755V52.66ZM141.118 57.42C138.994 57.42 137.314 57.0467 136.078 56.3C134.841 55.5533 133.954 54.48 133.418 53.08C132.881 51.68 132.613 50.0117 132.613 48.075V37.54C132.613 35.58 132.881 33.9117 133.418 32.535C133.954 31.1583 134.841 30.1083 136.078 29.385C137.314 28.6383 138.994 28.265 141.118 28.265C143.264 28.265 144.956 28.6383 146.193 29.385C147.453 30.1083 148.351 31.1583 148.888 32.535C149.424 33.9117 149.693 35.58 149.693 37.54V48.075C149.693 50.0117 149.424 51.68 148.888 53.08C148.351 54.48 147.453 55.5533 146.193 56.3C144.956 57.0467 143.264 57.42 141.118 57.42ZM141.118 52.975C141.771 52.975 142.249 52.8117 142.553 52.485C142.856 52.1583 143.054 51.7383 143.148 51.225C143.241 50.7117 143.288 50.1867 143.288 49.65V36C143.288 35.44 143.241 34.915 143.148 34.425C143.054 33.9117 142.856 33.4917 142.553 33.165C142.249 32.8383 141.771 32.675 141.118 32.675C140.511 32.675 140.056 32.8383 139.753 33.165C139.449 33.4917 139.251 33.9117 139.158 34.425C139.064 34.915 139.018 35.44 139.018 36V49.65C139.018 50.1867 139.053 50.7117 139.123 51.225C139.216 51.7383 139.403 52.1583 139.683 52.485C139.986 52.8117 140.464 52.975 141.118 52.975ZM165.016 57V33.305H160.746V28.65H175.551V33.305H171.316V57H165.016ZM178.151 57V28.65H184.416V40.13H188.826V28.65H195.091V57H188.826V44.61H184.416V57H178.151ZM199.444 57V28.65H205.709V57H199.444ZM217.461 57.42C215.688 57.42 214.206 57.105 213.016 56.475C211.826 55.845 210.928 54.8767 210.321 53.57C209.714 52.24 209.376 50.525 209.306 48.425L214.661 47.62C214.684 48.8333 214.789 49.8133 214.976 50.56C215.186 51.3067 215.466 51.8433 215.816 52.17C216.189 52.4967 216.633 52.66 217.146 52.66C217.799 52.66 218.219 52.4383 218.406 51.995C218.616 51.5517 218.721 51.085 218.721 50.595C218.721 49.4283 218.441 48.4483 217.881 47.655C217.321 46.8383 216.563 46.0217 215.606 45.205L213.156 43.07C212.083 42.16 211.173 41.1333 210.426 39.99C209.703 38.8233 209.341 37.3883 209.341 35.685C209.341 33.2817 210.053 31.45 211.476 30.19C212.899 28.9067 214.836 28.265 217.286 28.265C218.803 28.265 220.016 28.5217 220.926 29.035C221.859 29.5483 222.559 30.225 223.026 31.065C223.516 31.8817 223.843 32.7567 224.006 33.69C224.193 34.6 224.298 35.475 224.321 36.315L218.931 36.98C218.908 36.14 218.849 35.4167 218.756 34.81C218.686 34.18 218.523 33.7017 218.266 33.375C218.009 33.025 217.613 32.85 217.076 32.85C216.493 32.85 216.061 33.095 215.781 33.585C215.524 34.075 215.396 34.565 215.396 35.055C215.396 36.105 215.641 36.9683 216.131 37.645C216.644 38.2983 217.309 38.9867 218.126 39.71L220.471 41.775C221.708 42.825 222.746 44.015 223.586 45.345C224.449 46.675 224.881 48.32 224.881 50.28C224.881 51.61 224.578 52.8233 223.971 53.92C223.364 54.9933 222.501 55.845 221.381 56.475C220.284 57.105 218.978 57.42 217.461 57.42Z" fill="white"/>
<path d="M242.57 13.3828H270.937L297.721 42.5478L270.937 71.7128H242.57L269.486 42.5478L242.57 13.3828Z" fill="white"/>
</svg>
