<svg width="263" height="30" viewBox="0 0 263 30" fill="none" xmlns="http://www.w3.org/2000/svg">
<rect width="262.336" height="29.6389" rx="8.82861" fill="#3CB9FC"/>
<path d="M237.612 6.81189H245.09L252.15 14.4999L245.09 22.1879H237.612L244.707 14.4999L237.612 6.81189Z" fill="white"/>
<path d="M13.7884 11.6389V5.65249H12.7096V4.47643H16.45V5.65249H15.38V11.6389H13.7884ZM17.0806 11.6389V4.47643H19.0525C19.5359 4.47643 19.9544 4.52948 20.3081 4.6356C20.6618 4.74171 20.9359 4.9333 21.1305 5.21036C21.3309 5.48154 21.4311 5.86766 21.4311 6.36874C21.4311 6.66349 21.4075 6.92582 21.3604 7.15573C21.3132 7.38564 21.2248 7.58607 21.0951 7.75703C20.9713 7.92209 20.7915 8.06062 20.5557 8.17263L21.5372 11.6389H19.9014L19.1144 8.42906H18.6634V11.6389H17.0806ZM18.6634 7.51828H19.1055C19.3295 7.51828 19.5034 7.47996 19.6272 7.40332C19.751 7.32079 19.8365 7.20584 19.8837 7.05846C19.9367 6.90519 19.9632 6.72244 19.9632 6.51022C19.9632 6.20368 19.9072 5.96493 19.7952 5.79397C19.6832 5.62302 19.4769 5.53754 19.1763 5.53754H18.6634V7.51828ZM23.086 11.6389V8.71202L21.7242 4.47643H23.2186L23.8995 6.74013L24.5096 4.47643H25.9421L24.6069 8.71202V11.6389H23.086ZM30.8588 11.745C30.3224 11.745 29.8979 11.6507 29.5855 11.4621C29.2731 11.2734 29.049 11.0023 28.9135 10.6485C28.7779 10.2948 28.7101 9.87335 28.7101 9.38406V6.72244C28.7101 6.22726 28.7779 5.80576 28.9135 5.45795C29.049 5.11015 29.2731 4.84487 29.5855 4.66212C29.8979 4.47348 30.3224 4.37916 30.8588 4.37916C31.4012 4.37916 31.8286 4.47348 32.141 4.66212C32.4593 4.84487 32.6863 5.11015 32.8219 5.45795C32.9575 5.80576 33.0253 6.22726 33.0253 6.72244V9.38406C33.0253 9.87335 32.9575 10.2948 32.8219 10.6485C32.6863 11.0023 32.4593 11.2734 32.141 11.4621C31.8286 11.6507 31.4012 11.745 30.8588 11.745ZM30.8588 10.622C31.0239 10.622 31.1447 10.5808 31.2214 10.4982C31.298 10.4157 31.3481 10.3096 31.3717 10.1799C31.3953 10.0502 31.4071 9.91756 31.4071 9.78197V6.33337C31.4071 6.19189 31.3953 6.05925 31.3717 5.93545C31.3481 5.80576 31.298 5.69965 31.2214 5.61712C31.1447 5.53459 31.0239 5.49333 30.8588 5.49333C30.7056 5.49333 30.5906 5.53459 30.514 5.61712C30.4373 5.69965 30.3872 5.80576 30.3636 5.93545C30.3401 6.05925 30.3283 6.19189 30.3283 6.33337V9.78197C30.3283 9.91756 30.3371 10.0502 30.3548 10.1799C30.3784 10.3096 30.4255 10.4157 30.4963 10.4982C30.5729 10.5808 30.6938 10.622 30.8588 10.622ZM36.0577 11.745C35.5095 11.745 35.0791 11.6566 34.7667 11.4797C34.4601 11.297 34.245 11.0347 34.1212 10.6928C33.9974 10.345 33.9355 9.92051 33.9355 9.41943V4.47643H35.5006V9.65818C35.5006 9.80556 35.5124 9.95293 35.536 10.1003C35.5596 10.2477 35.6097 10.3685 35.6863 10.4629C35.7688 10.5572 35.8926 10.6043 36.0577 10.6043C36.2287 10.6043 36.3525 10.5572 36.4291 10.4629C36.5057 10.3685 36.5529 10.2477 36.5706 10.1003C36.5942 9.95293 36.6059 9.80556 36.6059 9.65818V4.47643H38.1799V9.41943C38.1799 9.92051 38.1151 10.345 37.9854 10.6928C37.8616 11.0347 37.6464 11.297 37.3399 11.4797C37.0333 11.6566 36.6059 11.745 36.0577 11.745ZM39.187 11.6389V4.47643H41.1589C41.6423 4.47643 42.0608 4.52948 42.4145 4.6356C42.7683 4.74171 43.0424 4.9333 43.2369 5.21036C43.4373 5.48154 43.5376 5.86766 43.5376 6.36874C43.5376 6.66349 43.514 6.92582 43.4668 7.15573C43.4197 7.38564 43.3312 7.58607 43.2015 7.75703C43.0777 7.92209 42.8979 8.06062 42.6621 8.17263L43.6437 11.6389H42.0078L41.2208 8.42906H40.7698V11.6389H39.187ZM40.7698 7.51828H41.212C41.436 7.51828 41.6099 7.47996 41.7337 7.40332C41.8575 7.32079 41.9429 7.20584 41.9901 7.05846C42.0432 6.90519 42.0697 6.72244 42.0697 6.51022C42.0697 6.20368 42.0137 5.96493 41.9017 5.79397C41.7897 5.62302 41.5833 5.53754 41.2827 5.53754H40.7698V7.51828ZM46.7516 11.6389V4.47643H48.7234C49.2068 4.47643 49.6254 4.52948 49.9791 4.6356C50.3328 4.74171 50.6069 4.9333 50.8015 5.21036C51.0019 5.48154 51.1021 5.86766 51.1021 6.36874C51.1021 6.66349 51.0785 6.92582 51.0314 7.15573C50.9842 7.38564 50.8958 7.58607 50.7661 7.75703C50.6423 7.92209 50.4625 8.06062 50.2267 8.17263L51.2082 11.6389H49.5723L48.7853 8.42906H48.3344V11.6389H46.7516ZM48.3344 7.51828H48.7765C49.0005 7.51828 49.1744 7.47996 49.2982 7.40332C49.422 7.32079 49.5075 7.20584 49.5547 7.05846C49.6077 6.90519 49.6342 6.72244 49.6342 6.51022C49.6342 6.20368 49.5782 5.96493 49.4662 5.79397C49.3542 5.62302 49.1479 5.53754 48.8472 5.53754H48.3344V7.51828ZM52.0536 11.6389V4.47643H55.2723V5.55522H53.6365V7.33258H54.8833V8.42906H53.6365V10.569H55.29V11.6389H52.0536ZM56.9636 11.6389L55.6726 4.47643H57.0255L57.7948 9.33985L58.5111 4.47643H59.9436L58.6349 11.6389H56.9636ZM60.6631 11.6389V4.47643H63.8818V5.55522H62.2459V7.33258H63.4927V8.42906H62.2459V10.569H63.8995V11.6389H60.6631ZM64.6181 11.6389V4.47643H65.7322L67.2001 7.92503V4.47643H68.5088V11.6389H67.4388L65.971 7.92503V11.6389H64.6181ZM71.6439 11.745C71.0957 11.745 70.6653 11.6566 70.3529 11.4797C70.0463 11.297 69.8312 11.0347 69.7074 10.6928C69.5836 10.345 69.5217 9.92051 69.5217 9.41943V4.47643H71.0868V9.65818C71.0868 9.80556 71.0986 9.95293 71.1222 10.1003C71.1458 10.2477 71.1959 10.3685 71.2725 10.4629C71.355 10.5572 71.4788 10.6043 71.6439 10.6043C71.8148 10.6043 71.9386 10.5572 72.0153 10.4629C72.0919 10.3685 72.1391 10.2477 72.1568 10.1003C72.1803 9.95293 72.1921 9.80556 72.1921 9.65818V4.47643H73.7661V9.41943C73.7661 9.92051 73.7013 10.345 73.5716 10.6928C73.4478 11.0347 73.2326 11.297 72.9261 11.4797C72.6195 11.6566 72.1921 11.745 71.6439 11.745ZM74.7732 11.6389V4.47643H77.9919V5.55522H76.356V7.33258H77.6028V8.42906H76.356V10.569H78.0096V11.6389H74.7732ZM83.0421 11.745C82.4998 11.745 82.0694 11.6478 81.7511 11.4532C81.4387 11.2528 81.2176 10.9757 81.0879 10.622C80.9582 10.2624 80.8934 9.84093 80.8934 9.35753V6.7755C80.8934 6.28031 80.9582 5.85587 81.0879 5.50217C81.2176 5.14257 81.4387 4.8655 81.7511 4.67097C82.0694 4.47643 82.4998 4.37916 83.0421 4.37916C83.5727 4.37916 83.9853 4.46759 84.2801 4.64444C84.5807 4.81539 84.7929 5.05709 84.9167 5.36953C85.0405 5.68197 85.1024 6.04157 85.1024 6.44832V7.0673H83.555V6.35106C83.555 6.20957 83.5461 6.07399 83.5284 5.9443C83.5167 5.81461 83.4754 5.70849 83.4047 5.62596C83.3339 5.53754 83.2131 5.49333 83.0421 5.49333C82.877 5.49333 82.7533 5.53754 82.6707 5.62596C82.5941 5.71439 82.544 5.8264 82.5204 5.96198C82.5027 6.09167 82.4939 6.23021 82.4939 6.37758V9.7466C82.4939 9.90577 82.5057 10.0531 82.5292 10.1887C82.5587 10.3184 82.6118 10.4245 82.6884 10.5071C82.7709 10.5837 82.8888 10.622 83.0421 10.622C83.2072 10.622 83.3251 10.5808 83.3958 10.4982C83.4666 10.4098 83.5108 10.2978 83.5284 10.1622C83.5461 10.0266 83.555 9.88809 83.555 9.7466V8.99499H85.1024V9.61397C85.1024 10.0207 85.0405 10.3862 84.9167 10.7104C84.7988 11.0288 84.5896 11.2823 84.2889 11.4709C83.9942 11.6537 83.5786 11.745 83.0421 11.745ZM85.6284 11.6389L86.9813 4.47643H88.7852L90.1204 11.6389H88.6614L88.4226 10.1268H87.3703L87.1228 11.6389H85.6284ZM87.5118 9.18068H88.2723L87.8921 6.38643L87.5118 9.18068ZM90.8435 11.6389V4.47643H92.4264V10.569H94.0711V11.6389H90.8435ZM96.7032 11.745C96.1609 11.745 95.7305 11.6478 95.4122 11.4532C95.0997 11.2528 94.8787 10.9757 94.749 10.622C94.6193 10.2624 94.5545 9.84093 94.5545 9.35753V6.7755C94.5545 6.28031 94.6193 5.85587 94.749 5.50217C94.8787 5.14257 95.0997 4.8655 95.4122 4.67097C95.7305 4.47643 96.1609 4.37916 96.7032 4.37916C97.2338 4.37916 97.6464 4.46759 97.9412 4.64444C98.2418 4.81539 98.454 5.05709 98.5778 5.36953C98.7016 5.68197 98.7635 6.04157 98.7635 6.44832V7.0673H97.2161V6.35106C97.2161 6.20957 97.2072 6.07399 97.1895 5.9443C97.1778 5.81461 97.1365 5.70849 97.0657 5.62596C96.995 5.53754 96.8742 5.49333 96.7032 5.49333C96.5381 5.49333 96.4143 5.53754 96.3318 5.62596C96.2552 5.71439 96.2051 5.8264 96.1815 5.96198C96.1638 6.09167 96.155 6.23021 96.155 6.37758V9.7466C96.155 9.90577 96.1668 10.0531 96.1903 10.1887C96.2198 10.3184 96.2729 10.4245 96.3495 10.5071C96.432 10.5837 96.5499 10.622 96.7032 10.622C96.8683 10.622 96.9862 10.5808 97.0569 10.4982C97.1276 10.4098 97.1719 10.2978 97.1895 10.1622C97.2072 10.0266 97.2161 9.88809 97.2161 9.7466V8.99499H98.7635V9.61397C98.7635 10.0207 98.7016 10.3862 98.5778 10.7104C98.4599 11.0288 98.2507 11.2823 97.95 11.4709C97.6553 11.6537 97.2397 11.745 96.7032 11.745ZM101.703 11.745C101.155 11.745 100.725 11.6566 100.412 11.4797C100.106 11.297 99.8907 11.0347 99.7669 10.6928C99.6431 10.345 99.5813 9.92051 99.5813 9.41943V4.47643H101.146V9.65818C101.146 9.80556 101.158 9.95293 101.182 10.1003C101.205 10.2477 101.255 10.3685 101.332 10.4629C101.415 10.5572 101.538 10.6043 101.703 10.6043C101.874 10.6043 101.998 10.5572 102.075 10.4629C102.151 10.3685 102.199 10.2477 102.216 10.1003C102.24 9.95293 102.252 9.80556 102.252 9.65818V4.47643H103.826V9.41943C103.826 9.92051 103.761 10.345 103.631 10.6928C103.507 11.0347 103.292 11.297 102.986 11.4797C102.679 11.6566 102.252 11.745 101.703 11.745ZM104.833 11.6389V4.47643H106.416V10.569H108.06V11.6389H104.833ZM108.408 11.6389L109.761 4.47643H111.565L112.9 11.6389H111.441L111.203 10.1268H110.15L109.903 11.6389H108.408ZM110.292 9.18068H111.052L110.672 6.38643L110.292 9.18068ZM113.872 11.6389V5.65249H112.793V4.47643H116.533V5.65249H115.463V11.6389H113.872ZM119.146 11.745C118.61 11.745 118.186 11.6507 117.873 11.4621C117.561 11.2734 117.337 11.0023 117.201 10.6485C117.065 10.2948 116.998 9.87335 116.998 9.38406V6.72244C116.998 6.22726 117.065 5.80576 117.201 5.45795C117.337 5.11015 117.561 4.84487 117.873 4.66212C118.186 4.47348 118.61 4.37916 119.146 4.37916C119.689 4.37916 120.116 4.47348 120.429 4.66212C120.747 4.84487 120.974 5.11015 121.109 5.45795C121.245 5.80576 121.313 6.22726 121.313 6.72244V9.38406C121.313 9.87335 121.245 10.2948 121.109 10.6485C120.974 11.0023 120.747 11.2734 120.429 11.4621C120.116 11.6507 119.689 11.745 119.146 11.745ZM119.146 10.622C119.311 10.622 119.432 10.5808 119.509 10.4982C119.586 10.4157 119.636 10.3096 119.659 10.1799C119.683 10.0502 119.695 9.91756 119.695 9.78197V6.33337C119.695 6.19189 119.683 6.05925 119.659 5.93545C119.636 5.80576 119.586 5.69965 119.509 5.61712C119.432 5.53459 119.311 5.49333 119.146 5.49333C118.993 5.49333 118.878 5.53459 118.802 5.61712C118.725 5.69965 118.675 5.80576 118.651 5.93545C118.628 6.05925 118.616 6.19189 118.616 6.33337V9.78197C118.616 9.91756 118.625 10.0502 118.642 10.1799C118.666 10.3096 118.713 10.4157 118.784 10.4982C118.861 10.5808 118.981 10.622 119.146 10.622ZM122.276 11.6389V4.47643H124.248C124.731 4.47643 125.15 4.52948 125.504 4.6356C125.857 4.74171 126.132 4.9333 126.326 5.21036C126.526 5.48154 126.627 5.86766 126.627 6.36874C126.627 6.66349 126.603 6.92582 126.556 7.15573C126.509 7.38564 126.42 7.58607 126.291 7.75703C126.167 7.92209 125.987 8.06062 125.751 8.17263L126.733 11.6389H125.097L124.31 8.42906H123.859V11.6389H122.276ZM123.859 7.51828H124.301C124.525 7.51828 124.699 7.47996 124.823 7.40332C124.947 7.32079 125.032 7.20584 125.079 7.05846C125.132 6.90519 125.159 6.72244 125.159 6.51022C125.159 6.20368 125.103 5.96493 124.991 5.79397C124.879 5.62302 124.672 5.53754 124.372 5.53754H123.859V7.51828ZM129.496 11.6389L130.849 4.47643H132.653L133.988 11.6389H132.529L132.29 10.1268H131.238L130.99 11.6389H129.496ZM131.379 9.18068H132.14L131.76 6.38643L131.379 9.18068ZM134.711 11.6389V4.47643H135.825L137.293 7.92503V4.47643H138.602V11.6389H137.532L136.064 7.92503V11.6389H134.711ZM139.668 11.6389V4.47643H141.48C142.105 4.47643 142.592 4.55601 142.939 4.71518C143.287 4.86845 143.532 5.11309 143.673 5.44911C143.815 5.77924 143.886 6.20957 143.886 6.74013V9.33985C143.886 9.8763 143.815 10.3155 143.673 10.6574C143.532 10.9934 143.287 11.241 142.939 11.4002C142.598 11.5593 142.117 11.6389 141.498 11.6389H139.668ZM141.251 10.5424H141.498C141.74 10.5424 141.914 10.5071 142.02 10.4363C142.126 10.3656 142.191 10.2595 142.214 10.118C142.244 9.97651 142.259 9.79966 142.259 9.58744V6.46601C142.259 6.25379 142.241 6.08283 142.206 5.95314C142.176 5.82345 142.108 5.72913 142.002 5.67018C141.896 5.61123 141.725 5.58175 141.489 5.58175H141.251V10.5424ZM147.111 11.6389V4.47643H150.206V5.54638H148.694V7.35027H150.012V8.45559H148.694V11.6389H147.111ZM150.954 11.6389V4.47643H152.537V11.6389H150.954ZM153.605 11.6389V4.47643H154.719L156.187 7.92503V4.47643H157.496V11.6389H156.426L154.958 7.92503V11.6389H153.605ZM158.562 11.6389V4.47643H160.375C160.999 4.47643 161.486 4.55601 161.834 4.71518C162.181 4.86845 162.426 5.11309 162.567 5.44911C162.709 5.77924 162.78 6.20957 162.78 6.74013V9.33985C162.78 9.8763 162.709 10.3155 162.567 10.6574C162.426 10.9934 162.181 11.241 161.834 11.4002C161.492 11.5593 161.011 11.6389 160.392 11.6389H158.562ZM160.145 10.5424H160.392C160.634 10.5424 160.808 10.5071 160.914 10.4363C161.02 10.3656 161.085 10.2595 161.108 10.118C161.138 9.97651 161.153 9.79966 161.153 9.58744V6.46601C161.153 6.25379 161.135 6.08283 161.1 5.95314C161.07 5.82345 161.002 5.72913 160.896 5.67018C160.79 5.61123 160.619 5.58175 160.383 5.58175H160.145V10.5424ZM168.057 11.745C167.52 11.745 167.096 11.6507 166.784 11.4621C166.471 11.2734 166.247 11.0023 166.112 10.6485C165.976 10.2948 165.908 9.87335 165.908 9.38406V6.72244C165.908 6.22726 165.976 5.80576 166.112 5.45795C166.247 5.11015 166.471 4.84487 166.784 4.66212C167.096 4.47348 167.52 4.37916 168.057 4.37916C168.599 4.37916 169.027 4.47348 169.339 4.66212C169.657 4.84487 169.884 5.11015 170.02 5.45795C170.156 5.80576 170.223 6.22726 170.223 6.72244V9.38406C170.223 9.87335 170.156 10.2948 170.02 10.6485C169.884 11.0023 169.657 11.2734 169.339 11.4621C169.027 11.6507 168.599 11.745 168.057 11.745ZM168.057 10.622C168.222 10.622 168.343 10.5808 168.419 10.4982C168.496 10.4157 168.546 10.3096 168.57 10.1799C168.593 10.0502 168.605 9.91756 168.605 9.78197V6.33337C168.605 6.19189 168.593 6.05925 168.57 5.93545C168.546 5.80576 168.496 5.69965 168.419 5.61712C168.343 5.53459 168.222 5.49333 168.057 5.49333C167.904 5.49333 167.789 5.53459 167.712 5.61712C167.635 5.69965 167.585 5.80576 167.562 5.93545C167.538 6.05925 167.526 6.19189 167.526 6.33337V9.78197C167.526 9.91756 167.535 10.0502 167.553 10.1799C167.576 10.3096 167.624 10.4157 167.694 10.4982C167.771 10.5808 167.892 10.622 168.057 10.622ZM173.256 11.745C172.708 11.745 172.277 11.6566 171.965 11.4797C171.658 11.297 171.443 11.0347 171.319 10.6928C171.195 10.345 171.134 9.92051 171.134 9.41943V4.47643H172.699V9.65818C172.699 9.80556 172.711 9.95293 172.734 10.1003C172.758 10.2477 172.808 10.3685 172.884 10.4629C172.967 10.5572 173.091 10.6043 173.256 10.6043C173.427 10.6043 173.551 10.5572 173.627 10.4629C173.704 10.3685 173.751 10.2477 173.769 10.1003C173.792 9.95293 173.804 9.80556 173.804 9.65818V4.47643H175.378V9.41943C175.378 9.92051 175.313 10.345 175.183 10.6928C175.06 11.0347 174.845 11.297 174.538 11.4797C174.231 11.6566 173.804 11.745 173.256 11.745ZM177.031 11.6389V5.65249H175.952V4.47643H179.692V5.65249H178.622V11.6389H177.031ZM183.16 11.6389L182.293 4.47643H183.638L184.062 8.65013L184.601 4.48527H185.654L186.22 8.6236L186.653 4.47643H187.979L187.122 11.6389H185.742L185.132 7.3149L184.557 11.6389H183.16ZM188.777 11.6389V4.47643H190.36V7.37679H191.474V4.47643H193.057V11.6389H191.474V8.50864H190.36V11.6389H188.777ZM193.803 11.6389L195.156 4.47643H196.96L198.295 11.6389H196.836L196.597 10.1268H195.545L195.298 11.6389H193.803ZM195.687 9.18068H196.447L196.067 6.38643L195.687 9.18068ZM199.267 11.6389V5.65249H198.188V4.47643H201.928V5.65249H200.858V11.6389H199.267ZM14.0448 24.6389V21.712L12.683 17.4764H14.1774L14.8583 19.7401L15.4685 17.4764H16.901L15.5657 21.712V24.6389H14.0448ZM19.4084 24.745C18.8719 24.745 18.4475 24.6507 18.135 24.4621C17.8226 24.2734 17.5986 24.0023 17.463 23.6485C17.3274 23.2948 17.2596 22.8733 17.2596 22.3841V19.7224C17.2596 19.2273 17.3274 18.8058 17.463 18.458C17.5986 18.1101 17.8226 17.8449 18.135 17.6621C18.4475 17.4735 18.8719 17.3792 19.4084 17.3792C19.9507 17.3792 20.3781 17.4735 20.6906 17.6621C21.0089 17.8449 21.2358 18.1101 21.3714 18.458C21.507 18.8058 21.5748 19.2273 21.5748 19.7224V22.3841C21.5748 22.8733 21.507 23.2948 21.3714 23.6485C21.2358 24.0023 21.0089 24.2734 20.6906 24.4621C20.3781 24.6507 19.9507 24.745 19.4084 24.745ZM19.4084 23.622C19.5734 23.622 19.6943 23.5808 19.7709 23.4982C19.8476 23.4157 19.8977 23.3096 19.9212 23.1799C19.9448 23.0502 19.9566 22.9176 19.9566 22.782V19.3334C19.9566 19.1919 19.9448 19.0593 19.9212 18.9355C19.8977 18.8058 19.8476 18.6997 19.7709 18.6171C19.6943 18.5346 19.5734 18.4933 19.4084 18.4933C19.2551 18.4933 19.1402 18.5346 19.0635 18.6171C18.9869 18.6997 18.9368 18.8058 18.9132 18.9355C18.8896 19.0593 18.8778 19.1919 18.8778 19.3334V22.782C18.8778 22.9176 18.8867 23.0502 18.9044 23.1799C18.9279 23.3096 18.9751 23.4157 19.0458 23.4982C19.1225 23.5808 19.2433 23.622 19.4084 23.622ZM24.6073 24.745C24.059 24.745 23.6287 24.6566 23.3162 24.4797C23.0097 24.297 22.7945 24.0347 22.6707 23.6928C22.5469 23.345 22.485 22.9205 22.485 22.4194V17.4764H24.0502V22.6582C24.0502 22.8056 24.062 22.9529 24.0855 23.1003C24.1091 23.2477 24.1592 23.3685 24.2359 23.4629C24.3184 23.5572 24.4422 23.6043 24.6073 23.6043C24.7782 23.6043 24.902 23.5572 24.9786 23.4629C25.0553 23.3685 25.1024 23.2477 25.1201 23.1003C25.1437 22.9529 25.1555 22.8056 25.1555 22.6582V17.4764H26.7295V22.4194C26.7295 22.9205 26.6646 23.345 26.5349 23.6928C26.4111 24.0347 26.196 24.297 25.8894 24.4797C25.5829 24.6566 25.1555 24.745 24.6073 24.745ZM27.7366 24.6389V17.4764H29.7085C30.1919 17.4764 30.6104 17.5295 30.9641 17.6356C31.3178 17.7417 31.5919 17.9333 31.7865 18.2104C31.9869 18.4815 32.0871 18.8677 32.0871 19.3687C32.0871 19.6635 32.0635 19.9258 32.0164 20.1557C31.9692 20.3856 31.8808 20.5861 31.7511 20.757C31.6273 20.9221 31.4475 21.0606 31.2117 21.1726L32.1932 24.6389H30.5573L29.7704 21.4291H29.3194V24.6389H27.7366ZM29.3194 20.5183H29.7615C29.9855 20.5183 30.1594 20.48 30.2832 20.4033C30.407 20.3208 30.4925 20.2058 30.5397 20.0585C30.5927 19.9052 30.6192 19.7224 30.6192 19.5102C30.6192 19.2037 30.5632 18.9649 30.4512 18.794C30.3392 18.623 30.1329 18.5375 29.8323 18.5375H29.3194V20.5183ZM34.9563 24.6389L36.3092 17.4764H38.1131L39.4483 24.6389H37.9893L37.7505 23.1268H36.6982L36.4506 24.6389H34.9563ZM36.8397 22.1807H37.6002L37.22 19.3864L36.8397 22.1807ZM42.1715 24.745C41.6233 24.745 41.1929 24.6566 40.8805 24.4797C40.574 24.297 40.3588 24.0347 40.235 23.6928C40.1112 23.345 40.0493 22.9205 40.0493 22.4194V17.4764H41.6144V22.6582C41.6144 22.8056 41.6262 22.9529 41.6498 23.1003C41.6734 23.2477 41.7235 23.3685 41.8001 23.4629C41.8827 23.5572 42.0065 23.6043 42.1715 23.6043C42.3425 23.6043 42.4663 23.5572 42.5429 23.4629C42.6195 23.3685 42.6667 23.2477 42.6844 23.1003C42.708 22.9529 42.7198 22.8056 42.7198 22.6582V17.4764H44.2937V22.4194C44.2937 22.9205 44.2289 23.345 44.0992 23.6928C43.9754 24.0347 43.7602 24.297 43.4537 24.4797C43.1471 24.6566 42.7198 24.745 42.1715 24.745ZM45.3008 24.6389V17.4764H47.1136C47.7384 17.4764 48.2248 17.556 48.5726 17.7152C48.9204 17.8684 49.165 18.1131 49.3065 18.4491C49.448 18.7792 49.5187 19.2096 49.5187 19.7401V22.3398C49.5187 22.8763 49.448 23.3155 49.3065 23.6574C49.165 23.9934 48.9204 24.241 48.5726 24.4002C48.2307 24.5593 47.7502 24.6389 47.1312 24.6389H45.3008ZM46.8836 23.5424H47.1312C47.3729 23.5424 47.5468 23.5071 47.6529 23.4363C47.7591 23.3656 47.8239 23.2595 47.8475 23.118C47.877 22.9765 47.8917 22.7997 47.8917 22.5874V19.466C47.8917 19.2538 47.874 19.0828 47.8386 18.9531C47.8092 18.8234 47.7414 18.7291 47.6353 18.6702C47.5292 18.6112 47.3582 18.5818 47.1224 18.5818H46.8836V23.5424ZM50.4909 24.6389V17.4764H52.0737V24.6389H50.4909ZM53.1417 24.6389V17.4764H56.3604V18.5552H54.7245V20.3326H55.9713V21.4291H54.7245V23.569H56.3781V24.6389H53.1417ZM57.0967 24.6389V17.4764H58.2108L59.6787 20.925V17.4764H60.9874V24.6389H59.9175L58.4496 20.925V24.6389H57.0967ZM64.1048 24.745C63.5625 24.745 63.1322 24.6478 62.8138 24.4532C62.5014 24.2528 62.2803 23.9757 62.1506 23.622C62.0209 23.2624 61.9561 22.8409 61.9561 22.3575V19.7755C61.9561 19.2803 62.0209 18.8559 62.1506 18.5022C62.2803 18.1426 62.5014 17.8655 62.8138 17.671C63.1322 17.4764 63.5625 17.3792 64.1048 17.3792C64.6354 17.3792 65.048 17.4676 65.3428 17.6444C65.6434 17.8154 65.8557 18.0571 65.9795 18.3695C66.1033 18.682 66.1652 19.0416 66.1652 19.4483V20.0673H64.6177V19.3511C64.6177 19.2096 64.6089 19.074 64.5912 18.9443C64.5794 18.8146 64.5381 18.7085 64.4674 18.626C64.3966 18.5375 64.2758 18.4933 64.1048 18.4933C63.9398 18.4933 63.816 18.5375 63.7334 18.626C63.6568 18.7144 63.6067 18.8264 63.5831 18.962C63.5654 19.0917 63.5566 19.2302 63.5566 19.3776V22.7466C63.5566 22.9058 63.5684 23.0531 63.592 23.1887C63.6214 23.3184 63.6745 23.4245 63.7511 23.5071C63.8337 23.5837 63.9516 23.622 64.1048 23.622C64.2699 23.622 64.3878 23.5808 64.4585 23.4982C64.5293 23.4098 64.5735 23.2978 64.5912 23.1622C64.6089 23.0266 64.6177 22.8881 64.6177 22.7466V21.995H66.1652V22.614C66.1652 23.0207 66.1033 23.3862 65.9795 23.7104C65.8616 24.0288 65.6523 24.2823 65.3516 24.4709C65.0569 24.6537 64.6413 24.745 64.1048 24.745ZM67.0359 24.6389V17.4764H70.2546V18.5552H68.6188V20.3326H69.8656V21.4291H68.6188V23.569H70.2723V24.6389H67.0359ZM75.3049 24.745C74.7625 24.745 74.3322 24.6478 74.0138 24.4532C73.7014 24.2528 73.4803 23.9757 73.3506 23.622C73.221 23.2624 73.1561 22.8409 73.1561 22.3575V19.7755C73.1561 19.2803 73.221 18.8559 73.3506 18.5022C73.4803 18.1426 73.7014 17.8655 74.0138 17.671C74.3322 17.4764 74.7625 17.3792 75.3049 17.3792C75.8354 17.3792 76.2481 17.4676 76.5428 17.6444C76.8435 17.8154 77.0557 18.0571 77.1795 18.3695C77.3033 18.682 77.3652 19.0416 77.3652 19.4483V20.0673H75.8177V19.3511C75.8177 19.2096 75.8089 19.074 75.7912 18.9443C75.7794 18.8146 75.7381 18.7085 75.6674 18.626C75.5967 18.5375 75.4758 18.4933 75.3049 18.4933C75.1398 18.4933 75.016 18.5375 74.9335 18.626C74.8568 18.7144 74.8067 18.8264 74.7831 18.962C74.7655 19.0917 74.7566 19.2302 74.7566 19.3776V22.7466C74.7566 22.9058 74.7684 23.0531 74.792 23.1887C74.8215 23.3184 74.8745 23.4245 74.9512 23.5071C75.0337 23.5837 75.1516 23.622 75.3049 23.622C75.4699 23.622 75.5878 23.5808 75.6586 23.4982C75.7293 23.4098 75.7735 23.2978 75.7912 23.1622C75.8089 23.0266 75.8177 22.8881 75.8177 22.7466V21.995H77.3652V22.614C77.3652 23.0207 77.3033 23.3862 77.1795 23.7104C77.0616 24.0288 76.8523 24.2823 76.5517 24.4709C76.2569 24.6537 75.8413 24.745 75.3049 24.745ZM80.2874 24.745C79.751 24.745 79.3265 24.6507 79.0141 24.4621C78.7017 24.2734 78.4777 24.0023 78.3421 23.6485C78.2065 23.2948 78.1387 22.8733 78.1387 22.3841V19.7224C78.1387 19.2273 78.2065 18.8058 78.3421 18.458C78.4777 18.1101 78.7017 17.8449 79.0141 17.6621C79.3265 17.4735 79.751 17.3792 80.2874 17.3792C80.8298 17.3792 81.2572 17.4735 81.5696 17.6621C81.8879 17.8449 82.1149 18.1101 82.2505 18.458C82.3861 18.8058 82.4539 19.2273 82.4539 19.7224V22.3841C82.4539 22.8733 82.3861 23.2948 82.2505 23.6485C82.1149 24.0023 81.8879 24.2734 81.5696 24.4621C81.2572 24.6507 80.8298 24.745 80.2874 24.745ZM80.2874 23.622C80.4525 23.622 80.5733 23.5808 80.65 23.4982C80.7266 23.4157 80.7767 23.3096 80.8003 23.1799C80.8239 23.0502 80.8357 22.9176 80.8357 22.782V19.3334C80.8357 19.1919 80.8239 19.0593 80.8003 18.9355C80.7767 18.8058 80.7266 18.6997 80.65 18.6171C80.5733 18.5346 80.4525 18.4933 80.2874 18.4933C80.1342 18.4933 80.0192 18.5346 79.9426 18.6171C79.8659 18.6997 79.8158 18.8058 79.7923 18.9355C79.7687 19.0593 79.7569 19.1919 79.7569 19.3334V22.782C79.7569 22.9176 79.7657 23.0502 79.7834 23.1799C79.807 23.3096 79.8542 23.4157 79.9249 23.4982C80.0015 23.5808 80.1224 23.622 80.2874 23.622ZM85.4863 24.745C84.9381 24.745 84.5077 24.6566 84.1953 24.4797C83.8888 24.297 83.6736 24.0347 83.5498 23.6928C83.426 23.345 83.3641 22.9205 83.3641 22.4194V17.4764H84.9292V22.6582C84.9292 22.8056 84.941 22.9529 84.9646 23.1003C84.9882 23.2477 85.0383 23.3685 85.1149 23.4629C85.1975 23.5572 85.3213 23.6043 85.4863 23.6043C85.6573 23.6043 85.7811 23.5572 85.8577 23.4629C85.9343 23.3685 85.9815 23.2477 85.9992 23.1003C86.0228 22.9529 86.0346 22.8056 86.0346 22.6582V17.4764H87.6085V22.4194C87.6085 22.9205 87.5437 23.345 87.414 23.6928C87.2902 24.0347 87.075 24.297 86.7685 24.4797C86.462 24.6566 86.0346 24.745 85.4863 24.745ZM88.6156 24.6389V17.4764H90.1985V23.569H91.8432V24.6389H88.6156ZM92.5361 24.6389V17.4764H94.3488C94.9737 17.4764 95.46 17.556 95.8078 17.7152C96.1556 17.8684 96.4003 18.1131 96.5418 18.4491C96.6832 18.7792 96.754 19.2096 96.754 19.7401V22.3398C96.754 22.8763 96.6832 23.3155 96.5418 23.6574C96.4003 23.9934 96.1556 24.241 95.8078 24.4002C95.4659 24.5593 94.9855 24.6389 94.3665 24.6389H92.5361ZM94.1189 23.5424H94.3665C94.6082 23.5424 94.7821 23.5071 94.8882 23.4363C94.9943 23.3656 95.0591 23.2595 95.0827 23.118C95.1122 22.9765 95.1269 22.7997 95.1269 22.5874V19.466C95.1269 19.2538 95.1093 19.0828 95.0739 18.9531C95.0444 18.8234 94.9766 18.7291 94.8705 18.6702C94.7644 18.6112 94.5934 18.5818 94.3576 18.5818H94.1189V23.5424ZM99.9797 24.6389V17.4764H101.846C102.152 17.4764 102.441 17.5 102.712 17.5472C102.989 17.5943 103.234 17.6857 103.446 17.8213C103.658 17.951 103.823 18.1396 103.941 18.3872C104.065 18.6289 104.127 18.9502 104.127 19.3511C104.127 19.6399 104.083 19.8846 103.994 20.085C103.912 20.2795 103.791 20.4357 103.632 20.5536C103.478 20.6715 103.293 20.7511 103.075 20.7924C103.352 20.8278 103.585 20.9191 103.773 21.0665C103.962 21.208 104.103 21.3996 104.198 21.6413C104.298 21.883 104.348 22.1748 104.348 22.5167C104.348 22.8881 104.298 23.2094 104.198 23.4805C104.103 23.7458 103.965 23.9639 103.782 24.1349C103.599 24.3058 103.372 24.4326 103.101 24.5151C102.836 24.5977 102.529 24.6389 102.182 24.6389H99.9797ZM101.563 23.5336H101.899C102.246 23.5336 102.485 23.4452 102.615 23.2683C102.75 23.0915 102.818 22.8321 102.818 22.4902C102.818 22.219 102.789 22.0038 102.73 21.8447C102.671 21.6855 102.574 21.5705 102.438 21.4998C102.302 21.4232 102.12 21.3848 101.89 21.3848H101.563V23.5336ZM101.563 20.3414H101.872C102.114 20.3414 102.296 20.3061 102.42 20.2353C102.544 20.1587 102.627 20.0496 102.668 19.9081C102.715 19.7667 102.739 19.5957 102.739 19.3953C102.739 19.2066 102.703 19.0504 102.632 18.9266C102.568 18.7969 102.467 18.6997 102.332 18.6348C102.202 18.57 102.037 18.5375 101.837 18.5375H101.563V20.3414ZM105.178 24.6389V17.4764H108.397V18.5552H106.761V20.3326H108.008V21.4291H106.761V23.569H108.415V24.6389H105.178ZM111.97 24.6389L111.104 17.4764H112.448L112.872 21.6501L113.412 17.4853H114.464L115.03 21.6236L115.463 17.4764H116.79L115.932 24.6389H114.552L113.942 20.3149L113.368 24.6389H111.97ZM119.613 24.745C119.076 24.745 118.652 24.6507 118.339 24.4621C118.027 24.2734 117.803 24.0023 117.667 23.6485C117.532 23.2948 117.464 22.8733 117.464 22.3841V19.7224C117.464 19.2273 117.532 18.8058 117.667 18.458C117.803 18.1101 118.027 17.8449 118.339 17.6621C118.652 17.4735 119.076 17.3792 119.613 17.3792C120.155 17.3792 120.582 17.4735 120.895 17.6621C121.213 17.8449 121.44 18.1101 121.576 18.458C121.711 18.8058 121.779 19.2273 121.779 19.7224V22.3841C121.779 22.8733 121.711 23.2948 121.576 23.6485C121.44 24.0023 121.213 24.2734 120.895 24.4621C120.582 24.6507 120.155 24.745 119.613 24.745ZM119.613 23.622C119.778 23.622 119.899 23.5808 119.975 23.4982C120.052 23.4157 120.102 23.3096 120.126 23.1799C120.149 23.0502 120.161 22.9176 120.161 22.782V19.3334C120.161 19.1919 120.149 19.0593 120.126 18.9355C120.102 18.8058 120.052 18.6997 119.975 18.6171C119.899 18.5346 119.778 18.4933 119.613 18.4933C119.459 18.4933 119.345 18.5346 119.268 18.6171C119.191 18.6997 119.141 18.8058 119.118 18.9355C119.094 19.0593 119.082 19.1919 119.082 19.3334V22.782C119.082 22.9176 119.091 23.0502 119.109 23.1799C119.132 23.3096 119.179 23.4157 119.25 23.4982C119.327 23.5808 119.448 23.622 119.613 23.622ZM122.742 24.6389V17.4764H124.714C125.198 17.4764 125.616 17.5295 125.97 17.6356C126.324 17.7417 126.598 17.9333 126.792 18.2104C126.993 18.4815 127.093 18.8677 127.093 19.3687C127.093 19.6635 127.069 19.9258 127.022 20.1557C126.975 20.3856 126.887 20.5861 126.757 20.757C126.633 20.9221 126.453 21.0606 126.218 21.1726L127.199 24.6389H125.563L124.776 21.4291H124.325V24.6389H122.742ZM124.325 20.5183H124.767C124.991 20.5183 125.165 20.48 125.289 20.4033C125.413 20.3208 125.498 20.2058 125.546 20.0585C125.599 19.9052 125.625 19.7224 125.625 19.5102C125.625 19.2037 125.569 18.9649 125.457 18.794C125.345 18.623 125.139 18.5375 124.838 18.5375H124.325V20.5183ZM128.595 24.6389V18.6525H127.516V17.4764H131.257V18.6525H130.187V24.6389H128.595ZM131.914 24.6389V17.4764H133.497V20.3768H134.611V17.4764H136.194V24.6389H134.611V21.5086H133.497V24.6389H131.914ZM137.161 24.6389V23.2772H138.522V24.6389H137.161Z" fill="white"/>
</svg>
