<svg width="172" height="47" viewBox="0 0 172 47" fill="none" xmlns="http://www.w3.org/2000/svg">
<rect width="172" height="47" rx="14" fill="#3CB9FC"/>
<path d="M23.8631 33.276C22.6978 33.276 21.7241 33.069 20.9421 32.655C20.1601 32.241 19.5698 31.6047 19.1711 30.746C18.7724 29.872 18.5501 28.745 18.5041 27.365L22.0231 26.836C22.0384 27.6333 22.1074 28.2773 22.2301 28.768C22.3681 29.2587 22.5521 29.6113 22.7821 29.826C23.0274 30.0407 23.3188 30.148 23.6561 30.148C24.0854 30.148 24.3614 30.0023 24.4841 29.711C24.6221 29.4197 24.6911 29.113 24.6911 28.791C24.6911 28.0243 24.5071 27.3803 24.1391 26.859C23.7711 26.3223 23.2728 25.7857 22.6441 25.249L21.0341 23.846C20.3288 23.248 19.7308 22.5733 19.2401 21.822C18.7648 21.0553 18.5271 20.1123 18.5271 18.993C18.5271 17.4137 18.9948 16.21 19.9301 15.382C20.8654 14.5387 22.1381 14.117 23.7481 14.117C24.7448 14.117 25.5421 14.2857 26.1401 14.623C26.7534 14.9603 27.2134 15.405 27.5201 15.957C27.8421 16.4937 28.0568 17.0687 28.1641 17.682C28.2868 18.28 28.3558 18.855 28.3711 19.407L24.8291 19.844C24.8138 19.292 24.7754 18.8167 24.7141 18.418C24.6681 18.004 24.5608 17.6897 24.3921 17.475C24.2234 17.245 23.9628 17.13 23.6101 17.13C23.2268 17.13 22.9431 17.291 22.7591 17.613C22.5904 17.935 22.5061 18.257 22.5061 18.579C22.5061 19.269 22.6671 19.8363 22.9891 20.281C23.3264 20.7103 23.7634 21.1627 24.3001 21.638L25.8411 22.995C26.6538 23.685 27.3361 24.467 27.8881 25.341C28.4554 26.215 28.7391 27.296 28.7391 28.584C28.7391 29.458 28.5398 30.2553 28.1411 30.976C27.7424 31.6813 27.1751 32.241 26.4391 32.655C25.7184 33.069 24.8598 33.276 23.8631 33.276ZM30.7555 33V14.37H34.8725V33H30.7555ZM42.5035 33.276C41.2155 33.276 40.1958 33.0077 39.4445 32.471C38.7085 31.9343 38.1795 31.183 37.8575 30.217C37.5508 29.2357 37.3975 28.1087 37.3975 26.836V20.58C37.3975 19.2613 37.5662 18.119 37.9035 17.153C38.2408 16.187 38.8158 15.4433 39.6285 14.922C40.4565 14.3853 41.5758 14.117 42.9865 14.117C44.3665 14.117 45.4475 14.347 46.2295 14.807C47.0268 15.267 47.5942 15.9033 47.9315 16.716C48.2688 17.5287 48.4375 18.4793 48.4375 19.568V20.764H44.4125V19.246C44.4125 18.8473 44.3818 18.4793 44.3205 18.142C44.2745 17.8047 44.1518 17.5363 43.9525 17.337C43.7685 17.1223 43.4618 17.015 43.0325 17.015C42.5878 17.015 42.2658 17.1377 42.0665 17.383C41.8672 17.613 41.7368 17.9043 41.6755 18.257C41.6295 18.6097 41.6065 18.9777 41.6065 19.361V27.986C41.6065 28.4 41.6448 28.791 41.7215 29.159C41.8135 29.5117 41.9668 29.803 42.1815 30.033C42.4115 30.2477 42.7335 30.355 43.1475 30.355C43.5768 30.355 43.9065 30.24 44.1365 30.01C44.3665 29.78 44.5275 29.481 44.6195 29.113C44.7115 28.745 44.7575 28.354 44.7575 27.94V25.755H43.0785V23.34H48.4605V33H45.7465L45.5165 31.459C45.2712 31.9803 44.9108 32.4173 44.4355 32.77C43.9602 33.1073 43.3162 33.276 42.5035 33.276ZM51.0372 33V14.37H53.9352L57.7532 23.34V14.37H61.1572V33H58.3742L54.5562 23.34V33H51.0372ZM69.7456 33L70.0676 14.37H74.4836L76.5306 25.203L78.7386 14.37H82.9936L83.3156 33H80.3946L80.0496 20.603L77.8876 33H75.2886L72.9886 20.511L72.7126 33H69.7456ZM86.0089 33V14.37H94.3809V17.176H90.1259V21.799H93.3689V24.651H90.1259V30.217H94.4269V33H86.0089ZM107.563 33.276C106.137 33.276 105.017 33.046 104.205 32.586C103.407 32.1107 102.848 31.4283 102.526 30.539C102.204 29.6343 102.043 28.5303 102.043 27.227V14.37H106.114V27.848C106.114 28.2313 106.144 28.6147 106.206 28.998C106.267 29.3813 106.397 29.6957 106.597 29.941C106.811 30.1863 107.133 30.309 107.563 30.309C108.007 30.309 108.329 30.1863 108.529 29.941C108.728 29.6957 108.851 29.3813 108.897 28.998C108.958 28.6147 108.989 28.2313 108.989 27.848V14.37H113.083V27.227C113.083 28.5303 112.914 29.6343 112.577 30.539C112.255 31.4283 111.695 32.1107 110.898 32.586C110.1 33.046 108.989 33.276 107.563 33.276ZM115.702 33V14.37H121.958C123.078 14.37 123.998 14.5847 124.718 15.014C125.439 15.428 125.976 16.0413 126.328 16.854C126.681 17.6513 126.857 18.625 126.857 19.775C126.857 21.2163 126.62 22.3203 126.144 23.087C125.669 23.8383 125.025 24.3597 124.212 24.651C123.4 24.9423 122.487 25.088 121.475 25.088H119.819V33H115.702ZM119.819 22.213H121.199C121.705 22.213 122.089 22.121 122.349 21.937C122.61 21.753 122.779 21.477 122.855 21.109C122.947 20.741 122.993 20.2733 122.993 19.706C122.993 19.2307 122.955 18.8167 122.878 18.464C122.817 18.096 122.656 17.8047 122.395 17.59C122.135 17.3753 121.728 17.268 121.176 17.268H119.819V22.213Z" fill="white"/>
<path d="M131.836 7.27808H147.263L161.829 23.139L147.263 39H131.836L146.474 23.139L131.836 7.27808Z" fill="white"/>
</svg>
