<svg width="633" height="88" viewBox="0 0 633 88" fill="none" xmlns="http://www.w3.org/2000/svg">
<rect width="633" height="87.9955" rx="26.5285" fill="#3CB9FC"/>
<path d="M555.654 19.8517H579.047L601.135 42.9529L579.047 66.0541H555.654L577.85 42.9529L555.654 19.8517Z" fill="white"/>
<path d="M51.0393 37.3333V19.9238H47.902V16.5037H58.7797V19.9238H55.6681V37.3333H51.0393ZM60.6136 37.3333V16.5037H66.3482C67.7539 16.5037 68.9711 16.6579 69.9998 16.9665C71.0284 17.2751 71.8256 17.8323 72.3913 18.6381C72.9742 19.4267 73.2657 20.5496 73.2657 22.0068C73.2657 22.864 73.1971 23.6269 73.0599 24.2955C72.9228 24.9641 72.6656 25.547 72.2885 26.0442C71.9284 26.5242 71.4056 26.9271 70.7198 27.2528L73.5742 37.3333H68.8169L66.5282 27.9985H65.2167V37.3333H60.6136ZM65.2167 25.3498H66.5024C67.1539 25.3498 67.6596 25.2384 68.0197 25.0155C68.3797 24.7755 68.6283 24.4412 68.7654 24.0126C68.9197 23.5669 68.9969 23.0354 68.9969 22.4182C68.9969 21.5268 68.834 20.8325 68.5083 20.3353C68.1825 19.8381 67.5825 19.5895 66.7082 19.5895H65.2167V25.3498ZM78.0783 37.3333V28.8214L74.1181 16.5037H78.464L80.4441 23.0869L82.2185 16.5037H86.3844L82.5014 28.8214V37.3333H78.0783ZM100.683 37.6419C99.1229 37.6419 97.8885 37.3676 96.9799 36.819C96.0713 36.2704 95.4198 35.4818 95.0255 34.4532C94.6312 33.4245 94.434 32.1988 94.434 30.7758V23.0354C94.434 21.5953 94.6312 20.3696 95.0255 19.3581C95.4198 18.3466 96.0713 17.5751 96.9799 17.0437C97.8885 16.4951 99.1229 16.2208 100.683 16.2208C102.26 16.2208 103.503 16.4951 104.412 17.0437C105.337 17.5751 105.997 18.3466 106.392 19.3581C106.786 20.3696 106.983 21.5953 106.983 23.0354V30.7758C106.983 32.1988 106.786 33.4245 106.392 34.4532C105.997 35.4818 105.337 36.2704 104.412 36.819C103.503 37.3676 102.26 37.6419 100.683 37.6419ZM100.683 34.376C101.163 34.376 101.514 34.256 101.737 34.016C101.96 33.776 102.106 33.4674 102.174 33.0902C102.243 32.7131 102.277 32.3273 102.277 31.933V21.9039C102.277 21.4925 102.243 21.1068 102.174 20.7467C102.106 20.3696 101.96 20.061 101.737 19.821C101.514 19.581 101.163 19.461 100.683 19.461C100.237 19.461 99.9029 19.581 99.68 19.821C99.4572 20.061 99.3114 20.3696 99.2429 20.7467C99.1743 21.1068 99.14 21.4925 99.14 21.9039V31.933C99.14 32.3273 99.1657 32.7131 99.2171 33.0902C99.2857 33.4674 99.4229 33.776 99.6286 34.016C99.8515 34.256 100.203 34.376 100.683 34.376ZM115.802 37.6419C114.208 37.6419 112.956 37.3847 112.048 36.8704C111.156 36.339 110.53 35.5761 110.17 34.5817C109.81 33.5703 109.63 32.3359 109.63 30.8787V16.5037H114.182V31.573C114.182 32.0016 114.216 32.4302 114.285 32.8588C114.353 33.2874 114.499 33.6388 114.722 33.9131C114.962 34.1874 115.322 34.3246 115.802 34.3246C116.299 34.3246 116.659 34.1874 116.882 33.9131C117.105 33.6388 117.242 33.2874 117.294 32.8588C117.362 32.4302 117.396 32.0016 117.396 31.573V16.5037H121.974V30.8787C121.974 32.3359 121.785 33.5703 121.408 34.5817C121.048 35.5761 120.422 36.339 119.531 36.8704C118.639 37.3847 117.396 37.6419 115.802 37.6419ZM124.903 37.3333V16.5037H130.637C132.043 16.5037 133.26 16.6579 134.289 16.9665C135.317 17.2751 136.115 17.8323 136.68 18.6381C137.263 19.4267 137.555 20.5496 137.555 22.0068C137.555 22.864 137.486 23.6269 137.349 24.2955C137.212 24.9641 136.955 25.547 136.578 26.0442C136.218 26.5242 135.695 26.9271 135.009 27.2528L137.863 37.3333H133.106L130.817 27.9985H129.506V37.3333H124.903ZM129.506 25.3498H130.792C131.443 25.3498 131.949 25.2384 132.309 25.0155C132.669 24.7755 132.917 24.4412 133.054 24.0126C133.209 23.5669 133.286 23.0354 133.286 22.4182C133.286 21.5268 133.123 20.8325 132.797 20.3353C132.472 19.8381 131.872 19.5895 130.997 19.5895H129.506V25.3498ZM146.902 37.3333V16.5037H152.636C154.042 16.5037 155.259 16.6579 156.288 16.9665C157.316 17.2751 158.114 17.8323 158.679 18.6381C159.262 19.4267 159.554 20.5496 159.554 22.0068C159.554 22.864 159.485 23.6269 159.348 24.2955C159.211 24.9641 158.954 25.547 158.576 26.0442C158.216 26.5242 157.694 26.9271 157.008 27.2528L159.862 37.3333H155.105L152.816 27.9985H151.505V37.3333H146.902ZM151.505 25.3498H152.79C153.442 25.3498 153.948 25.2384 154.308 25.0155C154.668 24.7755 154.916 24.4412 155.053 24.0126C155.208 23.5669 155.285 23.0354 155.285 22.4182C155.285 21.5268 155.122 20.8325 154.796 20.3353C154.471 19.8381 153.87 19.5895 152.996 19.5895H151.505V25.3498ZM162.321 37.3333V16.5037H171.681V19.641H166.924V24.8098H170.55V27.9985H166.924V34.2217H171.733V37.3333H162.321ZM176.6 37.3333L172.845 16.5037H176.78L179.017 30.6472L181.1 16.5037H185.266L181.46 37.3333H176.6ZM187.358 37.3333V16.5037H196.719V19.641H191.962V24.8098H195.587V27.9985H191.962V34.2217H196.77V37.3333H187.358ZM198.86 37.3333V16.5037H202.1L206.369 26.5327V16.5037H210.175V37.3333H207.063L202.795 26.5327V37.3333H198.86ZM219.292 37.6419C217.698 37.6419 216.447 37.3847 215.538 36.8704C214.646 36.339 214.021 35.5761 213.661 34.5817C213.301 33.5703 213.121 32.3359 213.121 30.8787V16.5037H217.672V31.573C217.672 32.0016 217.707 32.4302 217.775 32.8588C217.844 33.2874 217.99 33.6388 218.212 33.9131C218.452 34.1874 218.812 34.3246 219.292 34.3246C219.79 34.3246 220.15 34.1874 220.372 33.9131C220.595 33.6388 220.733 33.2874 220.784 32.8588C220.853 32.4302 220.887 32.0016 220.887 31.573V16.5037H225.464V30.8787C225.464 32.3359 225.276 33.5703 224.898 34.5817C224.538 35.5761 223.913 36.339 223.021 36.8704C222.13 37.3847 220.887 37.6419 219.292 37.6419ZM228.393 37.3333V16.5037H237.753V19.641H232.996V24.8098H236.622V27.9985H232.996V34.2217H237.805V37.3333H228.393ZM252.44 37.6419C250.863 37.6419 249.612 37.359 248.686 36.7933C247.777 36.2104 247.134 35.4046 246.757 34.376C246.38 33.3302 246.191 32.1045 246.191 30.6987V23.1897C246.191 21.7496 246.38 20.5153 246.757 19.4867C247.134 18.4409 247.777 17.6351 248.686 17.0694C249.612 16.5037 250.863 16.2208 252.44 16.2208C253.983 16.2208 255.183 16.4779 256.04 16.9923C256.915 17.4894 257.532 18.1923 257.892 19.1009C258.252 20.0096 258.432 21.0553 258.432 22.2382V24.0383H253.932V21.9554C253.932 21.5439 253.906 21.1496 253.855 20.7724C253.82 20.3953 253.7 20.0867 253.495 19.8467C253.289 19.5895 252.937 19.461 252.44 19.461C251.96 19.461 251.6 19.5895 251.36 19.8467C251.137 20.1038 250.992 20.4296 250.923 20.8239C250.872 21.201 250.846 21.6039 250.846 22.0325V31.8302C250.846 32.2931 250.88 32.7216 250.949 33.116C251.034 33.4931 251.189 33.8017 251.412 34.0417C251.652 34.2646 251.995 34.376 252.44 34.376C252.92 34.376 253.263 34.256 253.469 34.016C253.675 33.7588 253.803 33.4331 253.855 33.0388C253.906 32.6445 253.932 32.2416 253.932 31.8302V29.6443H258.432V31.4444C258.432 32.6274 258.252 33.6903 257.892 34.6332C257.549 35.5589 256.941 36.2961 256.066 36.8447C255.209 37.3762 254 37.6419 252.44 37.6419ZM259.962 37.3333L263.896 16.5037H269.142L273.025 37.3333H268.782L268.088 32.9359H265.027L264.307 37.3333H259.962ZM265.439 30.1844H267.65L266.545 22.0582L265.439 30.1844ZM275.128 37.3333V16.5037H279.731V34.2217H284.514V37.3333H275.128ZM292.169 37.6419C290.592 37.6419 289.34 37.359 288.414 36.7933C287.506 36.2104 286.863 35.4046 286.486 34.376C286.109 33.3302 285.92 32.1045 285.92 30.6987V23.1897C285.92 21.7496 286.109 20.5153 286.486 19.4867C286.863 18.4409 287.506 17.6351 288.414 17.0694C289.34 16.5037 290.592 16.2208 292.169 16.2208C293.712 16.2208 294.912 16.4779 295.769 16.9923C296.643 17.4894 297.261 18.1923 297.621 19.1009C297.981 20.0096 298.161 21.0553 298.161 22.2382V24.0383H293.66V21.9554C293.66 21.5439 293.635 21.1496 293.583 20.7724C293.549 20.3953 293.429 20.0867 293.223 19.8467C293.018 19.5895 292.666 19.461 292.169 19.461C291.689 19.461 291.329 19.5895 291.089 19.8467C290.866 20.1038 290.72 20.4296 290.652 20.8239C290.6 21.201 290.575 21.6039 290.575 22.0325V31.8302C290.575 32.2931 290.609 32.7216 290.677 33.116C290.763 33.4931 290.917 33.8017 291.14 34.0417C291.38 34.2646 291.723 34.376 292.169 34.376C292.649 34.376 292.992 34.256 293.198 34.016C293.403 33.7588 293.532 33.4331 293.583 33.0388C293.635 32.6445 293.66 32.2416 293.66 31.8302V29.6443H298.161V31.4444C298.161 32.6274 297.981 33.6903 297.621 34.6332C297.278 35.5589 296.669 36.2961 295.795 36.8447C294.938 37.3762 293.729 37.6419 292.169 37.6419ZM306.71 37.6419C305.116 37.6419 303.865 37.3847 302.956 36.8704C302.065 36.339 301.439 35.5761 301.079 34.5817C300.719 33.5703 300.539 32.3359 300.539 30.8787V16.5037H305.09V31.573C305.09 32.0016 305.125 32.4302 305.193 32.8588C305.262 33.2874 305.408 33.6388 305.63 33.9131C305.87 34.1874 306.23 34.3246 306.71 34.3246C307.208 34.3246 307.568 34.1874 307.791 33.9131C308.013 33.6388 308.151 33.2874 308.202 32.8588C308.271 32.4302 308.305 32.0016 308.305 31.573V16.5037H312.882V30.8787C312.882 32.3359 312.694 33.5703 312.317 34.5817C311.956 35.5761 311.331 36.339 310.439 36.8704C309.548 37.3847 308.305 37.6419 306.71 37.6419ZM315.811 37.3333V16.5037H320.414V34.2217H325.197V37.3333H315.811ZM326.209 37.3333L330.144 16.5037H335.39L339.273 37.3333H335.03L334.336 32.9359H331.275L330.555 37.3333H326.209ZM331.687 30.1844H333.898L332.793 22.0582L331.687 30.1844ZM342.098 37.3333V19.9238H338.961V16.5037H349.838V19.9238H346.727V37.3333H342.098ZM357.437 37.6419C355.877 37.6419 354.643 37.3676 353.734 36.819C352.826 36.2704 352.174 35.4818 351.78 34.4532C351.386 33.4245 351.189 32.1988 351.189 30.7758V23.0354C351.189 21.5953 351.386 20.3696 351.78 19.3581C352.174 18.3466 352.826 17.5751 353.734 17.0437C354.643 16.4951 355.877 16.2208 357.437 16.2208C359.015 16.2208 360.258 16.4951 361.166 17.0437C362.092 17.5751 362.752 18.3466 363.146 19.3581C363.541 20.3696 363.738 21.5953 363.738 23.0354V30.7758C363.738 32.1988 363.541 33.4245 363.146 34.4532C362.752 35.4818 362.092 36.2704 361.166 36.819C360.258 37.3676 359.015 37.6419 357.437 37.6419ZM357.437 34.376C357.917 34.376 358.269 34.256 358.492 34.016C358.715 33.776 358.86 33.4674 358.929 33.0902C358.997 32.7131 359.032 32.3273 359.032 31.933V21.9039C359.032 21.4925 358.997 21.1068 358.929 20.7467C358.86 20.3696 358.715 20.061 358.492 19.821C358.269 19.581 357.917 19.461 357.437 19.461C356.992 19.461 356.657 19.581 356.434 19.821C356.212 20.061 356.066 20.3696 355.997 20.7467C355.929 21.1068 355.894 21.4925 355.894 21.9039V31.933C355.894 32.3273 355.92 32.7131 355.972 33.0902C356.04 33.4674 356.177 33.776 356.383 34.016C356.606 34.256 356.957 34.376 357.437 34.376ZM366.539 37.3333V16.5037H372.274C373.679 16.5037 374.897 16.6579 375.925 16.9665C376.954 17.2751 377.751 17.8323 378.317 18.6381C378.9 19.4267 379.191 20.5496 379.191 22.0068C379.191 22.864 379.123 23.6269 378.985 24.2955C378.848 24.9641 378.591 25.547 378.214 26.0442C377.854 26.5242 377.331 26.9271 376.645 27.2528L379.5 37.3333H374.742L372.454 27.9985H371.142V37.3333H366.539ZM371.142 25.3498H372.428C373.079 25.3498 373.585 25.2384 373.945 25.0155C374.305 24.7755 374.554 24.4412 374.691 24.0126C374.845 23.5669 374.922 23.0354 374.922 22.4182C374.922 21.5268 374.76 20.8325 374.434 20.3353C374.108 19.8381 373.508 19.5895 372.634 19.5895H371.142V25.3498ZM387.535 37.3333L391.47 16.5037H396.716L400.599 37.3333H396.356L395.661 32.9359H392.601L391.881 37.3333H387.535ZM393.013 30.1844H395.224L394.118 22.0582L393.013 30.1844ZM402.702 37.3333V16.5037H405.942L410.211 26.5327V16.5037H414.017V37.3333H410.905L406.636 26.5327V37.3333H402.702ZM417.117 37.3333V16.5037H422.388C424.205 16.5037 425.62 16.7351 426.631 17.198C427.643 17.6437 428.354 18.3552 428.766 19.3324C429.177 20.2924 429.383 21.5439 429.383 23.0869V30.6472C429.383 32.2073 429.177 33.4845 428.766 34.4789C428.354 35.4561 427.643 36.1761 426.631 36.639C425.637 37.1019 424.24 37.3333 422.44 37.3333H417.117ZM421.72 34.1446H422.44C423.143 34.1446 423.648 34.0417 423.957 33.836C424.265 33.6303 424.454 33.3217 424.523 32.9102C424.608 32.4988 424.651 31.9845 424.651 31.3673V22.2897C424.651 21.6725 424.6 21.1753 424.497 20.7982C424.411 20.421 424.214 20.1467 423.905 19.9753C423.597 19.8038 423.1 19.7181 422.414 19.7181H421.72V34.1446ZM438.764 37.3333V16.5037H447.764V19.6152H443.367V24.8612H447.199V28.0757H443.367V37.3333H438.764ZM449.94 37.3333V16.5037H454.543V37.3333H449.94ZM457.649 37.3333V16.5037H460.889L465.158 26.5327V16.5037H468.964V37.3333H465.852L461.583 26.5327V37.3333H457.649ZM472.064 37.3333V16.5037H477.335C479.153 16.5037 480.567 16.7351 481.578 17.198C482.59 17.6437 483.301 18.3552 483.713 19.3324C484.124 20.2924 484.33 21.5439 484.33 23.0869V30.6472C484.33 32.2073 484.124 33.4845 483.713 34.4789C483.301 35.4561 482.59 36.1761 481.578 36.639C480.584 37.1019 479.187 37.3333 477.387 37.3333H472.064ZM476.667 34.1446H477.387C478.09 34.1446 478.595 34.0417 478.904 33.836C479.213 33.6303 479.401 33.3217 479.47 32.9102C479.555 32.4988 479.598 31.9845 479.598 31.3673V22.2897C479.598 21.6725 479.547 21.1753 479.444 20.7982C479.358 20.421 479.161 20.1467 478.853 19.9753C478.544 19.8038 478.047 19.7181 477.361 19.7181H476.667V34.1446ZM499.677 37.6419C498.117 37.6419 496.883 37.3676 495.974 36.819C495.065 36.2704 494.414 35.4818 494.019 34.4532C493.625 33.4245 493.428 32.1988 493.428 30.7758V23.0354C493.428 21.5953 493.625 20.3696 494.019 19.3581C494.414 18.3466 495.065 17.5751 495.974 17.0437C496.883 16.4951 498.117 16.2208 499.677 16.2208C501.254 16.2208 502.497 16.4951 503.406 17.0437C504.331 17.5751 504.991 18.3466 505.386 19.3581C505.78 20.3696 505.977 21.5953 505.977 23.0354V30.7758C505.977 32.1988 505.78 33.4245 505.386 34.4532C504.991 35.4818 504.331 36.2704 503.406 36.819C502.497 37.3676 501.254 37.6419 499.677 37.6419ZM499.677 34.376C500.157 34.376 500.508 34.256 500.731 34.016C500.954 33.776 501.1 33.4674 501.168 33.0902C501.237 32.7131 501.271 32.3273 501.271 31.933V21.9039C501.271 21.4925 501.237 21.1068 501.168 20.7467C501.1 20.3696 500.954 20.061 500.731 19.821C500.508 19.581 500.157 19.461 499.677 19.461C499.231 19.461 498.897 19.581 498.674 19.821C498.451 20.061 498.305 20.3696 498.237 20.7467C498.168 21.1068 498.134 21.4925 498.134 21.9039V31.933C498.134 32.3273 498.16 32.7131 498.211 33.0902C498.28 33.4674 498.417 33.776 498.623 34.016C498.845 34.256 499.197 34.376 499.677 34.376ZM514.796 37.6419C513.202 37.6419 511.95 37.3847 511.042 36.8704C510.15 36.339 509.524 35.5761 509.164 34.5817C508.804 33.5703 508.624 32.3359 508.624 30.8787V16.5037H513.176V31.573C513.176 32.0016 513.21 32.4302 513.279 32.8588C513.347 33.2874 513.493 33.6388 513.716 33.9131C513.956 34.1874 514.316 34.3246 514.796 34.3246C515.293 34.3246 515.653 34.1874 515.876 33.9131C516.099 33.6388 516.236 33.2874 516.288 32.8588C516.356 32.4302 516.39 32.0016 516.39 31.573V16.5037H520.968V30.8787C520.968 32.3359 520.779 33.5703 520.402 34.5817C520.042 35.5761 519.416 36.339 518.525 36.8704C517.633 37.3847 516.39 37.6419 514.796 37.6419ZM525.774 37.3333V19.9238H522.637V16.5037H533.514V19.9238H530.403V37.3333H525.774ZM50.8336 75.3333L48.3135 54.5037H52.2222L53.4566 66.6414L55.0252 54.5294H58.0854L59.7312 66.5643L60.9913 54.5037H64.8486L62.3542 75.3333H58.3426L56.5682 62.7584L54.8967 75.3333H50.8336ZM67.1698 75.3333V54.5037H71.7729V62.9384H75.0131V54.5037H79.6162V75.3333H75.0131V66.23H71.7729V75.3333H67.1698ZM81.7854 75.3333L85.7199 54.5037H90.9658L94.8489 75.3333H90.6058L89.9115 70.9359H86.8513L86.1313 75.3333H81.7854ZM87.2628 68.1844H89.4743L88.3686 60.0582L87.2628 68.1844ZM97.674 75.3333V57.9238H94.5367V54.5037H105.414V57.9238H102.303V75.3333H97.674ZM116.451 75.3333V66.8214L112.491 54.5037H116.837L118.817 61.0869L120.591 54.5037H124.757L120.874 66.8214V75.3333H116.451ZM132.049 75.6419C130.489 75.6419 129.255 75.3676 128.346 74.819C127.437 74.2704 126.786 73.4818 126.392 72.4532C125.997 71.4245 125.8 70.1988 125.8 68.7758V61.0354C125.8 59.5953 125.997 58.3696 126.392 57.3581C126.786 56.3466 127.437 55.5751 128.346 55.0437C129.255 54.4951 130.489 54.2208 132.049 54.2208C133.626 54.2208 134.869 54.4951 135.778 55.0437C136.703 55.5751 137.364 56.3466 137.758 57.3581C138.152 58.3696 138.349 59.5953 138.349 61.0354V68.7758C138.349 70.1988 138.152 71.4245 137.758 72.4532C137.364 73.4818 136.703 74.2704 135.778 74.819C134.869 75.3676 133.626 75.6419 132.049 75.6419ZM132.049 72.376C132.529 72.376 132.88 72.256 133.103 72.016C133.326 71.776 133.472 71.4674 133.54 71.0902C133.609 70.7131 133.643 70.3273 133.643 69.933V59.9039C133.643 59.4925 133.609 59.1068 133.54 58.7467C133.472 58.3696 133.326 58.061 133.103 57.821C132.88 57.581 132.529 57.461 132.049 57.461C131.603 57.461 131.269 57.581 131.046 57.821C130.823 58.061 130.677 58.3696 130.609 58.7467C130.54 59.1068 130.506 59.4925 130.506 59.9039V69.933C130.506 70.3273 130.532 70.7131 130.583 71.0902C130.652 71.4674 130.789 71.776 130.995 72.016C131.217 72.256 131.569 72.376 132.049 72.376ZM147.168 75.6419C145.574 75.6419 144.322 75.3847 143.414 74.8704C142.522 74.339 141.896 73.5761 141.536 72.5817C141.176 71.5703 140.996 70.3359 140.996 68.8787V54.5037H145.548V69.573C145.548 70.0016 145.582 70.4302 145.651 70.8588C145.719 71.2874 145.865 71.6388 146.088 71.9131C146.328 72.1874 146.688 72.3246 147.168 72.3246C147.665 72.3246 148.025 72.1874 148.248 71.9131C148.471 71.6388 148.608 71.2874 148.66 70.8588C148.728 70.4302 148.763 70.0016 148.763 69.573V54.5037H153.34V68.8787C153.34 70.3359 153.151 71.5703 152.774 72.5817C152.414 73.5761 151.788 74.339 150.897 74.8704C150.005 75.3847 148.763 75.6419 147.168 75.6419ZM156.269 75.3333V54.5037H162.003C163.409 54.5037 164.626 54.6579 165.655 54.9665C166.683 55.2751 167.481 55.8323 168.046 56.6381C168.629 57.4267 168.921 58.5496 168.921 60.0068C168.921 60.864 168.852 61.6269 168.715 62.2955C168.578 62.9641 168.321 63.547 167.944 64.0442C167.584 64.5242 167.061 64.9271 166.375 65.2528L169.229 75.3333H164.472L162.183 65.9985H160.872V75.3333H156.269ZM160.872 63.3498H162.158C162.809 63.3498 163.315 63.2384 163.675 63.0155C164.035 62.7755 164.283 62.4412 164.421 62.0126C164.575 61.5669 164.652 61.0354 164.652 60.4182C164.652 59.5268 164.489 58.8325 164.163 58.3353C163.838 57.8381 163.238 57.5895 162.363 57.5895H160.872V63.3498ZM177.265 75.3333L181.199 54.5037H186.445L190.328 75.3333H186.085L185.391 70.9359H182.331L181.611 75.3333H177.265ZM182.742 68.1844H184.954L183.848 60.0582L182.742 68.1844ZM198.248 75.6419C196.653 75.6419 195.402 75.3847 194.493 74.8704C193.602 74.339 192.976 73.5761 192.616 72.5817C192.256 71.5703 192.076 70.3359 192.076 68.8787V54.5037H196.628V69.573C196.628 70.0016 196.662 70.4302 196.731 70.8588C196.799 71.2874 196.945 71.6388 197.168 71.9131C197.408 72.1874 197.768 72.3246 198.248 72.3246C198.745 72.3246 199.105 72.1874 199.328 71.9131C199.551 71.6388 199.688 71.2874 199.739 70.8588C199.808 70.4302 199.842 70.0016 199.842 69.573V54.5037H204.42V68.8787C204.42 70.3359 204.231 71.5703 203.854 72.5817C203.494 73.5761 202.868 74.339 201.977 74.8704C201.085 75.3847 199.842 75.6419 198.248 75.6419ZM207.348 75.3333V54.5037H212.62C214.437 54.5037 215.852 54.7351 216.863 55.198C217.875 55.6437 218.586 56.3552 218.998 57.3324C219.409 58.2924 219.615 59.5439 219.615 61.0869V68.6472C219.615 70.2073 219.409 71.4845 218.998 72.4789C218.586 73.4561 217.875 74.1761 216.863 74.639C215.869 75.1019 214.472 75.3333 212.671 75.3333H207.348ZM211.951 72.1446H212.671C213.374 72.1446 213.88 72.0417 214.189 71.836C214.497 71.6303 214.686 71.3217 214.754 70.9102C214.84 70.4988 214.883 69.9845 214.883 69.3673V60.2897C214.883 59.6725 214.832 59.1753 214.729 58.7982C214.643 58.421 214.446 58.1467 214.137 57.9753C213.829 57.8038 213.331 57.7181 212.646 57.7181H211.951V72.1446ZM222.442 75.3333V54.5037H227.045V75.3333H222.442ZM230.151 75.3333V54.5037H239.511V57.641H234.754V62.8098H238.38V65.9985H234.754V72.2217H239.563V75.3333H230.151ZM241.653 75.3333V54.5037H244.893L249.162 64.5327V54.5037H252.967V75.3333H249.856L245.587 64.5327V75.3333H241.653ZM262.033 75.6419C260.456 75.6419 259.205 75.359 258.279 74.7933C257.37 74.2104 256.727 73.4046 256.35 72.376C255.973 71.3302 255.785 70.1045 255.785 68.6987V61.1897C255.785 59.7496 255.973 58.5153 256.35 57.4867C256.727 56.4409 257.37 55.6351 258.279 55.0694C259.205 54.5037 260.456 54.2208 262.033 54.2208C263.576 54.2208 264.776 54.4779 265.634 54.9923C266.508 55.4894 267.125 56.1923 267.485 57.1009C267.845 58.0096 268.025 59.0553 268.025 60.2382V62.0383H263.525V59.9554C263.525 59.5439 263.499 59.1496 263.448 58.7724C263.413 58.3953 263.293 58.0867 263.088 57.8467C262.882 57.5895 262.531 57.461 262.033 57.461C261.553 57.461 261.193 57.5895 260.953 57.8467C260.73 58.1038 260.585 58.4296 260.516 58.8239C260.465 59.201 260.439 59.6039 260.439 60.0325V69.8302C260.439 70.2931 260.473 70.7216 260.542 71.116C260.628 71.4931 260.782 71.8017 261.005 72.0417C261.245 72.2646 261.588 72.376 262.033 72.376C262.513 72.376 262.856 72.256 263.062 72.016C263.268 71.7588 263.396 71.4331 263.448 71.0388C263.499 70.6445 263.525 70.2416 263.525 69.8302V67.6443H268.025V69.4444C268.025 70.6274 267.845 71.6903 267.485 72.6332C267.142 73.5589 266.534 74.2961 265.659 74.8447C264.802 75.3762 263.594 75.6419 262.033 75.6419ZM270.558 75.3333V54.5037H279.918V57.641H275.161V62.8098H278.787V65.9985H275.161V72.2217H279.969V75.3333H270.558ZM294.605 75.6419C293.028 75.6419 291.776 75.359 290.85 74.7933C289.942 74.2104 289.299 73.4046 288.922 72.376C288.545 71.3302 288.356 70.1045 288.356 68.6987V61.1897C288.356 59.7496 288.545 58.5153 288.922 57.4867C289.299 56.4409 289.942 55.6351 290.85 55.0694C291.776 54.5037 293.028 54.2208 294.605 54.2208C296.148 54.2208 297.348 54.4779 298.205 54.9923C299.079 55.4894 299.697 56.1923 300.057 57.1009C300.417 58.0096 300.597 59.0553 300.597 60.2382V62.0383H296.096V59.9554C296.096 59.5439 296.071 59.1496 296.019 58.7724C295.985 58.3953 295.865 58.0867 295.659 57.8467C295.453 57.5895 295.102 57.461 294.605 57.461C294.125 57.461 293.765 57.5895 293.525 57.8467C293.302 58.1038 293.156 58.4296 293.088 58.8239C293.036 59.201 293.01 59.6039 293.01 60.0325V69.8302C293.01 70.2931 293.045 70.7216 293.113 71.116C293.199 71.4931 293.353 71.8017 293.576 72.0417C293.816 72.2646 294.159 72.376 294.605 72.376C295.085 72.376 295.428 72.256 295.633 72.016C295.839 71.7588 295.968 71.4331 296.019 71.0388C296.071 70.6445 296.096 70.2416 296.096 69.8302V67.6443H300.597V69.4444C300.597 70.6274 300.417 71.6903 300.057 72.6332C299.714 73.5589 299.105 74.2961 298.231 74.8447C297.374 75.3762 296.165 75.6419 294.605 75.6419ZM309.095 75.6419C307.535 75.6419 306.301 75.3676 305.392 74.819C304.483 74.2704 303.832 73.4818 303.438 72.4532C303.043 71.4245 302.846 70.1988 302.846 68.7758V61.0354C302.846 59.5953 303.043 58.3696 303.438 57.3581C303.832 56.3466 304.483 55.5751 305.392 55.0437C306.301 54.4951 307.535 54.2208 309.095 54.2208C310.672 54.2208 311.915 54.4951 312.824 55.0437C313.75 55.5751 314.41 56.3466 314.804 57.3581C315.198 58.3696 315.395 59.5953 315.395 61.0354V68.7758C315.395 70.1988 315.198 71.4245 314.804 72.4532C314.41 73.4818 313.75 74.2704 312.824 74.819C311.915 75.3676 310.672 75.6419 309.095 75.6419ZM309.095 72.376C309.575 72.376 309.926 72.256 310.149 72.016C310.372 71.776 310.518 71.4674 310.587 71.0902C310.655 70.7131 310.689 70.3273 310.689 69.933V59.9039C310.689 59.4925 310.655 59.1068 310.587 58.7467C310.518 58.3696 310.372 58.061 310.149 57.821C309.926 57.581 309.575 57.461 309.095 57.461C308.649 57.461 308.315 57.581 308.092 57.821C307.869 58.061 307.724 58.3696 307.655 58.7467C307.586 59.1068 307.552 59.4925 307.552 59.9039V69.933C307.552 70.3273 307.578 70.7131 307.629 71.0902C307.698 71.4674 307.835 71.776 308.041 72.016C308.264 72.256 308.615 72.376 309.095 72.376ZM324.214 75.6419C322.62 75.6419 321.368 75.3847 320.46 74.8704C319.568 74.339 318.942 73.5761 318.582 72.5817C318.222 71.5703 318.042 70.3359 318.042 68.8787V54.5037H322.594V69.573C322.594 70.0016 322.628 70.4302 322.697 70.8588C322.766 71.2874 322.911 71.6388 323.134 71.9131C323.374 72.1874 323.734 72.3246 324.214 72.3246C324.711 72.3246 325.071 72.1874 325.294 71.9131C325.517 71.6388 325.654 71.2874 325.706 70.8588C325.774 70.4302 325.809 70.0016 325.809 69.573V54.5037H330.386V68.8787C330.386 70.3359 330.197 71.5703 329.82 72.5817C329.46 73.5761 328.834 74.339 327.943 74.8704C327.051 75.3847 325.809 75.6419 324.214 75.6419ZM333.315 75.3333V54.5037H337.918V72.2217H342.701V75.3333H333.315ZM344.716 75.3333V54.5037H349.988C351.805 54.5037 353.219 54.7351 354.231 55.198C355.242 55.6437 355.954 56.3552 356.365 57.3324C356.777 58.2924 356.982 59.5439 356.982 61.0869V68.6472C356.982 70.2073 356.777 71.4845 356.365 72.4789C355.954 73.4561 355.242 74.1761 354.231 74.639C353.236 75.1019 351.839 75.3333 350.039 75.3333H344.716ZM349.319 72.1446H350.039C350.742 72.1446 351.248 72.0417 351.556 71.836C351.865 71.6303 352.053 71.3217 352.122 70.9102C352.208 70.4988 352.251 69.9845 352.251 69.3673V60.2897C352.251 59.6725 352.199 59.1753 352.096 58.7982C352.011 58.421 351.813 58.1467 351.505 57.9753C351.196 57.8038 350.699 57.7181 350.013 57.7181H349.319V72.1446ZM366.363 75.3333V54.5037H371.789C372.681 54.5037 373.521 54.5722 374.309 54.7094C375.115 54.8465 375.827 55.1123 376.444 55.5066C377.061 55.8837 377.541 56.4323 377.884 57.1524C378.244 57.8553 378.424 58.7896 378.424 59.9554C378.424 60.7954 378.295 61.5069 378.038 62.0898C377.798 62.6555 377.447 63.1098 376.984 63.4527C376.538 63.7956 375.998 64.027 375.364 64.147C376.17 64.2499 376.847 64.5156 377.395 64.9442C377.944 65.3556 378.355 65.9128 378.63 66.6157C378.921 67.3186 379.067 68.1672 379.067 69.1616C379.067 70.2416 378.921 71.176 378.63 71.9646C378.355 72.736 377.952 73.3704 377.421 73.8675C376.89 74.3647 376.23 74.7333 375.441 74.9733C374.669 75.2133 373.778 75.3333 372.767 75.3333H366.363ZM370.966 72.1189H371.944C372.955 72.1189 373.649 71.8617 374.027 71.3474C374.421 70.8331 374.618 70.0788 374.618 69.0844C374.618 68.2958 374.532 67.6701 374.361 67.2072C374.189 66.7443 373.907 66.41 373.512 66.2043C373.118 65.9814 372.586 65.87 371.918 65.87H370.966V72.1189ZM370.966 62.8355H371.866C372.569 62.8355 373.101 62.7327 373.461 62.5269C373.821 62.3041 374.061 61.9869 374.181 61.5755C374.318 61.164 374.387 60.6668 374.387 60.0839C374.387 59.5353 374.284 59.081 374.078 58.721C373.889 58.3439 373.598 58.061 373.204 57.8724C372.827 57.6838 372.346 57.5895 371.764 57.5895H370.966V62.8355ZM381.481 75.3333V54.5037H390.842V57.641H386.084V62.8098H389.71V65.9985H386.084V72.2217H390.893V75.3333H381.481ZM401.234 75.3333L398.714 54.5037H402.623L403.857 66.6414L405.426 54.5294H408.486L410.132 66.5643L411.392 54.5037H415.249L412.755 75.3333H408.743L406.969 62.7584L405.297 75.3333H401.234ZM423.459 75.6419C421.899 75.6419 420.665 75.3676 419.756 74.819C418.848 74.2704 418.196 73.4818 417.802 72.4532C417.408 71.4245 417.21 70.1988 417.21 68.7758V61.0354C417.21 59.5953 417.408 58.3696 417.802 57.3581C418.196 56.3466 418.848 55.5751 419.756 55.0437C420.665 54.4951 421.899 54.2208 423.459 54.2208C425.036 54.2208 426.279 54.4951 427.188 55.0437C428.114 55.5751 428.774 56.3466 429.168 57.3581C429.562 58.3696 429.76 59.5953 429.76 61.0354V68.7758C429.76 70.1988 429.562 71.4245 429.168 72.4532C428.774 73.4818 428.114 74.2704 427.188 74.819C426.279 75.3676 425.036 75.6419 423.459 75.6419ZM423.459 72.376C423.939 72.376 424.291 72.256 424.514 72.016C424.736 71.776 424.882 71.4674 424.951 71.0902C425.019 70.7131 425.054 70.3273 425.054 69.933V59.9039C425.054 59.4925 425.019 59.1068 424.951 58.7467C424.882 58.3696 424.736 58.061 424.514 57.821C424.291 57.581 423.939 57.461 423.459 57.461C423.014 57.461 422.679 57.581 422.456 57.821C422.233 58.061 422.088 58.3696 422.019 58.7467C421.951 59.1068 421.916 59.4925 421.916 59.9039V69.933C421.916 70.3273 421.942 70.7131 421.993 71.0902C422.062 71.4674 422.199 71.776 422.405 72.016C422.628 72.256 422.979 72.376 423.459 72.376ZM432.561 75.3333V54.5037H438.296C439.701 54.5037 440.919 54.6579 441.947 54.9665C442.976 55.2751 443.773 55.8323 444.339 56.6381C444.922 57.4267 445.213 58.5496 445.213 60.0068C445.213 60.864 445.144 61.6269 445.007 62.2955C444.87 62.9641 444.613 63.547 444.236 64.0442C443.876 64.5242 443.353 64.9271 442.667 65.2528L445.522 75.3333H440.764L438.476 65.9985H437.164V75.3333H432.561ZM437.164 63.3498H438.45C439.101 63.3498 439.607 63.2384 439.967 63.0155C440.327 62.7755 440.576 62.4412 440.713 62.0126C440.867 61.5669 440.944 61.0354 440.944 60.4182C440.944 59.5268 440.781 58.8325 440.456 58.3353C440.13 57.8381 439.53 57.5895 438.656 57.5895H437.164V63.3498ZM449.581 75.3333V57.9238H446.444V54.5037H457.322V57.9238H454.21V75.3333H449.581ZM459.233 75.3333V54.5037H463.836V62.9384H467.076V54.5037H471.679V75.3333H467.076V66.23H463.836V75.3333H459.233ZM474.491 75.3333V71.3731H478.451V75.3333H474.491Z" fill="white"/>
</svg>
