<svg width="746" height="327" viewBox="0 0 746 327" fill="none" xmlns="http://www.w3.org/2000/svg">
<path d="M745.784 0L0 25.3046L32.0539 288.302L663.192 326.5L745.784 0Z" fill="#968CFF"/>
<path d="M129.257 200.059L119.613 120.349H134.571L139.294 166.798L145.297 120.448H157.007L163.305 166.502L168.127 120.349H182.888L173.343 200.059H157.991L151.201 151.938L144.805 200.059H129.257ZM191.771 200.059V120.349H209.386V152.627H221.687V120.349H239.4V200.059H221.687V165.223H209.386V200.059H191.771ZM261.576 200.059V167.486L246.422 120.349H263.052L270.63 145.542L277.42 120.349H293.362L278.502 167.486V200.059H261.576ZM325.248 200.059V120.349H361.068V132.355H342.863V152.135H356.738V164.337H342.863V188.152H361.265V200.059H325.248ZM368.967 200.059L370.344 120.349H389.238L397.997 166.699L407.444 120.349H425.649L427.027 200.059H414.529L413.053 147.018L403.803 200.059H392.683L382.842 146.624L381.661 200.059H368.967ZM434.712 200.059L449.769 120.349H469.844L484.703 200.059H468.466L465.809 183.232H454.098L451.343 200.059H434.712ZM455.673 172.702H464.136L459.904 141.605L455.673 172.702ZM492.849 200.059V120.349H510.464V200.059H492.849ZM522.35 200.059V120.349H539.965V188.152H558.268V200.059H522.35ZM572.77 179.098V166.404C581.626 159.515 588.416 150.068 588.416 139.834C588.416 135.012 586.546 132.946 583.201 132.946C580.052 132.946 578.182 134.914 578.182 138.161C578.182 140.228 578.674 141.802 579.363 143.574L564.897 146.919C563.815 143.77 563.224 141.015 563.224 137.669C563.224 126.156 570.506 119.267 583.594 119.267C596.781 119.267 604.26 126.549 604.26 139.342C604.26 151.151 598.159 161.287 587.334 169.455V179.098H572.77ZM572.277 200.059V184.806H587.924V200.059H572.277Z" fill="white"/>
</svg>
