<svg width="430" height="80" viewBox="0 0 430 80" fill="none" xmlns="http://www.w3.org/2000/svg">
<path d="M236.191 27.4841L185.238 31.8619L189.484 36.47L161.868 66.357H217.001L244.452 36.47L236.191 27.4841Z" fill="#290051"/>
<path d="M173.224 32.8822L120.625 37.4245L93.9313 66.3569H149.031L176.483 36.47L173.224 32.8822Z" fill="#290051"/>
<path d="M-1.22653 47.9245V66.357H12.8612L32.4457 45.028L-1.22653 47.9245Z" fill="#290051"/>
<path d="M46.6651 43.7772L25.8627 66.357H80.9627L106.406 38.6425L46.6651 43.7772Z" fill="#290051"/>
<path d="M424.762 11.2241L373.743 15.6348L392.966 36.4701L365.35 66.357H420.483L447.934 36.4701L424.762 11.2241Z" fill="#290051"/>
<path d="M298.565 22.0861L247.579 26.4967L256.796 36.47L229.18 66.357H284.313L311.764 36.47L298.565 22.0861Z" fill="#290051"/>
<path d="M361.663 16.655L310.645 21.0657L324.864 36.47L297.281 66.3569H352.381L379.832 36.47L361.663 16.655Z" fill="#290051"/>
</svg>
