<svg width="59" height="16" viewBox="0 0 59 16" fill="none" xmlns="http://www.w3.org/2000/svg">
<rect x="0.0195618" y="-0.00830078" width="58.0134" height="15.8525" rx="4.72202" transform="rotate(0.100663 0.0195618 -0.00830078)" fill="#3CB9FC"/>
<path d="M8.04762 11.7736C7.65457 11.7729 7.32628 11.7025 7.06277 11.5624C6.79926 11.4223 6.60052 11.2073 6.46657 10.9175C6.33262 10.6225 6.2583 10.2422 6.2436 9.77672L7.43083 9.60038C7.43553 9.86932 7.45842 10.0866 7.4995 10.2521C7.54575 10.4177 7.60761 10.5368 7.68506 10.6093C7.76768 10.6819 7.86587 10.7182 7.97965 10.7184C8.12446 10.7187 8.21764 10.6697 8.25919 10.5715C8.3059 10.4734 8.32936 10.37 8.32955 10.2614C8.33 10.0028 8.26832 9.78545 8.14451 9.60939C8.02071 9.42816 7.85294 9.24686 7.64122 9.06547L7.09902 8.5913C6.86148 8.38919 6.66018 8.16128 6.49513 7.90757C6.33526 7.6487 6.25566 7.3305 6.25632 6.95297C6.25725 6.42028 6.41571 6.01457 6.73167 5.73585C7.04765 5.45196 7.47715 5.31049 8.02018 5.31145C8.35635 5.31204 8.62518 5.3694 8.82667 5.48353C9.03334 5.59768 9.18823 5.74793 9.29134 5.93429C9.39963 6.11549 9.47169 6.30956 9.50753 6.51649C9.54855 6.71826 9.57148 6.91224 9.57633 7.09844L8.3814 7.24373C8.37655 7.05754 8.3639 6.89719 8.34345 6.76269C8.32818 6.62303 8.29217 6.51694 8.23541 6.44444C8.17865 6.36676 8.0908 6.32782 7.97185 6.32761C7.84256 6.32739 7.74679 6.38152 7.68453 6.49002C7.62745 6.59852 7.59882 6.70708 7.59863 6.81569C7.59822 7.04842 7.65219 7.23986 7.76053 7.39004C7.87405 7.53504 8.02118 7.68787 8.20191 7.84851L8.72086 8.30712C8.99456 8.54033 9.22424 8.80449 9.4099 9.09961C9.60074 9.39474 9.69577 9.75951 9.69501 10.1939C9.69449 10.4887 9.62679 10.7575 9.49189 11.0004C9.35701 11.238 9.16533 11.4265 8.91684 11.5657C8.67352 11.7049 8.38378 11.7742 8.04762 11.7736ZM10.3725 11.6846L10.3836 5.40093L11.7722 5.40337L11.7611 11.687L10.3725 11.6846ZM14.3348 11.7846C13.9004 11.7839 13.5566 11.6928 13.3035 11.5113C13.0556 11.3299 12.8776 11.0761 12.7696 10.7501C12.6667 10.419 12.6157 10.0387 12.6164 9.60949L12.6201 7.49942C12.6209 7.05465 12.6785 6.66946 12.7928 6.34384C12.9072 6.01822 13.1016 5.76773 13.376 5.59238C13.6556 5.41186 14.0333 5.32201 14.5091 5.32285C14.9745 5.32367 15.339 5.40188 15.6025 5.5575C15.8711 5.71312 16.0621 5.92809 16.1754 6.20239C16.2887 6.47669 16.345 6.79744 16.3444 7.16463L16.3437 7.56803L14.9861 7.56564L14.987 7.05364C14.9872 6.91917 14.9771 6.79503 14.9566 6.68122C14.9413 6.56741 14.9001 6.47684 14.833 6.40949C14.771 6.33697 14.6677 6.30059 14.5228 6.30033C14.3729 6.30007 14.2642 6.34125 14.1968 6.42388C14.1294 6.50134 14.0853 6.59953 14.0644 6.71844C14.0487 6.83736 14.0407 6.96147 14.0405 7.09076L14.0354 9.99986C14.0351 10.1395 14.0478 10.2714 14.0735 10.3956C14.1043 10.5146 14.1558 10.6129 14.2281 10.6906C14.3056 10.7632 14.4141 10.7996 14.5537 10.7998C14.6985 10.8001 14.8098 10.7615 14.8875 10.684C14.9652 10.6066 15.0197 10.5058 15.051 10.3818C15.0822 10.2577 15.0979 10.1259 15.0982 9.98622L15.0995 9.24924L14.5332 9.24825L14.5346 8.4337L16.3499 8.43689L16.3442 11.6951L15.4288 11.6935L15.3521 11.1736C15.2691 11.3493 15.1473 11.4965 14.9867 11.6151C14.8262 11.7286 14.6089 11.7851 14.3348 11.7846ZM17.2133 11.6966L17.2243 5.41295L18.2018 5.41467L19.4842 8.4424L19.4895 5.41693L20.6376 5.41895L20.6266 11.7026L19.6879 11.701L18.4059 8.4405L18.4002 11.6987L17.2133 11.6966ZM23.5233 11.7077L23.643 5.42423L25.1324 5.42685L25.8165 9.08189L26.5676 5.42937L28.0028 5.43189L28.1003 11.7157L27.1151 11.714L27.0061 7.53245L26.2695 11.7125L25.3929 11.711L24.6246 7.49724L24.5241 11.7095L23.5233 11.7077ZM29.0087 11.7173L29.0198 5.43368L31.8436 5.43864L31.8419 6.38507L30.4067 6.38254L30.404 7.94182L31.4978 7.94374L31.4961 8.90569L30.4023 8.90376L30.399 10.7811L31.8497 10.7837L31.848 11.7223L29.0087 11.7173ZM36.2784 11.8232C35.7975 11.8224 35.4201 11.7441 35.1462 11.5885C34.8776 11.4277 34.6892 11.1972 34.5811 10.8971C34.4731 10.5917 34.4194 10.2193 34.4202 9.77968L34.4278 5.44318L35.8009 5.44559L35.7929 9.99154C35.7927 10.1208 35.8028 10.2501 35.8233 10.3795C35.8437 10.5088 35.8875 10.6149 35.9546 10.6978C36.0268 10.7806 36.1354 10.8222 36.2802 10.8225C36.4302 10.8227 36.5388 10.7815 36.6062 10.6989C36.6736 10.6163 36.7152 10.5103 36.7309 10.3811C36.7518 10.2518 36.7624 10.1225 36.7626 9.99325L36.7706 5.44729L38.1515 5.44972L38.1438 9.78622C38.1431 10.2258 38.0855 10.5981 37.9712 10.903C37.8621 11.2028 37.6729 11.4326 37.4037 11.5924C37.1345 11.7471 36.7594 11.824 36.2784 11.8232ZM39.0239 11.7349L39.035 5.45127L41.145 5.45498C41.5226 5.45564 41.8328 5.52859 42.0756 5.67383C42.3184 5.81389 42.499 6.02108 42.6175 6.29539C42.736 6.56453 42.7949 6.89304 42.7942 7.28092C42.7934 7.76706 42.7125 8.13929 42.5518 8.39759C42.391 8.65072 42.1735 8.82618 41.8992 8.92396C41.6249 9.02174 41.3171 9.07033 40.9758 9.06973L40.4172 9.06875L40.4125 11.7374L39.0239 11.7349ZM40.4189 8.09905L40.8844 8.09987C41.0551 8.10017 41.1844 8.06937 41.2724 8.00746C41.3605 7.94556 41.4175 7.85256 41.4436 7.72849C41.4748 7.60442 41.4906 7.44671 41.491 7.25536C41.4913 7.09503 41.4786 6.95537 41.4529 6.83638C41.4324 6.71222 41.3783 6.61386 41.2905 6.5413C41.2027 6.46874 41.0657 6.4323 40.8796 6.43197L40.4219 6.43117L40.4189 8.09905Z" fill="white"/>
<path d="M44.482 2.52466L49.6853 2.5338L54.5888 7.89212L49.6665 13.2332L44.4632 13.224L49.4097 7.88302L44.482 2.52466Z" fill="white"/>
</svg>
