<svg width="25" height="25" viewBox="0 0 25 25" fill="none" xmlns="http://www.w3.org/2000/svg">
<path d="M0 1.74338C0 0.780415 0.800192 0 1.7875 0H22.5529C23.5403 0 24.3404 0.780415 24.3404 1.74338V22.5971C24.3404 23.56 23.5403 24.3404 22.5529 24.3404H1.7875C0.800192 24.3404 0 23.56 0 22.5971V1.74338ZM7.51968 20.376V9.38476H3.86709V20.376H7.51968ZM5.69414 7.88326C6.96745 7.88326 7.76004 7.04047 7.76004 5.98471C7.73722 4.90612 6.96897 4.08615 5.71848 4.08615C4.46799 4.08615 3.65107 4.90764 3.65107 5.98471C3.65107 7.04047 4.44365 7.88326 5.6698 7.88326H5.69414ZM13.1606 20.376V14.2376C13.1606 13.909 13.1849 13.5804 13.2823 13.3462C13.5455 12.6905 14.1464 12.0105 15.1565 12.0105C16.4785 12.0105 17.0064 13.0176 17.0064 14.4963V20.376H20.659V14.0718C20.659 10.6946 18.8578 9.12462 16.4541 9.12462C14.516 9.12462 13.6474 10.1895 13.1606 10.9395V10.9775H13.1362C13.1443 10.9648 13.1524 10.9522 13.1606 10.9395V9.38476H9.50951C9.55515 10.4162 9.50951 20.376 9.50951 20.376H13.1606Z" fill="white"/>
</svg>
