<svg width="34" height="27" viewBox="0 0 34 27" fill="none" xmlns="http://www.w3.org/2000/svg">
<path d="M1.69714 5.03011C1.69714 4.14606 2.04833 3.29821 2.67345 2.67309C3.29858 2.04797 4.14642 1.69678 5.03048 1.69678H28.3638C29.2479 1.69678 30.0957 2.04797 30.7208 2.67309C31.346 3.29821 31.6971 4.14606 31.6971 5.03011V21.6968C31.6971 22.5808 31.346 23.4287 30.7208 24.0538C30.0957 24.6789 29.2479 25.0301 28.3638 25.0301H5.03048C4.14642 25.0301 3.29858 24.6789 2.67345 24.0538C2.04833 23.4287 1.69714 22.5808 1.69714 21.6968V5.03011Z" stroke="white" stroke-width="3.39394" stroke-linecap="round" stroke-linejoin="round"/>
<path d="M1.69714 5.03027L16.6971 15.0303L31.6971 5.03027" stroke="white" stroke-width="3.39394" stroke-linecap="round" stroke-linejoin="round"/>
</svg>
