<svg width="30" height="39" viewBox="0 0 30 39" fill="none" xmlns="http://www.w3.org/2000/svg">
<path d="M15 0C11.0232 0.00469155 7.21062 1.58655 4.39859 4.39858C1.58656 7.2106 0.0047075 11.0232 1.59585e-05 15C-0.00474707 18.2498 1.05681 21.4115 3.02183 24C3.02183 24 3.43092 24.5386 3.49774 24.6163L15 38.1818L26.5077 24.6095C26.5677 24.5372 26.9782 24 26.9782 24L26.9795 23.9959C28.9436 21.4085 30.0046 18.2483 30 15C29.9953 11.0232 28.4134 7.2106 25.6014 4.39858C22.7894 1.58655 18.9768 0.00469155 15 0ZM15 20.4545C13.9212 20.4545 12.8666 20.1346 11.9696 19.5353C11.0726 18.9359 10.3735 18.084 9.96066 17.0873C9.54782 16.0907 9.4398 14.9939 9.65027 13.9359C9.86073 12.8778 10.3802 11.9059 11.1431 11.143C11.9059 10.3802 12.8778 9.86072 13.9359 9.65025C14.9939 9.43979 16.0907 9.5478 17.0874 9.96065C18.084 10.3735 18.9359 11.0726 19.5353 11.9696C20.1346 12.8666 20.4545 13.9212 20.4545 15C20.4527 16.4461 19.8775 17.8324 18.8549 18.8549C17.8324 19.8775 16.4461 20.4527 15 20.4545Z" fill="white"/>
</svg>
