<svg width="22" height="26" viewBox="0 0 22 26" fill="none" xmlns="http://www.w3.org/2000/svg">
<path d="M13.3901 17.6651V20.6613C13.3901 21.2956 13.2057 21.6128 12.8369 21.6128C12.6194 21.6128 12.4066 21.5086 12.1986 21.3004V17.0261C12.4066 16.8178 12.6194 16.7137 12.8369 16.7137C13.2057 16.7137 13.3901 17.0308 13.3901 17.6651ZM18.1844 17.6793V18.3325H16.9078V17.6793C16.9078 17.0356 17.1206 16.7137 17.5461 16.7137C17.9716 16.7137 18.1844 17.0356 18.1844 17.6793ZM4.48227 14.5836H6V13.2488H1.57447V14.5836H3.06383V22.6636H4.48227V14.5836ZM8.56738 22.6636H9.82979V15.6487H8.56738V21.0164C8.28369 21.414 8.01419 21.6128 7.75887 21.6128C7.58866 21.6128 7.48937 21.5134 7.461 21.3146C7.45154 21.2862 7.44681 21.1205 7.44681 20.8175V15.6487H6.1844V21.201C6.1844 21.6648 6.22223 22.0104 6.29788 22.2376C6.41135 22.5878 6.68558 22.763 7.12057 22.763C7.57447 22.763 8.05674 22.4742 8.56738 21.8968V22.6636ZM14.6525 20.5619V17.7645C14.6525 17.0734 14.6099 16.6048 14.5248 16.3587C14.3641 15.8285 14.0284 15.5635 13.5177 15.5635C13.0449 15.5635 12.6052 15.8191 12.1986 16.3303V13.2488H10.9362V22.6636H12.1986V21.982C12.6241 22.5026 13.0638 22.763 13.5177 22.763C14.0284 22.763 14.3641 22.5026 14.5248 21.982C14.6099 21.7264 14.6525 21.253 14.6525 20.5619ZM19.4468 20.4199V20.2353H18.156C18.156 20.7181 18.1466 21.0069 18.1277 21.1016C18.0615 21.4424 17.8724 21.6128 17.5603 21.6128C17.1253 21.6128 16.9078 21.2862 16.9078 20.6329V19.3975H19.4468V17.9349C19.4468 17.187 19.3192 16.6379 19.0638 16.2877C18.695 15.8049 18.1939 15.5635 17.5603 15.5635C16.9173 15.5635 16.4114 15.8049 16.0426 16.2877C15.7778 16.6379 15.6454 17.187 15.6454 17.9349V20.3915C15.6454 21.1394 15.7825 21.6885 16.0567 22.0388C16.4255 22.5216 16.9362 22.763 17.5887 22.763C18.2695 22.763 18.7802 22.5121 19.1206 22.0104C19.2908 21.7548 19.3901 21.4992 19.4185 21.2436C19.4374 21.1584 19.4468 20.8838 19.4468 20.4199ZM10.8227 7.45512V4.47307C10.8227 3.81986 10.6194 3.49326 10.2128 3.49326C9.80615 3.49326 9.60284 3.81986 9.60284 4.47307V7.45512C9.60284 8.1178 9.80615 8.44914 10.2128 8.44914C10.6194 8.44914 10.8227 8.1178 10.8227 7.45512ZM21.0213 18.1195C21.0213 20.3347 20.8984 21.9914 20.6525 23.0896C20.5201 23.6481 20.2459 24.1167 19.8298 24.4954C19.4137 24.8741 18.9315 25.0918 18.383 25.1486C16.643 25.3474 14.0189 25.4468 10.5106 25.4468C7.00237 25.4468 4.37825 25.3474 2.6383 25.1486C2.08984 25.0918 1.6052 24.8741 1.1844 24.4954C0.763594 24.1167 0.491726 23.6481 0.368795 23.0896C0.122932 22.0293 0 20.3726 0 18.1195C0 15.9043 0.122932 14.2476 0.368795 13.1494C0.501182 12.5909 0.775414 12.1223 1.19149 11.7436C1.60757 11.3649 2.09456 11.1425 2.65248 11.0762C4.38298 10.8868 7.00237 10.7922 10.5106 10.7922C14.0189 10.7922 16.643 10.8868 18.383 11.0762C18.9315 11.1425 19.4161 11.3649 19.8369 11.7436C20.2577 12.1223 20.5296 12.5909 20.6525 13.1494C20.8984 14.2097 21.0213 15.8664 21.0213 18.1195ZM6.86525 0H8.31206L6.59575 5.66589V9.51416H5.17731V5.66589C5.04492 4.96535 4.7565 3.96187 4.31206 2.65544C3.96218 1.68036 3.65485 0.795213 3.39007 0H4.89362L5.90071 3.73466L6.86525 0ZM12.1135 4.72868V7.21372C12.1135 7.98053 11.9811 8.53908 11.7163 8.88935C11.357 9.37216 10.8558 9.61356 10.2128 9.61356C9.5792 9.61356 9.08275 9.37216 8.72341 8.88935C8.45863 8.52961 8.32625 7.97107 8.32625 7.21372V4.72868C8.32625 3.97133 8.45863 3.41752 8.72341 3.06725C9.08275 2.58444 9.5792 2.34304 10.2128 2.34304C10.8558 2.34304 11.357 2.58444 11.7163 3.06725C11.9811 3.41752 12.1135 3.97133 12.1135 4.72868ZM16.8653 2.42824V9.51416H15.5745V8.73315C15.0733 9.32009 14.5863 9.61356 14.1135 9.61356C13.6785 9.61356 13.3995 9.43842 13.2766 9.08815C13.201 8.86095 13.1631 8.50594 13.1631 8.02313V2.42824H14.4539V7.63973C14.4539 7.95213 14.4586 8.1178 14.4681 8.13674C14.4965 8.34501 14.5958 8.44914 14.766 8.44914C15.0213 8.44914 15.2908 8.2456 15.5745 7.83853V2.42824H16.8653Z" fill="white"/>
</svg>
