<svg width="34" height="34" viewBox="0 0 34 34" fill="none" xmlns="http://www.w3.org/2000/svg">
<path d="M27.2795 13.9694C27.3892 13.9694 27.4784 13.8803 27.4784 13.7706C27.4784 13.6608 27.3892 13.5717 27.2795 13.5717C27.1698 13.5717 27.0806 13.6605 27.0806 13.7706C27.0806 13.8807 27.1698 13.9694 27.2795 13.9694Z" fill="white"/>
<path d="M27.2795 15.4161C27.3892 15.4161 27.4784 15.3269 27.4784 15.2172C27.4784 15.2165 27.4784 15.2159 27.4784 15.2152C27.4784 15.2145 27.4784 15.2139 27.4784 15.2132C27.4784 15.1035 27.3892 15.0143 27.2795 15.0143C27.1698 15.0143 27.0806 15.1035 27.0806 15.2132C27.0806 15.2139 27.0806 15.2145 27.0806 15.2152C27.0806 15.2159 27.0806 15.2165 27.0806 15.2172C27.0806 15.3269 27.1698 15.4161 27.2795 15.4161Z" fill="white"/>
<path d="M27.2795 12.5232C27.3892 12.5232 27.4784 12.4341 27.4784 12.3244C27.4784 12.2146 27.3892 12.1255 27.2795 12.1255C27.1698 12.1255 27.0806 12.2146 27.0806 12.3244C27.0806 12.4341 27.1698 12.5232 27.2795 12.5232Z" fill="white"/>
<path d="M26.4092 16.139C26.519 16.139 26.6081 16.0499 26.6081 15.9402C26.6081 15.9395 26.6081 15.9388 26.6081 15.9382C26.6081 15.9375 26.6081 15.9368 26.6081 15.9362C26.6081 15.8264 26.519 15.7373 26.4092 15.7373C26.2995 15.7373 26.2103 15.8261 26.2103 15.9362C26.2103 15.9368 26.2103 15.9375 26.2103 15.9382C26.2103 15.9388 26.2103 15.9395 26.2103 15.9402C26.2103 16.0499 26.2995 16.139 26.4092 16.139Z" fill="white"/>
<path d="M26.4092 14.6928C26.519 14.6928 26.6081 14.6037 26.6081 14.4939C26.6081 14.3842 26.519 14.295 26.4092 14.295C26.2995 14.295 26.2103 14.3842 26.2103 14.4939C26.2103 14.6037 26.2995 14.6928 26.4092 14.6928Z" fill="white"/>
<path d="M26.4092 13.2465C26.519 13.2465 26.6081 13.1574 26.6081 13.0476C26.6081 12.9379 26.519 12.8488 26.4092 12.8488C26.2995 12.8488 26.2103 12.9379 26.2103 13.0476C26.2103 13.1574 26.2995 13.2465 26.4092 13.2465Z" fill="white"/>
<path d="M26.4092 11.8003C26.519 11.8003 26.6081 11.7111 26.6081 11.6014C26.6081 11.4916 26.519 11.4025 26.4092 11.4025C26.2995 11.4025 26.2103 11.4916 26.2103 11.6014C26.2103 11.7111 26.2995 11.8003 26.4092 11.8003Z" fill="white"/>
<path d="M27.2795 18.3046C27.3892 18.3046 27.4784 18.2155 27.4784 18.1057C27.4784 17.996 27.3892 17.9069 27.2795 17.9069C27.1698 17.9069 27.0806 17.996 27.0806 18.1057C27.0806 18.2155 27.1698 18.3046 27.2795 18.3046Z" fill="white"/>
<path d="M27.2795 16.8584C27.3892 16.8584 27.4784 16.7692 27.4784 16.6595C27.4784 16.5498 27.3892 16.4606 27.2795 16.4606C27.1698 16.4606 27.0806 16.5498 27.0806 16.6595C27.0806 16.7692 27.1698 16.8584 27.2795 16.8584Z" fill="white"/>
<path d="M26.4092 19.0279C26.519 19.0279 26.6081 18.9388 26.6081 18.8291C26.6081 18.7193 26.519 18.6302 26.4092 18.6302C26.2995 18.6302 26.2103 18.7193 26.2103 18.8291C26.2103 18.9388 26.2995 19.0279 26.4092 19.0279Z" fill="white"/>
<path d="M26.4092 17.5817C26.519 17.5817 26.6081 17.4926 26.6081 17.3828C26.6081 17.2731 26.519 17.184 26.4092 17.184C26.2995 17.184 26.2103 17.2731 26.2103 17.3828C26.2103 17.4926 26.2995 17.5817 26.4092 17.5817Z" fill="white"/>
<path d="M7.43516 18.4716C7.5449 18.4716 7.63403 18.3825 7.63403 18.2727C7.63403 18.163 7.5449 18.0739 7.43516 18.0739C7.32542 18.0739 7.2363 18.163 7.2363 18.2727C7.2363 18.3825 7.32542 18.4716 7.43516 18.4716Z" fill="white"/>
<path d="M7.43516 17.0249C7.5449 17.0249 7.63403 16.9358 7.63403 16.8261C7.63403 16.7163 7.5449 16.6272 7.43516 16.6272C7.32542 16.6272 7.2363 16.7163 7.2363 16.8261C7.2363 16.9358 7.32542 17.0249 7.43516 17.0249Z" fill="white"/>
<path d="M6.45115 19.1945C6.5609 19.1945 6.65002 19.1054 6.65002 18.9957C6.65002 18.8859 6.5609 18.7968 6.45115 18.7968C6.34141 18.7968 6.25229 18.8859 6.25229 18.9957C6.25229 19.1054 6.34141 19.1945 6.45115 19.1945Z" fill="white"/>
<path d="M6.45115 17.7483C6.5609 17.7483 6.65002 17.6591 6.65002 17.5494C6.65002 17.4396 6.5609 17.3505 6.45115 17.3505C6.34141 17.3505 6.25229 17.4396 6.25229 17.5494C6.25229 17.6591 6.34141 17.7483 6.45115 17.7483Z" fill="white"/>
<path d="M5.58088 18.4716C5.69063 18.4716 5.77975 18.3825 5.77975 18.2727C5.77975 18.163 5.69063 18.0739 5.58088 18.0739C5.47114 18.0739 5.38202 18.163 5.38202 18.2727C5.38202 18.3825 5.47114 18.4716 5.58088 18.4716Z" fill="white"/>
<path d="M5.58088 17.0249C5.69063 17.0249 5.77975 16.9358 5.77975 16.8261C5.77975 16.7163 5.69063 16.6272 5.58088 16.6272C5.47114 16.6272 5.38202 16.7163 5.38202 16.8261C5.38202 16.9358 5.47114 17.0249 5.58088 17.0249Z" fill="white"/>
<path d="M27.2795 9.6307C27.3892 9.6307 27.4784 9.54158 27.4784 9.43184C27.4784 9.32209 27.3892 9.23297 27.2795 9.23297C27.1698 9.23297 27.0806 9.32209 27.0806 9.43184C27.0806 9.54158 27.1698 9.6307 27.2795 9.6307Z" fill="white"/>
<path d="M27.2795 11.0769C27.3892 11.0769 27.4784 10.9878 27.4784 10.8781C27.4784 10.7683 27.3892 10.6792 27.2795 10.6792C27.1698 10.6792 27.0806 10.7683 27.0806 10.8781C27.0806 10.9878 27.1698 11.0769 27.2795 11.0769Z" fill="white"/>
<path d="M27.2795 8.18441C27.3892 8.18441 27.4784 8.09562 27.4784 7.98555C27.4784 7.87547 27.3892 7.78668 27.2795 7.78668C27.1698 7.78668 27.0806 7.87581 27.0806 7.98555C27.0806 8.09529 27.1698 8.18441 27.2795 8.18441Z" fill="white"/>
<path d="M26.4092 10.354C26.519 10.354 26.6081 10.2648 26.6081 10.1551C26.6081 10.0454 26.519 9.95624 26.4092 9.95624C26.2995 9.95624 26.2103 10.0454 26.2103 10.1551C26.2103 10.2648 26.2995 10.354 26.4092 10.354Z" fill="white"/>
<path d="M26.4092 8.90737C26.519 8.90737 26.6081 8.81825 26.6081 8.70851C26.6081 8.59877 26.519 8.50964 26.4092 8.50964C26.2995 8.50964 26.2103 8.59877 26.2103 8.70851C26.2103 8.81825 26.2995 8.90737 26.4092 8.90737Z" fill="white"/>
<path d="M30.8514 1.66808H15.9398V1.22512C15.9398 0.549374 15.3901 0 14.7147 0H8.1874C7.51199 0 6.96229 0.549707 6.96229 1.22512V1.66808H2.27698C1.02126 1.66808 0 2.68934 0 3.94472V25.9197C0 27.1751 1.02126 28.1963 2.27698 28.1963H12.3144C12.0955 28.625 11.8109 29.195 11.5385 29.7779C10.4142 32.1823 10.484 32.6532 10.6656 32.9555C10.778 33.1427 10.9768 33.2548 11.1977 33.2548H21.1333C21.3541 33.2548 21.5533 33.143 21.6654 32.9555C21.8469 32.6528 21.9164 32.1823 20.7924 29.7776C20.5197 29.1946 20.2354 28.6247 20.0166 28.196H30.8517C32.1071 28.196 33.1284 27.1747 33.1284 25.9193V3.94472C33.1284 2.68934 32.1071 1.66808 30.8517 1.66808M7.96227 1.22512C7.96227 1.10074 8.06336 0.999981 8.1874 0.999981H14.7147C14.8391 0.999981 14.9399 1.10108 14.9399 1.22512V4.56127C14.9399 4.68531 14.8388 4.7864 14.7147 4.7864H8.1874C8.06336 4.7864 7.96227 4.68531 7.96227 4.56127V1.22512ZM2.27698 2.66806H6.96262V4.56127C6.96262 5.23701 7.51233 5.78639 8.18774 5.78639H14.715C15.3905 5.78639 15.9402 5.23668 15.9402 4.56127V2.66806H30.8517C31.5558 2.66806 32.1287 3.24071 32.1287 3.94505V23.2081H0.999981V3.94472C0.999981 3.24071 1.57297 2.66772 2.27698 2.66772M19.8004 30.0187C20.3983 31.2801 20.6278 31.9312 20.7156 32.2551H11.6153C11.7028 31.9315 11.9323 31.2811 12.5289 30.0217C12.8847 29.2708 13.2475 28.5645 13.4394 28.1963H18.8912C19.0828 28.5635 19.4446 29.2681 19.8004 30.0184M30.8514 27.1967H2.27698C1.57297 27.1967 0.999981 26.624 0.999981 25.9197V24.2077H32.1284V25.9197C32.1284 26.6237 31.5558 27.1967 30.8514 27.1967Z" fill="white"/>
<path d="M3.79973 21.0166H29.3283C29.6043 21.0166 29.8282 20.7928 29.8282 20.5168C29.8282 20.2407 29.6043 20.0169 29.3283 20.0169H28.8511C29.1211 19.4795 29.2302 18.6851 29.2302 17.9608V8.85819C29.2302 7.61578 28.9093 6.16486 28.0051 6.16486H25.6842C24.78 6.16486 24.4591 7.61578 24.4591 8.85819V17.9608C24.4591 18.6847 24.5682 19.4795 24.8382 20.0169H22.1426C22.2902 19.7569 22.3767 19.4346 22.3767 19.0811V14.6276C22.3767 13.7457 21.8386 13.0546 21.1516 13.0546H18.8307C18.1436 13.0546 17.6056 13.7457 17.6056 14.6276V19.0811C17.6056 19.4343 17.692 19.7569 17.8397 20.0169H15.2531C15.4234 19.7136 15.5231 19.3209 15.5231 18.8813V13.598C15.5231 12.5874 14.9964 11.8249 14.298 11.8249H11.9772C11.2788 11.8249 10.752 12.5871 10.752 13.598V18.8813C10.752 19.3209 10.8518 19.7136 11.0221 20.0169H8.51929C8.61506 19.8423 8.66993 19.6418 8.66993 19.429V16.4191C8.66993 15.7437 8.12023 15.1939 7.44482 15.1939H5.12394C4.44853 15.1939 3.89883 15.7437 3.89883 16.4191V19.429C3.89883 19.6418 3.95336 19.8423 4.04947 20.0169H3.80039C3.52437 20.0169 3.30057 20.2407 3.30057 20.5168C3.30057 20.7928 3.52437 21.0166 3.80039 21.0166M25.779 7.1645H26.2363C26.22 7.19344 26.2103 7.22669 26.2103 7.26261C26.2103 7.37235 26.2995 7.46147 26.4092 7.46147C26.5189 7.46147 26.6081 7.37235 26.6081 7.26261C26.6081 7.22702 26.5984 7.19344 26.5821 7.1645H27.9097C28.0177 7.31781 28.1797 7.79735 28.2203 8.51499C28.1315 8.53461 28.0646 8.61409 28.0646 8.70887C28.0646 8.80365 28.1361 8.88878 28.2299 8.90474V9.95959C28.2276 9.95993 28.2256 9.96026 28.2233 9.96059C28.1328 9.97921 28.0646 10.0594 28.0646 10.1555C28.0646 10.2516 28.1361 10.335 28.2299 10.351V11.4059C28.1361 11.4218 28.0646 11.5033 28.0646 11.6014C28.0646 11.6995 28.1361 11.7813 28.2299 11.7973V12.8521C28.1361 12.8681 28.0646 12.9496 28.0646 13.048C28.0646 13.1464 28.1361 13.2279 28.2299 13.2439V14.2951C28.1361 14.311 28.0646 14.3925 28.0646 14.4909C28.0646 14.4916 28.0646 14.4923 28.0646 14.4929C28.0646 14.4936 28.0646 14.4943 28.0646 14.4949C28.0646 14.5934 28.1361 14.6748 28.2299 14.6908V15.742C28.1361 15.758 28.0646 15.8394 28.0646 15.9375C28.0646 16.0356 28.1361 16.1174 28.2299 16.1334V17.1883C28.1361 17.2042 28.0646 17.2857 28.0646 17.3841C28.0646 17.4826 28.1361 17.564 28.2299 17.58V17.9621C28.2299 18.2142 28.2146 18.443 28.1903 18.6458C28.1168 18.6751 28.0646 18.7466 28.0646 18.8307C28.0646 18.8926 28.0929 18.9478 28.1371 18.984C28.0696 19.3259 27.9785 19.5573 27.9097 19.6554H27.4501C27.468 19.6255 27.4783 19.5909 27.4783 19.5537C27.4783 19.4439 27.3892 19.3548 27.2795 19.3548C27.1697 19.3548 27.0806 19.4439 27.0806 19.5537C27.0806 19.5909 27.0909 19.6255 27.1089 19.6554H25.779C25.6709 19.5018 25.5086 19.0209 25.4681 18.3013C25.5572 18.2817 25.624 18.2022 25.624 18.1074C25.624 18.0126 25.5525 17.9275 25.4588 17.9119V16.8607C25.5525 16.8447 25.624 16.7633 25.624 16.6648C25.624 16.6642 25.624 16.6635 25.624 16.6628C25.624 16.6622 25.624 16.6615 25.624 16.6608C25.624 16.5624 25.5525 16.4809 25.4588 16.465V15.4138C25.5525 15.3978 25.624 15.3163 25.624 15.2179C25.624 15.1195 25.5525 15.038 25.4588 15.022V13.9672C25.5525 13.9512 25.624 13.8697 25.624 13.7713C25.624 13.6729 25.5525 13.5914 25.4588 13.5754V12.5206C25.5459 12.5056 25.6141 12.4341 25.623 12.345C25.6237 12.3383 25.624 12.3317 25.624 12.3247C25.624 12.2263 25.5525 12.1448 25.4588 12.1288V11.074C25.5525 11.058 25.624 10.9765 25.624 10.8784C25.624 10.7803 25.5525 10.6985 25.4588 10.6826V9.62771C25.5525 9.61175 25.624 9.53027 25.624 9.43184C25.624 9.3334 25.5525 9.25193 25.4588 9.23596V8.85785C25.4588 8.60445 25.4741 8.37399 25.4987 8.17014C25.5718 8.14087 25.624 8.06937 25.624 7.98557C25.624 7.92405 25.5961 7.86918 25.5522 7.8326C25.6197 7.4924 25.7102 7.26227 25.7793 7.16417M11.7517 13.5977C11.7517 13.1441 11.9166 12.8734 11.9938 12.8245H14.2807C14.3582 12.8734 14.5228 13.1441 14.5228 13.5977V18.8809C14.5228 19.3349 14.3579 19.6052 14.2807 19.6541H11.9938C11.9163 19.6052 11.7517 19.3349 11.7517 18.8809V13.5977ZM4.89814 16.4191C4.89814 16.295 4.99924 16.1939 5.12328 16.1939H6.27424C6.30716 16.2581 6.374 16.302 6.45082 16.302C6.52764 16.302 6.59448 16.2581 6.62774 16.1939H7.44382C7.56819 16.1939 7.66896 16.295 7.66896 16.4191V19.429C7.66896 19.4962 7.63903 19.5567 7.59214 19.5979C7.55589 19.5507 7.49902 19.5204 7.43484 19.5204C7.34771 19.5204 7.27389 19.5763 7.24695 19.6545H5.7681C5.74116 19.5766 5.66733 19.5204 5.5802 19.5204C5.49308 19.5204 5.41925 19.5763 5.39231 19.6545H5.12228C4.99824 19.6545 4.89714 19.5534 4.89714 19.4293V16.4194L4.89814 16.4191ZM18.6052 18.6219L19.6375 19.6541H18.8307C18.7728 19.6461 18.6052 19.437 18.6052 19.0811V18.6219ZM18.6052 18.2112V17.1281L21.1313 19.6541H20.0482L18.6056 18.2115L18.6052 18.2112ZM21.3767 16.2771L19.1539 14.0543H20.1393L21.3764 15.2914V16.2767L21.3767 16.2771ZM21.3767 19.0811C21.3767 19.2208 21.3508 19.3372 21.3162 19.4283L18.6056 16.7177V15.5548L21.377 18.3262V19.0811H21.3767ZM21.3767 14.6276V14.881L20.55 14.0543H21.1512C21.2091 14.0619 21.3767 14.2714 21.3767 14.6273M18.7785 14.0895L21.3764 16.6874V17.9155L18.6461 15.1853L18.6049 15.2265V14.6273C18.6049 14.3506 18.706 14.163 18.7782 14.0892" fill="white"/>
<path d="M4.39863 14.7915C4.4811 14.7915 4.5649 14.7709 4.64206 14.728L12.2844 10.4564H18.5949L25.929 4.8017C26.1478 4.6331 26.1884 4.31917 26.0198 4.10035C25.8512 3.88153 25.5372 3.84096 25.3184 4.00956L18.254 9.45608H12.0237L4.15387 13.8547C3.91277 13.9894 3.82664 14.294 3.96132 14.5351C4.05278 14.6991 4.22304 14.7912 4.3983 14.7912" fill="white"/>
</svg>
