<svg width="30" height="30" viewBox="0 0 30 30" fill="none" xmlns="http://www.w3.org/2000/svg">
<path d="M29.9825 22.6621C29.7151 24.6947 28.7169 26.5604 27.1743 27.9108C25.6318 29.2612 23.6505 30.0039 21.6004 30.0002C9.69018 30.0002 1.35732e-05 20.31 1.35732e-05 8.39984C-0.00366146 6.34974 0.739057 4.36841 2.08945 2.82589C3.43984 1.28337 5.30556 0.285161 7.33814 0.0176968C7.85213 -0.0450629 8.37263 0.0600904 8.82195 0.31746C9.27126 0.574829 9.62529 0.97061 9.83118 1.44572L12.9992 8.51834V8.53634C13.1569 8.90003 13.222 9.2971 13.1887 9.69208C13.1555 10.0871 13.0249 10.4677 12.8087 10.7999C12.7817 10.8404 12.7532 10.8779 12.7232 10.9154L9.60018 14.6174C10.7237 16.9005 13.1117 19.2675 15.4248 20.3941L19.0758 17.2875C19.1117 17.2574 19.1493 17.2293 19.1883 17.2035C19.5203 16.9821 19.9022 16.8469 20.2995 16.8103C20.6968 16.7736 21.097 16.8366 21.4639 16.9935L21.4834 17.0025L28.55 20.169C29.026 20.3742 29.4227 20.7279 29.6809 21.1773C29.9391 21.6267 30.0449 22.1476 29.9825 22.6621Z" fill="white"/>
</svg>
