<svg width="42" height="38" viewBox="0 0 42 38" fill="none" xmlns="http://www.w3.org/2000/svg">
<path d="M10.4817 5.52146C10.5404 5.52146 10.6003 5.51319 10.6598 5.49543L12.1622 5.0471L12.6139 6.52968C12.6957 6.79743 12.9415 6.97015 13.208 6.97015C13.268 6.97015 13.3291 6.96147 13.3894 6.94288C13.7175 6.84288 13.9026 6.49579 13.8026 6.16771L13.3531 4.69216L14.8489 4.2459C15.1778 4.14756 15.3645 3.80171 15.2666 3.47321C15.1687 3.1443 14.8224 2.95753 14.4935 3.05546L12.9911 3.50379L12.5395 2.02163C12.4395 1.69354 12.0924 1.50843 11.7643 1.60842C11.4362 1.70842 11.2511 2.05551 11.3511 2.38359L11.8007 3.85914L10.3049 4.3054C9.97596 4.40375 9.7892 4.7496 9.88712 5.07851C9.9677 5.34791 10.2144 5.52229 10.4821 5.52229" fill="white"/>
<path d="M3.1515 4.32363C3.34819 4.37776 3.54611 4.40338 3.74115 4.40338C4.71218 4.40338 5.60676 3.76374 5.87906 2.79106C6.0369 2.22663 5.96501 1.63409 5.67576 1.12337C5.38404 0.608108 4.9072 0.237464 4.33285 0.0796206C3.15605 -0.243091 1.93255 0.444478 1.60571 1.61219C1.44745 2.17704 1.51976 2.76916 1.80901 3.28029C2.10073 3.79597 2.57757 4.1662 3.1515 4.32363ZM2.80193 1.9473C2.92093 1.52211 3.3143 1.24278 3.74197 1.24278C3.82874 1.24278 3.91676 1.25436 4.00394 1.27832C4.25682 1.34774 4.46631 1.51013 4.59399 1.73574C4.7192 1.9568 4.7506 2.21258 4.68201 2.45637C4.53863 2.96791 3.9994 3.26831 3.47959 3.12576C3.22671 3.05634 3.01721 2.89394 2.88953 2.66834C2.76433 2.44727 2.73293 2.1915 2.80152 1.9473" fill="white"/>
<path d="M4.67334 10.7271C4.72829 10.7419 4.78366 10.7494 4.83779 10.7494C5.11051 10.7494 5.36091 10.568 5.43652 10.2924C5.52743 9.9614 5.3324 9.61968 5.00184 9.52877L3.49571 9.11598L3.91139 7.63052C4.00395 7.29996 3.81098 6.95741 3.48083 6.86485C3.15027 6.77229 2.80772 6.96526 2.71517 7.29582L2.29783 8.78749L0.785509 8.37263C0.454533 8.28173 0.112812 8.47634 0.0223207 8.80732C-0.068584 9.1383 0.126449 9.48002 0.457012 9.57092L1.96314 9.98412L1.54745 11.4696C1.4549 11.8002 1.64786 12.1427 1.97843 12.2353C2.03462 12.251 2.09082 12.2584 2.14618 12.2584C2.41766 12.2584 2.66724 12.0791 2.74409 11.8047L3.16184 10.313L4.67417 10.7279L4.67334 10.7271Z" fill="white"/>
<path d="M40.7245 21.2811C39.5807 21.234 38.963 20.6609 38.7126 20.3539C39.177 18.6122 38.7762 16.8954 37.5436 15.3715C37.0292 14.7355 36.4677 14.2554 36.0516 13.943L38.868 10.7597L38.4919 10.3473C37.2061 8.93789 35.7698 8.22098 34.2236 8.21643H34.2091C32.3488 8.21643 30.8398 9.26018 30.1018 9.8866C29.8589 9.69529 29.5085 9.46968 28.9957 9.19696C28.373 8.86599 27.7904 8.61476 27.7656 8.60402C27.4503 8.46848 27.085 8.61435 26.9495 8.92962C26.814 9.24489 26.9598 9.61017 27.2751 9.7457C28.2949 10.1841 29.3258 10.7737 29.501 11.0175L29.8605 11.9072L30.5254 11.187C30.5415 11.1696 32.1447 9.45852 34.2083 9.45852C34.212 9.45852 34.2157 9.45852 34.219 9.45852C35.257 9.46142 36.252 9.90809 37.1837 10.7874L34.6533 13.6472C34.6533 13.6472 34.6508 13.6496 34.65 13.6509L32.3129 16.2921C32.0856 16.5491 32.1096 16.9416 32.3666 17.1689C32.4848 17.2734 32.6319 17.3247 32.7782 17.3247C32.9501 17.3247 33.1207 17.254 33.2438 17.1152L35.2247 14.8769C36.1702 15.5673 38.3353 17.5069 37.442 20.2708L37.3606 20.522L37.485 20.7547C37.518 20.8167 38.2486 22.1439 40.0774 22.4591V26.7151C39.2113 26.9883 37.2581 27.6804 35.2834 28.8973C33.7405 29.848 32.5067 30.9236 31.6158 32.0942C30.6113 33.4144 30.0436 34.8544 29.9229 36.3824H25.8896V31.4881L25.0558 31.7922C25.012 31.8083 20.6234 33.376 16.8434 31.9541L16.0033 31.638V36.4721H12.399C11.7304 35.1837 9.21731 30.4538 5.90755 25.6276C3.92417 22.736 4.20887 18.6188 6.63231 15.1392C8.03513 13.1249 11.4498 10.5027 14.5208 9.77917C14.8546 9.70066 15.0617 9.36596 14.9827 9.03209C14.9042 8.69823 14.5695 8.49121 14.2357 8.57014C10.8342 9.37175 7.18021 12.1786 5.61252 14.4294C4.22787 16.4173 3.45023 18.6159 3.36304 20.7877C3.28081 22.8438 3.806 24.7603 4.8828 26.33C8.69585 31.8897 11.4374 37.3179 11.4647 37.3725L11.6366 37.7146H17.2454V33.3888C19.1941 33.9235 21.1634 33.8326 22.5464 33.6404C23.4051 33.521 24.1315 33.3537 24.6471 33.2144V37.6249H31.1406V37.0039C31.1406 34.2941 32.7455 31.9273 35.9111 29.9695C38.3498 28.4613 40.8344 27.7849 40.8588 27.7783L41.3195 27.6552V21.3046L40.7241 21.2803L40.7245 21.2811Z" fill="white"/>
<path d="M20.9899 14.6975C24.0625 14.6975 26.5623 12.2204 26.5623 9.17587C26.5623 6.13139 24.0625 3.65424 20.9899 3.65424C17.9173 3.65424 15.4174 6.13139 15.4174 9.17587C15.4174 12.2204 17.9173 14.6975 20.9899 14.6975ZM20.9899 4.89632C23.3774 4.89632 25.3198 6.81607 25.3198 9.17546C25.3198 11.5349 23.3774 13.455 20.9899 13.455C18.6024 13.455 16.6599 11.5353 16.6599 9.17546C16.6599 6.81565 18.6024 4.89632 20.9899 4.89632Z" fill="white"/>
<path d="M16.0389 17.3255H26.6293C26.9723 17.3255 27.2503 17.0474 27.2503 16.7044C27.2503 16.3615 26.9723 16.0834 26.6293 16.0834H16.0389C15.6959 16.0834 15.4178 16.3615 15.4178 16.7044C15.4178 17.0474 15.6959 17.3255 16.0389 17.3255Z" fill="white"/>
<path d="M18.8776 12.2894C18.9908 12.377 19.1243 12.4191 19.2573 12.4191C19.4433 12.4191 19.6267 12.336 19.7491 12.1778C19.959 11.9063 19.909 11.5163 19.6375 11.3063C18.3384 10.3018 18.3958 8.18459 18.3971 8.15608C18.4103 7.81395 18.1438 7.52553 17.8012 7.51149C17.4578 7.49702 17.1694 7.76437 17.1554 8.10691C17.1508 8.21972 17.0645 10.8869 18.8772 12.2889" fill="white"/>
</svg>
