<svg width="26" height="26" viewBox="0 0 26 26" fill="none" xmlns="http://www.w3.org/2000/svg">
<path d="M14.3364 0.00159946C15.285 -0.00204071 16.2336 0.00749333 17.182 0.0301986L17.4342 0.0392983C17.7254 0.0496979 18.0126 0.0626974 18.3597 0.0782969C19.7428 0.143295 20.6866 0.361688 21.5147 0.682777C22.3726 1.01297 23.0954 1.46015 23.8181 2.18293C24.479 2.83239 24.9905 3.61801 25.317 4.48515C25.6381 5.31322 25.8564 6.25829 25.9214 7.64144C25.937 7.98723 25.95 8.27582 25.9604 8.56701L25.9682 8.81921C25.9913 9.76712 26.0013 10.7153 25.9981 11.6635L25.9994 12.6333V14.3362C26.0026 15.2848 25.9927 16.2335 25.9695 17.1818L25.9617 17.434C25.9513 17.7252 25.9383 18.0125 25.9227 18.3596C25.8577 19.7427 25.6368 20.6865 25.317 21.5146C24.9915 22.3826 24.4799 23.1689 23.8181 23.8181C23.1681 24.4789 22.3821 24.9903 21.5147 25.317C20.6866 25.638 19.7428 25.8564 18.3597 25.9214C18.0126 25.937 17.7254 25.95 17.4342 25.9604L17.182 25.9682C16.2336 25.9913 15.285 26.0013 14.3364 25.9981L13.3667 25.9994H11.6651C10.7164 26.0026 9.76784 25.9927 8.8195 25.9695L8.56732 25.9617C8.25872 25.9505 7.9502 25.9375 7.64176 25.9227C6.25863 25.8577 5.31488 25.6367 4.48552 25.317C3.61806 24.9911 2.83232 24.4796 2.18334 23.8181C1.52173 23.1685 1.00979 22.3824 0.683215 21.5146C0.362132 20.6865 0.143743 19.7427 0.078746 18.3596C0.0642685 18.0511 0.0512691 17.7426 0.039748 17.434L0.0332485 17.1818C0.00928241 16.2335 -0.00155153 15.2849 0.000750063 14.3362V11.6635C-0.00287801 10.7153 0.00665586 9.76713 0.0293487 8.81921L0.0384482 8.56701C0.0488477 8.27582 0.061847 7.98723 0.0774462 7.64144C0.142443 6.25699 0.360832 5.31452 0.681915 4.48515C1.00868 3.61758 1.52163 2.83218 2.18464 2.18423C2.83317 1.52223 3.61842 1.00981 4.48552 0.682777C5.31488 0.361688 6.25733 0.143295 7.64176 0.0782969L8.56732 0.0392983L8.8195 0.0327986C9.76739 0.00884409 10.7156 -0.00199004 11.6638 0.000299598L14.3364 0.00159946ZM13.0001 6.50138C12.1389 6.4892 11.2839 6.64831 10.4847 6.96945C9.68551 7.2906 8.95814 7.76738 8.34483 8.37209C7.73151 8.9768 7.2445 9.69738 6.91209 10.4919C6.57968 11.2865 6.4085 12.1392 6.4085 13.0005C6.4085 13.8618 6.57968 14.7145 6.91209 15.5091C7.2445 16.3037 7.73151 17.0242 8.34483 17.6289C8.95814 18.2336 9.68551 18.7104 10.4847 19.0316C11.2839 19.3527 12.1389 19.5118 13.0001 19.4996C14.7239 19.4996 16.3771 18.8149 17.5961 17.5959C18.815 16.377 19.4998 14.7237 19.4998 12.9999C19.4998 11.276 18.815 9.62277 17.5961 8.40382C16.3771 7.18488 14.7239 6.50138 13.0001 6.50138ZM13.0001 9.1013C13.5181 9.09175 14.0329 9.18553 14.5142 9.37716C14.9956 9.56878 15.434 9.85441 15.8038 10.2174C16.1735 10.5803 16.4672 11.0133 16.6678 11.4911C16.8683 11.9688 16.9716 12.4817 16.9717 12.9999C16.9718 13.518 16.8687 14.0309 16.6683 14.5087C16.4679 14.9866 16.1743 15.4197 15.8047 15.7827C15.4351 16.1458 14.9968 16.4316 14.5155 16.6234C14.0341 16.8152 13.5194 16.9091 13.0014 16.8997C11.9671 16.8997 10.9752 16.4889 10.2438 15.7575C9.51246 15.0261 9.10159 14.0342 9.10159 12.9999C9.10159 11.9656 9.51246 10.9736 10.2438 10.2422C10.9752 9.51087 11.9671 9.1 13.0014 9.1L13.0001 9.1013ZM19.8247 4.55145C19.4054 4.56823 19.0088 4.74664 18.718 5.04929C18.4272 5.35195 18.2648 5.75538 18.2648 6.17509C18.2648 6.5948 18.4272 6.99824 18.718 7.30089C19.0088 7.60355 19.4054 7.78195 19.8247 7.79874C20.2557 7.79874 20.669 7.62754 20.9737 7.3228C21.2785 7.01807 21.4497 6.60476 21.4497 6.17379C21.4497 5.74283 21.2785 5.32952 20.9737 5.02478C20.669 4.72005 20.2557 4.54885 19.8247 4.54885V4.55145Z" fill="white"/>
</svg>
