<svg width="43" height="32" viewBox="0 0 43 32" fill="none" xmlns="http://www.w3.org/2000/svg">
<path d="M12.251 4.90623L7.65439 12.2954L31.8661 27.3617L36.4627 19.9726L12.251 4.90623Z" stroke="white" stroke-width="0.949731" stroke-linecap="round" stroke-linejoin="round"/>
<path d="M37.7783 20.7426L33.182 28.1318L40.6541 27.5855C40.6541 27.5855 37.7147 20.8445 37.7785 20.7424L37.7783 20.7426Z" stroke="white" stroke-width="0.949731" stroke-linecap="round" stroke-linejoin="round"/>
<path d="M35.8 27.8715L38.7147 23.2616L40.4072 27.5265L35.8 27.8715Z" stroke="white" stroke-width="0.949731" stroke-linecap="round" stroke-linejoin="round"/>
<path d="M8.9798 10.9983L17.3571 16.2108" stroke="white" stroke-width="0.949731" stroke-linecap="round" stroke-linejoin="round"/>
<path d="M35.1188 21.4491L22.8252 13.7998" stroke="white" stroke-width="0.949731" stroke-linecap="round" stroke-linejoin="round"/>
<path d="M15.8612 12.5223L27.3033 19.6421" stroke="white" stroke-width="0.949731" stroke-linecap="round" stroke-linejoin="round"/>
<path d="M9.6426 2.99826L4.73294 10.8969L7.29739 12.4914L12.207 4.59281L9.6426 2.99826Z" stroke="white" stroke-width="0.949731" stroke-miterlimit="10"/>
<path d="M5.13495 0.474965L0.474884 7.96619L4.83376 10.6786L9.49382 3.18738L5.13495 0.474965Z" stroke="white" stroke-width="0.949731" stroke-linecap="round" stroke-linejoin="round"/>
</svg>
