<svg width="152" height="131" viewBox="0 0 152 131" fill="none" xmlns="http://www.w3.org/2000/svg">
<path d="M76.9601 131H151.645V45.7147H140.105V23.9688L137.679 24.1356C127.974 24.7725 118.602 26.7742 109.806 30.0801C102.77 32.7187 96.0825 36.2065 89.9409 40.4374C87.2871 42.2572 84.9821 44.0466 82.9955 45.7298H68.6196C66.633 44.0617 64.328 42.2572 61.6894 40.4374C55.5629 36.2217 48.8754 32.7338 41.839 30.0801C33.0436 26.7742 23.6719 24.7725 13.9666 24.1356L11.5403 23.9688V45.7147H0.00012207V131H74.6854M4.56464 126.435V50.2792H11.5403V101.111L13.6634 101.247C21.0788 101.732 27.7967 103.037 33.7867 104.78C33.6199 104.917 33.5137 105.129 33.5137 105.357C33.5137 105.781 33.8625 106.115 34.2719 106.115C34.6814 106.115 35.0302 105.766 35.0302 105.357C35.0302 104.947 35.0302 105.205 34.9998 105.144C39.989 106.676 44.4625 108.526 48.3749 110.467C48.3598 110.543 48.3446 110.604 48.3446 110.679C48.3446 111.104 48.6934 111.438 49.1028 111.438C49.5123 111.438 49.5729 111.316 49.7094 111.134C53.0456 112.848 55.9572 114.622 58.429 116.29C58.3532 116.412 58.3229 116.533 58.3229 116.685C58.3229 117.109 58.6716 117.443 59.0811 117.443C59.4905 117.443 59.536 117.322 59.6877 117.14C64.6465 120.612 68.3315 123.979 70.7123 126.405H4.54948L4.56464 126.435ZM73.548 122.796C70.8942 120.142 66.9666 116.624 61.7046 113C55.5629 108.784 48.8905 105.296 41.8542 102.657C33.7108 99.5942 25.0519 97.6532 16.1048 96.8646V28.8669C35.7277 30.6563 50.1643 38.0566 58.9446 44.0769C67.2244 49.7484 72.1226 55.2683 73.548 56.9819V122.796ZM75.8076 52.6145C75.2161 51.9473 74.4731 51.1587 73.5935 50.2792H78.0367C77.142 51.1739 76.4141 51.9625 75.8076 52.6145ZM78.0974 56.9213C79.5684 55.1622 84.3603 49.7939 92.5189 44.1831C101.329 38.1173 115.842 30.6715 135.541 28.8669V96.8646C126.594 97.638 117.95 99.5942 109.791 102.657C102.755 105.296 96.0674 108.784 89.9409 113C84.6788 116.624 80.7512 120.142 78.0974 122.796V56.9213ZM147.081 126.435H80.918C83.3898 123.918 87.2568 120.385 92.534 116.76C101.709 110.452 117.025 102.642 137.982 101.262L140.105 101.126V50.2944H147.081V126.451V126.435Z" fill="white"/>
<path d="M38.0631 89.7223C37.0016 89.4645 35.8491 89.146 34.6208 88.8124C30.5263 87.6902 25.886 86.4316 21.2305 86.2041C19.9718 86.1435 18.9103 87.114 18.8345 88.3726C18.7738 89.6313 19.7444 90.6928 21.003 90.7686C25.1581 90.9658 29.5406 92.1638 33.4228 93.2253C34.6663 93.5589 35.8491 93.8925 36.9713 94.1655C37.1532 94.211 37.3352 94.2261 37.5172 94.2261C38.5484 94.2261 39.4734 93.5286 39.7312 92.4974C40.0345 91.2691 39.2914 90.0407 38.0631 89.7375" fill="white"/>
<path d="M53.4551 86.6288C53.0153 86.2497 42.4457 77.2874 21.2457 76.3624C19.987 76.3169 18.9255 77.2874 18.8648 78.5461C18.8042 79.8047 19.7899 80.8663 21.0485 80.9269C31.2391 81.3667 38.7 83.8385 43.1584 85.825C47.9959 87.9784 50.4525 90.0559 50.4829 90.0863C50.9075 90.4502 51.4382 90.6322 51.969 90.6322C52.4997 90.6322 53.2428 90.3592 53.6977 89.8436C54.5166 88.8883 54.4256 87.4477 53.4703 86.6288" fill="white"/>
<path d="M90.9721 60.8035C91.3967 61.1826 91.9426 61.3646 92.4734 61.3646C93.0041 61.3646 93.7472 61.1067 94.187 60.576C94.2628 60.485 102.3 51.4924 120.149 48.8235C121.392 48.6415 122.256 47.4738 122.075 46.2304C121.893 44.9869 120.725 44.1225 119.481 44.3045C99.9798 47.2009 91.1237 57.1488 90.7598 57.5582C89.9257 58.5136 90.0319 59.9542 90.9872 60.7731" fill="white"/>
<path d="M52.4238 10.7453C52.6664 10.7453 52.8939 10.715 53.1365 10.624L55.6083 9.80515L56.4272 12.2921C56.7457 13.2475 57.6404 13.8541 58.5958 13.8541C59.5511 13.8541 59.0659 13.8237 59.3085 13.7328C60.5065 13.3385 61.1586 12.0495 60.7643 10.8515L59.9454 8.37969L62.4324 7.5608C63.6304 7.16652 64.2825 5.87754 63.8882 4.67954C63.4939 3.48154 62.2049 2.82947 61.0069 3.22375L58.5199 4.04264L57.7011 1.57081C57.3068 0.372815 56.0178 -0.279255 54.8198 0.115022C53.6218 0.5093 52.9697 1.79828 53.364 2.99628L54.1829 5.46809L51.7111 6.28697C50.5131 6.68125 49.861 7.97024 50.2553 9.16823C50.5737 10.1236 51.4684 10.7302 52.4238 10.7302" fill="white"/>
<path d="M59.6119 28.0025C58.8233 31.1264 60.734 34.3109 63.8731 35.0995C64.3432 35.2208 64.8285 35.2815 65.2986 35.2815C66.3449 35.2815 67.3761 34.9933 68.3011 34.4474C69.6356 33.6437 70.591 32.3699 70.9701 30.8534C71.3492 29.337 71.1217 27.7599 70.318 26.4254C69.5143 25.0909 68.2405 24.1355 66.724 23.7564C63.6001 22.983 60.4156 24.8786 59.627 28.0177M64.0399 29.1095C64.2067 28.4271 64.9194 28.0025 65.6018 28.1693C65.9355 28.2603 66.2236 28.4574 66.3904 28.7607C66.5724 29.0488 66.6179 29.3976 66.5421 29.7312C66.4662 30.0649 66.2539 30.353 65.9506 30.5198C65.6625 30.7018 65.3137 30.7473 64.9801 30.6714C64.2977 30.5046 63.8731 29.7919 64.0399 29.1095Z" fill="white"/>
<path d="M81.752 25.6976L84.2845 26.3346L83.6476 28.867C83.3443 30.0953 84.0874 31.3237 85.3005 31.627C85.4825 31.6724 85.6645 31.7028 85.8616 31.7028C86.8776 31.7028 87.8179 31.0052 88.0757 29.974L88.7126 27.4416L91.245 28.0785C91.427 28.124 91.609 28.1543 91.8061 28.1543C92.8222 28.1543 93.7623 27.4567 94.0201 26.4255C94.3234 25.1972 93.5804 23.9689 92.3672 23.6656L89.8347 23.0287L90.4716 20.4962C90.7749 19.2679 90.0319 18.0395 88.8187 17.7363C87.5904 17.433 86.3621 18.176 86.0588 19.3892L85.4219 21.9217L82.8894 21.2848C81.6611 20.9815 80.4327 21.7245 80.1294 22.9377C79.8262 24.166 80.5692 25.3943 81.7824 25.6976" fill="white"/>
<path d="M34.2719 121.249C33.8473 121.249 33.5137 121.598 33.5137 122.007C33.5137 122.417 33.8625 122.765 34.2719 122.765C34.6813 122.765 35.0301 122.417 35.0301 122.007C35.0301 121.598 34.6813 121.249 34.2719 121.249Z" fill="white"/>
<path d="M39.2156 121.249C38.791 121.249 38.4574 121.598 38.4574 122.007C38.4574 122.417 38.8062 122.765 39.2156 122.765C39.6251 122.765 39.9738 122.417 39.9738 122.007C39.9738 121.598 39.6251 121.249 39.2156 121.249Z" fill="white"/>
<path d="M44.1744 121.249C43.7498 121.249 43.4161 121.598 43.4161 122.007C43.4161 122.417 43.7649 122.765 44.1744 122.765C44.5838 122.765 44.9326 122.417 44.9326 122.007C44.9326 121.598 44.5838 121.249 44.1744 121.249Z" fill="white"/>
<path d="M49.118 121.249C48.6934 121.249 48.3597 121.598 48.3597 122.007C48.3597 122.417 48.7085 122.765 49.118 122.765C49.5274 122.765 49.8762 122.417 49.8762 122.007C49.8762 121.598 49.5274 121.249 49.118 121.249Z" fill="white"/>
<path d="M9.53862 121.249C9.11401 121.249 8.7804 121.598 8.7804 122.007C8.7804 122.417 9.12918 122.765 9.53862 122.765C9.94806 122.765 10.2968 122.417 10.2968 122.007C10.2968 121.598 9.94806 121.249 9.53862 121.249Z" fill="white"/>
<path d="M14.4974 121.249C14.0728 121.249 13.7391 121.598 13.7391 122.007C13.7391 122.417 14.0879 122.765 14.4974 122.765C14.9068 122.765 15.2556 122.417 15.2556 122.007C15.2556 121.598 14.9068 121.249 14.4974 121.249Z" fill="white"/>
<path d="M19.441 121.249C19.0164 121.249 18.6827 121.598 18.6827 122.007C18.6827 122.417 19.0315 122.765 19.441 122.765C19.8504 122.765 20.1992 122.417 20.1992 122.007C20.1992 121.598 19.8504 121.249 19.441 121.249Z" fill="white"/>
<path d="M24.3847 121.249C23.9601 121.249 23.6265 121.598 23.6265 122.007C23.6265 122.417 23.9752 122.765 24.3847 122.765C24.7941 122.765 25.1429 122.417 25.1429 122.007C25.1429 121.598 24.7941 121.249 24.3847 121.249Z" fill="white"/>
<path d="M29.3283 121.249C28.9037 121.249 28.5701 121.598 28.5701 122.007C28.5701 122.417 28.9189 122.765 29.3283 122.765C29.7377 122.765 30.0865 122.417 30.0865 122.007C30.0865 121.598 29.7377 121.249 29.3283 121.249Z" fill="white"/>
<path d="M34.2719 115.927C33.8473 115.927 33.5137 116.275 33.5137 116.685C33.5137 117.094 33.8625 117.443 34.2719 117.443C34.6813 117.443 35.0301 117.094 35.0301 116.685C35.0301 116.275 34.6813 115.927 34.2719 115.927Z" fill="white"/>
<path d="M39.2156 115.927C38.791 115.927 38.4574 116.275 38.4574 116.685C38.4574 117.094 38.8062 117.443 39.2156 117.443C39.6251 117.443 39.9738 117.094 39.9738 116.685C39.9738 116.275 39.6251 115.927 39.2156 115.927Z" fill="white"/>
<path d="M44.1744 115.927C43.7498 115.927 43.4161 116.275 43.4161 116.685C43.4161 117.094 43.7649 117.443 44.1744 117.443C44.5838 117.443 44.9326 117.094 44.9326 116.685C44.9326 116.275 44.5838 115.927 44.1744 115.927Z" fill="white"/>
<path d="M49.118 115.927C48.6934 115.927 48.3597 116.275 48.3597 116.685C48.3597 117.094 48.7085 117.443 49.118 117.443C49.5274 117.443 49.8762 117.094 49.8762 116.685C49.8762 116.275 49.5274 115.927 49.118 115.927Z" fill="white"/>
<path d="M9.53862 115.927C9.11401 115.927 8.7804 116.275 8.7804 116.685C8.7804 117.094 9.12918 117.443 9.53862 117.443C9.94806 117.443 10.2968 117.094 10.2968 116.685C10.2968 116.275 9.94806 115.927 9.53862 115.927Z" fill="white"/>
<path d="M14.4974 115.927C14.0728 115.927 13.7391 116.275 13.7391 116.685C13.7391 117.094 14.0879 117.443 14.4974 117.443C14.9068 117.443 15.2556 117.094 15.2556 116.685C15.2556 116.275 14.9068 115.927 14.4974 115.927Z" fill="white"/>
<path d="M19.441 115.927C19.0164 115.927 18.6827 116.275 18.6827 116.685C18.6827 117.094 19.0315 117.443 19.441 117.443C19.8504 117.443 20.1992 117.094 20.1992 116.685C20.1992 116.275 19.8504 115.927 19.441 115.927Z" fill="white"/>
<path d="M24.3847 115.927C23.9601 115.927 23.6265 116.275 23.6265 116.685C23.6265 117.094 23.9752 117.443 24.3847 117.443C24.7941 117.443 25.1429 117.094 25.1429 116.685C25.1429 116.275 24.7941 115.927 24.3847 115.927Z" fill="white"/>
<path d="M29.3283 115.927C28.9037 115.927 28.5701 116.275 28.5701 116.685C28.5701 117.094 28.9189 117.443 29.3283 117.443C29.7377 117.443 30.0865 117.094 30.0865 116.685C30.0865 116.275 29.7377 115.927 29.3283 115.927Z" fill="white"/>
<path d="M34.2719 109.921C33.8473 109.921 33.5137 110.27 33.5137 110.68C33.5137 111.089 33.8625 111.438 34.2719 111.438C34.6813 111.438 35.0301 111.089 35.0301 110.68C35.0301 110.27 34.6813 109.921 34.2719 109.921Z" fill="white"/>
<path d="M39.2156 109.921C38.791 109.921 38.4574 110.27 38.4574 110.68C38.4574 111.089 38.8062 111.438 39.2156 111.438C39.6251 111.438 39.9738 111.089 39.9738 110.68C39.9738 110.27 39.6251 109.921 39.2156 109.921Z" fill="white"/>
<path d="M44.1744 109.921C43.7498 109.921 43.4161 110.27 43.4161 110.68C43.4161 111.089 43.7649 111.438 44.1744 111.438C44.5838 111.438 44.9326 111.089 44.9326 110.68C44.9326 110.27 44.5838 109.921 44.1744 109.921Z" fill="white"/>
<path d="M54.1526 121.249C53.728 121.249 53.3944 121.598 53.3944 122.007C53.3944 122.417 53.7432 122.765 54.1526 122.765C54.5621 122.765 54.9109 122.417 54.9109 122.007C54.9109 121.598 54.5621 121.249 54.1526 121.249Z" fill="white"/>
<path d="M59.0962 121.249C58.6716 121.249 58.338 121.598 58.338 122.007C58.338 122.417 58.6868 122.765 59.0962 122.765C59.5057 122.765 59.8545 122.417 59.8545 122.007C59.8545 121.598 59.5057 121.249 59.0962 121.249Z" fill="white"/>
<path d="M64.0096 121.249C63.585 121.249 63.2513 121.598 63.2513 122.007C63.2513 122.417 63.6001 122.765 64.0096 122.765C64.419 122.765 64.7678 122.417 64.7678 122.007C64.7678 121.598 64.419 121.249 64.0096 121.249Z" fill="white"/>
<path d="M54.1526 115.927C53.728 115.927 53.3944 116.275 53.3944 116.685C53.3944 117.094 53.7432 117.443 54.1526 117.443C54.5621 117.443 54.9109 117.094 54.9109 116.685C54.9109 116.275 54.5621 115.927 54.1526 115.927Z" fill="white"/>
<path d="M9.53862 109.921C9.11401 109.921 8.7804 110.27 8.7804 110.68C8.7804 111.089 9.12918 111.438 9.53862 111.438C9.94806 111.438 10.2968 111.089 10.2968 110.68C10.2968 110.27 9.94806 109.921 9.53862 109.921Z" fill="white"/>
<path d="M14.4974 109.921C14.0728 109.921 13.7391 110.27 13.7391 110.68C13.7391 111.089 14.0879 111.438 14.4974 111.438C14.9068 111.438 15.2556 111.089 15.2556 110.68C15.2556 110.27 14.9068 109.921 14.4974 109.921Z" fill="white"/>
<path d="M19.441 109.921C19.0164 109.921 18.6827 110.27 18.6827 110.68C18.6827 111.089 19.0315 111.438 19.441 111.438C19.8504 111.438 20.1992 111.089 20.1992 110.68C20.1992 110.27 19.8504 109.921 19.441 109.921Z" fill="white"/>
<path d="M24.3847 109.921C23.9601 109.921 23.6265 110.27 23.6265 110.68C23.6265 111.089 23.9752 111.438 24.3847 111.438C24.7941 111.438 25.1429 111.089 25.1429 110.68C25.1429 110.27 24.7941 109.921 24.3847 109.921Z" fill="white"/>
<path d="M29.3283 109.921C28.9037 109.921 28.5701 110.27 28.5701 110.68C28.5701 111.089 28.9189 111.438 29.3283 111.438C29.7377 111.438 30.0865 111.089 30.0865 110.68C30.0865 110.27 29.7377 109.921 29.3283 109.921Z" fill="white"/>
<path d="M9.53862 104.614C9.11401 104.614 8.7804 104.962 8.7804 105.372C8.7804 105.781 9.12918 106.13 9.53862 106.13C9.94806 106.13 10.2968 105.781 10.2968 105.372C10.2968 104.962 9.94806 104.614 9.53862 104.614Z" fill="white"/>
<path d="M9.53862 99.6094C9.11401 99.6094 8.7804 99.9582 8.7804 100.368C8.7804 100.777 9.12918 101.126 9.53862 101.126C9.94806 101.126 10.2968 100.777 10.2968 100.368C10.2968 99.9582 9.94806 99.6094 9.53862 99.6094Z" fill="white"/>
<path d="M9.53862 94.4231C9.11401 94.4231 8.7804 94.7719 8.7804 95.1813C8.7804 95.5908 9.12918 95.9395 9.53862 95.9395C9.94806 95.9395 10.2968 95.5908 10.2968 95.1813C10.2968 94.7719 9.94806 94.4231 9.53862 94.4231Z" fill="white"/>
<path d="M9.53862 89.1157C9.11401 89.1157 8.7804 89.4645 8.7804 89.8739C8.7804 90.2834 9.12918 90.6322 9.53862 90.6322C9.94806 90.6322 10.2968 90.2834 10.2968 89.8739C10.2968 89.4645 9.94806 89.1157 9.53862 89.1157Z" fill="white"/>
<path d="M9.53862 83.0952C9.11401 83.0952 8.7804 83.444 8.7804 83.8534C8.7804 84.2629 9.12918 84.6117 9.53862 84.6117C9.94806 84.6117 10.2968 84.2629 10.2968 83.8534C10.2968 83.444 9.94806 83.0952 9.53862 83.0952Z" fill="white"/>
<path d="M9.53862 77.7876C9.11401 77.7876 8.7804 78.1364 8.7804 78.5458C8.7804 78.9553 9.12918 79.304 9.53862 79.304C9.94806 79.304 10.2968 78.9553 10.2968 78.5458C10.2968 78.1364 9.94806 77.7876 9.53862 77.7876Z" fill="white"/>
<path d="M9.53862 72.7834C9.11401 72.7834 8.7804 73.1322 8.7804 73.5417C8.7804 73.9511 9.12918 74.2999 9.53862 74.2999C9.94806 74.2999 10.2968 73.9511 10.2968 73.5417C10.2968 73.1322 9.94806 72.7834 9.53862 72.7834Z" fill="white"/>
<path d="M9.53862 67.3545C9.11401 67.3545 8.7804 67.7033 8.7804 68.1127C8.7804 68.5222 9.12918 68.8709 9.53862 68.8709C9.94806 68.8709 10.2968 68.5222 10.2968 68.1127C10.2968 67.7033 9.94806 67.3545 9.53862 67.3545Z" fill="white"/>
<path d="M9.53862 61.3342C9.11401 61.3342 8.7804 61.683 8.7804 62.0925C8.7804 62.5019 9.12918 62.8507 9.53862 62.8507C9.94806 62.8507 10.2968 62.5019 10.2968 62.0925C10.2968 61.683 9.94806 61.3342 9.53862 61.3342Z" fill="white"/>
<path d="M9.53862 56.0266C9.11401 56.0266 8.7804 56.3754 8.7804 56.7848C8.7804 57.1943 9.12918 57.5431 9.53862 57.5431C9.94806 57.5431 10.2968 57.1943 10.2968 56.7848C10.2968 56.3754 9.94806 56.0266 9.53862 56.0266Z" fill="white"/>
<path d="M9.53862 51.0225C9.11401 51.0225 8.7804 51.3712 8.7804 51.7807C8.7804 52.1901 9.12918 52.5389 9.53862 52.5389C9.94806 52.5389 10.2968 52.1901 10.2968 51.7807C10.2968 51.3712 9.94806 51.0225 9.53862 51.0225Z" fill="white"/>
<path d="M14.4974 104.614C14.0728 104.614 13.7391 104.962 13.7391 105.372C13.7391 105.781 14.0879 106.13 14.4974 106.13C14.9068 106.13 15.2556 105.781 15.2556 105.372C15.2556 104.962 14.9068 104.614 14.4974 104.614Z" fill="white"/>
<path d="M19.441 104.614C19.0164 104.614 18.6827 104.962 18.6827 105.372C18.6827 105.781 19.0315 106.13 19.441 106.13C19.8504 106.13 20.1992 105.781 20.1992 105.372C20.1992 104.962 19.8504 104.614 19.441 104.614Z" fill="white"/>
<path d="M24.3847 104.614C23.9601 104.614 23.6265 104.962 23.6265 105.372C23.6265 105.781 23.9752 106.13 24.3847 106.13C24.7941 106.13 25.1429 105.781 25.1429 105.372C25.1429 104.962 24.7941 104.614 24.3847 104.614Z" fill="white"/>
<path d="M29.3283 104.614C28.9037 104.614 28.5701 104.962 28.5701 105.372C28.5701 105.781 28.9189 106.13 29.3283 106.13C29.7377 106.13 30.0865 105.781 30.0865 105.372C30.0865 104.962 29.7377 104.614 29.3283 104.614Z" fill="white"/>
</svg>
