<svg width="103" height="27" viewBox="0 0 103 27" fill="none" xmlns="http://www.w3.org/2000/svg">
<g clip-path="url(#clip0_264_4111)">
<path d="M25.3198 16.9329C25.2096 16.9044 25.2015 16.8268 25.177 16.7493C25.075 16.4432 24.9852 16.1371 24.875 15.8392C24.8382 15.7371 24.8546 15.6678 24.9035 15.578C25.0627 15.3045 25.177 15.0148 25.2055 14.6964C25.2749 13.8312 24.8505 13.1211 23.9934 12.6762C23.4914 12.4109 22.9486 12.2355 22.4018 12.1008C22.2589 12.064 22.2018 12.011 22.1977 11.8477C22.1936 11.3335 22.1773 10.8152 22.1528 10.301C22.1038 9.21128 21.8426 8.19098 21.1243 7.34209C20.9815 7.17476 20.9774 7.08089 21.1284 6.92172C21.9079 6.07283 22.5568 5.14231 22.8384 3.99549C23.2058 2.50177 22.5079 1.37536 21.006 1.02845C20.2836 0.861125 19.5612 0.889693 18.8348 1.00397C17.843 1.15497 16.9085 1.49779 15.9943 1.91C15.8555 1.97121 15.7739 1.95489 15.6678 1.84878C15.3453 1.52228 15.0025 1.22435 14.6924 0.881531C14.0271 0.150995 13.1945 -1.01775e-05 12.264 0.146913C11.3335 0.293837 10.4928 0.689714 9.68879 1.1713C8.14609 2.08549 6.81154 3.25271 5.5831 4.55054C4.18732 6.02385 2.95888 7.62777 2.04877 9.45615C1.53454 10.4928 1.11825 11.5621 1.15498 12.7456C1.17539 13.4476 1.41618 14.0475 1.96714 14.5046C2.19977 14.6964 2.42832 14.9005 2.66911 15.0964C2.75482 15.1658 2.79563 15.2229 2.75074 15.3494C2.64462 15.6351 2.59157 15.933 2.55892 16.2391C2.24467 18.8552 4.4526 20.6387 6.33812 20.7611C6.52177 20.7693 6.59115 20.8386 6.66462 20.9937C7.26047 22.2793 8.10528 23.3853 9.19905 24.2791C11.2478 25.9646 13.6353 26.6707 16.0759 26.6911C17.688 26.6829 19.0878 26.4789 20.4265 25.9524C23.067 24.9158 24.9321 23.1078 25.8545 20.3938C26.1075 19.6347 26.2871 18.8593 26.1769 18.0471C26.1116 17.5247 25.9034 17.0799 25.328 16.9329H25.3198ZM8.30934 18.6021C7.93387 19.5735 6.97479 19.9775 5.89327 19.6796C4.82399 19.3898 3.52208 18.3369 3.52208 16.7289C3.46495 15.1209 4.61993 13.9047 6.20752 13.9414C7.03601 13.9618 7.66859 14.3944 8.06039 15.1005C8.68073 16.2146 8.76644 17.4104 8.30934 18.6021ZM5.50147 12.7334C5.41985 12.9374 5.31374 13.0272 5.10559 13.0843C4.39954 13.268 3.80369 13.6476 3.35067 14.223C3.22824 14.374 3.17926 14.3291 3.04458 14.2434C2.03244 13.5823 1.96306 12.6395 2.24467 11.5988C2.57116 10.3826 3.15886 9.2929 3.83634 8.24811C5.43209 5.79531 7.42372 3.73022 9.90918 2.17527C10.7091 1.67737 11.5457 1.26516 12.4926 1.106C13.064 1.00805 13.5823 1.0611 13.9945 1.54677C14.2597 1.86102 14.5658 2.14671 14.876 2.4732C13.6394 3.19558 12.5048 3.97917 11.3947 4.8199C8.65217 6.88907 6.74216 9.56226 5.49739 12.7334H5.50147ZM13.921 4.83622C13.8149 5.10966 13.7333 5.31372 13.6516 5.51779C13.6312 5.57492 13.5904 5.63614 13.6435 5.68103C13.7129 5.75041 13.7659 5.66471 13.8149 5.63614C14.5985 5.15864 15.4311 4.83622 16.3412 4.71379C16.3983 4.70562 16.4595 4.69746 16.5207 4.69746C16.582 4.69746 16.5656 4.71379 16.6105 4.72603C16.4922 4.84847 16.382 4.95458 16.2799 5.07293C16.2351 5.12191 16.1371 5.17088 16.182 5.26067C16.2187 5.32597 16.3044 5.30148 16.3697 5.30556C17.0554 5.3627 17.7165 5.51779 18.3491 5.80347C18.4348 5.84428 18.5369 5.86877 18.6022 5.99121C15.7086 5.41575 13.0476 5.99121 10.5867 7.57472C11.5172 6.47687 12.5824 5.54635 13.9169 4.83214L13.921 4.83622ZM24.7811 20.2918C23.9771 21.8671 22.6997 22.9119 21.0631 23.5322C19.2225 24.226 17.3737 24.2954 15.5576 23.4547C12.1498 21.8794 12.2681 17.8063 14.0638 15.8718C14.3495 15.5657 14.3536 15.4596 14.0883 15.1331C13.7863 14.7658 13.4517 14.4311 13.1823 14.0394C12.2681 12.717 12.3783 11.0437 13.4557 9.99895C14.0067 9.46431 14.6597 9.21128 15.4392 9.2929C15.9616 9.35004 16.484 9.39085 17.0064 9.41534C17.7247 9.44391 18.3491 9.20312 18.9001 8.74194C19.0429 8.62359 19.1858 8.50115 19.349 8.41136C19.9612 8.06854 20.5938 8.2726 20.904 8.90519C21.1121 9.32147 21.1652 9.77857 21.1896 10.2397C21.2305 10.8927 21.2549 11.5416 21.2917 12.1946C21.3162 12.6721 21.4304 12.8068 21.8916 12.9537C22.4711 13.1374 23.0711 13.2598 23.6057 13.5659C24.3485 13.9863 24.4873 14.6475 23.9649 15.3249C23.8751 15.4474 23.7649 15.5576 23.6547 15.6596C22.8017 16.4309 21.761 16.8595 20.6672 17.1615C19.2225 17.5614 17.7533 17.6839 16.2677 17.4553C15.2515 17.3043 14.6597 18.1818 14.7128 19.0266C14.7577 19.8265 15.2352 20.2999 15.9249 20.6019C16.7248 20.957 17.5614 21.059 18.4307 21.0141C19.9326 20.9325 21.357 20.5774 22.6548 19.7979C23.1078 19.5286 23.5241 19.2062 23.8588 18.8021C23.9159 18.7368 24.0016 18.6797 23.9771 18.5368C22.9201 19.2306 21.81 19.753 20.6101 20.0714C19.3164 20.4224 18.0145 20.5407 16.6962 20.2142C16.3657 20.1326 16.0514 20.0102 15.782 19.7939C15.578 19.6306 15.4392 19.4347 15.3943 19.1368C16.0187 19.3164 16.6309 19.4429 17.2554 19.4796C17.9981 19.5245 18.7246 19.4633 19.4388 19.2306C19.5082 19.2062 19.6388 19.2021 19.6184 19.0878C19.598 18.9695 19.4796 19.0266 19.4062 19.0307C18.1328 19.1409 16.888 19.0552 15.6678 18.6634C15.427 18.5858 15.4188 18.545 15.5698 18.3409C15.7086 18.1573 15.8963 18.1002 16.1085 18.1165C16.5207 18.145 16.9329 18.2063 17.3492 18.2226C19.3082 18.2879 21.1896 17.9736 22.9486 17.0594C23.3241 16.8676 23.6873 16.6472 24.022 16.3942C24.1404 16.3044 24.1893 16.3085 24.2465 16.4554C24.373 16.8105 24.4913 17.1778 24.5566 17.5492C24.573 17.6471 24.5934 17.7084 24.7199 17.7206C25.1158 17.7492 25.2831 17.941 25.2913 18.3532C25.2913 19.0348 25.0913 19.6796 24.7811 20.2918ZM91.9047 17.843C91.9047 17.3084 91.8231 16.786 91.6517 16.2718C91.0518 14.5005 88.7622 14.472 87.9133 15.5045C87.6644 15.8106 87.4766 16.1453 87.3134 16.5003C87.2318 16.6799 87.1624 16.8595 87.04 17.0146C86.9828 17.0799 86.9216 17.137 86.8196 17.1043C86.7216 17.0758 86.6971 16.9941 86.7012 16.9044C86.7053 16.7615 86.7175 16.6187 86.7298 16.4718C86.791 15.7208 86.387 15.125 85.6646 14.9209C85.1544 14.778 84.6484 14.7781 84.1382 14.9413C83.3587 15.1862 82.8975 15.7616 82.5914 16.4758C82.5302 16.6228 82.4894 16.7819 82.4282 16.9288C82.3874 17.0309 82.3262 17.1411 82.1874 17.1003C82.0486 17.0594 82.0609 16.9288 82.0854 16.8187C82.1139 16.6799 82.167 16.5452 82.216 16.4065C82.3629 16.031 82.3996 15.6392 82.3792 15.2351C82.3711 15.0637 82.3221 14.9862 82.1262 14.9903C81.6038 15.0066 81.0732 15.0066 80.5508 14.9903C80.3509 14.9862 80.3182 15.0515 80.3182 15.2351C80.3264 16.4554 80.3223 17.6757 80.3223 18.896C80.3223 20.1163 80.3305 21.2876 80.3182 22.4834C80.3141 22.7282 80.3957 22.7731 80.6121 22.7691C81.3344 22.7527 82.0527 22.7527 82.7751 22.7691C83.02 22.7731 83.0608 22.6915 83.0608 22.4752C83.0526 21.1611 83.0567 19.851 83.0567 18.5328C83.0567 17.2145 83.1179 17.7696 83.3914 17.4676C83.7913 17.0186 84.4402 17.1247 84.6729 17.6757C84.7422 17.8471 84.7708 18.0308 84.7708 18.2185C84.7708 19.651 84.7749 21.0835 84.7667 22.516C84.7667 22.7242 84.8279 22.765 85.0198 22.7609C85.7666 22.7527 86.5094 22.7446 87.2563 22.7609C87.4644 22.765 87.5052 22.6956 87.5011 22.4997C87.493 21.1937 87.497 19.8918 87.497 18.5817C87.497 17.2717 87.5338 17.8839 87.7297 17.5859C87.9215 17.2921 88.199 17.137 88.55 17.1941C88.8928 17.2431 89.0642 17.488 89.1622 17.8063C89.2112 17.9736 89.2112 18.141 89.2112 18.3083C89.2112 19.7082 89.2152 21.108 89.2071 22.5038C89.2071 22.6915 89.2357 22.7691 89.452 22.765C90.1988 22.7487 90.9416 22.7568 91.6885 22.765C91.8721 22.7691 91.9129 22.716 91.9129 22.5364C91.8966 20.9652 91.9047 19.398 91.9047 17.8308V17.843ZM42.7099 16.2391C42.4038 15.4596 41.861 14.9739 41.0121 14.8556C40.102 14.7291 39.3388 14.9739 38.796 15.7575C38.6082 16.031 38.4695 16.333 38.3348 16.6268C38.2777 16.7493 38.2124 16.8676 38.143 16.9819C38.0858 17.0717 38.0124 17.1452 37.894 17.1043C37.792 17.0635 37.7716 16.9737 37.7757 16.8758L37.8042 16.4962C37.8695 15.6922 37.4492 15.1005 36.6615 14.9046C35.2984 14.5617 34.0863 15.2515 33.6088 16.6309C33.5639 16.7574 33.5231 16.884 33.4659 17.0064C33.4374 17.0758 33.368 17.1329 33.2823 17.1125C33.1843 17.0921 33.1517 17.0105 33.1517 16.9207C33.1517 16.7615 33.2088 16.6187 33.27 16.484C33.4374 16.0759 33.4904 15.6555 33.4578 15.2188C33.4496 15.0678 33.4006 14.9984 33.2292 15.0066C32.6946 15.0148 32.1599 15.0229 31.6253 15.0066C31.4416 15.0025 31.4049 15.0556 31.4049 15.2311C31.4131 16.4513 31.409 17.6716 31.409 18.8919C31.409 20.1122 31.4131 21.3325 31.4049 22.5528C31.4049 22.7242 31.4457 22.7813 31.6294 22.7813C32.3762 22.7731 33.119 22.765 33.8659 22.7813C34.0781 22.7854 34.1312 22.7242 34.1312 22.516C34.123 21.2304 34.123 19.9408 34.1271 18.6511C34.1271 18.2593 34.1638 17.8716 34.4128 17.541C34.6168 17.2757 34.8862 17.1615 35.2168 17.2186C35.531 17.2798 35.7065 17.5084 35.7922 17.7981C35.8371 17.9492 35.8493 18.1124 35.8493 18.2756C35.8493 19.6837 35.8534 21.0876 35.8412 22.4915C35.8412 22.7364 35.9187 22.7772 36.135 22.7731C36.8574 22.7568 37.5757 22.7568 38.2981 22.7731C38.5225 22.7772 38.5919 22.7282 38.5919 22.4875C38.5756 21.1488 38.5878 19.8102 38.5878 18.4675C38.5878 17.1247 38.6491 17.8063 38.8572 17.5369C39.049 17.2839 39.3184 17.1615 39.6367 17.2064C39.9428 17.2513 40.1183 17.4676 40.2203 17.7451C40.2815 17.9083 40.2856 18.0757 40.2856 18.243C40.2856 19.6755 40.2856 21.108 40.2815 22.5364C40.2815 22.7078 40.3223 22.765 40.506 22.765C41.2569 22.7568 42.016 22.7568 42.7711 22.765C42.9629 22.7691 43.0119 22.7078 43.0037 22.5201C42.9955 21.055 43.0037 19.5898 42.9996 18.1246C42.9955 17.4921 42.9588 16.8472 42.718 16.2391H42.7099ZM100.328 16.4146C99.6835 15.1535 98.3041 14.5332 96.9777 14.9086C96.1492 15.1413 95.6758 15.7412 95.3615 16.5003C95.3003 16.6472 95.2514 16.8023 95.182 16.9493C95.1412 17.039 95.0759 17.137 94.9493 17.1003C94.8024 17.0594 94.8269 16.9288 94.8473 16.8268C94.8718 16.7044 94.9249 16.586 94.9697 16.4677C95.1208 16.0555 95.1779 15.6392 95.1167 15.1943C95.0963 15.0352 95.0391 15.0025 94.8922 15.0066C94.3331 15.0107 93.7739 15.0148 93.2148 15.0066C93.0557 15.0066 93.0149 15.0474 93.0149 15.2066C93.0189 18.3287 93.0189 21.459 93.0149 24.5811C93.0149 24.7444 93.0638 24.7811 93.2189 24.7811C93.9821 24.777 94.7453 24.7729 95.5085 24.7811C95.7166 24.7852 95.7778 24.7362 95.7737 24.5199C95.7656 23.6261 95.7697 22.7282 95.7697 21.8345C96.0962 22.2875 96.4757 22.6344 96.994 22.8017C98.2143 23.2017 99.5121 22.7242 100.19 21.6222C100.577 20.9978 100.753 20.304 100.822 19.5816C100.92 18.4879 100.843 17.4145 100.332 16.4187L100.328 16.4146ZM97.8674 20.5407C97.7164 20.908 97.4144 21.1202 96.994 21.1243C96.5778 21.1284 96.3165 20.8917 96.1288 20.553C95.8799 20.1122 95.835 19.6224 95.8186 19.1123C95.835 18.643 95.8839 18.1655 96.1207 17.7328C96.3043 17.39 96.5696 17.1533 96.9736 17.1533C97.3777 17.1533 97.7123 17.3778 97.8674 17.7533C98.2592 18.6756 98.2551 19.6143 97.8674 20.5366V20.5407ZM75.2575 17.8961C75.2575 17.4635 75.2126 17.035 75.1065 16.6146C74.8453 15.6188 74.1964 14.9984 73.2251 14.8678C72.1884 14.7291 71.311 14.9903 70.7355 15.9453C70.5641 16.235 70.4417 16.5493 70.3233 16.8676C70.2825 16.986 70.2376 17.1411 70.0703 17.088C69.907 17.039 69.9479 16.8758 69.9805 16.7574C70.0417 16.5126 70.1315 16.2759 70.2009 16.031C70.4702 15.0392 70.5682 14.0353 70.3886 13.019C70.3641 12.8721 70.3029 12.8272 70.156 12.8313C69.5112 12.8354 68.8704 12.8476 68.2215 12.8313C68.0134 12.8272 67.9766 12.8966 67.9766 13.0843C67.9807 14.6597 67.9807 16.235 67.9807 17.8104C67.9807 19.3857 67.9848 20.9448 67.9766 22.5119C67.9766 22.7242 68.0338 22.7772 68.2419 22.7731C68.9806 22.7568 69.7152 22.7568 70.4539 22.7731C70.6661 22.7772 70.7192 22.7119 70.7192 22.5038C70.711 21.2019 70.7151 19.8959 70.7151 18.5899C70.7151 17.2839 70.7967 17.8308 71.062 17.5329C71.2865 17.2839 71.564 17.1615 71.9028 17.2309C72.2456 17.3002 72.4047 17.5451 72.4945 17.8634C72.5353 18.0104 72.5313 18.1655 72.5313 18.3165C72.5313 19.7204 72.5353 21.1284 72.5272 22.5323C72.5272 22.7242 72.5843 22.7731 72.768 22.7731C73.5312 22.765 74.2943 22.765 75.0575 22.7731C75.2412 22.7772 75.2779 22.716 75.2779 22.5446C75.2738 21.0019 75.2779 19.451 75.2738 17.9002L75.2575 17.8961ZM51.3947 18.7042C51.3947 18.2961 51.3702 17.892 51.2967 17.4921C51.0519 16.1779 50.3621 15.2433 49.0072 14.9535C47.3951 14.6066 45.8483 14.9127 44.3546 15.5453C44.2485 15.5902 44.2362 15.6678 44.2362 15.7698C44.2403 16.4554 44.2362 17.1452 44.2362 17.8594C44.5587 17.7084 44.8403 17.5574 45.13 17.4308C45.8891 17.1043 46.6605 16.8391 47.5053 16.8962C48.1501 16.9411 48.5746 17.2962 48.6399 17.8512C48.6603 18.0144 48.6439 18.0961 48.4358 18.0797C47.6849 18.0308 46.9298 18.0104 46.183 18.1165C44.7015 18.3287 43.8771 19.1449 43.7873 20.5489C43.7383 21.3814 44.0363 22.0753 44.7627 22.5446C45.8973 23.271 48.1542 23.1445 48.9582 21.1039L49.097 20.7529C49.1255 20.6836 49.1786 20.6468 49.2561 20.655C49.3377 20.6713 49.3663 20.7244 49.3663 20.8019C49.3622 20.9203 49.3582 21.0427 49.3377 21.1529C49.248 21.6345 49.2724 22.1079 49.3663 22.5854C49.3949 22.7282 49.4561 22.7731 49.6071 22.7731C50.1173 22.765 50.6233 22.7568 51.1335 22.7731C51.3416 22.7772 51.4028 22.7282 51.4028 22.5119C51.3865 21.2345 51.3947 19.9653 51.3947 18.696V18.7042ZM48.5215 19.7122C48.3705 20.4387 47.6563 21.0141 46.9135 21.0141C46.1707 21.0141 46.2319 20.855 46.1666 20.5774C46.085 20.2183 46.2523 19.904 46.6482 19.7326C47.2278 19.4796 47.8399 19.5327 48.444 19.549C48.5705 19.5531 48.5337 19.6347 48.5215 19.7122ZM66.4747 15.3657C65.4218 14.8474 64.3117 14.7005 63.169 14.8719C61.9691 15.0556 61.0345 15.6555 60.4835 16.7697C60.0428 17.6757 59.9693 18.6348 60.1121 19.6184C60.2591 20.6305 60.6835 21.512 61.512 22.1528C62.9363 23.2629 65.2912 23.218 66.7196 22.063C66.8257 21.9773 66.8461 21.8794 66.8461 21.7569C66.842 21.0345 66.8461 20.3162 66.8421 19.5939C66.8421 19.5327 66.8788 19.4633 66.7972 19.4061C66.385 19.6755 65.9564 19.9081 65.4912 20.0591C64.7117 20.3081 63.9362 20.3856 63.1608 20.051C62.667 19.8388 62.4303 19.447 62.418 18.9123C62.4099 18.3899 62.6384 18.0063 63.0833 17.7492C63.4302 17.5492 63.8097 17.4798 64.2015 17.4757C65.1565 17.4676 66.0013 17.79 66.838 18.3369C66.838 17.5247 66.8176 16.7534 66.8461 15.9861C66.8665 15.6759 66.7482 15.5127 66.4747 15.3739V15.3657ZM54.6066 10.9417C56.2431 10.7621 57.4594 9.45615 57.5165 7.81142C57.541 7.13394 57.5206 6.45646 57.5206 5.78306H57.5369C57.5369 5.03212 57.5328 4.2771 57.541 3.51799C57.541 3.37515 57.5247 3.30985 57.3532 3.30985C56.8431 3.31801 56.337 3.31801 55.8269 3.30985C55.6963 3.30985 55.6269 3.32618 55.6351 3.48126C55.6514 3.74246 55.6391 4.00366 55.6391 4.26893C55.6391 5.38719 55.6473 6.50544 55.6351 7.62777C55.6187 8.43585 55.031 9.06028 54.2393 9.15414C53.4598 9.24393 52.7782 8.77459 52.5619 7.991C52.5048 7.79102 52.4844 7.59512 52.4844 7.39106C52.4844 6.11364 52.4803 4.83214 52.4884 3.55472C52.4884 3.37515 52.468 3.30577 52.2599 3.30985C51.7865 3.33026 51.309 3.32618 50.8355 3.30985C50.6519 3.30577 50.5907 3.33842 50.5948 3.54248C50.6111 4.94642 50.6029 6.35443 50.6192 7.75837C50.6233 8.50115 50.86 9.17455 51.3416 9.74184C52.1946 10.754 53.321 11.0805 54.6025 10.9376L54.6066 10.9417ZM35.18 10.656C35.18 10.7989 35.2168 10.8438 35.3637 10.8397C35.8575 10.8315 36.3472 10.8234 36.837 10.8397C37.037 10.8438 37.0696 10.7825 37.0696 10.5989C37.0615 9.28474 37.0655 7.97467 37.0655 6.66052C37.0655 5.34637 37.4451 5.33413 38.0369 5.09742C39.1021 4.66889 40.2081 5.42392 40.2122 6.58298C40.2203 7.92978 40.2162 9.28066 40.2122 10.6234C40.2122 10.7866 40.2489 10.8438 40.4203 10.8356C40.9141 10.8274 41.4039 10.8274 41.8936 10.8356C42.0609 10.8397 42.1018 10.7907 42.1018 10.6234C42.0936 9.89692 42.0977 9.17047 42.0977 8.43585C42.0977 7.70123 42.1018 7.08089 42.0977 6.39933C42.0895 5.53411 41.7875 4.775 41.1672 4.1669C40.2938 3.31393 39.2245 3.05273 38.0328 3.2119C36.4452 3.42004 35.2127 4.74236 35.1882 6.32586C35.1515 7.77061 35.18 9.21128 35.1719 10.656H35.18ZM59.1857 13.0313C59.1857 12.8599 59.1367 12.8232 58.9735 12.8232C58.2225 12.8313 57.4634 12.8395 56.7084 12.8232C56.5043 12.8191 56.4799 12.8884 56.4799 13.068C56.4839 14.6434 56.4839 16.2228 56.4839 17.7981C56.4839 19.3735 56.488 20.9692 56.4799 22.5528C56.4799 22.7242 56.5207 22.7813 56.7043 22.7813C57.4553 22.7731 58.2144 22.7731 58.9694 22.7813C59.1286 22.7813 59.1898 22.7568 59.1898 22.5732C59.1857 19.3817 59.1857 16.2106 59.1898 13.0313H59.1857ZM45.0566 5.08518C45.2565 5.0811 45.3055 5.13007 45.3055 5.33005C45.2973 7.08905 45.3055 8.85621 45.2973 10.6152C45.2973 10.7866 45.3382 10.8438 45.5177 10.8397C45.9871 10.8234 46.4482 10.8193 46.9176 10.8397C47.1461 10.8478 47.191 10.7785 47.191 10.5581C47.1829 8.81132 47.191 7.06864 47.1829 5.32189C47.1829 5.11783 47.24 5.07293 47.4318 5.07701C48.0277 5.09334 48.6154 5.07701 49.2112 5.08518C49.3826 5.08926 49.4235 5.0362 49.4194 4.87295C49.4112 4.42402 49.403 3.97101 49.4194 3.52615C49.4235 3.3425 49.3622 3.30577 49.1908 3.30577C48.2073 3.31393 47.2278 3.30985 46.2401 3.30985C45.2525 3.30985 44.2566 3.31393 43.2649 3.30577C43.1017 3.30577 43.0527 3.34658 43.0568 3.51391C43.0649 3.96284 43.0649 4.41586 43.0568 4.86071C43.0527 5.03212 43.0935 5.08926 43.2771 5.08926C43.8771 5.07293 44.4729 5.08926 45.0606 5.0811L45.0566 5.08518ZM68.6378 5.09742C68.8214 5.1015 68.8622 5.04845 68.8582 4.86887C68.85 4.41994 68.85 3.96693 68.8582 3.52207C68.8622 3.35474 68.8133 3.31393 68.65 3.31393C67.6665 3.32209 66.6829 3.31801 65.6993 3.31801C64.7157 3.31801 63.6995 3.32209 62.6996 3.31393C62.5486 3.31393 62.4956 3.35066 62.4996 3.50575C62.5078 3.96284 62.5078 4.41994 62.4996 4.88112C62.4956 5.04845 62.5486 5.09334 62.7119 5.08926C63.2955 5.0811 63.8832 5.09334 64.4668 5.0811C64.679 5.07701 64.7484 5.11783 64.7484 5.35046C64.7402 7.10538 64.7443 8.8603 64.7402 10.6111C64.7402 10.7907 64.7851 10.8397 64.9647 10.8356C65.434 10.8274 65.8952 10.8193 66.3645 10.8356C66.5727 10.8397 66.6339 10.7948 66.6339 10.5744C66.6257 8.81948 66.6339 7.06456 66.6257 5.31372C66.6257 5.12191 66.6747 5.07293 66.8665 5.0811C67.4624 5.1015 68.0583 5.08518 68.6459 5.1015L68.6378 5.09742ZM79.0857 15.5494V15.3086C78.1796 15.6147 77.2899 15.6147 76.4002 15.3127C76.3962 15.3617 76.3921 15.3943 76.3921 15.431C76.3921 17.8104 76.3921 20.1938 76.388 22.5732C76.388 22.7323 76.4329 22.7772 76.588 22.7731C77.3348 22.7691 78.0776 22.765 78.8245 22.7731C79.0326 22.7772 79.0938 22.7323 79.0938 22.5119C79.0857 20.1938 79.0898 17.8675 79.0898 15.5494H79.0857ZM55.2841 15.5494V15.3249C54.0066 15.6106 53.6149 15.6106 52.5986 15.3209C52.5946 15.3698 52.5905 15.4025 52.5905 15.431C52.5905 17.8104 52.5905 20.1938 52.5864 22.5732C52.5864 22.7323 52.6313 22.7772 52.7864 22.7731C53.5332 22.7691 54.276 22.765 55.0229 22.7731C55.231 22.7772 55.2922 22.7323 55.2922 22.5119C55.2841 20.1938 55.2881 17.8675 55.2881 15.5494H55.2841ZM61.0957 10.8397C61.2794 10.8438 61.3202 10.7825 61.3202 10.6111C61.3161 9.43575 61.3161 8.25628 61.3161 7.08089C61.3161 5.9055 61.312 4.72603 61.3202 3.55064C61.3202 3.37923 61.2794 3.31801 61.0957 3.32209C60.6141 3.33842 60.1285 3.33026 59.6469 3.32209C59.4959 3.31801 59.4265 3.3425 59.4265 3.52615C59.4306 5.89734 59.4306 8.26852 59.4265 10.6397C59.4265 10.8234 59.4959 10.8438 59.6469 10.8397C60.1366 10.8356 60.6182 10.8356 61.0957 10.8438V10.8397ZM31.6294 10.8397C32.111 10.8315 32.5966 10.8315 33.0782 10.8397C33.2374 10.8438 33.2782 10.7948 33.2782 10.6397C33.2741 8.26852 33.2741 5.89326 33.2782 3.52207C33.2782 3.36291 33.2374 3.31801 33.0782 3.32209C32.5966 3.33026 32.111 3.33026 31.6294 3.32209C31.4498 3.31801 31.4049 3.37107 31.4049 3.54656C31.4131 4.71787 31.409 5.88509 31.409 7.0564C31.409 8.22771 31.4131 9.42758 31.4049 10.6152C31.4049 10.7866 31.4498 10.8397 31.6294 10.8356V10.8397ZM55.0759 13.019C54.7249 12.8313 54.3454 12.7783 53.9454 12.7742C53.4434 12.7742 53.0231 12.8721 52.7251 13.0476C52.0681 13.4435 52.0477 14.2271 52.7211 14.5985C53.4924 15.027 54.3087 15.0107 55.1004 14.627C55.431 14.4679 55.6391 14.1985 55.6228 13.8026C55.6146 13.4231 55.382 13.1823 55.0718 13.015L55.0759 13.019ZM78.9306 13.0517C78.1511 12.6395 77.3348 12.6599 76.5431 13.0476C76.2329 13.1986 76.0329 13.468 76.0329 13.8353C76.0329 14.2026 76.2574 14.4597 76.5676 14.6352C76.9226 14.8352 77.3144 14.8882 77.7226 14.9046C78.1348 14.8882 78.5429 14.8393 78.9143 14.623C79.5999 14.2312 79.6244 13.4231 78.9306 13.0517Z" fill="white"/>
<path d="M7.49722 18.292C7.02788 18.594 6.43202 18.2144 6.39529 17.5982C6.37488 17.3247 6.4361 17.0635 6.52181 16.8064C6.67281 16.3493 6.50548 15.9534 6.10961 15.8024C5.6974 15.6514 5.30153 15.8473 5.11379 16.2963C5.05665 16.4269 5.01176 16.5656 4.94646 16.6921C4.90973 16.7574 4.84035 16.8023 4.75464 16.7819C4.6771 16.7615 4.64853 16.6962 4.64445 16.6228C4.58323 16.08 4.76281 15.6147 5.16276 15.2556C5.55456 14.9046 6.03206 14.8393 6.50956 15.0515C6.99931 15.2719 7.25234 15.6718 7.28091 16.1534C7.27683 16.4881 7.19521 16.7574 7.08093 17.0146C7.01972 17.1533 6.9585 17.2962 6.92177 17.4431C6.84014 17.7696 7.06461 17.9941 7.39519 17.941C7.49722 17.9247 7.62782 17.839 7.68087 17.99C7.72985 18.1369 7.60333 18.2185 7.49722 18.2838V18.292Z" fill="white"/>
<path d="M20.0143 12.6599C20.4101 12.7864 20.6264 12.6313 20.6305 12.2028V12.1252C20.6142 11.6885 20.5448 11.2641 20.3285 10.8804C20.2306 10.709 20.0796 10.5988 19.8673 10.6519C19.6551 10.705 19.5735 10.8641 19.5612 11.0682C19.5408 11.5661 19.6429 12.0395 19.8714 12.4884C19.9082 12.5537 19.9367 12.6354 20.0143 12.6599Z" fill="white"/>
<path d="M15.0107 13.1048C15.4923 12.9578 15.9779 12.8599 16.4758 13.0354C16.6595 13.0966 16.835 13.1782 17.0146 13.2476C17.1166 13.2884 17.239 13.3701 17.3166 13.268C17.3982 13.1578 17.2962 13.0436 17.2186 12.9538C16.8717 12.5579 16.431 12.362 15.8351 12.3579C15.3821 12.3661 14.9291 12.5375 14.5618 12.913C14.4965 12.9783 14.423 13.0599 14.4761 13.1578C14.5332 13.2762 14.6352 13.215 14.7209 13.1864C14.8107 13.166 14.9127 13.1374 15.0107 13.1048Z" fill="white"/>
<path d="M17.1207 13.668C16.9207 13.5048 16.6881 13.4435 16.3942 13.4435C16.0922 13.468 15.7698 13.5497 15.5331 13.8313C15.4882 13.8884 15.427 13.9496 15.476 14.0353C15.5331 14.121 15.6066 14.0843 15.68 14.0598C16.1167 13.8884 16.5656 13.8517 17.0268 13.917C17.0962 13.9251 17.1737 13.9251 17.2105 13.8598C17.2513 13.77 17.1737 13.7129 17.1207 13.668Z" fill="white"/>
<path d="M20.4428 13.2599C20.2387 13.2436 20.0837 13.4436 20.0714 13.7129C20.0673 13.9945 20.1979 14.1945 20.3979 14.2067C20.602 14.2231 20.7734 14.0027 20.7775 13.7292C20.7775 13.4844 20.6305 13.2721 20.4428 13.2599Z" fill="white"/>
<path d="M19.145 14.6516C19.3572 14.6679 19.5123 14.5536 19.5204 14.3699C19.5286 14.1251 19.2919 13.9088 19.0021 13.8924C18.7736 13.8761 18.6307 13.9782 18.6226 14.1618C18.6144 14.3904 18.8674 14.6311 19.145 14.6516Z" fill="white"/>
<path d="M7.39519 17.9451C7.06461 17.9941 6.84422 17.7656 6.92177 17.4472C6.9585 17.3003 7.0238 17.1616 7.08093 17.0187C7.19113 16.7575 7.26867 16.4963 7.28091 16.1576C7.25234 15.676 6.99523 15.272 6.50956 15.0557C6.02798 14.8434 5.55456 14.9087 5.16276 15.2597C4.76281 15.6148 4.58323 16.0841 4.64445 16.6269C4.65261 16.6922 4.68526 16.7657 4.75464 16.7861C4.84035 16.8065 4.91381 16.7616 4.94646 16.6963C5.01176 16.5698 5.05665 16.431 5.11379 16.3004C5.30153 15.8515 5.6974 15.6556 6.10961 15.8066C6.50548 15.9535 6.67281 16.3576 6.52181 16.8106C6.4361 17.0718 6.37488 17.3289 6.39529 17.6023C6.4361 18.2186 7.03196 18.59 7.49722 18.2961C7.60333 18.2308 7.72985 18.1492 7.68087 18.0023C7.62373 17.8513 7.49722 17.937 7.39519 17.9533V17.9451Z" fill="white"/>
<path d="M15.8955 26.1202C13.3244 26.0974 11.0714 25.3122 9.19772 23.7799C8.13634 22.9147 7.30103 21.8399 6.71478 20.5782C5.62275 20.502 4.48474 19.8998 3.73756 19.0079C3.22794 18.3942 2.65319 17.3651 2.82945 15.9281C2.85627 15.7032 2.89842 15.4174 2.99038 15.1315C2.89076 15.0477 2.7873 14.9638 2.69151 14.88C2.59955 14.8037 2.50759 14.7237 2.41563 14.6474C1.84087 14.1748 1.53434 13.5269 1.51135 12.7226C1.49219 12.0289 1.57649 11.1027 2.39264 9.46754C3.1858 7.88575 4.29315 6.35731 5.77602 4.79457C7.07879 3.42241 8.36624 2.37042 9.71499 1.57381C10.6729 1.00588 11.4584 0.697149 12.2669 0.571367C12.4853 0.537063 12.6999 0.518005 12.8953 0.518005C13.6961 0.518005 14.3705 0.807684 14.8954 1.37942C15.0602 1.56237 15.2403 1.73008 15.4242 1.90541C15.5315 2.00451 15.6388 2.11124 15.7461 2.21796C16.7538 1.7682 17.6121 1.50139 18.4397 1.37561C18.8382 1.31462 19.1946 1.28413 19.5279 1.28413C19.8613 1.28413 20.2751 1.32224 20.6238 1.40229C21.417 1.58524 22.0262 1.98546 22.3826 2.55719C22.7389 3.12892 22.8232 3.84931 22.6278 4.63449C22.3174 5.8923 21.5549 6.85281 20.984 7.47791C21.6047 8.23641 21.9381 9.20073 21.9956 10.4166C22.0185 10.8588 22.03 11.3161 22.0377 11.7697C22.6048 11.9108 23.0914 12.0899 23.5206 12.3148C24.4632 12.8027 24.9421 13.6031 24.8617 14.5712C24.8387 14.88 24.7352 15.1925 24.5475 15.5241C24.6049 15.688 24.6586 15.8557 24.7122 16.0158C24.7429 16.1073 24.7697 16.1988 24.8004 16.2902C25.3521 16.477 25.674 16.9191 25.7621 17.6128C25.8847 18.5047 25.6587 19.3433 25.4441 19.976C24.5705 22.5374 22.7811 24.3631 20.1257 25.4037C18.8996 25.8801 17.5585 26.1088 15.9032 26.1202H15.8993H15.8955Z" fill="white"/>
<path d="M12.8914 0.902997C13.539 0.902997 14.1214 1.10882 14.608 1.63863C14.8993 1.95499 15.2249 2.23704 15.5238 2.54197C15.5851 2.60295 15.6388 2.63344 15.7001 2.63344C15.7614 2.63344 15.7805 2.62201 15.8304 2.59914C16.6848 2.21417 17.5623 1.894 18.4972 1.75297C18.8421 1.69961 19.1831 1.66531 19.5279 1.66531C19.8728 1.66531 20.2023 1.6958 20.5357 1.77584C21.9457 2.09983 22.6009 3.148 22.2561 4.54685C21.9917 5.61408 21.3825 6.48693 20.6506 7.27973C20.5088 7.43219 20.5127 7.51605 20.6468 7.67614C21.3212 8.46894 21.5626 9.42564 21.6124 10.4395C21.6354 10.9198 21.6507 11.4038 21.6545 11.8841C21.6583 12.0366 21.712 12.0899 21.8461 12.1204C22.3634 12.2424 22.8692 12.4101 23.3405 12.6578C24.1413 13.0695 24.5436 13.7365 24.4785 14.5446C24.4555 14.8381 24.3444 15.1087 24.1949 15.3679C24.1489 15.4479 24.1336 15.5165 24.1643 15.6118C24.2639 15.8939 24.352 16.1759 24.4478 16.4618C24.4708 16.5342 24.4785 16.6028 24.5819 16.6333C25.1222 16.7705 25.3176 17.186 25.3789 17.6738C25.4824 18.4285 25.3176 19.1565 25.08 19.8655C24.2141 22.404 22.463 24.0887 19.9839 25.0568C18.7271 25.5447 17.4128 25.7353 15.8993 25.7467C13.608 25.7277 11.3664 25.0683 9.44293 23.4941C8.41604 22.6594 7.62288 21.6264 7.06345 20.4258C6.99831 20.2771 6.92934 20.2162 6.75692 20.2085C4.98668 20.0942 2.91373 18.4285 3.20877 15.9853C3.24326 15.6995 3.28924 15.4212 3.38886 15.1544C3.43101 15.0363 3.39269 14.9829 3.31223 14.9181C3.08616 14.7389 2.87158 14.5484 2.65318 14.3654C2.13207 13.9385 1.906 13.3782 1.89067 12.7226C1.85619 11.6135 2.24702 10.6187 2.72981 9.64671C3.58428 7.94294 4.74145 6.445 6.04805 5.06903C7.19756 3.85695 8.45435 2.77066 9.90273 1.91306C10.6576 1.46711 11.4469 1.09739 12.3205 0.960171C12.5159 0.929678 12.7037 0.914432 12.8914 0.914432M7.87194 17.5404C7.87194 17.5404 7.87194 17.5404 7.8681 17.5404C7.8681 17.5404 7.8681 17.5404 7.87194 17.5404C7.8796 17.5404 7.88726 17.5404 7.89876 17.5366C7.89109 17.5366 7.88343 17.5366 7.87194 17.5404ZM12.8914 0.140686C12.673 0.140686 12.4431 0.159744 12.2017 0.197859C11.3434 0.335075 10.5158 0.659058 9.5119 1.24985C8.13632 2.06552 6.81822 3.14038 5.49246 4.53541C3.98277 6.12483 2.85242 7.68376 2.04394 9.29986C1.56498 10.2604 1.08602 11.4153 1.12433 12.7341C1.15115 13.6527 1.49984 14.3959 2.16655 14.941C2.25468 15.0134 2.34664 15.0896 2.4386 15.1697C2.47692 15.2001 2.51524 15.2345 2.55355 15.2649C2.49991 15.4898 2.46926 15.7033 2.4501 15.8824C2.37346 16.5228 2.42711 17.1517 2.61486 17.7425C2.78729 18.2875 3.067 18.7944 3.4425 19.2442C3.8525 19.7321 4.36977 20.1476 4.94836 20.4487C5.43498 20.7002 5.95226 20.8641 6.46187 20.9289C7.06728 22.1601 7.90642 23.2159 8.9563 24.0696C9.95638 24.8853 11.0752 25.5066 12.286 25.9106C13.4087 26.288 14.6234 26.4824 15.8917 26.4938H15.8955H15.8993C17.6006 26.4824 18.9877 26.246 20.256 25.7505C23.0224 24.6681 24.8885 22.7661 25.7966 20.0942C26.0226 19.4234 26.264 18.5315 26.1299 17.5633C26.0111 16.6524 25.5552 16.214 25.0992 16.0006C25.0877 15.9663 25.0762 15.932 25.0647 15.8939C25.0302 15.7795 24.9919 15.6652 24.9536 15.5508C25.1184 15.2268 25.2103 14.9105 25.2333 14.5979C25.3253 13.4849 24.762 12.5282 23.6853 11.9756C23.306 11.7774 22.8845 11.6135 22.4055 11.4763C22.3979 11.1142 22.3864 10.7521 22.3672 10.3976C22.3136 9.23125 22.0185 8.27455 21.4706 7.49699C21.7925 7.12727 22.0568 6.76898 22.2753 6.4107C22.6163 5.85802 22.85 5.30535 22.9918 4.72599C23.2102 3.84171 23.1106 3.02222 22.7006 2.35901C22.2906 1.6958 21.597 1.23841 20.7004 1.03259C20.3249 0.944925 19.9379 0.902997 19.5203 0.902997C19.1026 0.902997 18.7884 0.93349 18.3746 0.998286C17.5814 1.12026 16.7615 1.3642 15.8227 1.76441C15.7767 1.71867 15.7269 1.67293 15.6809 1.631C15.5008 1.45948 15.3284 1.29559 15.1713 1.12407C14.5697 0.472292 13.8034 0.140686 12.8876 0.140686H12.8914Z" fill="white"/>
<path d="M24.582 16.6257C24.4785 16.599 24.4708 16.5266 24.4479 16.4542C24.3521 16.1683 24.2678 15.8825 24.1643 15.6042C24.1298 15.5089 24.1451 15.4441 24.1911 15.3603C24.3406 15.1049 24.4479 14.8343 24.4747 14.537C24.5398 13.7289 24.1413 13.0657 23.3367 12.6503C22.8654 12.4025 22.3557 12.2386 21.8423 12.1128C21.7082 12.0785 21.6546 12.029 21.6507 11.8765C21.6469 11.3963 21.6316 10.9122 21.6086 10.4319C21.5626 9.41424 21.3174 8.46135 20.643 7.66855C20.5089 7.51228 20.505 7.42461 20.6468 7.27596C21.3787 6.48315 21.9879 5.61412 22.2523 4.54307C22.5971 3.14804 21.9419 2.09605 20.5319 1.77207C19.8537 1.6158 19.1755 1.64248 18.4934 1.7492C17.5623 1.89023 16.6849 2.2104 15.8266 2.59537C15.6963 2.65254 15.6196 2.63729 15.52 2.53819C15.2173 2.23327 14.8955 1.95502 14.6042 1.63485C13.972 0.952585 13.1904 0.807745 12.3167 0.944961C11.4431 1.08218 10.6538 1.4519 9.89893 1.90166C8.45055 2.75545 7.19759 3.84556 6.04425 5.05763C4.73381 6.4336 3.58048 7.93155 2.72601 9.63912C2.24322 10.6073 1.85238 11.6059 1.88687 12.7112C1.90603 13.3668 2.1321 13.9271 2.64938 14.354C2.86778 14.5332 3.08236 14.7237 3.30843 14.9067C3.38889 14.9715 3.42721 15.0249 3.38506 15.143C3.28544 15.4098 3.23562 15.6881 3.20497 15.9739C2.90993 18.4171 4.98287 20.0828 6.75311 20.1971C6.92554 20.2048 6.99068 20.2696 7.05965 20.4144C7.61908 21.615 8.41224 22.648 9.43913 23.4827C11.3626 25.0569 13.6042 25.7163 15.8955 25.7353C17.409 25.7277 18.7233 25.5371 19.9801 25.0454C22.4592 24.0773 24.2103 22.3888 25.0763 19.8541C25.3138 19.1451 25.4824 18.421 25.379 17.6625C25.3176 17.1746 25.1222 16.7591 24.582 16.6219V16.6257ZM8.61148 18.1846C8.25897 19.0918 7.35852 19.4691 6.34312 19.1909C5.33922 18.9203 4.11691 17.9369 4.11691 16.4351C4.06327 14.9334 5.14764 13.7975 6.63816 13.8318C7.416 13.8509 8.00991 14.2549 8.37775 14.9143C8.96017 15.9549 9.04063 17.0717 8.61148 18.1846ZM5.97528 12.7036C5.89865 12.8942 5.79902 12.978 5.60361 13.0314C4.94073 13.2029 4.3813 13.5574 3.95598 14.0948C3.84103 14.2359 3.79505 14.1939 3.66861 14.1139C2.71835 13.4964 2.65321 12.616 2.91759 11.644C3.22413 10.5082 3.77589 9.49047 4.41195 8.51472C5.91014 6.22397 7.78001 4.29532 10.1135 2.84312C10.8645 2.37811 11.65 1.99314 12.539 1.84449C13.0754 1.75301 13.562 1.80256 13.949 2.25614C14.1981 2.54963 14.4855 2.81644 14.7767 3.12136C13.6157 3.79601 12.5505 4.52783 11.5082 5.31301C8.93335 7.24547 7.14012 9.74204 5.97145 12.7036H5.97528ZM13.8801 5.32825C13.7804 5.58363 13.7038 5.7742 13.6272 5.96478C13.608 6.01814 13.5697 6.07532 13.6195 6.11725C13.6846 6.18204 13.7345 6.102 13.7804 6.07532C14.5161 5.62937 15.2978 5.32825 16.1522 5.21391C16.2059 5.20628 16.2634 5.19866 16.3208 5.19866C16.3783 5.19866 16.363 5.21391 16.4051 5.22534C16.294 5.33969 16.1906 5.43879 16.0948 5.54932C16.0526 5.59506 15.9607 5.6408 16.0028 5.72466C16.0373 5.78564 16.1178 5.76277 16.1791 5.76658C16.8228 5.81994 17.4435 5.96478 18.0374 6.23159C18.1179 6.26971 18.2137 6.29258 18.275 6.40692C15.5583 5.86949 13.0601 6.40692 10.7496 7.88581C11.6232 6.8605 12.6233 5.99146 13.8762 5.32444L13.8801 5.32825ZM24.0762 19.7626C23.3213 21.2339 22.122 22.2096 20.5855 22.789C18.8574 23.437 17.1217 23.5018 15.4166 22.7166C12.2171 21.2453 12.3282 17.4414 14.0142 15.6347C14.2824 15.3488 14.2862 15.2497 14.0372 14.9448C13.7536 14.6018 13.4394 14.2892 13.1865 13.9233C12.3282 12.6884 12.4317 11.1256 13.4432 10.1499C13.9605 9.65056 14.5736 9.41424 15.3054 9.49047C15.7959 9.54384 16.2864 9.58195 16.7768 9.60482C17.4512 9.6315 18.0374 9.40662 18.5547 8.97591C18.6888 8.86538 18.8229 8.75103 18.9762 8.66718C19.551 8.34701 20.1449 8.53758 20.4361 9.12838C20.6315 9.51715 20.6813 9.94405 20.7043 10.3748C20.7426 10.9846 20.7656 11.5906 20.8001 12.2005C20.8231 12.6464 20.9304 12.7722 21.3633 12.9094C21.9074 13.081 22.4707 13.1953 22.9727 13.4812C23.67 13.8738 23.8003 14.4912 23.3098 15.124C23.2255 15.2383 23.1221 15.3412 23.0186 15.4365C22.2178 16.1569 21.2407 16.5571 20.2138 16.8392C18.8574 17.2127 17.478 17.327 16.0833 17.1136C15.1292 16.9726 14.5736 17.792 14.6234 18.581C14.6656 19.3281 15.1139 19.7702 15.7614 20.0523C16.5124 20.3839 17.2979 20.4792 18.1141 20.4373C19.5241 20.361 20.8614 20.0294 22.0799 19.3014C22.5052 19.0499 22.896 18.7487 23.2102 18.3714C23.2639 18.3104 23.3443 18.2571 23.3213 18.1237C22.3289 18.7716 21.2867 19.2595 20.1602 19.5568C18.9455 19.8846 17.7232 19.9951 16.4856 19.6902C16.1752 19.614 15.8802 19.4996 15.6273 19.2976C15.4357 19.1451 15.3054 18.9622 15.2633 18.684C15.8495 18.8517 16.4243 18.9698 17.0105 19.0041C17.7079 19.046 18.39 18.9889 19.0605 18.7716C19.1256 18.7487 19.2483 18.7449 19.2291 18.6382C19.2099 18.5277 19.0988 18.581 19.0298 18.5849C17.8344 18.6878 16.6657 18.6077 15.52 18.2418C15.2939 18.1694 15.2863 18.1313 15.4281 17.9407C15.5583 17.7692 15.7346 17.7158 15.9338 17.7311C16.3208 17.7577 16.7078 17.8149 17.0987 17.8302C18.9379 17.8911 20.7043 17.5977 22.3558 16.7439C22.7083 16.5647 23.0493 16.3589 23.3635 16.1226C23.4746 16.0387 23.5206 16.0425 23.5742 16.1798C23.693 16.5114 23.8041 16.8544 23.8654 17.2013C23.8808 17.2927 23.8999 17.3499 24.0187 17.3613C24.3904 17.388 24.5475 17.5672 24.5551 17.9521C24.5551 18.5887 24.3674 19.1909 24.0762 19.7626Z" fill="#00003A"/>
<path d="M7.84513 17.8949C7.40448 18.177 6.84506 17.8225 6.81057 17.247C6.79141 16.9916 6.84889 16.7477 6.92935 16.5075C7.07113 16.0806 6.91403 15.7109 6.54235 15.5699C6.15535 15.4289 5.78368 15.6118 5.60742 16.0311C5.55378 16.1531 5.51163 16.2826 5.45032 16.4008C5.41584 16.4618 5.3507 16.5037 5.27023 16.4847C5.19743 16.4656 5.17061 16.4046 5.16678 16.336C5.1093 15.8291 5.27789 15.3946 5.6534 15.0591C6.02124 14.7313 6.46955 14.6704 6.91786 14.8686C7.37766 15.0744 7.61523 15.4479 7.64205 15.8977C7.63822 16.2102 7.56158 16.4618 7.45429 16.7019C7.39682 16.8315 7.33934 16.9649 7.30486 17.1021C7.22822 17.4071 7.43897 17.6167 7.74933 17.5671C7.84513 17.5519 7.96774 17.4719 8.01755 17.6129C8.06353 17.7501 7.94475 17.8263 7.84513 17.8873V17.8949Z" fill="#00003A"/>
<path d="M19.6008 12.635C19.9724 12.7532 20.1755 12.6083 20.1793 12.2081V12.1357C20.164 11.7278 20.0989 11.3314 19.8958 10.9732C19.8038 10.8131 19.6621 10.7102 19.4628 10.7597C19.2636 10.8093 19.1869 10.9579 19.1754 11.1485C19.1563 11.6135 19.2521 12.0556 19.4666 12.4749C19.5011 12.5359 19.528 12.6121 19.6008 12.635Z" fill="#00003A"/>
<path d="M14.8993 13.0504C15.3514 12.9132 15.8074 12.8217 16.2748 12.9856C16.4473 13.0428 16.612 13.119 16.7806 13.1838C16.8764 13.2219 16.9914 13.2982 17.0642 13.2029C17.1408 13.1 17.045 12.9932 16.9722 12.9094C16.6465 12.5397 16.2327 12.3567 15.6733 12.3529C15.248 12.3605 14.8226 12.5206 14.4778 12.8713C14.4165 12.9323 14.3475 13.0085 14.3973 13.1C14.451 13.2105 14.5468 13.1533 14.6272 13.1267C14.7115 13.1076 14.8073 13.0809 14.8993 13.0504Z" fill="#00003A"/>
<path d="M16.8841 13.5765C16.6963 13.424 16.4779 13.3668 16.202 13.3668C15.9185 13.3897 15.6158 13.4659 15.3936 13.7289C15.3514 13.7823 15.2939 13.8395 15.3399 13.9195C15.3936 13.9995 15.4625 13.9652 15.5315 13.9424C15.9415 13.7823 16.363 13.748 16.796 13.809C16.8611 13.8166 16.9339 13.8166 16.9684 13.7556C17.0067 13.6717 16.9339 13.6184 16.8841 13.5765Z" fill="#00003A"/>
<path d="M19.9992 13.1953C19.8077 13.1801 19.662 13.3668 19.6506 13.6184C19.6467 13.8814 19.7693 14.0682 19.9571 14.0796C20.1487 14.0949 20.3096 13.889 20.3134 13.6337C20.3134 13.405 20.1755 13.2068 19.9992 13.1953Z" fill="#00003A"/>
<path d="M18.7846 14.495C18.9839 14.5102 19.1295 14.4035 19.1371 14.232C19.1448 14.0033 18.9226 13.8013 18.6505 13.786C18.4359 13.7708 18.3018 13.8661 18.2942 14.0376C18.2865 14.251 18.5241 14.4759 18.7846 14.495Z" fill="#00003A"/>
<path d="M7.74933 17.571C7.43897 17.6167 7.23206 17.4033 7.30486 17.106C7.33934 16.9688 7.40065 16.8392 7.45429 16.7058C7.55775 16.4618 7.63055 16.2179 7.64205 15.9015C7.61523 15.4518 7.37383 15.0744 6.91786 14.8724C6.46572 14.6742 6.02124 14.7352 5.6534 15.063C5.27789 15.3946 5.1093 15.8329 5.16678 16.3399C5.17444 16.4008 5.20509 16.4694 5.27023 16.4885C5.3507 16.5076 5.41967 16.4656 5.45032 16.4047C5.51163 16.2865 5.55378 16.1569 5.60742 16.0349C5.78368 15.6157 6.15535 15.4327 6.54235 15.5737C6.91403 15.7109 7.07113 16.0883 6.92935 16.5114C6.84889 16.7553 6.79141 16.9954 6.81057 17.2508C6.84889 17.8264 7.40831 18.1732 7.84513 17.8988C7.94475 17.8378 8.06353 17.7616 8.01755 17.6244C7.96391 17.4833 7.84513 17.5634 7.74933 17.5786V17.571Z" fill="#00003A"/>
</g>
<defs>
<clipPath id="clip0_264_4111">
<rect width="102.03" height="26.6911" fill="white"/>
</clipPath>
</defs>
</svg>
