<svg width="59" height="27" viewBox="0 0 59 27" fill="none" xmlns="http://www.w3.org/2000/svg">
<path d="M24.1711 10.5673H15.9599V11.0184C16.7694 11.1456 17.5212 11.3769 18.2729 11.666C23.986 13.9096 25.5936 20.4786 25.5589 26.0645H15.9599C15.7633 24.5148 15.8789 22.9767 15.5782 21.4154C14.9884 18.3044 13.2536 15.7948 9.79569 15.8873C9.71473 15.9104 9.59908 16.1533 9.59908 16.1764V26.0645H6.10352e-05V0.910486L0.173537 0.73701H9.42561L9.59908 0.910486V10.2782C9.59908 10.3129 9.83038 10.4864 9.88821 10.5673C10.0386 10.5673 10.8481 8.15023 11.0216 7.76858C13.323 2.71464 17.3246 0.922051 22.7255 0.73701C23.1649 0.725445 23.8588 0.632924 24.1711 0.910486V10.5673Z" fill="white"/>
<path d="M50.5395 5.47871H56.3799C56.4146 5.47871 56.5533 5.62906 56.669 5.59437V10.5674H50.5395V16.4077C50.5395 16.454 50.7708 16.9513 50.8286 17.0438C52.0892 18.9752 56.5071 17.3561 58.1378 16.4887C58.265 16.4077 58.5194 16.5581 58.5194 16.639V24.5033C58.5194 24.7808 57.5826 25.1625 57.3282 25.2781C51.5688 27.8687 42.5365 26.7353 41.0908 19.4956C40.7092 17.5642 40.5935 12.9266 40.8248 10.9606C40.848 10.7871 40.8364 10.6599 41.0099 10.5674H47.8333L48.0067 10.2782C47.9605 10.0932 46.2373 9.7231 45.9019 9.60745C42.4439 8.40468 40.4085 5.73315 40.1541 2.05545C40.1309 1.66224 40.05 1.01459 40.3275 0.725464H50.3892L50.5626 0.89894V5.46715L50.5395 5.47871Z" fill="white"/>
<path d="M37.7337 10.4757H28.1347V25.9729H37.7337V10.4757Z" fill="white"/>
<path d="M36.8464 1.36149C37.6675 2.13635 38.1879 3.61668 38.1648 4.7385C38.0607 11.3653 26.1256 10.7408 27.6637 3.48947C28.4617 -0.292316 34.3483 -0.997788 36.8464 1.36149Z" fill="white"/>
</svg>
