<svg width="114" height="76" viewBox="0 0 114 76" fill="none" xmlns="http://www.w3.org/2000/svg">
<g clip-path="url(#clip0_9_563)">
<path d="M0.399048 0.330933V2.72697H2.85005V15.3917H5.54045V2.72697H7.95725V0.330933H0.399048ZM14.307 0.330933V6.2982H11.8218V0.330933H9.13145V15.3917H11.8218V8.83116H14.307V15.3917H16.9974V0.330933H14.307ZM21.3066 12.9729V8.80834H24.624V6.40089H21.3066V2.66992H25.2852V0.330933H18.6732V15.3917H25.3992V12.9843H21.2952L21.3066 12.9729ZM2.79305 19.522V60.9735H10.1916V19.522H2.79305ZM30.2442 19.522V35.5641C30.2442 41.8052 30.3468 44.1442 30.5178 46.5402C29.9136 44.1442 29.2296 41.8052 27.9528 37.789L22.0476 19.5106H14.8086V60.9621H21.261V43.6421C21.261 37.789 21.1014 34.7768 20.8734 32.4949C21.375 34.7198 22.1616 37.4581 23.5524 41.4173L30.2328 60.9735H36.6282V19.522H30.2328H30.2442ZM58.5732 38.291C60.4656 37.5722 62.4151 35.895 62.4151 31.274V27.6001C62.4151 22.0778 60.249 19.522 53.8422 19.522H41.2681V60.9735H53.8308C55.8487 58.3607 58.9951 55.4398 62.7913 54.4471C62.9622 53.6599 63.042 52.8041 63.042 51.8914V45.8214C63.042 40.8011 60.705 39.0783 58.5846 38.291H58.5732ZM48.5527 25.09H51.8358C54.3438 25.09 55.2331 26.094 55.2331 28.8209V32.1069C55.2331 34.8453 54.3325 36.0661 51.8928 36.0661H48.5527V25.1014V25.09ZM55.5181 51.1041C55.5181 54.0592 54.6175 55.1203 52.0182 55.1203H48.564V42.022H51.9042C54.5262 42.022 55.5181 43.1972 55.5181 46.0952V51.1041ZM78.2382 19.0657H77.121C69.939 19.0657 66.7699 23.0819 66.7699 30.2129V50.2141C66.7699 51.8571 66.9295 53.3176 67.26 54.6183C68.6851 55.2458 69.6996 56.5009 70.0188 58.1211C70.0872 58.4291 70.11 58.7258 70.1214 59.0452C71.2158 56.5922 72.447 54.1048 73.5984 51.8001L73.9632 51.0813C74.0544 50.9101 74.1342 50.739 74.2254 50.5792C74.2254 50.4766 74.2254 50.3739 74.2254 50.2598V30.2586C74.2254 26.7558 75.4566 25.5235 77.6796 25.5235C79.9026 25.5235 81.1795 26.7558 81.1795 30.2586V44.224C81.3276 44.2012 81.4986 44.2012 81.6469 44.2012C82.2853 44.2012 82.8895 44.3381 83.4708 44.612C84.8503 45.2966 87.6774 47.6584 84.2688 54.8807C84.2688 54.8807 84.2689 54.9035 84.246 54.9035L84.3144 54.9606L84.36 54.8693C84.8959 53.8424 85.956 53.1921 87.153 53.1921C87.5862 53.1921 87.9967 53.2833 88.3957 53.4545C88.5553 52.4504 88.6465 51.3665 88.6465 50.1913V30.1331C88.6465 23.1617 85.5912 19.0428 78.2382 19.0428V19.0657ZM113.544 19.5106H106.248L102.235 33.2707L98.2225 19.5106H90.6528L97.3219 39.0098L89.8662 60.9621H90.858C91.1202 60.6084 91.3483 60.2547 91.5762 59.901C93.024 57.174 94.3236 55.1431 94.3806 55.0633C94.9278 54.1619 95.931 53.6142 97.0255 53.6142C97.5385 53.6142 98.0515 53.7397 98.5075 53.9907C98.7697 54.1391 98.9976 54.3102 99.2028 54.5042L101.996 45.7529L103.934 51.937L106.647 46.8711C107.103 45.9811 107.969 45.3878 108.961 45.2395L106.943 39.181L113.51 19.5106H113.544ZM111.161 51.7887L109.258 55.3485C109.463 55.3713 109.679 55.3827 109.885 55.417C110.956 55.5767 111.914 55.9418 112.712 56.4667L111.161 51.7887Z" fill="#1A191C"/>
<path d="M113.51 60.9735C113.145 58.954 111.777 57.6304 109.622 57.311C108.266 57.117 106.978 57.3908 105.838 57.9043C105.792 57.9271 105.746 57.9385 105.701 57.9613L105.792 57.7902L110.329 49.3128L110.523 48.9477C110.854 48.3429 110.626 47.5899 110.033 47.2818C109.896 47.202 109.759 47.1563 109.611 47.1449C109.109 47.0536 108.596 47.3047 108.357 47.7725L104.766 54.4814L96.5922 69.7589C94.6314 71.9382 93.0581 72.7141 92.2146 72.4402C92.0891 72.406 92.0094 72.3489 91.9524 72.1778C91.3938 70.6033 93.1607 66.279 95.3381 62.1829C95.6003 61.7722 95.8739 61.3614 96.1133 60.9735C96.9683 59.5929 97.6866 58.315 98.1653 57.2881C98.4276 56.6948 98.2109 55.9874 97.6295 55.6794C97.0709 55.3713 96.3413 55.5539 95.9993 56.1129C95.9309 56.2156 94.6427 58.2237 93.2291 60.8936C93.2063 60.9164 93.195 60.9507 93.1722 60.9849C91.8726 62.9588 90.3108 65.081 88.7718 66.9522C84.4626 72.1892 82.2737 73.0678 81.7949 72.9651C81.3731 72.8738 81.3161 72.7369 81.2933 72.6912C80.9855 72.0295 81.4985 70.4207 82.4903 68.2072C82.4903 68.1844 82.5131 68.1616 82.5245 68.1388C82.6841 67.7737 82.8437 67.4085 83.0489 67.0092C83.0831 66.9293 83.1287 66.8495 83.1629 66.7696C84.2459 64.4991 85.6937 61.7607 87.2327 58.8627C87.5633 58.258 87.9053 57.619 88.2474 56.9573C88.5324 56.4096 88.3955 55.7707 87.9281 55.417C87.8711 55.3599 87.8027 55.3257 87.7343 55.28C87.1301 54.9606 86.3777 55.1888 86.0585 55.8049C85.7165 56.4552 85.3745 57.0828 85.0439 57.6989C84.5195 58.6801 84.0293 59.6157 83.5733 60.4829C82.1483 63.187 81.0198 65.389 80.2218 67.2032C79.7771 67.979 79.0475 69.1428 78.1013 70.2382C76.1178 72.5429 74.1455 73.5013 72.2531 73.102C71.7515 73.0107 71.4779 72.7939 71.2727 72.406C70.9991 71.8355 70.7597 70.4663 71.6375 67.3515C72.7433 66.6441 75.2513 64.8414 77.9531 61.4869C79.5035 59.5587 81.111 57.117 82.5474 54.0934C85.2378 48.3886 83.5049 46.7798 82.6385 46.3462C82.1939 46.1295 81.7037 46.0724 81.1907 46.1865C79.4237 46.506 77.3603 48.6054 75.6731 51.9598L75.3083 52.6786C75.1715 52.9525 75.0347 53.2263 74.9093 53.4887C73.7237 55.8733 72.5951 58.1895 71.6375 60.3802C70.9421 61.9661 70.3265 63.4722 69.8363 64.887C69.8363 64.887 69.8363 64.8946 69.8363 64.9098C66.2567 70.2952 62.1527 73.1476 58.2767 72.9651C57.2393 72.908 55.8371 72.5885 55.1645 71.4019C54.4349 70.1012 54.6743 68.0361 55.8257 65.8796C57.3077 63.0729 61.0811 58.9311 64.7747 58.5204C65.6525 58.4291 65.7323 58.8399 65.7665 58.9882C65.9261 59.8097 65.1053 61.2359 63.1559 61.795C62.5061 61.9889 62.1185 62.6621 62.3123 63.3239C62.5175 63.9856 63.1901 64.3736 63.8399 64.1796C65.7095 63.6433 66.7583 62.6279 67.3283 61.852C68.0921 60.8023 68.3999 59.5929 68.1833 58.509C67.8071 56.5921 66.0743 55.9076 64.5125 56.0673C63.6803 56.1586 62.8709 56.3868 62.0729 56.7062C59.9639 57.5392 58.0601 59.0795 56.5439 60.7225C55.2899 62.0802 54.2867 63.5292 53.6483 64.7159C52.0637 67.671 51.8471 70.5462 53.0213 72.6114C53.9789 74.3114 55.8143 75.3041 58.1627 75.4181C58.3337 75.4181 58.4819 75.441 58.6529 75.441C62.0387 75.441 65.4587 73.6839 68.5823 70.4435C68.5253 71.6301 68.6735 72.6342 69.0725 73.4557C69.6083 74.551 70.5317 75.2584 71.7743 75.5094C72.2303 75.6007 72.6749 75.6578 73.1309 75.6578C75.3653 75.6578 77.3034 74.494 78.8424 73.0335C78.8994 73.2731 78.9677 73.5013 79.0703 73.7067C79.3553 74.2886 79.9595 75.0645 81.2933 75.3497C81.4415 75.3839 81.6581 75.441 81.9545 75.441C83.0603 75.441 85.3175 74.7336 89.6039 69.816C89.3417 71.1395 89.3646 72.1892 89.6609 73.0107C89.9802 73.9007 90.5957 74.5054 91.4849 74.7906C92.4653 75.1101 93.48 74.9732 94.4718 74.551C94.563 74.8591 94.7681 75.1101 95.0645 75.2698C95.2583 75.3725 95.4408 75.4181 95.646 75.4181C96.0905 75.4181 96.5123 75.1785 96.7403 74.7564L98.1995 72.0409C98.3477 72.5543 98.5757 73.0107 98.8607 73.4329C99.2028 73.9349 99.636 74.3342 100.126 74.6651C100.149 74.6651 100.16 74.6879 100.183 74.6993C104.983 77.2209 107.662 73.8322 110.261 70.6831C112.096 68.1616 113.441 65.0924 113.624 62.6393C113.669 62.0346 113.647 61.4869 113.544 60.9735H113.51ZM76.9613 54.8921C77.1551 54.5156 77.3375 54.1391 77.5199 53.774L77.8961 53.0437C79.2185 50.3967 80.4953 49.1759 81.1907 48.7651C81.3161 48.6852 81.4187 48.6396 81.5099 48.6168C81.5783 48.9362 81.5783 49.6551 81.1793 50.9101C80.9855 51.492 80.7233 52.1994 80.3243 53.0323C80.0849 53.5229 79.8455 54.0136 79.6061 54.4699C78.0785 57.3794 76.3799 59.6271 74.8409 61.3158C74.2823 61.9319 73.7238 62.4796 73.2222 62.9588C73.4729 62.3655 73.7238 61.7722 73.9974 61.1674C74.955 58.9996 76.0151 56.8318 76.9727 54.8921H76.9613ZM111.127 62.4567C110.808 66.8267 105.952 73.0678 103.535 73.0678C102.919 73.0678 102.395 72.9879 101.973 72.8396C101.734 72.7255 101.494 72.6 101.278 72.463C101.118 72.3375 100.981 72.2006 100.879 72.0409C100.309 71.208 100.297 69.9415 100.468 68.8348C100.537 68.2871 100.662 67.7851 100.787 67.3857C100.833 67.2032 100.89 67.0548 100.936 66.9065L102.007 64.9212C102.076 64.7957 102.942 63.3467 104.287 62.0003C105.062 61.2245 105.838 60.654 106.601 60.2775C107.513 59.8097 108.425 59.6385 109.28 59.764C109.987 59.8667 110.694 60.1177 110.99 60.9735C111.127 61.3386 111.184 61.8178 111.139 62.4567H111.127Z" fill="#B337F0"/>
</g>
<defs>
<clipPath id="clip0_9_563">
<rect width="114" height="76" fill="white"/>
</clipPath>
</defs>
</svg>
