<svg width="57" height="38" viewBox="0 0 57 38" fill="none" xmlns="http://www.w3.org/2000/svg">
<g clip-path="url(#clip0_119_102)">
<path d="M0.199493 0.165405V1.36342H1.42499V7.69581H2.77019V1.36342H3.97859V0.165405H0.199493ZM7.15349 0.165405V3.14904H5.91089V0.165405H4.56569V7.69581H5.91089V4.41552H7.15349V7.69581H8.49869V0.165405H7.15349ZM10.6533 6.48638V4.40411H12.312V3.20039H10.6533V1.3349H12.6426V0.165405H9.33659V7.69581H12.6996V6.49208H10.6476L10.6533 6.48638ZM1.39649 9.76096V30.4867H5.09579V9.76096H1.39649ZM15.1221 9.76096V17.782C15.1221 20.9025 15.1734 22.072 15.2589 23.27C14.9568 22.072 14.6148 20.9025 13.9764 18.8944L11.0238 9.75526H7.40429V30.481H10.6305V21.821C10.6305 18.8944 10.5507 17.3883 10.4367 16.2474C10.6875 17.3598 11.0808 18.729 11.7762 20.7086L15.1164 30.4867H18.3141V9.76096H15.1164H15.1221ZM29.2866 19.1454C30.2328 18.786 31.2075 17.9474 31.2075 15.637V13.8C31.2075 11.0388 30.1245 9.76096 26.9211 9.76096H20.634V30.4867H26.9154C27.9243 29.1803 29.4975 27.7198 31.3956 27.2235C31.4811 26.8299 31.521 26.402 31.521 25.9456V22.9106C31.521 20.4005 30.3525 19.5391 29.2923 19.1454H29.2866ZM24.2763 12.5449H25.9179C27.1719 12.5449 27.6165 13.047 27.6165 14.4104V16.0534C27.6165 17.4226 27.1662 18.033 25.9464 18.033H24.2763V12.5506V12.5449ZM27.759 25.552C27.759 27.0295 27.3087 27.5601 26.0091 27.5601H24.282V21.0109H25.9521C27.2631 21.0109 27.759 21.5985 27.759 23.0476V25.552ZM39.1191 9.53277H38.5605C34.9695 9.53277 33.3849 11.5409 33.3849 15.1064V25.107C33.3849 25.9285 33.4647 26.6587 33.63 27.3091C34.3425 27.6228 34.8498 28.2504 35.0094 29.0605C35.0436 29.2145 35.055 29.3628 35.0607 29.5226C35.6079 28.296 36.2235 27.0524 36.7992 25.9L36.9816 25.5406C37.0272 25.455 37.0671 25.3694 37.1127 25.2896C37.1127 25.2382 37.1127 25.1869 37.1127 25.1298V15.1292C37.1127 13.3778 37.7283 12.7617 38.8398 12.7617C39.9513 12.7617 40.5897 13.3778 40.5897 15.1292V22.112C40.6638 22.1005 40.7493 22.1006 40.8234 22.1006C41.1426 22.1006 41.4447 22.169 41.7354 22.3059C42.4251 22.6482 43.8387 23.8291 42.1344 27.4403C42.1344 27.4403 42.1344 27.4517 42.123 27.4517L42.1572 27.4802L42.18 27.4346C42.4479 26.9211 42.978 26.596 43.5765 26.596C43.7931 26.596 43.9983 26.6416 44.1978 26.7272C44.2776 26.2252 44.3232 25.6832 44.3232 25.0956V15.0665C44.3232 11.5808 42.7956 9.52136 39.1191 9.52136V9.53277ZM56.772 9.75526H53.124L51.1176 16.6353L49.1112 9.75526H45.3264L48.6609 19.5048L44.9331 30.481H45.429C45.5601 30.3041 45.6741 30.1273 45.7881 29.9504C46.512 28.587 47.1618 27.5715 47.1903 27.5316C47.4639 27.0809 47.9655 26.8071 48.5127 26.8071C48.7692 26.8071 49.0257 26.8698 49.2537 26.9953C49.3848 27.0695 49.4988 27.155 49.6014 27.252L50.9979 22.8764L51.9669 25.9684L53.3235 23.4355C53.5515 22.9905 53.9847 22.6939 54.4806 22.6197L53.4717 19.5904L56.7549 9.75526H56.772ZM55.5807 25.8943L54.6288 27.6742C54.7314 27.6856 54.8397 27.6913 54.9423 27.7084C55.4781 27.7883 55.9569 27.9708 56.3559 28.2333L55.5807 25.8943Z" fill="white"/>
<path d="M56.7549 30.4867C56.5725 29.4769 55.8885 28.8152 54.8112 28.6554C54.1329 28.5584 53.4888 28.6954 52.9188 28.9521C52.896 28.9635 52.8732 28.9692 52.8504 28.9806L52.896 28.895L55.1646 24.6563L55.2615 24.4738C55.4268 24.1714 55.3128 23.7949 55.0164 23.6409C54.948 23.6009 54.8796 23.5781 54.8055 23.5724C54.5547 23.5268 54.2982 23.6523 54.1785 23.8862L52.383 27.2406L48.2961 34.8794C47.3157 35.969 46.5291 36.357 46.1073 36.2201C46.0446 36.2029 46.0047 36.1744 45.9762 36.0888C45.6969 35.3016 46.5804 33.1394 47.6691 31.0914C47.8002 30.886 47.937 30.6806 48.0567 30.4867C48.4842 29.7964 48.8433 29.1574 49.0827 28.644C49.2138 28.3474 49.1055 27.9937 48.8148 27.8396C48.5355 27.6856 48.1707 27.7769 47.9997 28.0564C47.9655 28.1078 47.3214 29.1118 46.6146 30.4467C46.6032 30.4582 46.5975 30.4753 46.5861 30.4924C45.9363 31.4793 45.1554 32.5404 44.3859 33.476C42.2313 36.0945 41.1369 36.5338 40.8975 36.4825C40.6866 36.4368 40.6581 36.3684 40.6467 36.3456C40.4928 36.0147 40.7493 35.2103 41.2452 34.1035C41.2452 34.0921 41.2566 34.0807 41.2623 34.0693C41.3421 33.8868 41.4219 33.7042 41.5245 33.5045C41.5416 33.4646 41.5644 33.4247 41.5815 33.3847C42.123 32.2495 42.8469 30.8803 43.6164 29.4313C43.7817 29.1289 43.9527 28.8095 44.1237 28.4786C44.2662 28.2047 44.1978 27.8853 43.9641 27.7084C43.9356 27.6799 43.9014 27.6628 43.8672 27.64C43.5651 27.4802 43.1889 27.5943 43.0293 27.9024C42.8583 28.2276 42.6873 28.5413 42.522 28.8494C42.2598 29.34 42.0147 29.8078 41.7867 30.2414C41.0742 31.5934 40.5099 32.6945 40.1109 33.6015C39.8886 33.9895 39.5238 34.5713 39.0507 35.119C38.0589 36.2714 37.0728 36.7506 36.1266 36.5509C35.8758 36.5053 35.739 36.3969 35.6364 36.2029C35.4996 35.9177 35.3799 35.2331 35.8188 33.6757C36.3717 33.322 37.6257 32.4206 38.9766 30.7434C39.7518 29.7793 40.5555 28.5584 41.2737 27.0467C42.6189 24.1942 41.7525 23.3898 41.3193 23.1731C41.097 23.0647 40.8519 23.0361 40.5954 23.0932C39.7119 23.2529 38.6802 24.3026 37.8366 25.9798L37.6542 26.3393C37.5858 26.4762 37.5174 26.6131 37.4547 26.7443C36.8619 27.9366 36.2976 29.0947 35.8188 30.19C35.4711 30.983 35.1633 31.736 34.9182 32.4434C34.9182 32.4434 34.9182 32.4472 34.9182 32.4548C33.1284 35.1475 31.0764 36.5738 29.1384 36.4825C28.6197 36.4539 27.9186 36.2942 27.5823 35.7009C27.2175 35.0506 27.3372 34.018 27.9129 32.9398C28.6539 31.5364 30.5406 29.4655 32.3874 29.2601C32.8263 29.2145 32.8662 29.4199 32.8833 29.494C32.9631 29.9048 32.5527 30.6179 31.578 30.8974C31.2531 30.9944 31.0593 31.331 31.1562 31.6619C31.2588 31.9928 31.5951 32.1867 31.92 32.0897C32.8548 31.8216 33.3792 31.3139 33.6642 30.9259C34.0461 30.4011 34.2 29.7964 34.0917 29.2544C33.9036 28.296 33.0372 27.9537 32.2563 28.0336C31.8402 28.0792 31.4355 28.1933 31.0365 28.3531C29.982 28.7695 29.0301 29.5397 28.272 30.3612C27.645 31.04 27.1434 31.7646 26.8242 32.3579C26.0319 33.8354 25.9236 35.273 26.5107 36.3056C26.9895 37.1556 27.9072 37.652 29.0814 37.709C29.1669 37.709 29.241 37.7204 29.3265 37.7204C31.0194 37.7204 32.7294 36.8419 34.2912 35.2217C34.2627 35.815 34.3368 36.317 34.5363 36.7278C34.8042 37.2754 35.2659 37.6291 35.8872 37.7547C36.1152 37.8003 36.3375 37.8288 36.5655 37.8288C37.6827 37.8288 38.6517 37.2469 39.4212 36.5167C39.4497 36.6365 39.4839 36.7506 39.5352 36.8533C39.6777 37.1442 39.9798 37.5322 40.6467 37.6748C40.7208 37.6919 40.8291 37.7204 40.9773 37.7204C41.5302 37.7204 42.6588 37.3667 44.802 34.9079C44.6709 35.5697 44.6823 36.0945 44.8305 36.5053C44.9901 36.9503 45.2979 37.2526 45.7425 37.3953C46.2327 37.555 46.74 37.4865 47.2359 37.2754C47.2815 37.4295 47.3841 37.555 47.5323 37.6349C47.6292 37.6862 47.7204 37.709 47.823 37.709C48.0453 37.709 48.2562 37.5892 48.3702 37.3781L49.0998 36.0204C49.1739 36.2771 49.2879 36.5053 49.4304 36.7164C49.6014 36.9674 49.818 37.1671 50.0631 37.3325C50.0745 37.3325 50.0802 37.3439 50.0916 37.3496C52.4913 38.6104 53.8308 36.916 55.1304 35.3415C56.0481 34.0807 56.7207 32.5461 56.8119 31.3196C56.8347 31.0172 56.8233 30.7434 56.772 30.4867H56.7549ZM38.4807 27.446C38.5776 27.2577 38.6688 27.0695 38.76 26.8869L38.9481 26.5218C39.6093 25.1983 40.2477 24.5879 40.5954 24.3825C40.6581 24.3426 40.7094 24.3197 40.755 24.3083C40.7892 24.4681 40.7892 24.8275 40.5897 25.455C40.4928 25.7459 40.3617 26.0996 40.1622 26.5161C40.0425 26.7614 39.9228 27.0067 39.8031 27.2349C39.0393 28.6897 38.19 29.8135 37.4205 30.6578C37.1412 30.9659 36.8619 31.2397 36.6111 31.4793C36.7365 31.1827 36.8619 30.886 36.9987 30.5837C37.4775 29.4997 38.0076 28.4158 38.4864 27.446H38.4807ZM55.5636 31.2283C55.404 33.4133 52.9758 36.5338 51.7674 36.5338C51.4596 36.5338 51.1974 36.4939 50.9865 36.4197C50.8668 36.3627 50.7471 36.2999 50.6388 36.2315C50.559 36.1687 50.4906 36.1002 50.4393 36.0204C50.1543 35.6039 50.1486 34.9707 50.2341 34.4173C50.2683 34.1435 50.331 33.8925 50.3937 33.6928C50.4165 33.6015 50.445 33.5274 50.4678 33.4532L51.0036 32.4606C51.0378 32.3978 51.471 31.6733 52.1436 31.0001C52.5312 30.6122 52.9188 30.3269 53.3007 30.1387C53.7567 29.9048 54.2127 29.8192 54.6402 29.882C54.9936 29.9333 55.347 30.0588 55.4952 30.4867C55.5636 30.6692 55.5921 30.9088 55.5693 31.2283H55.5636Z" fill="white"/>
</g>
<defs>
<clipPath id="clip0_119_102">
<rect width="57" height="38" fill="white"/>
</clipPath>
</defs>
</svg>
