<svg width="97" height="55" viewBox="0 0 97 55" fill="none" xmlns="http://www.w3.org/2000/svg">
<g clip-path="url(#clip0_264_4140)">
<path d="M5.1102 28.4591C6.24713 27.2264 7.53964 25.898 8.58082 24.5696C9.20314 23.7678 10.1965 22.5949 9.87333 21.4819C9.5502 20.3689 8.82017 20.9793 8.93985 20.4407H14.3253L14.2535 20.8117C11.7403 21.7213 9.78955 23.8755 8.04228 25.8262C7.71915 26.1852 7.22848 26.6759 6.96519 27.023C6.7019 27.37 6.7378 27.1785 6.78567 27.382H8.64066C10.6632 27.382 12.3985 31.463 13.4397 32.8751C14.9955 34.9814 17.5685 35.1969 18.0472 32.2289C17.7002 27.0469 18.49 21.3024 18.0472 16.1803C17.772 14.9596 17.5805 14.2774 16.5632 14.3253C16.4436 14.3372 16.4675 14.074 16.4914 14.0261C16.6231 13.7269 20.5963 13.1405 21.1588 12.8892V32.6956C21.1588 32.7315 21.4221 33.3658 21.47 33.4615C21.6974 33.8804 22.0325 34.2035 22.4992 34.3472C22.9659 34.4908 23.4087 34.2873 23.313 34.6703H11.7642C11.1778 34.6703 10.376 33.7129 10.0528 33.2701C8.80821 31.5467 7.80292 29.3925 6.61813 27.6094C6.37877 27.6094 5.21791 28.866 5.15807 29.1412C5.0384 29.6199 5.08627 31.4151 5.12217 31.9895C5.19398 32.9709 5.46923 34.3352 6.68993 34.3232V34.6822H0.44282C0.418885 34.2873 0.897591 34.3232 1.16088 34.1437C1.74729 33.7368 1.99861 33.0427 2.01058 32.3605C2.09436 26.9631 2.11829 21.3144 2.01058 15.9648C1.93878 15.1989 1.34039 14.3612 0.526594 14.3492L0.454788 14.05L5.12217 12.9131V28.471L5.1102 28.4591Z" fill="white"/>
<path d="M42.4493 20.4408V20.7998C40.5703 20.8956 41.3722 23.1694 41.7312 24.3303C42.557 27.011 43.8854 29.6319 44.4838 32.4084C44.6513 32.3965 44.6752 32.2289 44.7231 32.1093C45.9797 29.3567 46.7337 25.8262 47.9304 23.0019C48.0022 22.1522 48.0382 21.5538 47.2722 21.0631C46.5063 20.5724 46.3986 20.8597 46.3986 20.4408H56.4514V32.588C56.4514 32.959 56.966 33.9044 57.2891 34.1438C57.6123 34.3831 58.0311 34.2874 58.0072 34.6823H51.784V34.3233C52.7414 34.2275 53.256 33.2222 53.3398 32.3486C53.6629 29.1054 53.4834 25.3475 53.3398 22.0564C53.28 21.4341 52.8132 20.9075 52.1909 20.8118C50.0846 20.4887 49.1033 22.0923 48.3373 23.7678L44.5436 34.5746L42.4014 34.6943C41.5876 32.6239 40.9413 30.4817 40.1754 28.3993C39.4933 26.5682 38.105 22.224 36.6928 21.111C35.2806 19.998 35.8671 20.9315 35.9867 20.4408H42.4493Z" fill="white"/>
<path d="M77.6102 20.1176C84.2403 19.3636 88.2973 26.8913 84.3839 32.157C81.1646 36.5013 74.6183 35.9029 72.1769 31.0919C69.9629 26.7357 72.5599 20.6801 77.5983 20.1056L77.6102 20.1176ZM78.448 20.4646C76.6528 20.6083 75.5279 22.9539 75.1569 24.4858C74.5226 27.0588 74.738 30.5055 76.0544 32.8512C77.3709 35.1968 80.3867 34.8857 81.5955 32.1331C82.6127 29.8233 82.6606 26.7118 81.9665 24.3063C81.5117 22.7505 80.3987 20.321 78.436 20.4766L78.448 20.4646Z" fill="white"/>
<path d="M37.7126 34.1052V34.4642C35.4986 35.0626 33.141 34.8831 33.1649 32.0707C32.6383 32.5853 32.375 33.1238 31.7647 33.6025C29.3353 35.5174 24.2849 35.1823 24.4166 31.2928C24.5482 27.4871 30.4363 26.8767 33.1649 26.0031C33.1769 24.2438 33.2846 21.7067 31.645 20.5937C30.5919 19.8876 28.5933 19.9714 28.1265 21.3477C27.6478 22.7718 29.4789 25.285 26.858 25.4765C24.237 25.668 24.9192 23.5976 25.5176 22.329C26.7742 19.6363 31.0347 19.2054 33.488 20.3184C37.6528 22.2093 35.5943 29.2822 36.1808 32.8246C36.3124 33.6265 36.827 34.2727 37.7126 34.1052ZM33.1649 26.5655C32.4229 26.7211 31.4894 27.0323 30.7714 27.3434C29.1916 28.0256 27.7316 28.7317 27.6478 30.6824C27.5521 33.2435 29.9695 34.0932 31.8963 32.6571C32.3511 32.322 33.1529 31.2329 33.1529 30.6824V26.5536L33.1649 26.5655Z" fill="white"/>
<path d="M64.2304 20.4408C64.2543 20.8357 63.7756 20.8118 63.5123 20.9793C62.531 21.6495 63.2131 23.5165 63.5123 24.45C64.3501 27.1546 65.6665 29.7875 66.4444 32.5281L69.1371 24.809C69.568 23.4566 70.3459 20.8836 68.1797 20.7998V20.4408H72.8471C72.8232 20.8597 72.2367 20.8836 71.9016 21.111C70.4536 22.1043 69.1611 26.1972 68.5387 27.9206C67.3779 31.1279 65.9657 37.3391 64.2304 39.8882C62.0164 43.1674 56.7745 40.3071 58.2705 37.1476C58.8928 35.8192 61.418 35.9269 61.3701 37.6024C61.3222 39.2779 59.8622 39.7566 61.394 40.4507C63.7397 41.5039 65.2716 37.758 64.6732 35.9748C62.8541 31.822 61.6813 26.5682 59.6228 22.595C58.7013 21.111 58.5816 21.0631 57.7679 20.7998V20.4408H64.2304Z" fill="white"/>
<path d="M96.184 12.9011L93.9102 16.5632L96.0643 20.3211H85.0541V12.9011H96.184Z" fill="white"/>
<path d="M54.2613 14.8519C57.2772 14.2296 57.5524 18.6696 54.7161 18.5379C52.4662 18.4422 52.4782 15.2229 54.2613 14.8519Z" fill="white"/>
</g>
<defs>
<clipPath id="clip0_264_4140">
<rect width="96.9379" height="54.5725" fill="white"/>
</clipPath>
</defs>
</svg>
