<svg width="1231" height="587" viewBox="0 0 1231 587" fill="none" xmlns="http://www.w3.org/2000/svg">
<g filter="url(#filter0_d_24_573)">
<path d="M0 15C0 6.71571 6.71573 0 15 0H1191C1199.28 0 1206 6.71573 1206 15V547C1206 555.284 1199.28 562 1191 562H15C6.71574 562 0 555.284 0 547V15Z" fill="#675DD1"/>
</g>
<rect x="50" y="37" width="477.393" height="477.393" rx="6.8199" fill="black"/>
<line x1="1132.82" y1="226.3" x2="1132.82" y2="231.374" stroke="white" stroke-opacity="0.25" stroke-width="13.6398" stroke-linecap="round"/>
<line x1="998.446" y1="226.3" x2="998.446" y2="231.374" stroke="white" stroke-opacity="0.25" stroke-width="13.6398" stroke-linecap="round"/>
<line x1="1015.07" y1="220.311" x2="1015.07" y2="237.363" stroke="white" stroke-opacity="0.25" stroke-width="13.6398" stroke-linecap="round"/>
<line x1="1031.69" y1="216.568" x2="1031.69" y2="241.106" stroke="white" stroke-opacity="0.25" stroke-width="13.6398" stroke-linecap="round"/>
<line x1="1048.32" y1="206.837" x2="1048.32" y2="250.837" stroke="white" stroke-opacity="0.25" stroke-width="13.6398" stroke-linecap="round"/>
<line x1="1064.94" y1="212.077" x2="1064.94" y2="246.346" stroke="white" stroke-opacity="0.25" stroke-width="13.6398" stroke-linecap="round"/>
<line x1="6.8199" y1="-6.8199" x2="26.1463" y2="-6.8199" transform="matrix(-0.0420217 0.999117 -0.999925 -0.0122802 975.003 212.743)" stroke="white" stroke-opacity="0.25" stroke-width="13.6398" stroke-linecap="round"/>
<line x1="1081.56" y1="220.311" x2="1081.56" y2="244.848" stroke="white" stroke-opacity="0.25" stroke-width="13.6398" stroke-linecap="round"/>
<line x1="913.943" y1="212.077" x2="913.943" y2="246.346" stroke="white" stroke-opacity="0.25" stroke-width="13.6398" stroke-linecap="round"/>
<line x1="1099.57" y1="206.837" x2="1099.57" y2="250.837" stroke="white" stroke-opacity="0.25" stroke-width="13.6398" stroke-linecap="round"/>
<line x1="930.567" y1="208.334" x2="930.567" y2="246.345" stroke="white" stroke-opacity="0.25" stroke-width="13.6398" stroke-linecap="round"/>
<line x1="1116.2" y1="216.568" x2="1116.2" y2="241.106" stroke="white" stroke-opacity="0.25" stroke-width="13.6398" stroke-linecap="round"/>
<line x1="947.191" y1="224.054" x2="947.19" y2="234.368" stroke="white" stroke-opacity="0.25" stroke-width="13.6398" stroke-linecap="round"/>
<line x1="661.82" y1="226.3" x2="661.82" y2="231.374" stroke="white" stroke-width="13.6398" stroke-linecap="round"/>
<line x1="844.679" y1="228.545" x2="844.679" y2="229.877" stroke="white" stroke-width="13.6398" stroke-linecap="round"/>
<line x1="678.443" y1="220.311" x2="678.443" y2="237.363" stroke="white" stroke-width="13.6398" stroke-linecap="round"/>
<line x1="695.067" y1="216.568" x2="695.067" y2="241.106" stroke="white" stroke-width="13.6398" stroke-linecap="round"/>
<line x1="864.073" y1="224.054" x2="864.073" y2="233.62" stroke="white" stroke-width="13.6398" stroke-linecap="round"/>
<line x1="711.691" y1="206.837" x2="711.69" y2="250.837" stroke="white" stroke-width="13.6398" stroke-linecap="round"/>
<line x1="880.696" y1="206.837" x2="880.696" y2="250.837" stroke="white" stroke-width="13.6398" stroke-linecap="round"/>
<line x1="728.314" y1="212.077" x2="728.314" y2="246.346" stroke="white" stroke-width="13.6398" stroke-linecap="round"/>
<line x1="897.32" y1="216.568" x2="897.32" y2="241.106" stroke="white" stroke-width="13.6398" stroke-linecap="round"/>
<line x1="744.938" y1="220.311" x2="744.938" y2="244.848" stroke="white" stroke-width="13.6398" stroke-linecap="round"/>
<line x1="762.946" y1="206.837" x2="762.946" y2="250.837" stroke="white" stroke-width="13.6398" stroke-linecap="round"/>
<line x1="779.57" y1="216.568" x2="779.57" y2="241.106" stroke="white" stroke-width="13.6398" stroke-linecap="round"/>
<line x1="796.194" y1="206.837" x2="796.194" y2="250.837" stroke="white" stroke-width="13.6398" stroke-linecap="round"/>
<line x1="812.817" y1="224.054" x2="812.817" y2="233.62" stroke="white" stroke-width="13.6398" stroke-linecap="round"/>
<line x1="828.055" y1="221.059" x2="828.055" y2="236.614" stroke="white" stroke-width="13.6398" stroke-linecap="round"/>
<line x1="963.814" y1="222.557" x2="963.814" y2="238.111" stroke="white" stroke-opacity="0.25" stroke-width="13.6398" stroke-linecap="round"/>
<circle cx="888.365" cy="424.261" r="47.7393" fill="#45C3FF"/>
<path d="M904.806 425.707C905.875 425.039 905.875 423.483 904.806 422.815L882.448 408.842C881.313 408.132 879.84 408.948 879.84 410.287V438.235C879.84 439.574 881.313 440.39 882.448 439.68L904.806 425.707Z" fill="white"/>
<path d="M767.867 422.289C766.814 421.619 766.814 420.082 767.867 419.412L781.741 410.584C782.876 409.861 784.361 410.677 784.361 412.022V429.68C784.361 431.025 782.876 431.841 781.741 431.118L767.867 422.289Z" fill="white"/>
<rect width="3.40995" height="23.8696" rx="1.70497" transform="matrix(-1 0 0 1 763.902 408.916)" fill="white"/>
<path d="M1009.02 420.898C1010.07 420.228 1010.07 418.691 1009.02 418.021L995.145 409.192C994.01 408.47 992.525 409.285 992.525 410.631V428.289C992.525 429.634 994.01 430.449 995.145 429.727L1009.02 420.898Z" fill="white"/>
<rect x="1012.98" y="407.525" width="3.40995" height="23.8696" rx="1.70497" fill="white"/>
<path d="M656.67 508V506.101L662.544 500.015C663.171 499.354 663.688 498.775 664.095 498.278C664.508 497.775 664.816 497.297 665.019 496.845C665.223 496.393 665.324 495.913 665.324 495.404C665.324 494.828 665.189 494.33 664.917 493.912C664.646 493.488 664.276 493.163 663.807 492.937C663.338 492.706 662.81 492.59 662.222 492.59C661.6 492.59 661.058 492.717 660.594 492.971C660.131 493.226 659.775 493.584 659.526 494.048C659.278 494.511 659.153 495.054 659.153 495.675H656.653C656.653 494.619 656.896 493.695 657.382 492.903C657.868 492.112 658.535 491.499 659.382 491.064C660.23 490.623 661.193 490.403 662.273 490.403C663.363 490.403 664.324 490.62 665.155 491.056C665.991 491.485 666.644 492.073 667.113 492.819C667.582 493.559 667.816 494.395 667.816 495.328C667.816 495.972 667.695 496.602 667.452 497.218C667.215 497.834 666.799 498.521 666.206 499.278C665.612 500.029 664.787 500.942 663.731 502.016L660.281 505.627V505.754H668.096V508H656.67ZM671.083 504.609V502.49L678.584 490.64H680.254V493.76H679.195L673.829 502.253V502.389H684.111V504.609H671.083ZM679.313 508V503.965L679.33 502.999V490.64H681.814V508H679.313ZM689.28 505.847C688.817 505.847 688.419 505.683 688.085 505.355C687.752 505.022 687.585 504.621 687.585 504.152C687.585 503.688 687.752 503.293 688.085 502.965C688.419 502.632 688.817 502.465 689.28 502.465C689.744 502.465 690.142 502.632 690.475 502.965C690.809 503.293 690.976 503.688 690.976 504.152C690.976 504.463 690.896 504.748 690.738 505.008C690.586 505.262 690.382 505.466 690.128 505.618C689.874 505.771 689.591 505.847 689.28 505.847ZM689.28 497.15C688.817 497.15 688.419 496.986 688.085 496.659C687.752 496.325 687.585 495.924 687.585 495.455C687.585 494.991 687.752 494.596 688.085 494.268C688.419 493.935 688.817 493.768 689.28 493.768C689.744 493.768 690.142 493.935 690.475 494.268C690.809 494.596 690.976 494.991 690.976 495.455C690.976 495.766 690.896 496.051 690.738 496.311C690.586 496.565 690.382 496.769 690.128 496.921C689.874 497.074 689.591 497.15 689.28 497.15ZM700.892 508.237C699.728 508.237 698.688 508.037 697.772 507.636C696.863 507.234 696.142 506.678 695.611 505.966C695.085 505.248 694.803 504.417 694.763 503.474H697.425C697.459 503.988 697.631 504.434 697.942 504.813C698.258 505.186 698.671 505.474 699.179 505.677C699.688 505.881 700.253 505.983 700.875 505.983C701.558 505.983 702.163 505.864 702.689 505.627C703.22 505.389 703.635 505.059 703.935 504.635C704.234 504.205 704.384 503.711 704.384 503.151C704.384 502.569 704.234 502.058 703.935 501.617C703.641 501.171 703.209 500.82 702.638 500.566C702.073 500.312 701.389 500.185 700.587 500.185H699.12V498.049H700.587C701.231 498.049 701.796 497.933 702.282 497.701C702.773 497.469 703.158 497.147 703.435 496.735C703.711 496.317 703.85 495.828 703.85 495.268C703.85 494.732 703.728 494.265 703.485 493.87C703.248 493.469 702.909 493.155 702.468 492.929C702.033 492.703 701.519 492.59 700.926 492.59C700.36 492.59 699.832 492.694 699.34 492.903C698.854 493.107 698.459 493.401 698.154 493.785C697.849 494.164 697.685 494.619 697.662 495.15H695.128C695.156 494.212 695.433 493.387 695.958 492.675C696.49 491.963 697.19 491.406 698.061 491.005C698.931 490.604 699.897 490.403 700.959 490.403C702.073 490.403 703.033 490.62 703.841 491.056C704.655 491.485 705.282 492.059 705.723 492.776C706.17 493.494 706.39 494.279 706.384 495.133C706.39 496.105 706.119 496.93 705.571 497.608C705.028 498.286 704.305 498.741 703.401 498.973V499.108C704.553 499.283 705.446 499.741 706.079 500.481C706.718 501.222 707.034 502.14 707.029 503.236C707.034 504.191 706.769 505.047 706.232 505.805C705.701 506.562 704.974 507.158 704.053 507.593C703.132 508.023 702.078 508.237 700.892 508.237ZM710.744 508V506.101L716.618 500.015C717.246 499.354 717.763 498.775 718.17 498.278C718.582 497.775 718.89 497.297 719.093 496.845C719.297 496.393 719.399 495.913 719.399 495.404C719.399 494.828 719.263 494.33 718.992 493.912C718.721 493.488 718.35 493.163 717.881 492.937C717.412 492.706 716.884 492.59 716.296 492.59C715.675 492.59 715.132 492.717 714.669 492.971C714.205 493.226 713.849 493.584 713.601 494.048C713.352 494.511 713.228 495.054 713.228 495.675H710.727C710.727 494.619 710.97 493.695 711.456 492.903C711.942 492.112 712.609 491.499 713.457 491.064C714.304 490.623 715.268 490.403 716.347 490.403C717.438 490.403 718.398 490.62 719.229 491.056C720.065 491.485 720.718 492.073 721.187 492.819C721.656 493.559 721.891 494.395 721.891 495.328C721.891 495.972 721.769 496.602 721.526 497.218C721.289 497.834 720.874 498.521 720.28 499.278C719.687 500.029 718.862 500.942 717.805 502.016L714.355 505.627V505.754H722.17V508H710.744Z" fill="#F4F7FC"/>
<path d="M1070.71 508.237C1069.55 508.237 1068.51 508.037 1067.59 507.636C1066.68 507.234 1065.96 506.678 1065.43 505.966C1064.91 505.248 1064.62 504.417 1064.59 503.474H1067.25C1067.28 503.988 1067.45 504.434 1067.76 504.813C1068.08 505.186 1068.49 505.474 1069 505.678C1069.51 505.881 1070.07 505.983 1070.7 505.983C1071.38 505.983 1071.99 505.864 1072.51 505.627C1073.04 505.389 1073.46 505.059 1073.76 504.635C1074.06 504.206 1074.21 503.711 1074.21 503.152C1074.21 502.57 1074.06 502.058 1073.76 501.617C1073.46 501.171 1073.03 500.821 1072.46 500.566C1071.89 500.312 1071.21 500.185 1070.41 500.185H1068.94V498.049H1070.41C1071.05 498.049 1071.62 497.933 1072.1 497.701C1072.6 497.47 1072.98 497.147 1073.26 496.735C1073.53 496.317 1073.67 495.828 1073.67 495.269C1073.67 494.732 1073.55 494.265 1073.31 493.87C1073.07 493.469 1072.73 493.155 1072.29 492.929C1071.86 492.703 1071.34 492.59 1070.75 492.59C1070.18 492.59 1069.65 492.695 1069.16 492.904C1068.68 493.107 1068.28 493.401 1067.98 493.785C1067.67 494.164 1067.51 494.619 1067.48 495.15H1064.95C1064.98 494.212 1065.25 493.387 1065.78 492.675C1066.31 491.963 1067.01 491.406 1067.88 491.005C1068.75 490.604 1069.72 490.403 1070.78 490.403C1071.89 490.403 1072.86 490.621 1073.66 491.056C1074.48 491.485 1075.1 492.059 1075.55 492.776C1075.99 493.494 1076.21 494.28 1076.21 495.133C1076.21 496.105 1075.94 496.93 1075.39 497.608C1074.85 498.286 1074.13 498.741 1073.22 498.973V499.108C1074.38 499.284 1075.27 499.741 1075.9 500.482C1076.54 501.222 1076.86 502.14 1076.85 503.236C1076.86 504.191 1076.59 505.047 1076.05 505.805C1075.52 506.562 1074.8 507.158 1073.88 507.593C1072.95 508.023 1071.9 508.237 1070.71 508.237ZM1080.2 504.61V502.49L1087.7 490.64H1089.37V493.76H1088.31L1082.95 502.253V502.389H1093.23V504.61H1080.2ZM1088.43 508V503.965L1088.45 502.999V490.64H1090.93V508H1088.43ZM1098.4 505.847C1097.94 505.847 1097.54 505.683 1097.2 505.355C1096.87 505.022 1096.7 504.621 1096.7 504.152C1096.7 503.688 1096.87 503.293 1097.2 502.965C1097.54 502.632 1097.94 502.465 1098.4 502.465C1098.86 502.465 1099.26 502.632 1099.59 502.965C1099.93 503.293 1100.09 503.688 1100.09 504.152C1100.09 504.463 1100.02 504.748 1099.86 505.008C1099.7 505.262 1099.5 505.466 1099.25 505.618C1098.99 505.771 1098.71 505.847 1098.4 505.847ZM1098.4 497.15C1097.94 497.15 1097.54 496.986 1097.2 496.659C1096.87 496.325 1096.7 495.924 1096.7 495.455C1096.7 494.992 1096.87 494.596 1097.2 494.268C1097.54 493.935 1097.94 493.768 1098.4 493.768C1098.86 493.768 1099.26 493.935 1099.59 494.268C1099.93 494.596 1100.09 494.992 1100.09 495.455C1100.09 495.766 1100.02 496.051 1099.86 496.311C1099.7 496.565 1099.5 496.769 1099.25 496.921C1098.99 497.074 1098.71 497.15 1098.4 497.15ZM1110.01 508.288C1108.67 508.283 1107.53 507.929 1106.58 507.229C1105.63 506.528 1104.9 505.508 1104.4 504.169C1103.9 502.829 1103.64 501.216 1103.64 499.329C1103.64 497.447 1103.9 495.839 1104.4 494.506C1104.91 493.172 1105.64 492.155 1106.59 491.454C1107.54 490.753 1108.68 490.403 1110.01 490.403C1111.34 490.403 1112.48 490.756 1113.43 491.463C1114.38 492.163 1115.1 493.18 1115.61 494.514C1116.11 495.842 1116.37 497.447 1116.37 499.329C1116.37 501.222 1116.12 502.838 1115.61 504.177C1115.11 505.511 1114.38 506.531 1113.44 507.237C1112.49 507.938 1111.34 508.288 1110.01 508.288ZM1110.01 506.025C1111.19 506.025 1112.1 505.452 1112.77 504.304C1113.43 503.157 1113.77 501.499 1113.77 499.329C1113.77 497.888 1113.61 496.67 1113.31 495.675C1113.01 494.675 1112.58 493.918 1112.01 493.404C1111.45 492.884 1110.78 492.624 1110.01 492.624C1108.84 492.624 1107.92 493.2 1107.26 494.353C1106.59 495.506 1106.25 497.164 1106.25 499.329C1106.25 500.775 1106.4 501.999 1106.7 502.999C1107 503.994 1107.43 504.748 1107.99 505.262C1108.55 505.771 1109.23 506.025 1110.01 506.025ZM1125.93 508.288C1124.59 508.283 1123.45 507.929 1122.5 507.229C1121.55 506.528 1120.82 505.508 1120.32 504.169C1119.82 502.829 1119.56 501.216 1119.56 499.329C1119.56 497.447 1119.82 495.839 1120.32 494.506C1120.83 493.172 1121.56 492.155 1122.51 491.454C1123.46 490.753 1124.6 490.403 1125.93 490.403C1127.26 490.403 1128.4 490.756 1129.35 491.463C1130.3 492.163 1131.02 493.18 1131.52 494.514C1132.03 495.842 1132.29 497.447 1132.29 499.329C1132.29 501.222 1132.04 502.838 1131.53 504.177C1131.03 505.511 1130.3 506.531 1129.35 507.237C1128.41 507.938 1127.26 508.288 1125.93 508.288ZM1125.93 506.025C1127.11 506.025 1128.02 505.452 1128.68 504.304C1129.35 503.157 1129.69 501.499 1129.69 499.329C1129.69 497.888 1129.53 496.67 1129.23 495.675C1128.93 494.675 1128.5 493.918 1127.93 493.404C1127.37 492.884 1126.7 492.624 1125.93 492.624C1124.76 492.624 1123.84 493.2 1123.18 494.353C1122.51 495.506 1122.17 497.164 1122.17 499.329C1122.17 500.775 1122.32 501.999 1122.62 502.999C1122.92 503.994 1123.35 504.748 1123.91 505.262C1124.47 505.771 1125.14 506.025 1125.93 506.025Z" fill="#F4F7FC"/>
<path d="M271.13 192.847C271.365 193.76 271.483 194.969 271.483 196.472V218.58C271.483 220.083 271.395 221.321 271.188 222.323C271.012 223.325 270.54 224.092 269.773 224.593C269.007 225.094 267.798 225.359 266.088 225.359H264.318V190.223H265.999C267.68 190.223 268.889 190.429 269.626 190.842C270.392 191.255 270.864 191.933 271.1 192.847H271.13Z" fill="#45C3FF"/>
<path d="M287.641 169H151.95C141.188 169 131.458 173.363 124.411 180.407C117.364 187.452 113 197.18 113 207.939C113 218.697 121.462 235.912 133.846 242.426C131.133 253.509 122.258 264.71 122.258 264.71C137.03 262.058 148.559 253.126 155.105 246.877H287.612C309.136 246.877 326.562 229.456 326.562 207.939C326.562 186.421 309.136 169 287.612 169H287.641ZM182.88 227.57C181.789 229.515 180.256 231.048 178.28 232.168C176.305 233.288 173.946 233.848 171.233 233.848C168.521 233.848 165.395 233.288 163.272 232.168C161.149 231.048 159.528 229.309 158.437 226.951C157.346 224.593 156.756 221.527 156.609 217.784L166.191 216.339C166.221 218.521 166.427 220.26 166.781 221.586C167.135 222.913 167.636 223.885 168.285 224.475C168.934 225.064 169.7 225.359 170.644 225.359C171.587 225.359 172.59 224.976 172.944 224.18C173.297 223.384 173.474 222.559 173.474 221.675C173.474 219.582 172.973 217.813 171.971 216.369C170.968 214.924 169.612 213.48 167.902 212.006L163.508 208.174C161.592 206.553 159.97 204.696 158.643 202.633C157.316 200.569 156.668 198.005 156.668 194.969C156.668 191.933 157.936 187.393 160.501 185.094C163.036 182.825 166.516 181.675 170.909 181.675C175.302 181.675 175.804 182.147 177.455 183.06C179.106 183.974 180.344 185.183 181.199 186.656C182.054 188.13 182.644 189.693 182.939 191.343C183.263 192.994 183.44 194.556 183.47 196.059L173.828 197.239C173.799 195.735 173.681 194.438 173.533 193.318C173.386 192.198 173.091 191.343 172.619 190.754C172.147 190.164 171.44 189.84 170.496 189.84C169.553 189.84 168.698 190.282 168.196 191.166C167.725 192.051 167.489 192.935 167.489 193.79C167.489 195.676 167.931 197.209 168.845 198.388C169.73 199.567 170.909 200.835 172.383 202.102L176.57 205.787C178.782 207.673 180.639 209.796 182.172 212.183C183.706 214.571 184.472 217.518 184.472 221.026C184.472 224.534 183.942 225.566 182.851 227.511L182.88 227.57ZM212.896 233.112H189.957V182.382H212.749V190.017H201.161V202.603H210.007V210.356H201.161V225.507H212.867V233.082L212.896 233.112ZM245.536 233.112H237.959L227.55 206.818V233.112H217.968V182.382H225.87L236.278 206.818V182.382H245.536V233.112ZM282.983 216.84C282.983 220.643 282.481 223.738 281.479 226.126C280.476 228.513 278.766 230.282 276.319 231.431C273.872 232.551 270.451 233.112 266.087 233.112H253.114V182.382H265.97C270.392 182.382 273.842 182.942 276.319 184.033C278.796 185.153 280.506 186.863 281.508 189.221C282.511 191.579 283.012 194.645 283.012 198.388V216.811L282.983 216.84Z" fill="#45C3FF"/>
<path d="M159.115 304.15V242.544H176.334C178.9 242.544 181.347 242.751 183.647 243.134C186.124 243.546 188.364 244.401 190.31 245.61C192.374 246.907 193.996 248.734 195.176 251.092C196.296 253.362 196.856 256.31 196.856 259.847C196.856 263.384 196.443 264.74 195.647 266.597C194.881 268.366 193.819 269.839 192.433 270.989C192.669 271.136 192.876 271.284 193.082 271.461C194.94 272.876 196.325 274.762 197.269 277.091C198.154 279.301 198.596 281.925 198.596 284.931C198.596 287.938 198.154 290.974 197.298 293.362C196.414 295.838 195.058 297.931 193.347 299.522C191.637 301.114 189.514 302.323 187.038 303.089C184.679 303.826 181.996 304.18 178.988 304.18H159.086L159.115 304.15ZM176.747 290.473C178.074 290.473 179.784 290.267 180.492 289.353C181.2 288.41 181.583 286.789 181.583 284.666C181.583 282.544 181.288 281.07 181.023 280.392C180.757 279.685 180.374 279.213 179.843 278.918C179.371 278.653 178.428 278.329 176.688 278.329H176.541V290.444H176.747V290.473ZM176.541 265.212C178.457 265.212 179.283 264.887 179.637 264.681C180.109 264.416 180.374 264.033 180.551 263.502C180.816 262.618 180.964 261.498 180.964 260.171C180.964 258.845 180.787 258.226 180.433 257.577C180.138 257.017 179.725 256.634 179.136 256.339C178.487 256.015 177.602 255.838 176.541 255.809V265.182V265.212Z" fill="white"/>
<path d="M176.334 244.991C178.752 244.991 181.052 245.167 183.234 245.551C185.416 245.934 187.332 246.641 189.013 247.673C190.694 248.734 192.021 250.208 192.964 252.153C193.908 254.099 194.409 256.634 194.409 259.817C194.409 263.001 194.055 264.032 193.406 265.595C192.728 267.157 191.785 268.395 190.546 269.338C189.308 270.281 187.834 270.9 186.094 271.225C188.276 271.519 190.134 272.227 191.637 273.347C193.141 274.497 194.261 276.029 195.028 277.945C195.795 279.861 196.178 282.161 196.178 284.872C196.178 287.584 195.795 290.355 195.028 292.477C194.261 294.6 193.141 296.339 191.696 297.695C190.251 299.051 188.453 300.053 186.33 300.701C184.207 301.35 181.76 301.674 179.018 301.674H161.592V244.961H176.364M174.094 267.658H176.541C178.457 267.658 179.902 267.363 180.875 266.774C181.848 266.184 182.526 265.329 182.88 264.209C183.234 263.089 183.411 261.733 183.411 260.142C183.411 258.55 183.145 257.4 182.615 256.398C182.084 255.396 181.288 254.629 180.226 254.128C179.165 253.627 177.868 253.362 176.275 253.362H174.094V267.658ZM174.094 292.949H176.747C179.489 292.949 181.406 292.242 182.467 290.856C183.529 289.441 184.03 287.407 184.03 284.696C184.03 281.984 183.794 280.834 183.322 279.596C182.851 278.329 182.084 277.415 181.023 276.825C179.961 276.236 178.487 275.941 176.688 275.941H174.094V292.949ZM176.334 240.068H156.638V306.597H178.988C182.231 306.597 185.18 306.184 187.745 305.388C190.576 304.504 193.023 303.118 194.999 301.261C197.004 299.375 198.566 296.987 199.598 294.128C200.571 291.475 201.043 288.351 201.043 284.872C201.043 281.394 200.542 278.594 199.539 276.118C198.684 274.025 197.505 272.197 196.001 270.724C196.738 269.78 197.357 268.719 197.859 267.54C198.802 265.359 199.274 262.765 199.274 259.817C199.274 256.87 198.625 252.625 197.328 249.972C195.972 247.201 194.026 245.05 191.578 243.517C189.367 242.131 186.831 241.188 184.03 240.716C181.583 240.304 178.988 240.097 176.305 240.097L176.334 240.068ZM178.988 286.523V282.455C179.077 282.986 179.106 283.723 179.106 284.696C179.106 285.668 179.047 286.081 178.988 286.523Z" fill="black"/>
<path d="M200.277 304.15V242.544H230.676V255.986H217.732V265.153H227.609V278.742H217.732V290.768H230.823V304.15H200.277Z" fill="white"/>
<path d="M228.229 244.991V253.539H215.284V267.599H225.162V276.295H215.284V293.244H228.376V301.704H202.753V244.991H228.258M233.123 240.068H197.829V306.597H233.27V288.321H220.179V281.188H230.057V262.706H220.179V258.432H233.123V240.068Z" fill="black"/>
<path d="M236.691 304.15V256.752H228.14V242.544H262.697V256.752H254.205V304.15H236.691Z" fill="white"/>
<path d="M260.22 244.991V254.305H251.758V301.704H239.138V254.305H230.587V244.991H260.22ZM265.144 240.068H225.722V259.198H234.273V306.597H256.682V259.198H265.144V240.068Z" fill="black"/>
<path d="M267.857 304.15V256.752H259.306V242.544H293.833V256.752H285.371V304.15H267.857Z" fill="white"/>
<path d="M291.386 244.991V254.305H282.924V301.704H270.304V254.305H261.753V244.991H291.386ZM296.31 240.068H256.888V259.198H265.439V306.597H287.848V259.198H296.31V240.068Z" fill="black"/>
<path d="M293.922 304.15V242.544H324.321V255.986H311.347V265.153H321.225V278.742H311.347V290.768H324.439V304.15H293.922Z" fill="white"/>
<path d="M321.844 244.991V253.539H308.9V267.599H318.778V276.295H308.9V293.244H321.992V301.704H296.369V244.991H321.874M326.768 240.068H291.474V306.597H326.916V288.321H313.824V281.188H323.702V262.706H313.824V258.432H326.768V240.068Z" fill="black"/>
<path d="M348.086 304.15L342.661 282.013V304.15H325.206V242.544H343.28C347.319 242.544 350.917 243.016 353.924 243.9C357.227 244.902 359.88 246.73 361.767 249.324C363.625 251.918 364.568 255.485 364.568 259.965C364.568 264.445 364.362 264.711 363.949 266.686C363.507 268.867 362.652 270.783 361.443 272.404C360.558 273.554 359.438 274.585 358.082 275.47L366.219 304.15H348.086ZM343.693 266.627C345.285 266.627 346.111 266.332 346.494 266.067C346.995 265.742 347.349 265.271 347.555 264.622C347.88 263.679 348.027 262.5 348.027 261.085C348.027 259.67 347.703 257.695 347.084 256.752C346.671 256.133 345.727 255.838 344.223 255.838H342.602V266.627H343.663H343.693Z" fill="white"/>
<path d="M343.28 244.991C347.113 244.991 350.415 245.403 353.217 246.258C356.018 247.084 358.2 248.616 359.762 250.768C361.325 252.949 362.121 256.015 362.121 259.965C362.121 263.915 361.944 264.386 361.561 266.184C361.178 268.012 360.499 269.574 359.497 270.901C358.494 272.227 357.05 273.347 355.192 274.231L362.976 301.674H350.032L343.811 276.265H340.243V301.674H327.712V244.961H343.339M340.214 269.073H343.722C345.491 269.073 346.877 268.749 347.85 268.13C348.823 267.511 349.531 266.597 349.914 265.388C350.297 264.209 350.504 262.765 350.504 261.085C350.504 258.668 350.062 256.781 349.177 255.425C348.292 254.069 346.671 253.392 344.282 253.392H340.214V269.073ZM343.28 240.068H322.758V306.597H345.108V302.323L345.256 302.883L346.17 306.626H369.463L367.694 300.377L360.912 276.472C361.885 275.705 362.711 274.85 363.418 273.907C364.863 271.991 365.866 269.751 366.367 267.216C366.809 265.064 367.016 262.647 367.016 259.994C367.016 254.983 365.925 250.945 363.743 247.909C361.531 244.843 358.465 242.721 354.632 241.571C351.388 240.599 347.555 240.098 343.28 240.098V240.068ZM345.108 264.003V258.344C345.138 258.344 345.167 258.344 345.197 258.344C345.373 258.727 345.58 259.552 345.58 261.055C345.58 262.559 345.403 263.355 345.226 263.826C345.226 263.915 345.167 263.944 345.167 263.974C345.167 263.974 345.138 263.974 345.079 263.974L345.108 264.003Z" fill="black"/>
<path d="M259.778 367.819V306.213H290.147V319.655H277.203V328.822H287.081V342.411H277.203V354.467H290.295V367.819H259.778Z" fill="white"/>
<path d="M287.7 308.66V317.208H274.756V331.268H284.634V339.964H274.756V356.913H287.848V365.373H262.225V308.66H287.73M292.624 303.767H257.33V370.295H292.772V352.02H279.68V344.887H289.558V326.405H279.68V322.131H292.624V303.767Z" fill="black"/>
<path d="M323.348 367.819L322.906 352.079L320.163 367.819H308.133L305.096 351.342L304.743 367.819H290.826L291.887 306.213H309.755L314.06 328.91L318.689 306.213H336.056L337.118 367.819H323.348Z" fill="white"/>
<path d="M333.638 308.66L334.611 365.373H325.707L324.645 327.643L318.07 365.373H310.168L303.15 327.348L302.325 365.373H293.302L294.275 308.66H307.721L313.942 341.644L320.665 308.66H333.609M338.474 303.767H316.684L315.888 307.687L314.148 316.206L312.556 307.776L311.79 303.796H289.469L289.381 308.63L288.408 365.343L288.319 370.325H339.624L339.535 365.343L338.562 308.63L338.474 303.796V303.767Z" fill="black"/>
<path d="M362.003 367.819L360.116 355.852H355.958L353.983 367.819H337.117L348.764 306.213H367.133L378.633 367.819H362.032H362.003ZM358.229 343.472L358.022 341.998L357.816 343.472H358.229Z" fill="white"/>
<path d="M365.099 308.66L375.684 365.373H364.126L362.239 353.405H353.895L351.919 365.373H340.095L350.799 308.66H365.099ZM355.015 345.918H361.03L358.022 323.781L355.015 345.918ZM369.168 303.767H346.73L345.963 307.776L335.26 364.489L334.169 370.295H356.106L356.784 366.198L358.052 358.416L359.29 366.169L359.939 370.295H381.581L380.49 364.489L369.905 307.776L369.168 303.767Z" fill="black"/>
<path d="M396.471 306.213H379.016V367.819H396.471V306.213Z" fill="white"/>
<path d="M394.024 308.66V365.373H381.493V308.66H394.024ZM398.919 303.767H376.569V370.295H398.919V303.767Z" fill="black"/>
<path d="M400.039 367.819V306.213H417.465V354.467H430.497V367.819H400.039Z" fill="white"/>
<path d="M415.018 308.66V356.884H428.05V365.343H402.486V308.63H415.018M419.942 303.767H397.592V370.295H432.974V352.02H419.942V303.796V303.767Z" fill="black"/>
<path d="M448.011 368.674C444.06 368.674 440.699 367.937 437.957 366.493C435.097 364.99 432.915 362.632 431.47 359.507C430.114 356.589 429.377 352.816 429.229 348.306L429.17 346.125L443.146 344.032C442.999 343.914 442.852 343.767 442.704 343.649L437.81 339.374C435.48 337.4 433.505 335.13 431.913 332.624C430.202 329.913 429.318 326.611 429.318 322.72C429.318 317.208 431.028 312.875 434.419 309.868C437.721 306.921 442.173 305.417 447.687 305.417C453.201 305.417 453.997 306.036 456.208 307.275C458.449 308.513 460.159 310.193 461.339 312.227C462.43 314.113 463.196 316.147 463.58 318.24C463.963 320.185 464.169 322.101 464.228 323.929L464.287 326.169L449.899 327.938C450.252 328.262 450.606 328.616 451.019 328.969L455.678 333.096C458.331 335.336 460.572 337.93 462.4 340.76C464.346 343.796 465.349 347.569 465.349 351.961C465.349 356.353 464.641 357.886 463.226 360.391C461.811 362.956 459.747 364.99 457.152 366.463C454.557 367.937 451.52 368.674 448.07 368.674H448.011ZM444.857 346.567C444.886 348.778 445.092 350.576 445.446 351.873C445.8 353.258 446.242 353.759 446.39 353.906C446.596 354.083 446.862 354.26 447.363 354.26C447.864 354.26 447.658 354.26 447.746 354.26C447.953 353.73 448.07 353.199 448.07 352.609C448.07 350.782 447.658 349.308 446.832 348.1C446.272 347.304 445.623 346.508 444.827 345.712V346.626L444.857 346.567ZM447.245 319.537C446.95 319.537 446.921 319.566 446.832 319.743C446.478 320.362 446.331 320.952 446.331 321.512C446.331 323.074 446.655 324.282 447.333 325.167C447.687 325.638 448.07 326.11 448.513 326.582V325.403C448.424 323.811 448.336 322.425 448.188 321.276C448.041 320.215 447.805 319.743 447.658 319.566C447.658 319.566 447.51 319.507 447.245 319.507V319.537Z" fill="white"/>
<path d="M447.658 307.894C450.695 307.894 453.142 308.395 454.97 309.426C456.828 310.458 458.213 311.784 459.186 313.465C460.13 315.115 460.808 316.884 461.162 318.711C461.516 320.568 461.722 322.308 461.752 323.988L450.96 325.314C450.901 323.634 450.813 322.19 450.636 320.952C450.459 319.714 450.134 318.77 449.633 318.092C449.132 317.414 448.336 317.09 447.245 317.09C446.154 317.09 445.21 317.591 444.68 318.564C444.149 319.537 443.884 320.539 443.884 321.512C443.884 323.605 444.385 325.314 445.387 326.67C446.39 327.997 447.717 329.382 449.338 330.826L454.027 334.953C456.503 337.046 458.597 339.433 460.307 342.086C462.017 344.739 462.872 348.041 462.872 351.961C462.872 355.881 462.253 357.031 461.044 359.212C459.835 361.394 458.125 363.103 455.884 364.371C453.673 365.638 451.049 366.257 448.012 366.257C444.975 366.257 441.495 365.638 439.107 364.371C436.719 363.103 434.92 361.158 433.711 358.534C432.502 355.911 431.824 352.492 431.677 348.276L442.38 346.655C442.439 349.072 442.645 351.047 443.058 352.551C443.441 354.054 444.002 355.115 444.739 355.763C445.476 356.412 446.331 356.736 447.363 356.736C448.395 356.736 449.515 356.294 449.928 355.41C450.311 354.525 450.518 353.582 450.518 352.609C450.518 350.281 449.958 348.306 448.837 346.685C447.717 345.063 446.213 343.442 444.296 341.821L439.402 337.547C437.249 335.719 435.451 333.656 433.977 331.357C432.502 329.058 431.765 326.198 431.765 322.779C431.765 319.36 433.18 314.29 436.041 311.755C438.901 309.22 442.763 307.952 447.658 307.952M447.658 303C441.525 303 436.512 304.71 432.768 308.07C428.846 311.578 426.871 316.501 426.871 322.75C426.871 328.999 427.873 330.856 429.849 333.951C431.559 336.663 433.711 339.109 436.217 341.232L437.544 342.381L430.969 343.354L426.664 344.002L426.812 348.365C426.989 353.258 427.785 357.237 429.288 360.509C430.969 364.135 433.505 366.876 436.837 368.645C439.933 370.266 443.677 371.091 448.012 371.091C452.346 371.091 455.353 370.236 458.302 368.556C461.309 366.847 463.668 364.489 465.319 361.541C466.941 358.652 467.767 355.41 467.767 351.902C467.767 348.394 466.646 342.823 464.435 339.375C462.489 336.338 460.071 333.568 457.24 331.18L455.53 329.677L462.341 328.851L466.764 328.291L466.646 323.84C466.587 321.895 466.351 319.861 465.968 317.768C465.526 315.381 464.671 313.111 463.432 310.989C462.017 308.571 459.983 306.597 457.358 305.123C454.793 303.678 451.52 302.971 447.658 302.971V303Z" fill="black"/>
<path d="M240.848 380.612C238.43 380.612 236.396 379.139 235.629 376.839L223.629 340.819C223.57 340.613 223.393 340.465 223.216 340.406L186.3 328.085C184.001 327.319 182.526 325.255 182.526 322.838C182.526 320.421 184.03 318.358 186.33 317.621L262.667 292.684C263.227 292.507 263.817 292.418 264.407 292.418C266.146 292.418 267.798 293.244 268.83 294.659C269.862 296.074 270.186 297.842 269.655 299.522L246.155 376.692C245.448 379.021 243.325 380.583 240.878 380.583L240.848 380.612Z" fill="#B337F0"/>
<path d="M264.377 294.836C266.353 294.836 267.945 296.781 267.326 298.815L243.826 375.985C243.384 377.429 242.116 378.166 240.878 378.166C239.639 378.166 238.43 377.458 237.959 376.044L225.958 340.023C225.663 339.109 224.926 338.372 224.012 338.078L187.096 325.756C184.266 324.813 184.295 320.804 187.096 319.891L263.434 294.953C263.758 294.836 264.082 294.806 264.407 294.806M264.377 290.001C263.552 290.001 262.697 290.149 261.901 290.385L185.563 315.322C182.29 316.383 180.108 319.419 180.079 322.838C180.079 326.258 182.261 329.294 185.504 330.384L221.565 342.411L233.3 377.576C234.391 380.878 237.339 383 240.819 383C244.298 383 247.394 380.73 248.426 377.37L271.926 300.2C272.663 297.783 272.22 295.219 270.717 293.185C269.213 291.151 266.825 289.972 264.348 289.972L264.377 290.001Z" fill="black"/>
<path d="M249.074 313.907L219.855 338.343C219.648 338.52 219.589 338.785 219.737 338.933L224.631 343.826C224.779 343.973 225.044 343.914 225.221 343.708L249.546 314.379C249.93 313.966 249.487 313.553 249.074 313.907Z" fill="black"/>
<path d="M702.968 107V91.429H700.162V88.37H709.891V91.429H707.108V107H702.968ZM711.6 107V88.37H715.717V95.914H718.615V88.37H722.732V107H718.615V98.858H715.717V107H711.6ZM725.569 107V88.37H733.941V91.176H729.686V95.799H732.929V98.651H729.686V104.217H733.987V107H725.569ZM741.672 107L741.994 88.37H746.41L748.457 99.203L750.665 88.37H754.92L755.242 107H752.321L751.976 94.603L749.814 107H747.215L744.915 94.511L744.639 107H741.672ZM757.958 107V88.37H762.075V107H757.958ZM769.798 107.276C768.633 107.276 767.659 107.069 766.877 106.655C766.095 106.241 765.505 105.605 765.106 104.746C764.708 103.872 764.485 102.745 764.439 101.365L767.958 100.836C767.974 101.633 768.043 102.277 768.165 102.768C768.303 103.259 768.487 103.611 768.717 103.826C768.963 104.041 769.254 104.148 769.591 104.148C770.021 104.148 770.297 104.002 770.419 103.711C770.557 103.42 770.626 103.113 770.626 102.791C770.626 102.024 770.442 101.38 770.074 100.859C769.706 100.322 769.208 99.7857 768.579 99.249L766.969 97.846C766.264 97.248 765.666 96.5733 765.175 95.822C764.7 95.0553 764.462 94.1123 764.462 92.993C764.462 91.4137 764.93 90.21 765.865 89.382C766.801 88.5387 768.073 88.117 769.683 88.117C770.68 88.117 771.477 88.2857 772.075 88.623C772.689 88.9603 773.149 89.405 773.455 89.957C773.777 90.4937 773.992 91.0687 774.099 91.682C774.222 92.28 774.291 92.855 774.306 93.407L770.764 93.844C770.749 93.292 770.711 92.8167 770.649 92.418C770.603 92.004 770.496 91.6897 770.327 91.475C770.159 91.245 769.898 91.13 769.545 91.13C769.162 91.13 768.878 91.291 768.694 91.613C768.526 91.935 768.441 92.257 768.441 92.579C768.441 93.269 768.602 93.8363 768.924 94.281C769.262 94.7103 769.699 95.1627 770.235 95.638L771.776 96.995C772.589 97.685 773.271 98.467 773.823 99.341C774.391 100.215 774.674 101.296 774.674 102.584C774.674 103.458 774.475 104.255 774.076 104.976C773.678 105.681 773.11 106.241 772.374 106.655C771.654 107.069 770.795 107.276 769.798 107.276ZM781.231 107.276C780.066 107.276 779.092 107.069 778.31 106.655C777.528 106.241 776.938 105.605 776.539 104.746C776.14 103.872 775.918 102.745 775.872 101.365L779.391 100.836C779.406 101.633 779.475 102.277 779.598 102.768C779.736 103.259 779.92 103.611 780.15 103.826C780.395 104.041 780.687 104.148 781.024 104.148C781.453 104.148 781.729 104.002 781.852 103.711C781.99 103.42 782.059 103.113 782.059 102.791C782.059 102.024 781.875 101.38 781.507 100.859C781.139 100.322 780.641 99.7857 780.012 99.249L778.402 97.846C777.697 97.248 777.099 96.5733 776.608 95.822C776.133 95.0553 775.895 94.1123 775.895 92.993C775.895 91.4137 776.363 90.21 777.298 89.382C778.233 88.5387 779.506 88.117 781.116 88.117C782.113 88.117 782.91 88.2857 783.508 88.623C784.121 88.9603 784.581 89.405 784.888 89.957C785.21 90.4937 785.425 91.0687 785.532 91.682C785.655 92.28 785.724 92.855 785.739 93.407L782.197 93.844C782.182 93.292 782.143 92.8167 782.082 92.418C782.036 92.004 781.929 91.6897 781.76 91.475C781.591 91.245 781.331 91.13 780.978 91.13C780.595 91.13 780.311 91.291 780.127 91.613C779.958 91.935 779.874 92.257 779.874 92.579C779.874 93.269 780.035 93.8363 780.357 94.281C780.694 94.7103 781.131 95.1627 781.668 95.638L783.209 96.995C784.022 97.685 784.704 98.467 785.256 99.341C785.823 100.215 786.107 101.296 786.107 102.584C786.107 103.458 785.908 104.255 785.509 104.976C785.11 105.681 784.543 106.241 783.807 106.655C783.086 107.069 782.228 107.276 781.231 107.276ZM788.124 107V88.37H792.241V107H788.124ZM795.019 107V88.37H797.917L801.735 97.34V88.37H805.139V107H802.356L798.538 97.34V107H795.019ZM812.764 107.276C811.476 107.276 810.456 107.008 809.705 106.471C808.969 105.934 808.44 105.183 808.118 104.217C807.811 103.236 807.658 102.109 807.658 100.836V94.58C807.658 93.2613 807.827 92.119 808.164 91.153C808.501 90.187 809.076 89.4433 809.889 88.922C810.717 88.3853 811.836 88.117 813.247 88.117C814.627 88.117 815.708 88.347 816.49 88.807C817.287 89.267 817.855 89.9033 818.192 90.716C818.529 91.5287 818.698 92.4793 818.698 93.568V94.764H814.673V93.246C814.673 92.8473 814.642 92.4793 814.581 92.142C814.535 91.8047 814.412 91.5363 814.213 91.337C814.029 91.1223 813.722 91.015 813.293 91.015C812.848 91.015 812.526 91.1377 812.327 91.383C812.128 91.613 811.997 91.9043 811.936 92.257C811.89 92.6097 811.867 92.9777 811.867 93.361V101.986C811.867 102.4 811.905 102.791 811.982 103.159C812.074 103.512 812.227 103.803 812.442 104.033C812.672 104.248 812.994 104.355 813.408 104.355C813.837 104.355 814.167 104.24 814.397 104.01C814.627 103.78 814.788 103.481 814.88 103.113C814.972 102.745 815.018 102.354 815.018 101.94V99.755H813.339V97.34H818.721V107H816.007L815.777 105.459C815.532 105.98 815.171 106.417 814.696 106.77C814.221 107.107 813.577 107.276 812.764 107.276ZM831.806 107.276C830.61 107.276 829.667 107.092 828.977 106.724C828.287 106.356 827.796 105.819 827.505 105.114C827.213 104.393 827.068 103.512 827.068 102.469C827.068 102.423 827.068 102.377 827.068 102.331C827.068 102.27 827.068 102.216 827.068 102.17H830.656C830.656 102.921 830.717 103.481 830.84 103.849C830.978 104.202 831.307 104.378 831.829 104.378C832.181 104.378 832.442 104.271 832.611 104.056C832.779 103.841 832.887 103.466 832.933 102.929C832.994 102.377 833.025 101.626 833.025 100.675V99.019C832.825 99.341 832.519 99.5863 832.105 99.755C831.706 99.9237 831.254 100.023 830.748 100.054C829.766 100.069 828.977 99.824 828.379 99.318C827.781 98.812 827.351 98.1297 827.091 97.271C826.83 96.4123 826.7 95.477 826.7 94.465C826.7 93.1617 826.861 92.0423 827.183 91.107C827.52 90.1563 828.064 89.4203 828.816 88.899C829.567 88.3777 830.564 88.117 831.806 88.117C833.032 88.117 834.021 88.3623 834.773 88.853C835.524 89.3437 836.068 90.0337 836.406 90.923C836.758 91.797 836.935 92.832 836.935 94.028V100.974C836.935 102.185 836.789 103.266 836.498 104.217C836.222 105.168 835.716 105.919 834.98 106.471C834.244 107.008 833.186 107.276 831.806 107.276ZM831.852 97.11C832.158 97.11 832.404 97.0257 832.588 96.857C832.772 96.6883 832.917 96.5273 833.025 96.374V93.338C833.025 92.9087 832.994 92.5177 832.933 92.165C832.871 91.797 832.756 91.5057 832.588 91.291C832.419 91.061 832.158 90.946 831.806 90.946C831.468 90.946 831.215 91.0687 831.047 91.314C830.878 91.544 830.763 91.8967 830.702 92.372C830.656 92.832 830.633 93.407 830.633 94.097C830.633 94.695 830.648 95.224 830.679 95.684C830.725 96.1287 830.832 96.4813 831.001 96.742C831.169 96.9873 831.453 97.11 831.852 97.11ZM844.527 107.276C843.315 107.276 842.326 107.015 841.56 106.494C840.808 105.957 840.256 105.229 839.904 104.309C839.551 103.389 839.375 102.339 839.375 101.158V94.419C839.375 93.2077 839.513 92.1267 839.789 91.176C840.08 90.2253 840.594 89.4817 841.33 88.945C842.066 88.393 843.124 88.117 844.504 88.117C845.7 88.117 846.643 88.301 847.333 88.669C848.023 89.037 848.513 89.5737 848.805 90.279C849.096 90.9843 849.242 91.8583 849.242 92.901C849.242 92.9623 849.242 93.0237 849.242 93.085C849.257 93.131 849.265 93.177 849.265 93.223H845.654C845.654 92.4717 845.592 91.9197 845.47 91.567C845.362 91.199 845.048 91.015 844.527 91.015C844.174 91.015 843.906 91.1223 843.722 91.337C843.553 91.5517 843.438 91.9273 843.377 92.464C843.315 93.0007 843.285 93.752 843.285 94.718V96.374C843.469 96.052 843.768 95.8067 844.182 95.638C844.596 95.454 845.063 95.3543 845.585 95.339C846.566 95.3083 847.348 95.5307 847.931 96.006C848.529 96.4813 848.958 97.133 849.219 97.961C849.479 98.7737 849.61 99.686 849.61 100.698C849.61 102.001 849.456 103.151 849.15 104.148C848.843 105.129 848.322 105.896 847.586 106.448C846.85 107 845.83 107.276 844.527 107.276ZM844.573 104.447C844.925 104.447 845.178 104.332 845.332 104.102C845.5 103.857 845.608 103.504 845.654 103.044C845.715 102.569 845.746 101.986 845.746 101.296C845.746 100.683 845.723 100.154 845.677 99.709C845.646 99.2643 845.546 98.9193 845.378 98.674C845.209 98.4133 844.925 98.283 844.527 98.283C844.343 98.283 844.166 98.3213 843.998 98.398C843.829 98.4747 843.683 98.5743 843.561 98.697C843.438 98.8043 843.346 98.9117 843.285 99.019V102.055C843.285 102.469 843.315 102.86 843.377 103.228C843.453 103.596 843.584 103.895 843.768 104.125C843.967 104.34 844.235 104.447 844.573 104.447ZM857.819 107V88.37H864.075C865.195 88.37 866.115 88.5847 866.835 89.014C867.556 89.428 868.093 90.0413 868.445 90.854C868.798 91.6513 868.974 92.625 868.974 93.775C868.974 95.2163 868.737 96.3203 868.261 97.087C867.786 97.8383 867.142 98.3597 866.329 98.651C865.517 98.9423 864.604 99.088 863.592 99.088H861.936V107H857.819ZM861.936 96.213H863.316C863.822 96.213 864.206 96.121 864.466 95.937C864.727 95.753 864.896 95.477 864.972 95.109C865.064 94.741 865.11 94.2733 865.11 93.706C865.11 93.2307 865.072 92.8167 864.995 92.464C864.934 92.096 864.773 91.8047 864.512 91.59C864.252 91.3753 863.845 91.268 863.293 91.268H861.936V96.213ZM870.959 107V88.37H879.331V91.176H875.076V95.799H878.319V98.651H875.076V104.217H879.377V107H870.959ZM881.246 107V88.37H886.375C887.632 88.37 888.721 88.508 889.641 88.784C890.561 89.06 891.274 89.5583 891.78 90.279C892.301 90.9843 892.562 91.9887 892.562 93.292C892.562 94.0587 892.501 94.741 892.378 95.339C892.255 95.937 892.025 96.4583 891.688 96.903C891.366 97.3323 890.898 97.6927 890.285 97.984L892.838 107H888.583L886.536 98.651H885.363V107H881.246ZM885.363 96.282H886.513C887.096 96.282 887.548 96.1823 887.87 95.983C888.192 95.7683 888.414 95.4693 888.537 95.086C888.675 94.6873 888.744 94.212 888.744 93.66C888.744 92.8627 888.598 92.2417 888.307 91.797C888.016 91.3523 887.479 91.13 886.697 91.13H885.363V96.282ZM900.193 107.276C898.783 107.276 897.663 107.023 896.835 106.517C896.023 105.996 895.448 105.275 895.11 104.355C894.773 103.42 894.604 102.323 894.604 101.066V94.35C894.604 93.062 894.773 91.958 895.11 91.038C895.448 90.1027 896.023 89.382 896.835 88.876C897.663 88.37 898.783 88.117 900.193 88.117C901.573 88.117 902.647 88.347 903.413 88.807C904.195 89.2517 904.747 89.8803 905.069 90.693C905.391 91.5057 905.552 92.441 905.552 93.499V95.109H901.527V93.246C901.527 92.878 901.504 92.5253 901.458 92.188C901.428 91.8507 901.32 91.5747 901.136 91.36C900.952 91.13 900.638 91.015 900.193 91.015C899.764 91.015 899.442 91.13 899.227 91.36C899.028 91.59 898.898 91.8813 898.836 92.234C898.79 92.5713 898.767 92.9317 898.767 93.315V102.078C898.767 102.492 898.798 102.875 898.859 103.228C898.936 103.565 899.074 103.841 899.273 104.056C899.488 104.255 899.795 104.355 900.193 104.355C900.623 104.355 900.929 104.248 901.113 104.033C901.297 103.803 901.412 103.512 901.458 103.159C901.504 102.806 901.527 102.446 901.527 102.078V100.123H905.552V101.733C905.552 102.791 905.391 103.742 905.069 104.585C904.763 105.413 904.218 106.072 903.436 106.563C902.67 107.038 901.589 107.276 900.193 107.276ZM907.817 107V88.37H916.189V91.176H911.934V95.799H915.177V98.651H911.934V104.217H916.235V107H907.817ZM918.104 107V88.37H921.002L924.82 97.34V88.37H928.224V107H925.441L921.623 97.34V107H918.104ZM932.676 107V91.429H929.87V88.37H939.599V91.429H936.816V107H932.676ZM952.46 107.276C951.065 107.276 949.961 107.031 949.148 106.54C948.335 106.049 947.753 105.344 947.4 104.424C947.047 103.504 946.871 102.408 946.871 101.135V94.212C946.871 92.924 947.047 91.8277 947.4 90.923C947.753 90.0183 948.335 89.3283 949.148 88.853C949.961 88.3623 951.065 88.117 952.46 88.117C953.871 88.117 954.982 88.3623 955.795 88.853C956.623 89.3283 957.213 90.0183 957.566 90.923C957.919 91.8277 958.095 92.924 958.095 94.212V101.135C958.095 102.408 957.919 103.504 957.566 104.424C957.213 105.344 956.623 106.049 955.795 106.54C954.982 107.031 953.871 107.276 952.46 107.276ZM952.46 104.355C952.889 104.355 953.204 104.248 953.403 104.033C953.602 103.818 953.733 103.542 953.794 103.205C953.855 102.868 953.886 102.523 953.886 102.17V93.2C953.886 92.832 953.855 92.487 953.794 92.165C953.733 91.8277 953.602 91.5517 953.403 91.337C953.204 91.1223 952.889 91.015 952.46 91.015C952.061 91.015 951.762 91.1223 951.563 91.337C951.364 91.5517 951.233 91.8277 951.172 92.165C951.111 92.487 951.08 92.832 951.08 93.2V102.17C951.08 102.523 951.103 102.868 951.149 103.205C951.21 103.542 951.333 103.818 951.517 104.033C951.716 104.248 952.031 104.355 952.46 104.355ZM960.601 107V88.37H968.651V91.153H964.718V95.845H968.145V98.72H964.718V107H960.601ZM978.137 107V91.429H975.331V88.37H985.06V91.429H982.277V107H978.137ZM986.769 107V88.37H990.886V95.914H993.784V88.37H997.901V107H993.784V98.858H990.886V107H986.769ZM1000.74 107V88.37H1009.11V91.176H1004.86V95.799H1008.1V98.651H1004.86V104.217H1009.16V107H1000.74ZM1022.29 107.276C1020.87 107.276 1019.75 107.046 1018.93 106.586C1018.14 106.111 1017.58 105.428 1017.26 104.539C1016.93 103.634 1016.77 102.53 1016.77 101.227V88.37H1020.84V101.848C1020.84 102.231 1020.87 102.615 1020.94 102.998C1021 103.381 1021.13 103.696 1021.33 103.941C1021.54 104.186 1021.86 104.309 1022.29 104.309C1022.74 104.309 1023.06 104.186 1023.26 103.941C1023.46 103.696 1023.58 103.381 1023.63 102.998C1023.69 102.615 1023.72 102.231 1023.72 101.848V88.37H1027.81V101.227C1027.81 102.53 1027.64 103.634 1027.31 104.539C1026.98 105.428 1026.42 106.111 1025.63 106.586C1024.83 107.046 1023.72 107.276 1022.29 107.276ZM1030.43 107V88.37H1033.33L1037.15 97.34V88.37H1040.55V107H1037.77L1033.95 97.34V107H1030.43ZM1043.35 107V88.37H1047.46V107H1043.35ZM1052.73 107L1049.37 88.37H1052.89L1054.89 101.02L1056.75 88.37H1060.48L1057.07 107H1052.73ZM1062.35 107V88.37H1070.72V91.176H1066.47V95.799H1069.71V98.651H1066.47V104.217H1070.77V107H1062.35ZM1072.64 107V88.37H1077.76C1079.02 88.37 1080.11 88.508 1081.03 88.784C1081.95 89.06 1082.66 89.5583 1083.17 90.279C1083.69 90.9843 1083.95 91.9887 1083.95 93.292C1083.95 94.0587 1083.89 94.741 1083.77 95.339C1083.65 95.937 1083.42 96.4583 1083.08 96.903C1082.76 97.3323 1082.29 97.6927 1081.67 97.984L1084.23 107H1079.97L1077.93 98.651H1076.75V107H1072.64ZM1076.75 96.282H1077.9C1078.49 96.282 1078.94 96.1823 1079.26 95.983C1079.58 95.7683 1079.8 95.4693 1079.93 95.086C1080.06 94.6873 1080.13 94.212 1080.13 93.66C1080.13 92.8627 1079.99 92.2417 1079.7 91.797C1079.41 91.3523 1078.87 91.13 1078.09 91.13H1076.75V96.282ZM1091.28 107.276C1090.12 107.276 1089.14 107.069 1088.36 106.655C1087.58 106.241 1086.99 105.605 1086.59 104.746C1086.19 103.872 1085.97 102.745 1085.92 101.365L1089.44 100.836C1089.46 101.633 1089.53 102.277 1089.65 102.768C1089.79 103.259 1089.97 103.611 1090.2 103.826C1090.45 104.041 1090.74 104.148 1091.07 104.148C1091.5 104.148 1091.78 104.002 1091.9 103.711C1092.04 103.42 1092.11 103.113 1092.11 102.791C1092.11 102.024 1091.93 101.38 1091.56 100.859C1091.19 100.322 1090.69 99.7857 1090.06 99.249L1088.45 97.846C1087.75 97.248 1087.15 96.5733 1086.66 95.822C1086.18 95.0553 1085.95 94.1123 1085.95 92.993C1085.95 91.4137 1086.41 90.21 1087.35 89.382C1088.28 88.5387 1089.56 88.117 1091.17 88.117C1092.16 88.117 1092.96 88.2857 1093.56 88.623C1094.17 88.9603 1094.63 89.405 1094.94 89.957C1095.26 90.4937 1095.48 91.0687 1095.58 91.682C1095.71 92.28 1095.77 92.855 1095.79 93.407L1092.25 93.844C1092.23 93.292 1092.19 92.8167 1092.13 92.418C1092.09 92.004 1091.98 91.6897 1091.81 91.475C1091.64 91.245 1091.38 91.13 1091.03 91.13C1090.65 91.13 1090.36 91.291 1090.18 91.613C1090.01 91.935 1089.92 92.257 1089.92 92.579C1089.92 93.269 1090.09 93.8363 1090.41 94.281C1090.75 94.7103 1091.18 95.1627 1091.72 95.638L1093.26 96.995C1094.07 97.685 1094.75 98.467 1095.31 99.341C1095.87 100.215 1096.16 101.296 1096.16 102.584C1096.16 103.458 1095.96 104.255 1095.56 104.976C1095.16 105.681 1094.59 106.241 1093.86 106.655C1093.14 107.069 1092.28 107.276 1091.28 107.276ZM1098.15 107V88.37H1106.52V91.176H1102.27V95.799H1105.51V98.651H1102.27V104.217H1106.57V107H1098.15Z" fill="white"/>
<path d="M832.621 152.124V139.404H827.701V138.124H839.021V139.404H834.101V152.124H832.621ZM846.445 141.524C847.299 141.524 848.045 141.691 848.685 142.024C849.339 142.344 849.845 142.837 850.205 143.504C850.579 144.171 850.765 145.011 850.765 146.024V152.124H849.345V146.164C849.345 145.057 849.065 144.224 848.505 143.664C847.959 143.091 847.185 142.804 846.185 142.804C845.439 142.804 844.785 142.957 844.225 143.264C843.679 143.557 843.252 143.991 842.945 144.564C842.652 145.124 842.505 145.804 842.505 146.604V152.124H841.085V137.284H842.505V144.504L842.225 143.964C842.559 143.204 843.092 142.611 843.825 142.184C844.559 141.744 845.432 141.524 846.445 141.524ZM859.061 152.224C857.968 152.224 857.008 151.997 856.181 151.544C855.354 151.077 854.708 150.444 854.241 149.644C853.774 148.831 853.541 147.904 853.541 146.864C853.541 145.824 853.761 144.904 854.201 144.104C854.654 143.304 855.268 142.677 856.041 142.224C856.828 141.757 857.708 141.524 858.681 141.524C859.668 141.524 860.541 141.751 861.301 142.204C862.074 142.644 862.681 143.271 863.121 144.084C863.561 144.884 863.781 145.811 863.781 146.864C863.781 146.931 863.774 147.004 863.761 147.084C863.761 147.151 863.761 147.224 863.761 147.304H854.621V146.244H863.001L862.441 146.664C862.441 145.904 862.274 145.231 861.941 144.644C861.621 144.044 861.181 143.577 860.621 143.244C860.061 142.911 859.414 142.744 858.681 142.744C857.961 142.744 857.314 142.911 856.741 143.244C856.168 143.577 855.721 144.044 855.401 144.644C855.081 145.244 854.921 145.931 854.921 146.704V146.924C854.921 147.724 855.094 148.431 855.441 149.044C855.801 149.644 856.294 150.117 856.921 150.464C857.561 150.797 858.288 150.964 859.101 150.964C859.741 150.964 860.334 150.851 860.881 150.624C861.441 150.397 861.921 150.051 862.321 149.584L863.121 150.504C862.654 151.064 862.068 151.491 861.361 151.784C860.668 152.077 859.901 152.224 859.061 152.224ZM872.206 152.124V138.124H873.686V152.124H872.206ZM883.301 141.524C884.154 141.524 884.901 141.691 885.541 142.024C886.194 142.344 886.701 142.837 887.061 143.504C887.434 144.171 887.621 145.011 887.621 146.024V152.124H886.201V146.164C886.201 145.057 885.921 144.224 885.361 143.664C884.814 143.091 884.041 142.804 883.041 142.804C882.294 142.804 881.641 142.957 881.081 143.264C880.534 143.557 880.108 143.991 879.801 144.564C879.508 145.124 879.361 145.804 879.361 146.604V152.124H877.941V141.624H879.301V144.504L879.081 143.964C879.414 143.204 879.948 142.611 880.681 142.184C881.414 141.744 882.288 141.524 883.301 141.524ZM891.757 152.124V138.124H897.797C899.357 138.124 900.563 138.437 901.417 139.064C902.283 139.691 902.717 140.577 902.717 141.724C902.717 142.484 902.537 143.124 902.177 143.644C901.83 144.164 901.35 144.557 900.737 144.824C900.137 145.091 899.477 145.224 898.757 145.224L899.097 144.744C899.99 144.744 900.757 144.884 901.397 145.164C902.05 145.431 902.557 145.837 902.917 146.384C903.277 146.917 903.457 147.584 903.457 148.384C903.457 149.571 903.017 150.491 902.137 151.144C901.27 151.797 899.957 152.124 898.197 152.124H891.757ZM893.237 150.904H898.177C899.403 150.904 900.343 150.697 900.997 150.284C901.65 149.857 901.977 149.184 901.977 148.264C901.977 147.357 901.65 146.697 900.997 146.284C900.343 145.857 899.403 145.644 898.177 145.644H893.077V144.424H897.697C898.817 144.424 899.683 144.211 900.297 143.784C900.923 143.357 901.237 142.724 901.237 141.884C901.237 141.031 900.923 140.397 900.297 139.984C899.683 139.557 898.817 139.344 897.697 139.344H893.237V150.904ZM910.815 152.224C909.801 152.224 908.888 151.997 908.075 151.544C907.275 151.077 906.641 150.444 906.175 149.644C905.708 148.831 905.475 147.904 905.475 146.864C905.475 145.811 905.708 144.884 906.175 144.084C906.641 143.284 907.275 142.657 908.075 142.204C908.875 141.751 909.788 141.524 910.815 141.524C911.855 141.524 912.775 141.751 913.575 142.204C914.388 142.657 915.021 143.284 915.475 144.084C915.941 144.884 916.175 145.811 916.175 146.864C916.175 147.904 915.941 148.831 915.475 149.644C915.021 150.444 914.388 151.077 913.575 151.544C912.761 151.997 911.841 152.224 910.815 152.224ZM910.815 150.964C911.575 150.964 912.248 150.797 912.835 150.464C913.421 150.117 913.881 149.637 914.215 149.024C914.561 148.397 914.735 147.677 914.735 146.864C914.735 146.037 914.561 145.317 914.215 144.704C913.881 144.091 913.421 143.617 912.835 143.284C912.248 142.937 911.581 142.764 910.835 142.764C910.088 142.764 909.421 142.937 908.835 143.284C908.248 143.617 907.781 144.091 907.435 144.704C907.088 145.317 906.915 146.037 906.915 146.864C906.915 147.677 907.088 148.397 907.435 149.024C907.781 149.637 908.248 150.117 908.835 150.464C909.421 150.797 910.081 150.964 910.815 150.964ZM917.103 152.124L921.543 146.364L921.523 147.064L917.303 141.624H918.903L922.363 146.124L921.763 146.104L925.223 141.624H926.783L922.523 147.124L922.543 146.364L927.023 152.124H925.403L921.743 147.324L922.303 147.404L918.703 152.124H917.103ZM941.001 152.244C939.947 152.244 938.974 152.071 938.081 151.724C937.187 151.364 936.414 150.864 935.761 150.224C935.107 149.584 934.594 148.831 934.221 147.964C933.861 147.097 933.681 146.151 933.681 145.124C933.681 144.097 933.861 143.151 934.221 142.284C934.594 141.417 935.107 140.664 935.761 140.024C936.427 139.384 937.207 138.891 938.101 138.544C938.994 138.184 939.967 138.004 941.021 138.004C942.034 138.004 942.987 138.177 943.881 138.524C944.774 138.857 945.527 139.364 946.141 140.044L945.201 140.984C944.627 140.397 943.994 139.977 943.301 139.724C942.607 139.457 941.861 139.324 941.061 139.324C940.221 139.324 939.441 139.471 938.721 139.764C938.001 140.044 937.374 140.451 936.841 140.984C936.307 141.504 935.887 142.117 935.581 142.824C935.287 143.517 935.141 144.284 935.141 145.124C935.141 145.964 935.287 146.737 935.581 147.444C935.887 148.137 936.307 148.751 936.841 149.284C937.374 149.804 938.001 150.211 938.721 150.504C939.441 150.784 940.221 150.924 941.061 150.924C941.861 150.924 942.607 150.791 943.301 150.524C943.994 150.257 944.627 149.831 945.201 149.244L946.141 150.184C945.527 150.864 944.774 151.377 943.881 151.724C942.987 152.071 942.027 152.244 941.001 152.244ZM948.996 152.124V137.284H950.416V152.124H948.996ZM958.707 152.224C957.813 152.224 957.033 152.057 956.367 151.724C955.7 151.391 955.18 150.891 954.807 150.224C954.447 149.557 954.267 148.724 954.267 147.724V141.624H955.687V147.564C955.687 148.684 955.96 149.531 956.507 150.104C957.067 150.664 957.847 150.944 958.847 150.944C959.58 150.944 960.213 150.797 960.747 150.504C961.293 150.197 961.707 149.757 961.987 149.184C962.28 148.611 962.427 147.924 962.427 147.124V141.624H963.847V152.124H962.487V149.244L962.707 149.764C962.373 150.537 961.853 151.144 961.147 151.584C960.453 152.011 959.64 152.224 958.707 152.224ZM973.224 152.224C972.304 152.224 971.478 152.017 970.744 151.604C970.011 151.177 969.431 150.564 969.004 149.764C968.578 148.964 968.364 147.997 968.364 146.864C968.364 145.717 968.578 144.751 969.004 143.964C969.444 143.164 970.031 142.557 970.764 142.144C971.498 141.731 972.318 141.524 973.224 141.524C974.224 141.524 975.118 141.751 975.904 142.204C976.704 142.644 977.331 143.264 977.784 144.064C978.238 144.864 978.464 145.797 978.464 146.864C978.464 147.917 978.238 148.851 977.784 149.664C977.331 150.464 976.704 151.091 975.904 151.544C975.118 151.997 974.224 152.224 973.224 152.224ZM967.804 152.124V137.284H969.224V144.724L969.024 146.844L969.164 148.964V152.124H967.804ZM973.124 150.964C973.871 150.964 974.538 150.797 975.124 150.464C975.711 150.117 976.178 149.637 976.524 149.024C976.871 148.397 977.044 147.677 977.044 146.864C977.044 146.037 976.871 145.317 976.524 144.704C976.178 144.091 975.711 143.617 975.124 143.284C974.538 142.937 973.871 142.764 973.124 142.764C972.378 142.764 971.704 142.937 971.104 143.284C970.518 143.617 970.051 144.091 969.704 144.704C969.371 145.317 969.204 146.037 969.204 146.864C969.204 147.677 969.371 148.397 969.704 149.024C970.051 149.637 970.518 150.117 971.104 150.464C971.704 150.797 972.378 150.964 973.124 150.964Z" fill="#CCCCCC"/>
<defs>
<filter id="filter0_d_24_573" x="0" y="0" width="1231" height="587" filterUnits="userSpaceOnUse" color-interpolation-filters="sRGB">
<feFlood flood-opacity="0" result="BackgroundImageFix"/>
<feColorMatrix in="SourceAlpha" type="matrix" values="0 0 0 0 0 0 0 0 0 0 0 0 0 0 0 0 0 0 127 0" result="hardAlpha"/>
<feOffset dx="21" dy="21"/>
<feGaussianBlur stdDeviation="2"/>
<feComposite in2="hardAlpha" operator="out"/>
<feColorMatrix type="matrix" values="0 0 0 0 0 0 0 0 0 0 0 0 0 0 0 0 0 0 0.25 0"/>
<feBlend mode="normal" in2="BackgroundImageFix" result="effect1_dropShadow_24_573"/>
<feBlend mode="normal" in="SourceGraphic" in2="effect1_dropShadow_24_573" result="shape"/>
</filter>
</defs>
</svg>
