<svg width="77" height="85" viewBox="0 0 77 85" fill="none" xmlns="http://www.w3.org/2000/svg">
<g opacity="0.12">
<path d="M57.8264 38.5895C64.9347 38.5895 69.7249 43.6236 69.7249 51.0824C69.7249 57.7944 64.2193 63.3862 56.7624 63.3862C48.5946 63.3862 42.5593 56.6742 42.5593 46.4218C42.5593 23.1187 59.248 13.7975 69.7249 12.6772V22.9297C62.6211 24.2343 54.6344 31.5041 54.2767 39.5254C54.6344 39.341 56.0515 38.5895 57.8264 38.5895ZM21.6102 38.5895C28.7094 38.5895 33.5042 43.6236 33.5042 51.0824C33.5042 57.7944 27.9986 63.3862 20.5417 63.3862C12.3739 63.3862 6.33862 56.6742 6.33862 46.4218C6.33862 23.1187 23.0273 13.7975 33.5042 12.6772V22.9297C26.4004 24.2343 18.4137 31.5041 18.056 39.5254C18.4137 39.341 19.8308 38.5895 21.6102 38.5895Z" fill="white"/>
</g>
</svg>
