<svg width="188" height="188" viewBox="0 0 188 188" fill="none" xmlns="http://www.w3.org/2000/svg">
<path d="M81.7708 160.515C125.26 160.515 160.515 125.26 160.515 81.7708C160.515 38.2817 125.26 3.02686 81.7708 3.02686C38.2817 3.02686 3.02686 38.2817 3.02686 81.7708C3.02686 125.26 38.2817 160.515 81.7708 160.515Z" stroke="white" stroke-width="6.05393" stroke-linecap="round" stroke-linejoin="round"/>
<path d="M131.828 157.52L153.734 179.425C160.814 186.549 172.323 186.549 179.425 179.425C186.549 172.344 186.549 160.836 179.425 153.733L157.52 131.828L148.792 123.1" stroke="white" stroke-width="6.05393" stroke-linecap="round" stroke-linejoin="round"/>
<path d="M66.625 146.653V42.4097C66.625 40.7412 67.9941 39.3721 69.6627 39.3721H93.8998C95.5684 39.3721 96.9375 40.7412 96.9375 42.4097V146.653" stroke="white" stroke-width="6.05393" stroke-linecap="round" stroke-linejoin="round"/>
<path d="M21.1885 109.494V72.7003C21.1885 71.0317 22.5576 69.6626 24.2261 69.6626H48.4633C50.1318 69.6626 51.5009 71.0317 51.5009 72.7003V141.112" stroke="white" stroke-width="6.05393" stroke-linecap="round" stroke-linejoin="round"/>
<path d="M112.041 141.112V84.8082C112.041 83.1396 113.41 81.7705 115.078 81.7705H139.315C140.984 81.7705 142.353 83.1396 142.353 84.8082V109.495" stroke="white" stroke-width="6.05393" stroke-linecap="round" stroke-linejoin="round"/>
</svg>
