<svg width="218" height="175" viewBox="0 0 218 175" fill="none" xmlns="http://www.w3.org/2000/svg">
<path d="M217.984 27.6171V164.44C217.984 167.093 216.915 169.489 215.139 171.2C215.096 171.307 214.99 171.35 214.904 171.435C213.193 173.061 210.882 174.024 208.337 174.024H9.60501C6.9524 174.024 4.55649 172.954 2.84513 171.179C1.09099 169.467 0 167.071 0 164.419V27.6171C0 25.7132 1.56162 24.1943 3.48689 24.1943H214.498C216.401 24.1943 217.984 25.7132 217.984 27.6171ZM211.075 164.44V31.0826H6.90961V164.44C6.90961 165.168 7.2091 165.852 7.70112 166.344C8.19313 166.836 8.87768 167.136 9.60501 167.136H208.337C209.064 167.136 209.663 166.9 210.155 166.451L210.262 166.344C210.754 165.852 211.096 165.168 211.096 164.44H211.075Z" fill="white"/>
<path d="M9.60501 0H208.337C210.989 0 213.385 1.0696 215.139 2.84514C216.893 4.59928 217.984 7.01657 217.984 9.605V27.6171C217.984 29.5209 216.423 31.104 214.498 31.104H3.48689C1.58301 31.104 0 29.5423 0 27.6171V9.605C0 7.01657 1.0696 4.62067 2.84513 2.84514C4.55649 1.09099 6.9524 0 9.60501 0ZM208.337 6.90961H9.60501C8.87768 6.90961 8.19313 7.25189 7.70112 7.7439V7.70112C7.2091 8.19313 6.90961 8.87768 6.90961 9.605V24.1943H211.075V9.605C211.075 8.87768 210.733 8.19313 210.283 7.70112C209.791 7.2091 209.107 6.90961 208.315 6.90961H208.337Z" fill="white"/>
<path fill-rule="evenodd" clip-rule="evenodd" d="M17.9693 12.0864C19.8732 12.0864 21.4562 13.6053 21.4562 15.5091C21.4562 17.413 19.8946 18.996 17.9693 18.996C16.044 18.996 14.4824 17.4344 14.4824 15.5091C14.4824 13.5839 16.044 12.0864 17.9693 12.0864Z" fill="white"/>
<path fill-rule="evenodd" clip-rule="evenodd" d="M32.6226 12.0864C34.5265 12.0864 36.1095 13.6053 36.1095 15.5091C36.1095 17.413 34.5479 18.996 32.6226 18.996C30.6974 18.996 29.1357 17.4344 29.1357 15.5091C29.1357 13.5839 30.6974 12.0864 32.6226 12.0864Z" fill="white"/>
<path fill-rule="evenodd" clip-rule="evenodd" d="M47.255 12.0864C49.1588 12.0864 50.7419 13.6053 50.7419 15.5091C50.7419 17.413 49.1802 18.996 47.255 18.996C45.3297 18.996 43.7681 17.4344 43.7681 15.5091C43.7681 13.5839 45.3297 12.0864 47.255 12.0864Z" fill="white"/>
<path d="M102.339 46.7627H115.667C117.335 46.7627 119.004 47.4045 120.223 48.4741C121.507 49.5437 122.384 51.0625 122.619 52.7738L123.111 56.603C124.181 56.9453 125.165 57.3303 126.149 57.7368C127.133 58.1218 128.117 58.6139 129.079 59.0631L132.16 56.71C133.529 55.6832 135.24 55.2339 136.866 55.3837C138.535 55.5334 140.139 56.218 141.316 57.3945L150.728 66.807C151.905 67.9836 152.589 69.588 152.739 71.2565C152.889 72.8823 152.439 74.5937 151.413 75.9628L149.059 79.0432C149.509 80.0272 149.979 81.0113 150.386 81.9739C150.771 82.958 151.177 83.942 151.519 84.9688L155.391 85.5036C157.06 85.7389 158.579 86.6374 159.648 87.8995C159.755 88.0065 159.798 88.092 159.841 88.199C160.825 89.4183 161.36 90.9372 161.36 92.456V105.783C161.36 107.409 160.718 109.056 159.648 110.34C158.579 111.559 157.06 112.5 155.391 112.736L151.519 113.228C151.177 114.254 150.792 115.281 150.386 116.223C150.001 117.249 149.509 118.233 149.059 119.153L151.413 122.298C152.439 123.667 152.889 125.335 152.739 127.004C152.632 128.63 151.905 130.234 150.728 131.411L141.316 140.866C140.139 142.043 138.535 142.727 136.866 142.877C135.24 142.984 133.529 142.577 132.16 141.508L129.079 139.155C128.095 139.647 127.111 140.075 126.149 140.481C125.165 140.93 124.181 141.273 123.154 141.615L122.619 145.487C122.384 147.198 121.485 148.674 120.223 149.744C118.939 150.813 117.335 151.498 115.667 151.498H102.339C100.714 151.498 99.0663 150.813 97.7828 149.744C96.5635 148.674 95.6222 147.198 95.3869 145.487L94.8949 141.615C93.8681 141.273 92.8413 140.93 91.8572 140.481C90.8732 140.096 89.8892 139.647 88.9693 139.155L85.8461 141.508C84.477 142.577 82.8084 142.984 81.1398 142.877C79.514 142.727 77.9096 142.043 76.6903 140.866L67.2778 131.411C66.1013 130.234 65.4167 128.608 65.267 127.004C65.16 125.335 65.5665 123.667 66.6361 122.298L68.9892 119.153C68.4972 118.212 68.0693 117.249 67.6629 116.223C67.2136 115.303 66.8714 114.254 66.5291 113.228L62.6571 112.736C60.9458 112.5 59.4697 111.559 58.4001 110.34C57.3305 109.078 56.646 107.409 56.646 105.783V92.456C56.646 90.7874 57.3305 89.183 58.4001 87.8995C59.427 86.6374 60.9458 85.7389 62.6571 85.5036L66.5291 84.9688C66.8714 83.942 67.2136 82.958 67.6629 81.9739C68.0479 80.9899 68.4972 80.0059 68.9892 79.0432L66.6361 75.9628C65.5665 74.5937 65.16 72.8823 65.267 71.2565C65.4167 69.588 66.1013 67.9836 67.2778 66.807L76.7331 57.3945C77.9096 56.218 79.514 55.5334 81.1398 55.3837C82.8084 55.2339 84.477 55.6832 85.8461 56.71L88.9693 59.0631C89.8892 58.6139 90.8732 58.1432 91.8572 57.7368C92.8413 57.3517 93.8681 56.9453 94.8949 56.603L95.3869 52.7738C95.6222 51.0625 96.5635 49.5437 97.7828 48.4741C99.0663 47.4045 100.671 46.7627 102.339 46.7627ZM108.992 53.6723H102.339L102.297 53.7151C102.254 53.7579 102.254 53.7151 102.254 53.7151V53.6723L101.869 56.71L101.484 59.7049C101.334 61.0312 100.35 62.2077 98.9808 62.5928C97.5047 62.9778 95.9859 63.5126 94.5312 64.1116C93.0552 64.7534 91.6861 65.4379 90.317 66.1652C89.1404 66.8498 87.6216 66.7428 86.4878 65.8658L84.1347 64.0474L81.696 62.1863L81.7388 62.2291L81.5891 62.2719L72.1766 71.6844V71.7913H72.1338L73.9521 74.1872L75.7063 76.4334C76.6475 77.503 76.84 79.086 76.0913 80.3909C75.2998 81.7172 74.6153 83.1291 74.0377 84.6051C73.4601 85.9742 72.9681 87.3433 72.5616 88.7766C72.3263 90.1884 71.1498 91.365 69.5668 91.5575L66.5719 91.8998L63.6412 92.2849V92.3277C63.5984 92.3704 63.5342 92.3704 63.5342 92.4346V105.762C63.5342 105.762 63.577 105.805 63.6412 105.869H63.5984C65.6092 106.168 67.5559 106.404 69.5668 106.66C70.9359 106.81 72.1124 107.794 72.4975 109.163C72.8825 110.639 73.3745 112.094 74.0163 113.57C74.6153 115.046 75.2998 116.458 76.0699 117.827C76.7117 119.003 76.6475 120.48 75.7704 121.656L73.9093 124.009L72.0482 126.448H72.091C72.091 126.405 72.1338 126.405 72.1338 126.405V126.555L81.5463 135.967H81.6532C81.696 135.967 81.696 136.01 81.6532 136.01L84.0491 134.192L86.3595 132.438C87.4291 131.518 89.0121 131.304 90.2742 132.053C91.6433 132.844 93.0124 133.529 94.4884 134.106C95.9003 134.684 97.2694 135.176 98.6599 135.582C100.136 135.818 101.248 136.994 101.441 138.577C101.676 140.588 101.933 142.535 102.232 144.546V144.503C102.275 144.546 102.339 144.61 102.339 144.61H115.667C115.709 144.61 115.709 144.567 115.773 144.503L115.816 144.546C116.052 142.535 116.308 140.588 116.608 138.577C116.757 137.208 117.742 136.032 119.111 135.646C120.587 135.261 122.041 134.769 123.517 134.128C124.993 133.55 126.405 132.844 127.732 132.074C128.908 131.432 130.427 131.496 131.561 132.373L133.957 134.235L136.353 136.053V136.01H136.46L145.872 126.598L145.915 126.448L145.958 126.491L144.096 124.052L142.342 121.806C141.465 120.736 141.273 119.153 142 117.891C142.727 116.522 143.412 115.11 144.054 113.634C144.631 112.265 145.081 110.896 145.466 109.527C145.765 108.051 146.942 106.938 148.46 106.724C150.471 106.489 152.482 106.232 154.429 105.933C154.472 105.89 154.472 105.826 154.472 105.826V92.456L154.429 92.4132V92.3704L151.434 91.9854L148.439 91.6431V91.6003C147.113 91.4506 145.936 90.4665 145.551 89.0975C145.166 87.6214 144.631 86.1668 144.032 84.6907C143.391 83.2147 142.706 81.8028 141.979 80.4765C141.294 79.2999 141.401 77.7811 142.278 76.6473L144.096 74.2514L145.958 71.8555H145.915L145.872 71.7486L136.46 62.3361L136.353 62.2933C136.31 62.2933 136.353 62.2933 136.353 62.2505L133.957 64.1116L131.711 65.8658C130.641 66.7428 129.058 66.9353 127.753 66.208C126.427 65.4807 125.015 64.7962 123.539 64.1544C122.17 63.5768 120.801 63.1276 119.367 62.7425C117.955 62.443 116.779 61.2665 116.586 59.7476C116.351 57.7368 116.094 55.7259 115.859 53.7151L115.816 53.7579L115.709 53.7151H109.056L108.992 53.6723Z" fill="white"/>
<path d="M108.992 70.4224C116.929 70.4224 124.116 73.6098 129.315 78.7866C134.513 83.9849 137.679 91.1726 137.679 99.109C137.679 107.045 134.491 114.19 129.315 119.389C124.116 124.587 116.929 127.817 108.992 127.817C101.056 127.817 93.9109 124.587 88.7126 119.389C83.5144 114.19 80.2842 107.045 80.2842 99.109C80.2842 91.1726 83.5144 83.9849 88.7126 78.7866C93.9109 73.5884 101.056 70.4224 108.992 70.4224ZM124.416 83.6854C120.458 79.7707 115.003 77.3106 108.992 77.3106C102.981 77.3106 97.5261 79.7493 93.6114 83.6854C89.6539 87.6429 87.1938 93.0979 87.1938 99.109C87.1938 105.12 89.6325 110.575 93.6114 114.49C97.5261 118.447 102.96 120.907 108.992 120.907C115.025 120.907 120.458 118.469 124.416 114.49C128.331 110.575 130.791 105.142 130.791 99.109C130.791 93.0765 128.352 87.6429 124.416 83.6854Z" fill="white"/>
</svg>
