<svg width="167" height="162" viewBox="0 0 167 162" fill="none" xmlns="http://www.w3.org/2000/svg">
<path d="M39.8317 74.482C41.2101 76.2407 42.0657 78.4271 42.0657 80.8512C42.0657 86.4599 37.5026 91.023 31.8939 91.023C26.2852 91.023 21.7222 86.4599 21.7222 80.8512C21.7222 75.2425 25.4772 71.535 30.3254 70.7745" stroke="white" stroke-width="4.75315" stroke-linecap="round" stroke-linejoin="round"/>
<path d="M149.961 124.2C143.782 124.2 138.792 119.209 138.792 113.03C138.792 106.851 143.782 101.86 149.961 101.86C156.141 101.86 161.131 106.851 161.131 113.03C161.131 119.209 160.846 116.025 160.276 117.308" stroke="white" stroke-width="4.75315" stroke-linecap="round" stroke-linejoin="round"/>
<path d="M22.5774 105.282L2.37646 125.483" stroke="white" stroke-width="4.75315" stroke-linecap="round" stroke-linejoin="round"/>
<path d="M6.89196 109.798L2.37646 105.282" stroke="white" stroke-width="4.75315" stroke-linecap="round" stroke-linejoin="round"/>
<path d="M22.5781 125.483L12.5015 115.407" stroke="white" stroke-width="4.75315" stroke-linecap="round" stroke-linejoin="round"/>
<path d="M164.458 3.08966L145.446 22.1023" stroke="white" stroke-width="4.75315" stroke-linecap="round" stroke-linejoin="round"/>
<path d="M164.458 22.1023L145.446 3.08966" stroke="white" stroke-width="4.75315" stroke-linecap="round" stroke-linejoin="round"/>
<path d="M12.5954 25.7147L2.47119 35.8389" stroke="white" stroke-width="4.75315" stroke-linecap="round" stroke-linejoin="round"/>
<path d="M22.6723 15.638L17.8716 20.4387" stroke="white" stroke-width="4.75315" stroke-linecap="round" stroke-linejoin="round"/>
<path d="M22.6721 35.8389L2.47119 15.638" stroke="white" stroke-width="4.75315" stroke-linecap="round" stroke-linejoin="round"/>
<path d="M101.052 116.642C101.052 109.037 107.184 102.906 114.789 102.906C122.394 102.906 120.54 103.856 122.821 105.473C127.004 96.7743 129.428 86.6025 129.428 75.7178C129.428 45.9631 111.414 21.4843 88.2185 18.0145C85.3191 17.5867 82.6573 16.1608 80.5659 14.0694L68.9683 2.37665L70.822 20.3911L43.729 50.5261L51.9044 66.2115L65.3559 57.6558L64.4528 52.7601L76.6684 52.4749L81.5641 51.5718L85.0814 62.9794L61.8385 85.747C59.3194 88.2186 57.228 91.023 55.5644 94.065L54.7563 95.5385C49.0525 105.995 49.0525 118.639 54.7563 129.096" stroke="white" stroke-width="4.75315" stroke-linecap="round" stroke-linejoin="round"/>
<path d="M25.4768 144.258H30.8004V142.595C30.8004 135.417 36.5992 129.619 43.7765 129.619H117.403C124.58 129.619 130.379 135.417 130.379 142.595V144.258H133.659C135.75 144.258 137.461 145.969 137.461 148.061V159.278H21.6743V148.061C21.6743 145.969 23.3855 144.258 25.4768 144.258Z" stroke="white" stroke-width="4.75315" stroke-linecap="round" stroke-linejoin="round"/>
<path d="M86.4595 15.2577V5.94153C120.682 7.22488 147.252 36.2666 145.494 70.4893V70.7745L141.121 74.482" stroke="white" stroke-width="4.75315" stroke-linecap="round" stroke-linejoin="round"/>
<path d="M73.2935 34.9833C74.1966 31.0857 77.809 28.2338 81.9917 28.424C82.5621 28.424 83.1325 28.519 83.7029 28.6616" stroke="white" stroke-width="4.75315" stroke-linecap="round" stroke-linejoin="round"/>
</svg>
