<svg width="175" height="175" viewBox="0 0 175 175" fill="none" xmlns="http://www.w3.org/2000/svg">
<path d="M131.757 59.3669C133.326 62.3139 134.134 65.546 134.134 69.0158C134.134 75.0523 131.9 79.9481 126.386 82.6099C122.393 84.5111 117.973 85.7469 114.646 88.789C111.033 92.1162 111.889 98.8181 113.838 102.906C114.978 105.235 116.642 107.326 117.45 109.798C118.686 113.553 117.735 117.831 115.549 121.11C109.607 129.951 97.3443 132.518 87.4102 132.518C55.6591 132.518 40.6392 109.75 40.6392 88.5988C40.6392 67.4473 55.5641 44.1093 85.7466 42.4932C97.5819 41.8278 107.564 43.3013 115.359 46.2958" stroke="white" stroke-width="4.75315" stroke-linecap="round" stroke-linejoin="round"/>
<path d="M95.7269 120.778C99.4282 120.778 102.429 117.777 102.429 114.076C102.429 110.374 99.4282 107.374 95.7269 107.374C92.0255 107.374 89.0249 110.374 89.0249 114.076C89.0249 117.777 92.0255 120.778 95.7269 120.778Z" stroke="white" stroke-width="4.75315" stroke-linecap="round" stroke-linejoin="round"/>
<path d="M90.6888 65.6886C94.3901 65.6886 97.3907 62.6881 97.3907 58.9867C97.3907 55.2853 94.3901 52.2847 90.6888 52.2847C86.9874 52.2847 83.9868 55.2853 83.9868 58.9867C83.9868 62.6881 86.9874 65.6886 90.6888 65.6886Z" stroke="white" stroke-width="4.75315" stroke-linecap="round" stroke-linejoin="round"/>
<path d="M67.303 74.0066C71.0044 74.0066 74.005 71.0061 74.005 67.3047C74.005 63.6033 71.0044 60.6027 67.303 60.6027C63.6016 60.6027 60.6011 63.6033 60.6011 67.3047C60.6011 71.0061 63.6016 74.0066 67.303 74.0066Z" stroke="white" stroke-width="4.75315" stroke-linecap="round" stroke-linejoin="round"/>
<path d="M57.2747 97.3921C60.9761 97.3921 63.9766 94.3916 63.9766 90.6902C63.9766 86.9888 60.9761 83.9882 57.2747 83.9882C53.5733 83.9882 50.5728 86.9888 50.5728 90.6902C50.5728 94.3916 53.5733 97.3921 57.2747 97.3921Z" stroke="white" stroke-width="4.75315" stroke-linecap="round" stroke-linejoin="round"/>
<path d="M70.679 117.45C74.3804 117.45 77.3809 114.45 77.3809 110.749C77.3809 107.047 74.3804 104.047 70.679 104.047C66.9776 104.047 63.9771 107.047 63.9771 110.749C63.9771 114.45 66.9776 117.45 70.679 117.45Z" stroke="white" stroke-width="4.75315" stroke-linecap="round" stroke-linejoin="round"/>
<path d="M100.052 83.4179L105.233 77.9043L133.182 48.0544C133.847 47.389 134.133 46.5334 134.133 45.6303C134.133 44.7748 133.8 43.9192 133.134 43.2538C131.851 41.9704 129.712 41.9229 128.334 43.2062L98.4839 71.2023L92.9702 76.3832" stroke="white" stroke-width="4.75315" stroke-linecap="round" stroke-linejoin="round"/>
<path d="M101.051 68.7307C102.382 69.5387 103.618 70.4894 104.759 71.5826C105.899 72.7234 106.85 73.9592 107.611 75.2901" stroke="white" stroke-width="4.75315" stroke-linecap="round" stroke-linejoin="round"/>
<path d="M97.676 90.5C92.9704 95.2056 84.6999 96.3939 79.9468 94.0649C85.8407 88.171 81.1351 83.4178 85.8407 78.7122C87.7895 76.7634 90.4037 76.0029 92.9229 76.3356C94.634 76.5733 96.2976 77.3813 97.6285 78.7122C98.9594 80.0431 99.7199 81.7067 100.005 83.4178C100.385 85.937 99.5773 88.5988 97.6285 90.5H97.676Z" stroke="white" stroke-width="4.75315" stroke-linecap="round" stroke-linejoin="round"/>
<path d="M104.425 17.4916C130.805 24.5263 151.149 44.5846 157.233 70.3467" stroke="white" stroke-width="4.75315" stroke-linecap="round" stroke-linejoin="round"/>
<path d="M87.3618 2.37659V28.7566" stroke="white" stroke-width="4.75315" stroke-linecap="round" stroke-linejoin="round"/>
<path d="M17.4897 70.2991C24.5244 43.9191 44.5827 23.5756 70.3448 17.4916" stroke="white" stroke-width="4.75315" stroke-linecap="round" stroke-linejoin="round"/>
<path d="M2.37646 87.363H28.7565" stroke="white" stroke-width="4.75315" stroke-linecap="round" stroke-linejoin="round"/>
<path d="M70.3451 157.234C43.9651 150.2 23.6216 130.141 17.5376 104.379" stroke="white" stroke-width="4.75315" stroke-linecap="round" stroke-linejoin="round"/>
<path d="M87.3618 172.349V145.969" stroke="white" stroke-width="4.75315" stroke-linecap="round" stroke-linejoin="round"/>
<path d="M157.28 104.427C150.246 130.807 130.187 151.15 104.425 157.234" stroke="white" stroke-width="4.75315" stroke-linecap="round" stroke-linejoin="round"/>
<path d="M172.349 87.363H146.016" stroke="white" stroke-width="4.75315" stroke-linecap="round" stroke-linejoin="round"/>
</svg>
