<svg width="179" height="173" viewBox="0 0 179 173" fill="none" xmlns="http://www.w3.org/2000/svg">
<path d="M109.268 63.8647C125.778 64.032 140.95 74.2952 146.639 89.9688C152.329 105.642 147.476 123.491 134.759 134.201C121.93 144.966 103.133 146.36 88.8534 137.771C74.63 129.237 66.9884 112.113 70.335 95.8255C74.1279 77.3072 90.5825 64.1436 109.324 63.9205C112.559 63.9205 112.559 58.9005 109.324 58.9005C90.6383 59.1236 73.8491 70.6696 67.2672 88.2397C60.6854 105.866 66.4306 126.503 80.9887 138.328C95.4352 150.042 116.24 151.715 132.304 142.066C148.424 132.36 156.791 113.34 153.221 94.9331C149.205 74.0721 130.352 59.1236 109.324 58.9005C106.089 58.9005 106.089 63.8647 109.324 63.9205L109.268 63.8647Z" fill="white"/>
<path d="M109.269 76.4147C120.536 76.582 130.911 83.4985 134.815 94.2079C138.72 104.862 135.485 117.021 126.895 124.384C118.193 131.802 105.42 132.862 95.5474 127.117C85.7863 121.372 80.4316 109.826 82.4954 98.6702C84.9496 85.7854 96.2726 76.6378 109.269 76.4705C112.504 76.4705 112.504 71.3947 109.269 71.4505C95.659 71.6736 83.5552 80.0403 78.9256 92.925C74.4076 105.475 78.5351 120.089 88.8541 128.511C99.2846 137.045 114.345 138.217 125.947 131.245C137.493 124.272 143.405 110.607 140.895 97.3873C137.995 82.3272 124.44 71.7294 109.325 71.5063C106.09 71.5063 106.09 76.4705 109.325 76.5263L109.269 76.4147Z" fill="white"/>
<path d="M142.791 129.069C152.217 138.496 161.7 147.978 171.126 157.404C171.572 157.851 172.074 158.241 172.465 158.743C173.859 160.695 172.465 161.867 171.182 163.205C170.066 164.321 168.895 165.939 167.556 166.831C166.162 167.779 165.158 167.277 164.042 166.385C158.688 162.034 154.058 156.4 149.15 151.492C144.353 146.695 139.556 141.898 134.759 137.101C132.472 134.814 128.958 138.384 131.245 140.615C141.118 150.488 150.6 160.919 160.919 170.289C164.712 173.747 168.951 172.465 172.186 169.229C175.365 166.05 179.939 162.48 177.485 157.349C176.481 155.285 174.361 153.556 172.744 151.994C169.62 148.87 166.552 145.803 163.429 142.679C157.739 136.99 152.05 131.3 146.361 125.611C144.074 123.324 140.56 126.894 142.847 129.125L142.791 129.069Z" fill="white"/>
<path d="M142.29 148.145C146.139 144.297 149.988 140.448 153.836 136.599C156.123 134.312 152.553 130.798 150.322 133.085C146.474 136.934 142.625 140.783 138.776 144.631C136.489 146.918 140.059 150.432 142.29 148.145Z" fill="white"/>
<path d="M28.6141 157.628H2.51001C3.34668 158.464 4.18335 159.301 5.02003 160.138V98.7818L2.51001 101.292H28.6141L26.1041 98.7818V160.138C26.1041 163.373 31.1242 163.373 31.1242 160.138V98.7818C31.1242 97.4431 29.9528 96.2718 28.6141 96.2718H2.51001C1.17134 96.2718 0 97.4431 0 98.7818V160.138C0 161.476 1.17134 162.648 2.51001 162.648H28.6141C31.8493 162.648 31.8493 157.628 28.6141 157.628Z" fill="white"/>
<path d="M71.4508 146.918V160.138C72.2875 159.301 73.1242 158.464 73.9608 157.628H47.8567C48.6934 158.464 49.53 159.301 50.3667 160.138V59.514L47.8567 62.0241H67.881C71.1161 62.0241 71.1161 57.004 67.881 57.004H47.8567C46.518 57.004 45.3467 58.1754 45.3467 59.514V160.138C45.3467 161.476 46.518 162.648 47.8567 162.648H73.9608C75.2995 162.648 76.4708 161.476 76.4708 160.138V146.918C76.4708 143.683 71.4508 143.683 71.4508 146.918Z" fill="white"/>
<path d="M116.744 152.552V160.082C117.58 159.245 118.417 158.408 119.254 157.572H93.1497C93.9863 158.408 94.823 159.245 95.6597 160.082V152.552C95.6597 149.317 90.6396 149.317 90.6396 152.552V160.082C90.6396 161.42 91.811 162.592 93.1497 162.592H119.254C120.592 162.592 121.764 161.42 121.764 160.082V152.552C121.764 149.317 116.744 149.317 116.744 152.552Z" fill="white"/>
<path d="M147.811 70.6138H164.6C163.764 69.7772 162.927 68.9405 162.09 68.1038V134.201C162.09 137.436 167.11 137.436 167.11 134.201V68.1038C167.11 66.7652 165.939 65.5938 164.6 65.5938H147.811C144.576 65.5938 144.576 70.6138 147.811 70.6138Z" fill="white"/>
<path d="M23.7054 69.5541C23.2592 79.9288 7.47401 80.0404 7.47401 69.5541C7.47401 59.0678 23.2592 59.1236 23.7054 69.5541C23.8728 72.7334 28.837 72.7892 28.7255 69.5541C28.3908 62.4145 22.9803 56.4462 15.6176 56.4462C8.25491 56.4462 2.50977 62.4145 2.50977 69.5541C2.50977 76.6937 8.47802 82.6619 15.6176 82.6619C22.7572 82.6619 28.3908 76.6379 28.7255 69.5541C28.8928 66.3189 23.8728 66.3189 23.7054 69.5541Z" fill="white"/>
<path d="M69.4437 23.816C68.9975 34.1908 53.2123 34.3023 53.2123 23.816C53.2123 13.3298 68.9975 13.3855 69.4437 23.816C69.611 26.9954 74.5753 27.0512 74.4637 23.816C74.1291 16.6764 68.7186 10.7082 61.3559 10.7082C53.9932 10.7082 48.248 16.6764 48.248 23.816C48.248 30.9556 54.2163 36.9239 61.3559 36.9239C68.4955 36.9239 74.1291 30.8998 74.4637 23.816C74.6311 20.5809 69.611 20.5809 69.4437 23.816Z" fill="white"/>
<path d="M159.301 10.8198C161.756 20.9156 146.751 25.4894 143.739 15.3936C140.727 5.35352 155.955 0.891274 159.301 10.8198C160.305 13.8318 165.158 12.5489 164.098 9.4811C161.812 2.73195 154.951 -1.50718 147.867 0.500827C141.006 2.45306 136.934 9.87154 138.887 16.7322C140.839 23.5929 148.257 27.6647 155.118 25.7125C162.202 23.6487 165.772 16.3976 164.098 9.4811C163.318 6.35752 158.521 7.6962 159.301 10.8198Z" fill="white"/>
<path d="M52.0412 29.5612C41.778 39.8244 31.5706 50.0318 21.3075 60.295C19.0206 62.5819 22.5904 66.0959 24.8215 63.809C35.0846 53.5458 45.292 43.3384 55.5552 33.0753C57.8421 30.7884 54.2723 27.2743 52.0412 29.5612Z" fill="white"/>
<path d="M144.799 21.4733C139.723 32.0154 134.648 42.5574 129.572 53.0995C128.177 56 132.472 58.51 133.867 55.6095C138.942 45.0675 144.018 34.5254 149.094 23.9833C150.489 21.0829 146.194 18.5729 144.799 21.4733Z" fill="white"/>
<path d="M83.1643 54.6055C78.3674 46.9639 73.6262 39.3781 68.8293 31.7365C67.1002 29.0034 62.8053 31.5134 64.5344 34.2465C69.3313 41.8881 74.0725 49.474 78.8694 57.1156C80.5985 59.8487 84.8934 57.3387 83.1643 54.6055Z" fill="white"/>
</svg>
