<svg width="856" height="588" viewBox="0 0 856 588" fill="none" xmlns="http://www.w3.org/2000/svg">
<rect width="855.583" height="588" fill="black"/>
<path d="M370.715 142.641C371.186 144.467 371.422 146.881 371.422 149.884V194.051C371.422 197.054 371.245 199.528 370.833 201.53C370.479 203.532 369.537 205.063 368.005 206.064C366.474 207.066 364.058 207.596 360.642 207.596H357.107V137.4H360.465C363.823 137.4 366.238 137.812 367.711 138.637C369.242 139.461 370.185 140.816 370.656 142.641H370.715Z" fill="#45C3FF"/>
<path d="M403.702 95H132.616C111.115 95 91.6758 103.716 77.5972 117.79C63.5187 131.864 54.8005 151.298 54.8005 172.792C54.8005 194.287 71.7066 228.678 96.4472 241.692C91.0279 263.834 73.2971 286.212 73.2971 286.212C102.809 280.912 125.841 263.069 138.919 250.584H403.643C446.645 250.584 481.458 215.781 481.458 172.792C481.458 129.803 446.645 95 403.643 95H403.702ZM194.408 212.012C192.229 215.899 189.166 218.961 185.219 221.199C181.272 223.437 176.56 224.556 171.14 224.556C165.721 224.556 159.477 223.437 155.236 221.199C150.994 218.961 147.755 215.487 145.575 210.776C143.396 206.064 142.217 199.94 141.923 192.461L161.067 189.576C161.126 193.933 161.539 197.408 162.246 200.058C162.952 202.708 163.954 204.651 165.25 205.829C166.546 207.007 168.077 207.596 169.962 207.596C171.847 207.596 173.85 206.83 174.557 205.24C175.264 203.65 175.617 202.001 175.617 200.234C175.617 196.053 174.616 192.52 172.613 189.634C170.61 186.749 167.901 183.863 164.484 180.919L155.707 173.263C151.878 170.024 148.638 166.314 145.987 162.192C143.337 158.07 142.041 152.947 142.041 146.881C142.041 140.816 144.574 131.747 149.698 127.153C154.764 122.619 161.715 120.322 170.492 120.322C179.269 120.322 180.271 121.264 183.57 123.09C186.868 124.916 189.342 127.33 191.051 130.274C192.759 133.219 193.937 136.34 194.526 139.638C195.174 142.936 195.528 146.057 195.586 149.06L176.324 151.416C176.265 148.412 176.03 145.821 175.735 143.583C175.441 141.346 174.851 139.638 173.909 138.46C172.966 137.282 171.553 136.634 169.668 136.634C167.783 136.634 166.074 137.518 165.073 139.284C164.131 141.051 163.659 142.818 163.659 144.526C163.659 148.294 164.543 151.357 166.369 153.712C168.136 156.068 170.492 158.6 173.438 161.132L181.802 168.493C186.22 172.262 189.931 176.502 192.995 181.272C196.058 186.042 197.589 191.931 197.589 198.939C197.589 205.947 196.529 208.008 194.349 211.894L194.408 212.012ZM254.375 223.083H208.546V121.736H254.08V136.988H230.93V162.133H248.602V177.621H230.93V207.89H254.316V223.024L254.375 223.083ZM319.584 223.083H304.445L283.651 170.554V223.083H264.507V121.736H280.294L301.088 170.554V121.736H319.584V223.083ZM394.395 190.577C394.395 198.173 393.394 204.357 391.391 209.127C389.388 213.897 385.971 217.43 381.082 219.727C376.193 221.964 369.36 223.083 360.642 223.083H334.723V121.736H360.406C369.242 121.736 376.134 122.854 381.082 125.033C386.03 127.271 389.447 130.687 391.45 135.398C393.453 140.109 394.454 146.233 394.454 153.712V190.518L394.395 190.577Z" fill="#45C3FF"/>
<path d="M146.93 365.005V241.928H181.331C186.456 241.928 191.345 242.34 195.94 243.105C200.888 243.93 205.365 245.638 209.253 248.052C213.376 250.643 216.616 254.294 218.972 259.005C221.211 263.54 222.33 269.429 222.33 276.495C222.33 283.562 221.505 286.271 219.915 289.981C218.383 293.514 216.263 296.459 213.494 298.755C213.965 299.05 214.378 299.344 214.79 299.698C218.501 302.524 221.27 306.293 223.155 310.945C224.922 315.362 225.805 320.603 225.805 326.61C225.805 332.616 224.922 338.682 223.214 343.452C221.446 348.399 218.737 352.58 215.32 355.76C211.904 358.94 207.662 361.354 202.714 362.885C198.002 364.358 192.641 365.064 186.633 365.064H146.871L146.93 365.005ZM182.156 337.681C184.807 337.681 188.223 337.269 189.637 335.443C191.051 333.559 191.816 330.32 191.816 326.08C191.816 321.84 191.227 318.895 190.697 317.541C190.167 316.128 189.401 315.185 188.341 314.596C187.399 314.066 185.514 313.419 182.038 313.419H181.744V337.622H182.156V337.681ZM181.744 287.213C185.572 287.213 187.222 286.565 187.929 286.153C188.871 285.623 189.401 284.858 189.755 283.798C190.285 282.031 190.579 279.793 190.579 277.143C190.579 274.493 190.226 273.257 189.519 271.961C188.93 270.842 188.105 270.076 186.927 269.488C185.631 268.84 183.864 268.487 181.744 268.428V287.154V287.213Z" fill="white"/>
<path d="M181.331 246.815C186.161 246.815 190.756 247.169 195.115 247.934C199.474 248.7 203.303 250.113 206.661 252.174C210.019 254.294 212.669 257.239 214.554 261.125C216.439 265.012 217.441 270.077 217.441 276.437C217.441 282.797 216.734 284.858 215.438 287.979C214.083 291.1 212.198 293.573 209.724 295.458C207.25 297.342 204.305 298.579 200.829 299.227C205.188 299.815 208.899 301.229 211.904 303.467C214.908 305.763 217.146 308.825 218.678 312.653C220.209 316.481 220.975 321.074 220.975 326.492C220.975 331.91 220.209 337.445 218.678 341.685C217.146 345.925 214.908 349.4 212.021 352.109C209.135 354.818 205.542 356.82 201.3 358.115C197.059 359.411 192.17 360.059 186.692 360.059H151.878V246.757H181.39M176.854 292.101H181.744C185.572 292.101 188.459 291.512 190.403 290.334C192.347 289.157 193.701 287.449 194.408 285.211C195.115 282.973 195.469 280.264 195.469 277.084C195.469 273.904 194.939 271.608 193.878 269.605C192.818 267.603 191.227 266.072 189.107 265.071C186.986 264.07 184.394 263.54 181.213 263.54H176.854V292.101ZM176.854 342.628H182.156C187.634 342.628 191.463 341.214 193.584 338.447C195.704 335.62 196.706 331.557 196.706 326.139C196.706 320.721 196.234 318.424 195.292 315.951C194.349 313.419 192.818 311.593 190.697 310.415C188.577 309.238 185.631 308.649 182.038 308.649H176.854V342.628ZM181.331 236.981H141.982V369.893H186.633C193.112 369.893 199.003 369.069 204.128 367.479C209.783 365.712 214.672 362.944 218.619 359.234C222.624 355.465 225.747 350.695 227.808 344.983C229.752 339.683 230.695 333.441 230.695 326.492C230.695 319.543 229.693 313.949 227.69 309.002C225.982 304.821 223.626 301.17 220.622 298.225C222.094 296.341 223.331 294.221 224.333 291.865C226.218 287.508 227.16 282.325 227.16 276.437C227.16 270.548 225.864 262.068 223.272 256.768C220.563 251.232 216.675 246.933 211.786 243.871C207.368 241.103 202.302 239.219 196.706 238.277C191.816 237.452 186.633 237.04 181.272 237.04L181.331 236.981ZM186.633 329.79V321.663C186.809 322.723 186.868 324.195 186.868 326.139C186.868 328.082 186.751 328.907 186.633 329.79Z" fill="black"/>
<path d="M229.163 365.005V241.928H289.895V268.781H264.036V287.095H283.769V314.243H264.036V338.27H290.19V365.005H229.163Z" fill="white"/>
<path d="M285.006 246.815V263.893H259.146V291.983H278.88V309.355H259.146V343.217H285.301V360.118H234.111V246.815H285.065M294.785 236.981H224.274V369.893H295.079V333.382H268.925V319.131H288.658V282.208H268.925V273.669H294.785V236.981Z" fill="black"/>
<path d="M301.912 365.005V270.312H284.829V241.928H353.868V270.312H336.903V365.005H301.912Z" fill="white"/>
<path d="M348.919 246.815V265.424H332.013V360.118H306.801V265.424H289.719V246.815H348.919ZM358.757 236.981H279.999V275.2H297.082V369.893H341.851V275.2H358.757V236.981Z" fill="black"/>
<path d="M364.176 365.005V270.312H347.093V241.928H416.073V270.312H399.166V365.005H364.176Z" fill="white"/>
<path d="M411.183 246.815V265.424H394.277V360.118H369.065V265.424H351.983V246.815H411.183ZM421.021 236.981H342.263V275.2H359.346V369.893H404.115V275.2H421.021V236.981Z" fill="black"/>
<path d="M416.249 365.005V241.928H476.982V268.781H451.063V287.095H470.796V314.243H451.063V338.27H477.217V365.005H416.249Z" fill="white"/>
<path d="M472.034 246.815V263.893H446.174V291.983H465.907V309.355H446.174V343.217H472.328V360.118H421.139V246.815H472.092M481.871 236.981H411.36V369.893H482.165V333.382H456.011V319.131H475.745V282.208H456.011V273.669H481.871V236.981Z" fill="black"/>
<path d="M524.46 365.005L513.621 320.78V365.005H478.749V241.928H514.858C522.929 241.928 530.115 242.87 536.124 244.636C542.721 246.639 548.023 250.29 551.793 255.472C555.504 260.654 557.389 267.78 557.389 276.731C557.389 285.682 556.976 286.212 556.152 290.158C555.268 294.515 553.56 298.343 551.145 301.582C549.378 303.879 547.139 305.94 544.429 307.707L560.687 365.005H524.46ZM515.683 290.04C518.864 290.04 520.513 289.451 521.279 288.921C522.281 288.273 522.987 287.331 523.4 286.035C524.048 284.151 524.342 281.795 524.342 278.969C524.342 276.142 523.694 272.196 522.457 270.312C521.633 269.075 519.748 268.486 516.743 268.486H513.504V290.04H515.624H515.683Z" fill="white"/>
<path d="M514.858 246.815C522.516 246.815 529.114 247.64 534.71 249.348C540.306 250.997 544.665 254.059 547.787 258.358C550.909 262.715 552.499 268.84 552.499 276.731C552.499 284.622 552.146 285.564 551.38 289.157C550.614 292.808 549.26 295.929 547.257 298.579C545.254 301.229 542.368 303.467 538.656 305.233L554.208 360.059H528.348L515.919 309.297H508.791V360.059H483.756V246.757H514.976M508.732 294.928H515.742C519.276 294.928 522.045 294.28 523.989 293.043C525.933 291.807 527.346 289.981 528.112 287.567C528.878 285.211 529.29 282.325 529.29 278.969C529.29 274.14 528.407 270.371 526.64 267.662C524.872 264.953 521.633 263.599 516.861 263.599H508.732V294.928ZM514.858 236.981H473.86V369.893H518.511V361.354L518.805 362.473L520.631 369.952H567.167L563.633 357.468L550.084 309.709C552.028 308.178 553.678 306.47 555.091 304.585C557.978 300.758 559.981 296.282 560.982 291.218C561.866 286.919 562.278 282.09 562.278 276.79C562.278 266.779 560.098 258.711 555.739 252.645C551.321 246.521 545.195 242.281 537.537 239.984C531.058 238.041 523.4 237.04 514.858 237.04V236.981ZM518.511 284.799V273.492C518.569 273.492 518.628 273.492 518.687 273.492C519.041 274.258 519.453 275.907 519.453 278.91C519.453 281.913 519.1 283.503 518.746 284.445C518.746 284.622 518.628 284.681 518.628 284.74C518.628 284.74 518.57 284.74 518.452 284.74L518.511 284.799Z" fill="black"/>
<path d="M348.036 492.205V369.128H408.709V395.981H382.849V414.295H402.583V441.443H382.849V465.529H409.004V492.205H348.036Z" fill="white"/>
<path d="M403.82 374.015V391.093H377.96V419.183H397.694V436.555H377.96V470.417H404.115V487.318H352.925V374.015H403.879M413.658 364.24H343.147V497.152H413.952V460.641H387.798V446.39H407.531V409.467H387.798V400.928H413.658V364.24Z" fill="black"/>
<path d="M475.038 492.205L474.154 460.759L468.676 492.205H444.642L438.575 459.287L437.868 492.205H410.064L412.185 369.128H447.882L456.482 414.472L465.731 369.128H500.426L502.547 492.205H475.038Z" fill="white"/>
<path d="M495.596 374.015L497.54 487.318H479.75L477.63 411.94L464.494 487.318H448.707L434.687 411.351L433.038 487.318H415.012L416.956 374.015H443.817L456.247 439.912L469.677 374.015H495.537M505.257 364.24H461.725L460.135 372.072L456.659 389.091L453.478 372.249L451.947 364.299H407.354L407.178 373.957L405.234 487.259L405.057 497.211H507.554L507.377 487.259L505.433 373.957L505.257 364.299V364.24Z" fill="black"/>
<path d="M552.264 492.205L548.494 468.297H540.188L536.241 492.205H502.547L525.815 369.128H562.514L585.487 492.205H552.323H552.264ZM544.724 443.563L544.312 440.619L543.899 443.563H544.724Z" fill="white"/>
<path d="M558.449 374.015L579.596 487.318H556.505L552.735 463.409H536.065L532.118 487.318H508.497L529.88 374.015H558.449ZM538.303 448.451H550.32L544.312 404.225L538.303 448.451ZM566.578 364.24H521.751L520.219 372.249L498.836 485.551L496.656 497.152H540.483L541.838 488.967L544.371 473.42L546.845 488.908L548.14 497.152H591.378L589.198 485.551L568.051 372.249L566.578 364.24Z" fill="black"/>
<path d="M621.125 369.128H586.253V492.205H621.125V369.128Z" fill="white"/>
<path d="M616.236 374.015V487.318H591.201V374.015H616.236ZM626.014 364.24H581.364V497.152H626.014V364.24Z" fill="black"/>
<path d="M628.253 492.205V369.128H663.067V465.529H689.103V492.205H628.253Z" fill="white"/>
<path d="M658.177 374.015V470.358H684.214V487.259H633.142V373.957H658.177M668.015 364.24H623.364V497.152H694.051V460.641H668.015V364.299V364.24Z" fill="black"/>
<path d="M724.094 493.913C716.2 493.913 709.485 492.441 704.006 489.555C698.293 486.552 693.934 481.841 691.047 475.599C688.337 469.769 686.865 462.231 686.57 453.221L686.452 448.863L714.374 444.682C714.079 444.447 713.785 444.152 713.49 443.917L703.712 435.378C699.058 431.432 695.112 426.898 691.931 421.892C688.514 416.474 686.747 409.879 686.747 402.105C686.747 391.093 690.164 382.437 696.938 376.43C703.535 370.541 712.43 367.538 723.446 367.538C734.461 367.538 736.051 368.774 740.469 371.248C744.946 373.721 748.363 377.078 750.719 381.141C752.899 384.91 754.43 388.973 755.196 393.154C755.962 397.041 756.374 400.869 756.492 404.52L756.61 408.995L727.864 412.529C728.57 413.177 729.277 413.883 730.102 414.59L739.409 422.834C744.711 427.31 749.188 432.492 752.84 438.145C756.728 444.211 758.73 451.749 758.73 460.523C758.73 469.298 757.317 472.36 754.489 477.365C751.662 482.489 747.538 486.552 742.354 489.497C737.171 492.441 731.103 493.913 724.211 493.913H724.094ZM717.79 449.747C717.849 454.163 718.262 457.755 718.969 460.347C719.675 463.114 720.559 464.115 720.854 464.41C721.266 464.763 721.796 465.117 722.798 465.117C723.799 465.117 723.387 465.117 723.563 465.117C723.976 464.057 724.211 462.997 724.211 461.819C724.211 458.168 723.387 455.223 721.737 452.809C720.618 451.219 719.322 449.629 717.732 448.039V449.864L717.79 449.747ZM722.562 395.745C721.973 395.745 721.914 395.804 721.737 396.158C721.03 397.394 720.736 398.572 720.736 399.691C720.736 402.812 721.384 405.227 722.739 406.993C723.446 407.935 724.211 408.878 725.095 409.82V407.464C724.918 404.284 724.741 401.517 724.447 399.22C724.152 397.1 723.681 396.158 723.387 395.804C723.387 395.804 723.092 395.687 722.562 395.687V395.745Z" fill="white"/>
<path d="M723.387 372.484C729.454 372.484 734.343 373.485 737.995 375.547C741.706 377.608 744.475 380.258 746.419 383.614C748.304 386.912 749.659 390.445 750.366 394.097C751.073 397.807 751.485 401.281 751.544 404.638L729.984 407.288C729.866 403.931 729.69 401.045 729.336 398.572C728.983 396.099 728.335 394.214 727.333 392.86C726.332 391.505 724.741 390.858 722.562 390.858C720.382 390.858 718.497 391.859 717.437 393.802C716.377 395.745 715.847 397.748 715.847 399.691C715.847 403.872 716.848 407.288 718.851 409.997C720.854 412.647 723.504 415.414 726.744 418.3L736.11 426.544C741.058 430.725 745.241 435.495 748.657 440.795C752.074 446.095 753.782 452.691 753.782 460.523C753.782 468.355 752.545 470.652 750.13 475.01C747.715 479.368 744.298 482.783 739.821 485.315C735.403 487.848 730.161 489.084 724.093 489.084C718.026 489.084 711.075 487.848 706.304 485.315C701.532 482.783 697.939 478.897 695.524 473.655C693.109 468.414 691.754 461.583 691.459 453.162L712.842 449.923C712.96 454.752 713.372 458.698 714.197 461.701C714.963 464.704 716.082 466.824 717.555 468.12C719.028 469.415 720.736 470.063 722.797 470.063C724.859 470.063 727.098 469.18 727.922 467.413C728.688 465.647 729.1 463.762 729.1 461.819C729.1 457.167 727.981 453.221 725.743 449.982C723.504 446.743 720.5 443.504 716.671 440.265L706.893 431.727C702.593 428.075 698.999 423.953 696.054 419.36C693.109 414.767 691.636 409.054 691.636 402.223C691.636 395.392 694.464 385.263 700.178 380.199C705.891 375.134 713.608 372.602 723.387 372.602M723.387 362.709C711.134 362.709 701.12 366.124 693.639 372.838C685.804 379.845 681.858 389.68 681.858 402.164C681.858 414.649 683.86 418.359 687.807 424.542C691.224 429.96 695.524 434.848 700.531 439.088L703.182 441.384L690.046 443.328L681.445 444.623L681.74 453.339C682.093 463.114 683.684 471.064 686.688 477.601C690.046 484.844 695.112 490.321 701.768 493.854C707.953 497.093 715.434 498.742 724.093 498.742C732.753 498.742 738.761 497.034 744.652 493.678C750.66 490.262 755.373 485.551 758.671 479.662C761.911 473.891 763.561 467.413 763.561 460.405C763.561 453.398 761.322 442.268 756.904 435.378C753.016 429.312 748.186 423.777 742.531 419.007L739.115 416.003L752.722 414.354L761.558 413.235L761.322 404.343C761.204 400.457 760.733 396.393 759.967 392.212C759.084 387.442 757.375 382.908 754.901 378.668C752.074 373.839 748.009 369.893 742.767 366.949C737.642 364.063 731.103 362.65 723.387 362.65V362.709Z" fill="black"/>
<path d="M310.218 517.764C305.388 517.764 301.323 514.819 299.792 510.226L275.817 438.264C275.699 437.851 275.346 437.557 274.992 437.439L201.241 412.824C196.647 411.292 193.701 407.17 193.701 402.341C193.701 397.512 196.706 393.39 201.3 391.918L353.809 342.098C354.928 341.745 356.106 341.568 357.284 341.568C360.76 341.568 364.058 343.217 366.12 346.044C368.182 348.87 368.83 352.404 367.769 355.76L320.821 509.931C319.407 514.584 315.166 517.705 310.277 517.705L310.218 517.764Z" fill="#B337F0"/>
<path d="M357.225 346.397C361.172 346.397 364.353 350.284 363.116 354.347L316.168 508.518C315.284 511.404 312.751 512.876 310.277 512.876C307.803 512.876 305.388 511.462 304.445 508.636L280.47 436.674C279.881 434.848 278.409 433.376 276.583 432.787L202.832 408.171C197.177 406.287 197.236 398.278 202.832 396.452L355.34 346.632C355.988 346.397 356.636 346.338 357.284 346.338M357.225 336.739C355.576 336.739 353.868 337.034 352.277 337.505L199.769 387.325C193.23 389.445 188.871 395.51 188.812 402.341C188.812 409.172 193.171 415.238 199.651 417.417L271.693 441.444L295.138 511.698C297.318 518.294 303.208 522.534 310.159 522.534C317.11 522.534 323.295 517.999 325.357 511.286L372.305 357.115C373.778 352.286 372.894 347.162 369.89 343.099C366.886 339.036 362.114 336.68 357.166 336.68L357.225 336.739Z" fill="black"/>
<path d="M326.653 384.498L268.277 433.317C267.864 433.67 267.747 434.2 268.041 434.495L277.82 444.27C278.114 444.565 278.644 444.447 278.998 444.035L327.595 385.44C328.361 384.616 327.478 383.791 326.653 384.498Z" fill="black"/>
<rect x="338.791" y="279" width="172" height="47" rx="14" fill="#3CB9FC"/>
<path d="M398.503 312V293.37H404.759C405.878 293.37 406.798 293.585 407.519 294.014C408.239 294.428 408.776 295.041 409.129 295.854C409.481 296.651 409.658 297.625 409.658 298.775C409.658 300.216 409.42 301.32 408.945 302.087C408.469 302.838 407.825 303.36 407.013 303.651C406.2 303.942 405.288 304.088 404.276 304.088H402.62V312H398.503ZM402.62 301.213H404C404.506 301.213 404.889 301.121 405.15 300.937C405.41 300.753 405.579 300.477 405.656 300.109C405.748 299.741 405.794 299.273 405.794 298.706C405.794 298.231 405.755 297.817 405.679 297.464C405.617 297.096 405.456 296.805 405.196 296.59C404.935 296.375 404.529 296.268 403.977 296.268H402.62V301.213ZM411.642 312V293.37H415.759V309.217H420.037V312H411.642ZM420.943 312L424.462 293.37H429.154L432.627 312H428.832L428.211 308.067H425.474L424.83 312H420.943ZM425.842 305.606H427.82L426.831 298.338L425.842 305.606ZM435.843 312V304.387L432.301 293.37H436.188L437.959 299.258L439.546 293.37H443.272L439.799 304.387V312H435.843Z" fill="white"/>
<path d="M470.628 286.278H486.055L500.621 302.139L486.055 318H470.628L485.265 302.139L470.628 286.278Z" fill="white"/>
</svg>
